<svg id="Calque_1" data-name="Calque 1" xmlns="http://www.w3.org/2000/svg" viewBox="0 0 801.14 928.16"><defs><style>.cls-1,.cls-2{fill:none;stroke:#000;stroke-miterlimit:10;}.cls-1{stroke-width:2px;}.cls-3{font-size:110px;font-family:MyriadPro-Regular, Myriad Pro;}.cls-4{font-size:36px;}.cls-4,.cls-5,.cls-6{font-family:ArialMT, Arial;}.cls-5,.cls-6{font-size:18px;}.cls-6{letter-spacing:-0.06em;}.cls-7{letter-spacing:-0.07em;}</style></defs><title>2_3_50D_algebreai</title><line class="cls-1" x1="200.39" y1="212.97" x2="353.78" y2="212.97"/><polygon points="350.86 222.94 368.13 212.97 350.86 203 350.86 222.94"/><line class="cls-1" x1="225.93" y1="241.03" x2="225.93" y2="87.64"/><polygon points="235.9 90.56 225.93 73.29 215.96 90.56 235.9 90.56"/><rect class="cls-2" x="109.24" y="0.5" width="691.4" height="927.16"/><line class="cls-2" x1="109.24" y1="618.6" x2="800.64" y2="618.6"/><line class="cls-2" x1="109.24" y1="309.55" x2="800.64" y2="309.55"/><line class="cls-2" x1="454.94" y1="0.5" x2="454.94" y2="927.66"/><text class="cls-3" transform="translate(269.3 807.31)">?</text><text class="cls-4" transform="translate(20.02 175.43)">2D</text><text class="cls-4" transform="translate(20.02 473.68)">3D</text><text class="cls-4" transform="translate(0 773.66)">50D</text><line class="cls-2" x1="267.92" y1="213.82" x2="267.92" y2="221.99"/><line class="cls-2" x1="310.03" y1="213.82" x2="310.03" y2="221.99"/><line class="cls-2" x1="225.81" y1="213.82" x2="225.81" y2="221.99"/><line class="cls-2" x1="225.41" y1="170.46" x2="217.24" y2="170.46"/><line class="cls-2" x1="225.41" y1="212.56" x2="217.24" y2="212.56"/><line class="cls-2" x1="225.41" y1="128.35" x2="217.24" y2="128.35"/><text class="cls-5" transform="translate(203.75 134.04)">2</text><text class="cls-5" transform="translate(203.75 174.02)">1</text><text class="cls-5" transform="translate(261.73 240.42)">1</text><text class="cls-5" transform="translate(304.79 240.42)">2</text><text class="cls-5" transform="translate(209.07 232.35)">0</text><line class="cls-2" x1="319.85" y1="522.41" x2="319.85" y2="529.94"/><line class="cls-2" x1="358.67" y1="545.07" x2="358.67" y2="552.6"/><line class="cls-2" x1="281.03" y1="500.66" x2="281.03" y2="508.19"/><text class="cls-5" transform="translate(261.21 424.4)">2</text><text class="cls-5" transform="translate(261.21 462.16)">1</text><text class="cls-5" transform="translate(313.75 546.02)">1</text><text class="cls-5" transform="translate(353.45 568.68)">2</text><text class="cls-5" transform="translate(255.49 507.06)">0</text><circle cx="267.98" cy="171.17" r="2.98"/><text class="cls-6" transform="translate(277.16 168.51)">A</text><circle cx="320.55" cy="481.41" r="2.7"/><text class="cls-6" transform="translate(328.35 479.01)">A</text><text class="cls-5" transform="translate(376.04 219.05)">x</text><text class="cls-5" transform="translate(398.92 575.82)">x</text><text class="cls-5" transform="translate(222.48 61.36)">y</text><text class="cls-5" transform="translate(276.83 360.55)">y</text><text class="cls-5" transform="translate(152.85 575.82)">z</text><text class="cls-4" transform="translate(580.64 203.24)">A(1,1)</text><text class="cls-4" transform="translate(582.66 126.72)">A(x,y)</text><text class="cls-4" transform="translate(565.62 514.68)">A(1,1,0)</text><text class="cls-4" transform="translate(569.99 438.17)">A(x,<tspan class="cls-7" x="64" y="0">y</tspan><tspan x="79.33" y="0">,z)</tspan></text><text class="cls-4" transform="translate(486.58 827.7)">A(1,1,0,a,b,c,d,...)</text><text class="cls-4" transform="translate(490.95 751.19)">A(x,<tspan class="cls-7" x="64" y="0">y</tspan><tspan x="79.33" y="0">,z,a,b,c,d,...)</tspan></text><line class="cls-1" x1="281.33" y1="518.4" x2="281.33" y2="385.57"/><polygon points="291.3 388.49 281.33 371.22 271.36 388.49 291.3 388.49"/><line class="cls-1" x1="266.08" y1="491.08" x2="381.12" y2="557.49"/><polygon points="373.61 564.67 393.55 564.67 383.58 547.4 373.61 564.67"/><line class="cls-1" x1="296.58" y1="491.08" x2="181.54" y2="557.49"/><polygon points="179.08 547.4 169.11 564.67 189.06 564.67 179.08 547.4"/><line class="cls-2" x1="280.73" y1="461.87" x2="274.2" y2="458.11"/><line class="cls-2" x1="280.73" y1="422.77" x2="274.2" y2="419.01"/></svg>