<svg id="Calque_1" data-name="Calque 1" xmlns="http://www.w3.org/2000/svg" viewBox="0 0 801.14 928.16"><defs><style>.cls-1,.cls-2{fill:none;stroke:#000;stroke-miterlimit:10;}.cls-1{stroke-width:2px;}.cls-3{font-size:110px;font-family:MyriadPro-Regular, Myriad Pro;}.cls-4{font-size:36px;font-family:ArialMT, Arial;}</style></defs><title>2_3_50D</title><line class="cls-1" x1="200.39" y1="212.97" x2="353.78" y2="212.97"/><polygon points="350.86 222.94 368.13 212.97 350.86 203 350.86 222.94"/><line class="cls-1" x1="225.93" y1="241.03" x2="225.93" y2="87.64"/><polygon points="235.9 90.56 225.93 73.29 215.96 90.56 235.9 90.56"/><line class="cls-1" x1="547.71" y1="213.97" x2="701.1" y2="213.97"/><polygon points="698.18 223.94 715.45 213.97 698.18 204 698.18 223.94"/><line class="cls-1" x1="573.25" y1="242.03" x2="573.25" y2="88.64"/><polygon points="583.22 91.56 573.25 74.29 563.27 91.56 583.22 91.56"/><line class="cls-1" x1="612.97" y1="179.16" x2="685.48" y2="179.16"/><line class="cls-1" x1="268.86" y1="180.42" x2="268.86" y2="107.91"/><rect class="cls-2" x="109.24" y="0.5" width="691.4" height="927.16"/><line class="cls-2" x1="109.24" y1="618.6" x2="800.64" y2="618.6"/><line class="cls-2" x1="109.24" y1="309.55" x2="800.64" y2="309.55"/><line class="cls-2" x1="454.94" y1="0.5" x2="454.94" y2="927.66"/><text class="cls-3" transform="translate(269.3 807.31)">?</text><text class="cls-3" transform="translate(611.37 807.31)">?</text><text class="cls-4" transform="translate(20.02 175.43)">2D</text><text class="cls-4" transform="translate(20.02 473.68)">3D</text><text class="cls-4" transform="translate(0 773.66)">50D</text><line class="cls-1" x1="280.26" y1="507.64" x2="280.26" y2="380.34"/><polygon points="290.23 383.26 280.26 365.99 270.29 383.26 290.23 383.26"/><line class="cls-1" x1="265.59" y1="481.34" x2="375.83" y2="544.99"/><polygon points="368.32 552.17 388.26 552.17 378.29 534.9 368.32 552.17"/><line class="cls-1" x1="294.93" y1="481.34" x2="184.69" y2="544.99"/><polygon points="182.23 534.9 172.26 552.17 192.2 552.17 182.23 534.9"/><line class="cls-1" x1="625.37" y1="507.64" x2="625.37" y2="380.34"/><polygon points="635.34 383.26 625.37 365.99 615.39 383.26 635.34 383.26"/><line class="cls-1" x1="610.69" y1="481.34" x2="720.94" y2="544.99"/><polygon points="713.42 552.17 733.37 552.17 723.4 534.9 713.42 552.17"/><line class="cls-1" x1="640.04" y1="481.34" x2="529.79" y2="544.99"/><polygon points="527.34 534.9 517.37 552.17 537.31 552.17 527.34 534.9"/><line class="cls-1" x1="320.92" y1="466.07" x2="320.92" y2="402.46"/><line class="cls-1" x1="664.21" y1="469.15" x2="719.3" y2="500.96"/></svg>