<svg id="Calque_1" data-name="Calque 1" xmlns="http://www.w3.org/2000/svg" viewBox="0 0 692.25 211.92"><defs><style>.cls-1,.cls-2,.cls-3{fill:none;}.cls-1,.cls-2,.cls-3,.cls-5{stroke:#000;stroke-miterlimit:10;}.cls-1{stroke-width:2px;}.cls-3{stroke-width:0.5px;}.cls-4{font-size:21px;}.cls-4,.cls-6{font-family:ArialMT, Arial;}.cls-6{font-size:18px;}.cls-7{letter-spacing:-0.11em;}</style></defs><title>avec_gravite_sans</title><line class="cls-1" x1="230.32" y1="1.28" x2="230.32" y2="211.92"/><line class="cls-1" x1="479.1" y1="1.28" x2="479.1" y2="211.92"/><circle class="cls-1" cx="106.02" cy="146.22" r="57.65"/><polyline class="cls-2" points="104.38 88.06 109.83 80.24 113.57 88.41"/><line class="cls-2" x1="109.82" y1="80.24" x2="110.97" y2="68.32"/><circle class="cls-3" cx="111.28" cy="66.05" r="2.46"/><line class="cls-3" x1="110.89" y1="69.34" x2="105.4" y2="73.98"/><line class="cls-3" x1="114.63" y1="74.19" x2="110.85" y2="69.6"/><text class="cls-4" transform="translate(0 27.71)">gravité + 3 interactions</text><path d="M759.88,299.28l1.84-.25a4,4,0,0,0,1.08,2.26,2.68,2.68,0,0,0,1.86.69,3,3,0,0,0,2.2-.9,3,3,0,0,0,.9-2.23,2.82,2.82,0,0,0-2.94-2.92,5.15,5.15,0,0,0-1.31.2l.21-1.62.3,0a3.81,3.81,0,0,0,2.12-.61,2.11,2.11,0,0,0,.94-1.9,2.25,2.25,0,0,0-.68-1.68,2.43,2.43,0,0,0-1.78-.67,2.51,2.51,0,0,0-1.79.68,3.41,3.41,0,0,0-.93,2l-1.84-.33a4.77,4.77,0,0,1,1.54-2.88,4.44,4.44,0,0,1,3-1,5,5,0,0,1,2.27.53,3.75,3.75,0,0,1,1.58,1.44,3.68,3.68,0,0,1,.55,1.94,3.22,3.22,0,0,1-.52,1.77,3.53,3.53,0,0,1-1.55,1.27,3.53,3.53,0,0,1,2.07,1.28,3.92,3.92,0,0,1,.74,2.43,4.41,4.41,0,0,1-1.44,3.33,5,5,0,0,1-3.63,1.37,4.69,4.69,0,0,1-3.28-1.18A4.48,4.48,0,0,1,759.88,299.28Z" transform="translate(-220.88 -288.13)"/><path d="M777.9,290.34v-2.13h1.85v2.13Zm0,12.91V292.36h1.85v10.89Z" transform="translate(-220.88 -288.13)"/><path d="M782.56,303.25V292.36h1.66v1.54a3.92,3.92,0,0,1,3.46-1.79,4.64,4.64,0,0,1,1.81.35,2.9,2.9,0,0,1,1.24.93,3.68,3.68,0,0,1,.57,1.37,10.15,10.15,0,0,1,.11,1.79v6.7h-1.85v-6.63a4.75,4.75,0,0,0-.22-1.68,1.75,1.75,0,0,0-.76-.9,2.45,2.45,0,0,0-1.29-.33,3,3,0,0,0-2,.75,3.69,3.69,0,0,0-.86,2.84v5.95Z" transform="translate(-220.88 -288.13)"/><path d="M798.27,301.6l.26,1.63a6.74,6.74,0,0,1-1.39.16,3.18,3.18,0,0,1-1.56-.32,1.78,1.78,0,0,1-.78-.83,6.64,6.64,0,0,1-.23-2.18v-6.27h-1.35v-1.43h1.35v-2.7l1.84-1.11v3.81h1.86v1.43h-1.86v6.37a3.1,3.1,0,0,0,.1,1,.71.71,0,0,0,.31.35,1.24,1.24,0,0,0,.64.14A7.79,7.79,0,0,0,798.27,301.6Z" transform="translate(-220.88 -288.13)"/><path d="M807.53,299.74l1.9.24a4.69,4.69,0,0,1-1.67,2.59,5.66,5.66,0,0,1-6.9-.55,5.73,5.73,0,0,1-1.4-4.13,6,6,0,0,1,1.41-4.26,4.8,4.8,0,0,1,3.67-1.52,4.66,4.66,0,0,1,3.57,1.49,5.9,5.9,0,0,1,1.38,4.18c0,.11,0,.28,0,.49h-8.12a4.17,4.17,0,0,0,1,2.75,3,3,0,0,0,2.27,1,2.82,2.82,0,0,0,1.74-.54A3.56,3.56,0,0,0,807.53,299.74Zm-6.07-3h6.08a3.72,3.72,0,0,0-.69-2.07,2.83,2.83,0,0,0-2.29-1.06,2.93,2.93,0,0,0-2.14.85A3.46,3.46,0,0,0,801.46,296.76Z" transform="translate(-220.88 -288.13)"/><path d="M811.73,303.25V292.36h1.66V294a4.65,4.65,0,0,1,1.17-1.53,2,2,0,0,1,1.19-.37,3.55,3.55,0,0,1,1.89.6l-.63,1.71a2.6,2.6,0,0,0-1.35-.4,1.76,1.76,0,0,0-1.09.36,2,2,0,0,0-.69,1,7.42,7.42,0,0,0-.31,2.16v5.7Z" transform="translate(-220.88 -288.13)"/><path d="M825.85,301.9a6.79,6.79,0,0,1-2,1.23,5.76,5.76,0,0,1-2,.36,4,4,0,0,1-2.76-.87,2.92,2.92,0,0,1-1-2.24,3,3,0,0,1,1.31-2.53,4.87,4.87,0,0,1,1.33-.6,12.78,12.78,0,0,1,1.64-.28,17.54,17.54,0,0,0,3.29-.63c0-.26,0-.42,0-.49a2,2,0,0,0-.53-1.59,3.12,3.12,0,0,0-2.1-.62,3.19,3.19,0,0,0-1.92.46,2.74,2.74,0,0,0-.92,1.61l-1.81-.25a4.67,4.67,0,0,1,.81-1.87,3.54,3.54,0,0,1,1.64-1.09,7.15,7.15,0,0,1,2.47-.39,6.46,6.46,0,0,1,2.26.33,3,3,0,0,1,1.28.82,2.93,2.93,0,0,1,.58,1.26,10.67,10.67,0,0,1,.09,1.7v2.46a25.77,25.77,0,0,0,.12,3.26,4.27,4.27,0,0,0,.46,1.31h-1.92A3.88,3.88,0,0,1,825.85,301.9Zm-.16-4.12a13,13,0,0,1-3,.7,6.75,6.75,0,0,0-1.61.37,1.56,1.56,0,0,0-1,1.47,1.58,1.58,0,0,0,.55,1.24,2.47,2.47,0,0,0,1.64.49,3.85,3.85,0,0,0,1.9-.47,2.9,2.9,0,0,0,1.22-1.28,4.41,4.41,0,0,0,.29-1.84Z" transform="translate(-220.88 -288.13)"/><path d="M837.53,299.26l1.81.23a4.71,4.71,0,0,1-1.52,2.94,4.43,4.43,0,0,1-3,1.06,4.64,4.64,0,0,1-3.59-1.46,5.9,5.9,0,0,1-1.36-4.19,7.56,7.56,0,0,1,.58-3.08,4.08,4.08,0,0,1,1.78-2,5.29,5.29,0,0,1,2.6-.66,4.51,4.51,0,0,1,2.9.9,4.13,4.13,0,0,1,1.45,2.55l-1.8.27a3,3,0,0,0-.9-1.65,2.36,2.36,0,0,0-1.58-.55,2.84,2.84,0,0,0-2.26,1,4.68,4.68,0,0,0-.88,3.16,4.91,4.91,0,0,0,.85,3.19,2.74,2.74,0,0,0,2.19,1,2.64,2.64,0,0,0,1.82-.67A3.36,3.36,0,0,0,837.53,299.26Z" transform="translate(-220.88 -288.13)"/><path d="M845,301.6l.27,1.63a6.83,6.83,0,0,1-1.4.16,3.12,3.12,0,0,1-1.55-.32,1.78,1.78,0,0,1-.78-.83,6.64,6.64,0,0,1-.23-2.18v-6.27h-1.35v-1.43h1.35v-2.7l1.84-1.11v3.81H845v1.43H843.1v6.37a3.54,3.54,0,0,0,.09,1,.73.73,0,0,0,.32.35,1.23,1.23,0,0,0,.63.14A7.37,7.37,0,0,0,845,301.6Z" transform="translate(-220.88 -288.13)"/><path d="M846.77,290.34v-2.13h1.84v2.13Zm0,12.91V292.36h1.84v10.89Z" transform="translate(-220.88 -288.13)"/><path d="M850.73,297.8a5.59,5.59,0,0,1,1.69-4.48,5,5,0,0,1,3.42-1.21,4.88,4.88,0,0,1,3.67,1.47,5.61,5.61,0,0,1,1.43,4.07,7.17,7.17,0,0,1-.63,3.3,4.45,4.45,0,0,1-1.84,1.88,5.38,5.38,0,0,1-2.63.66,4.93,4.93,0,0,1-3.7-1.46A5.92,5.92,0,0,1,850.73,297.8Zm1.9,0a4.66,4.66,0,0,0,.91,3.13,3,3,0,0,0,4.59,0,4.75,4.75,0,0,0,.91-3.19,4.49,4.49,0,0,0-.92-3.06,3.05,3.05,0,0,0-4.58,0A4.68,4.68,0,0,0,852.63,297.8Z" transform="translate(-220.88 -288.13)"/><path d="M863.1,303.25V292.36h1.66v1.54a3.93,3.93,0,0,1,3.47-1.79,4.67,4.67,0,0,1,1.81.35,2.87,2.87,0,0,1,1.23.93,3.53,3.53,0,0,1,.58,1.37,10.43,10.43,0,0,1,.1,1.79v6.7H870.1v-6.63a5,5,0,0,0-.21-1.68,1.8,1.8,0,0,0-.76-.9,2.48,2.48,0,0,0-1.29-.33,3,3,0,0,0-2,.75,3.69,3.69,0,0,0-.85,2.84v5.95Z" transform="translate(-220.88 -288.13)"/><path d="M874,300l1.83-.29a2.53,2.53,0,0,0,.85,1.68,3,3,0,0,0,2,.59,2.91,2.91,0,0,0,1.88-.52,1.56,1.56,0,0,0,.62-1.22,1.11,1.11,0,0,0-.55-1,7.93,7.93,0,0,0-1.88-.63,18.36,18.36,0,0,1-2.82-.88,2.68,2.68,0,0,1-1.59-2.5,2.81,2.81,0,0,1,.33-1.35,3,3,0,0,1,.91-1,4,4,0,0,1,1.17-.54,5.53,5.53,0,0,1,1.6-.22,6.24,6.24,0,0,1,2.25.37,3.14,3.14,0,0,1,1.43,1,3.78,3.78,0,0,1,.63,1.69l-1.8.24a2,2,0,0,0-.71-1.31,2.65,2.65,0,0,0-1.67-.47,3,3,0,0,0-1.81.42,1.21,1.21,0,0,0-.55,1,1,1,0,0,0,.23.65,1.57,1.57,0,0,0,.71.49c.18.07.72.23,1.63.47a23.72,23.72,0,0,1,2.73.86,2.6,2.6,0,0,1,1.65,2.55,3.11,3.11,0,0,1-.53,1.74,3.52,3.52,0,0,1-1.56,1.26,5.74,5.74,0,0,1-2.29.44,5.11,5.11,0,0,1-3.24-.88A4.14,4.14,0,0,1,874,300Z" transform="translate(-220.88 -288.13)"/><path d="M885.76,303.25v-2.1h2.1v2.1a3.68,3.68,0,0,1-.41,1.87,2.65,2.65,0,0,1-1.3,1.1l-.51-.79a1.77,1.77,0,0,0,.86-.75,3.27,3.27,0,0,0,.31-1.43Z" transform="translate(-220.88 -288.13)"/><path d="M768.4,325.2l1.82-.29a2.54,2.54,0,0,0,.86,1.68,3,3,0,0,0,2,.59,2.92,2.92,0,0,0,1.89-.52,1.55,1.55,0,0,0,.61-1.22,1.12,1.12,0,0,0-.54-1,7.89,7.89,0,0,0-1.89-.63,18.14,18.14,0,0,1-2.81-.88,2.71,2.71,0,0,1-1.6-2.5,2.71,2.71,0,0,1,.34-1.35,2.9,2.9,0,0,1,.91-1,3.76,3.76,0,0,1,1.17-.54,5.5,5.5,0,0,1,1.59-.22,6.17,6.17,0,0,1,2.25.37,3,3,0,0,1,1.43,1,3.91,3.91,0,0,1,.64,1.69l-1.81.24a1.92,1.92,0,0,0-.71-1.31,2.62,2.62,0,0,0-1.66-.47,3,3,0,0,0-1.82.42,1.23,1.23,0,0,0-.54,1,1,1,0,0,0,.22.65,1.63,1.63,0,0,0,.71.49c.19.07.73.23,1.63.47a23.4,23.4,0,0,1,2.74.86,2.6,2.6,0,0,1,1.65,2.55,3.13,3.13,0,0,1-.54,1.74,3.5,3.5,0,0,1-1.55,1.26,5.79,5.79,0,0,1-2.3.44,5.09,5.09,0,0,1-3.23-.88A4,4,0,0,1,768.4,325.2Z" transform="translate(-220.88 -288.13)"/><path d="M786.74,327.1a6.46,6.46,0,0,1-2,1.23,5.72,5.72,0,0,1-2,.36,4,4,0,0,1-2.76-.87,2.92,2.92,0,0,1-1-2.24,3,3,0,0,1,1.32-2.53,4.68,4.68,0,0,1,1.32-.6,12.78,12.78,0,0,1,1.64-.28,17.68,17.68,0,0,0,3.3-.63c0-.26,0-.42,0-.49a2,2,0,0,0-.53-1.59,3.12,3.12,0,0,0-2.1-.62,3.19,3.19,0,0,0-1.92.46,2.8,2.8,0,0,0-.92,1.61l-1.8-.25a4.41,4.41,0,0,1,.81-1.87,3.5,3.5,0,0,1,1.63-1.09,7.15,7.15,0,0,1,2.47-.39,6.46,6.46,0,0,1,2.26.33,2.55,2.55,0,0,1,1.86,2.08,10.67,10.67,0,0,1,.09,1.7v2.46a25.66,25.66,0,0,0,.12,3.26,4,4,0,0,0,.47,1.31h-1.93A3.88,3.88,0,0,1,786.74,327.1Zm-.15-4.12a13.14,13.14,0,0,1-3,.7,6.88,6.88,0,0,0-1.61.37,1.61,1.61,0,0,0-.73.6,1.65,1.65,0,0,0,.31,2.11,2.44,2.44,0,0,0,1.63.49,3.82,3.82,0,0,0,1.9-.47,2.9,2.9,0,0,0,1.22-1.28,4.38,4.38,0,0,0,.3-1.84Z" transform="translate(-220.88 -288.13)"/><path d="M791.31,328.45V317.56H793v1.54a3.94,3.94,0,0,1,3.47-1.79,4.64,4.64,0,0,1,1.81.35,3,3,0,0,1,1.24.93,3.68,3.68,0,0,1,.57,1.37,10.43,10.43,0,0,1,.1,1.79v6.7h-1.84v-6.63a4.75,4.75,0,0,0-.22-1.68,1.75,1.75,0,0,0-.76-.9,2.48,2.48,0,0,0-1.29-.33,3,3,0,0,0-2,.75,3.69,3.69,0,0,0-.86,2.84v5.95Z" transform="translate(-220.88 -288.13)"/><path d="M802.26,325.2l1.82-.29a2.54,2.54,0,0,0,.86,1.68,3,3,0,0,0,2,.59,2.92,2.92,0,0,0,1.89-.52,1.55,1.55,0,0,0,.61-1.22,1.12,1.12,0,0,0-.54-1,7.89,7.89,0,0,0-1.89-.63,18.14,18.14,0,0,1-2.81-.88,2.71,2.71,0,0,1-1.19-1,2.75,2.75,0,0,1-.41-1.46,2.71,2.71,0,0,1,.34-1.35,3,3,0,0,1,.9-1,4,4,0,0,1,1.18-.54,5.41,5.41,0,0,1,1.59-.22,6.17,6.17,0,0,1,2.25.37,3,3,0,0,1,1.43,1,3.91,3.91,0,0,1,.64,1.69l-1.81.24a2,2,0,0,0-.71-1.31,2.62,2.62,0,0,0-1.66-.47,3,3,0,0,0-1.82.42,1.23,1.23,0,0,0-.54,1,1,1,0,0,0,.22.65,1.63,1.63,0,0,0,.71.49c.18.07.73.23,1.63.47a23.07,23.07,0,0,1,2.73.86,2.59,2.59,0,0,1,1.66,2.55,3.13,3.13,0,0,1-.54,1.74,3.55,3.55,0,0,1-1.55,1.26,5.82,5.82,0,0,1-2.3.44,5.09,5.09,0,0,1-3.23-.88A4,4,0,0,1,802.26,325.2Z" transform="translate(-220.88 -288.13)"/><path d="M819,329.35l1.79.27a1.76,1.76,0,0,0,.63,1.21,3.09,3.09,0,0,0,1.88.51,3.33,3.33,0,0,0,2-.51,2.6,2.6,0,0,0,.94-1.44,12.08,12.08,0,0,0,.13-2.37,3.79,3.79,0,0,1-3,1.43,4.11,4.11,0,0,1-3.48-1.62,6.25,6.25,0,0,1-1.23-3.89,7.36,7.36,0,0,1,.56-2.88,4.61,4.61,0,0,1,1.64-2,4.41,4.41,0,0,1,2.52-.72,3.92,3.92,0,0,1,3.18,1.56v-1.31h1.7V327a9,9,0,0,1-.52,3.6,3.75,3.75,0,0,1-1.64,1.68,5.69,5.69,0,0,1-2.76.62,5.25,5.25,0,0,1-3.15-.88A3,3,0,0,1,819,329.35Zm1.53-6.54a4.72,4.72,0,0,0,.85,3.13,2.8,2.8,0,0,0,4.26,0,5.71,5.71,0,0,0,0-6.09,2.77,2.77,0,0,0-2.14-1,2.64,2.64,0,0,0-2.09,1A4.41,4.41,0,0,0,820.52,322.81Z" transform="translate(-220.88 -288.13)"/><path d="M831,328.45V317.56h1.66v1.65a4.52,4.52,0,0,1,1.17-1.53,2,2,0,0,1,1.19-.37,3.55,3.55,0,0,1,1.89.6l-.63,1.71a2.6,2.6,0,0,0-1.36-.4,1.76,1.76,0,0,0-1.08.36,2,2,0,0,0-.69,1,7.42,7.42,0,0,0-.31,2.16v5.7Z" transform="translate(-220.88 -288.13)"/><path d="M845.11,327.1a6.62,6.62,0,0,1-2,1.23,5.67,5.67,0,0,1-2,.36,4,4,0,0,1-2.76-.87,2.92,2.92,0,0,1-1-2.24,3,3,0,0,1,1.31-2.53,4.87,4.87,0,0,1,1.33-.6,12.46,12.46,0,0,1,1.64-.28,17.54,17.54,0,0,0,3.29-.63c0-.26,0-.42,0-.49a2,2,0,0,0-.52-1.59,3.12,3.12,0,0,0-2.1-.62,3.25,3.25,0,0,0-1.93.46,2.79,2.79,0,0,0-.91,1.61l-1.81-.25a4.67,4.67,0,0,1,.81-1.87,3.56,3.56,0,0,1,1.63-1.09,7.19,7.19,0,0,1,2.47-.39,6.53,6.53,0,0,1,2.27.33,3,3,0,0,1,1.28.82,2.93,2.93,0,0,1,.58,1.26,10.67,10.67,0,0,1,.09,1.7v2.46a25.66,25.66,0,0,0,.12,3.26,4.27,4.27,0,0,0,.46,1.31h-1.93A3.88,3.88,0,0,1,845.11,327.1ZM845,323a13,13,0,0,1-3,.7,6.75,6.75,0,0,0-1.61.37,1.59,1.59,0,0,0-1,1.47,1.59,1.59,0,0,0,.56,1.24,2.47,2.47,0,0,0,1.64.49,3.78,3.78,0,0,0,1.89-.47,2.84,2.84,0,0,0,1.22-1.28,4.38,4.38,0,0,0,.3-1.84Z" transform="translate(-220.88 -288.13)"/><path d="M852.71,328.45l-4.15-10.89h2l2.34,6.52q.38,1.05.69,2.19.26-.86.69-2.07l2.42-6.64h1.9l-4.12,10.89Z" transform="translate(-220.88 -288.13)"/><path d="M860.19,315.54v-2.13H862v2.13Zm0,12.91V317.56H862v10.89Z" transform="translate(-220.88 -288.13)"/><path d="M868.88,326.8l.26,1.63a6.74,6.74,0,0,1-1.39.16,3.18,3.18,0,0,1-1.56-.32,1.78,1.78,0,0,1-.78-.83,6.64,6.64,0,0,1-.23-2.18V319h-1.35v-1.43h1.35v-2.7l1.84-1.11v3.81h1.86V319H867v6.37a3.06,3.06,0,0,0,.1,1,.71.71,0,0,0,.31.35,1.23,1.23,0,0,0,.63.14A7.73,7.73,0,0,0,868.88,326.8Z" transform="translate(-220.88 -288.13)"/><path d="M878.13,324.94l1.91.24a4.69,4.69,0,0,1-1.67,2.59,5.68,5.68,0,0,1-6.91-.55,5.77,5.77,0,0,1-1.4-4.13,6,6,0,0,1,1.42-4.26,4.8,4.8,0,0,1,3.67-1.52,4.67,4.67,0,0,1,3.57,1.49A5.9,5.9,0,0,1,880.1,323c0,.11,0,.28,0,.49H872a4.17,4.17,0,0,0,1,2.75,3,3,0,0,0,2.27,1,2.82,2.82,0,0,0,1.74-.54A3.55,3.55,0,0,0,878.13,324.94Zm-6.06-3h6.08a3.66,3.66,0,0,0-.69-2.06,2.81,2.81,0,0,0-2.29-1.07,2.93,2.93,0,0,0-2.14.85A3.41,3.41,0,0,0,872.07,322Zm2-5.76,1.37-2.87h2.42l-2.26,2.87Z" transform="translate(-220.88 -288.13)"/><polyline class="cls-2" points="595.89 136.48 596.59 126.97 603.98 132.09"/><line class="cls-2" x1="596.59" y1="126.97" x2="591.51" y2="116.13"/><circle class="cls-3" cx="590.62" cy="114.02" r="2.46"/><line class="cls-3" x1="591.96" y1="117.05" x2="589.6" y2="123.84"/><line class="cls-3" x1="597.65" y1="119.32" x2="592.05" y2="117.29"/><path d="M743.17,367.58a1.5,1.5,0,0,0,0-3,1.5,1.5,0,0,0,0,3Z" transform="translate(-220.88 -288.13)"/><path d="M772.28,426.56a1.5,1.5,0,0,0,0-3,1.5,1.5,0,0,0,0,3Z" transform="translate(-220.88 -288.13)"/><path d="M783,482.47a1.5,1.5,0,0,0,0-3,1.5,1.5,0,0,0,0,3Z" transform="translate(-220.88 -288.13)"/><path d="M819.77,450.3a1.5,1.5,0,0,0,0-3,1.5,1.5,0,0,0,0,3Z" transform="translate(-220.88 -288.13)"/><path d="M770,402.81a1.5,1.5,0,0,0,0-3,1.5,1.5,0,0,0,0,3Z" transform="translate(-220.88 -288.13)"/><path d="M766.92,389a1.5,1.5,0,0,0,0-3,1.5,1.5,0,0,0,0,3Z" transform="translate(-220.88 -288.13)"/><path d="M737,432.69a1.5,1.5,0,0,0,0-3,1.5,1.5,0,0,0,0,3Z" transform="translate(-220.88 -288.13)"/><path d="M737.81,489.37a1.5,1.5,0,0,0,0-3,1.5,1.5,0,0,0,0,3Z" transform="translate(-220.88 -288.13)"/><path d="M819,474.05a1.5,1.5,0,0,0,0-3,1.5,1.5,0,0,0,0,3Z" transform="translate(-220.88 -288.13)"/><path d="M761.55,454.9a1.5,1.5,0,0,0,0-3,1.5,1.5,0,0,0,0,3Z" transform="translate(-220.88 -288.13)"/><path d="M832,483.24a1.5,1.5,0,0,0,0-3,1.5,1.5,0,0,0,0,3Z" transform="translate(-220.88 -288.13)"/><path d="M878,479.41a1.5,1.5,0,0,0,0-3,1.5,1.5,0,0,0,0,3Z" transform="translate(-220.88 -288.13)"/><path d="M887.94,447.24a1.5,1.5,0,0,0,0-3,1.5,1.5,0,0,0,0,3Z" transform="translate(-220.88 -288.13)"/><path d="M854.23,416.6a1.5,1.5,0,0,0,0-3,1.5,1.5,0,0,0,0,3Z" transform="translate(-220.88 -288.13)"/><path d="M886.37,390.59v-.77a1.5,1.5,0,0,0-3,0v.77a1.5,1.5,0,1,0,3,0Z" transform="translate(-220.88 -288.13)"/><path d="M846.57,364.52a1.5,1.5,0,0,0,0-3,1.5,1.5,0,0,0,0,3Z" transform="translate(-220.88 -288.13)"/><path d="M797.55,360.69a1.5,1.5,0,0,0,0-3,1.5,1.5,0,0,0,0,3Z" transform="translate(-220.88 -288.13)"/><path d="M793.72,386a1.5,1.5,0,0,0,0-3,1.5,1.5,0,0,0,0,3Z" transform="translate(-220.88 -288.13)"/><path d="M780.7,360.69a1.5,1.5,0,0,0,0-3,1.5,1.5,0,0,0,0,3Z" transform="translate(-220.88 -288.13)"/><path d="M784.53,353.79a1.5,1.5,0,0,0,0-3,1.5,1.5,0,0,0,0,3Z" transform="translate(-220.88 -288.13)"/><path d="M827.43,348.43a1.5,1.5,0,0,0,0-3,1.5,1.5,0,0,0,0,3Z" transform="translate(-220.88 -288.13)"/><path d="M838.15,392.09a1.5,1.5,0,0,0,0-3,1.5,1.5,0,0,0,0,3Z" transform="translate(-220.88 -288.13)"/><path d="M865.72,384.43a1.5,1.5,0,0,0,0-3,1.5,1.5,0,0,0,0,3Z" transform="translate(-220.88 -288.13)"/><path d="M878.74,446.47a1.5,1.5,0,0,0,0-3,1.5,1.5,0,0,0,0,3Z" transform="translate(-220.88 -288.13)"/><path d="M858.83,467.92a1.5,1.5,0,0,0,0-3,1.5,1.5,0,0,0,0,3Z" transform="translate(-220.88 -288.13)"/><path d="M856.53,456.43a1.5,1.5,0,0,0,0-3,1.5,1.5,0,0,0,0,3Z" transform="translate(-220.88 -288.13)"/><path d="M887.94,374.47a1.5,1.5,0,0,0,0-3,1.5,1.5,0,0,0,0,3Z" transform="translate(-220.88 -288.13)"/><path d="M855.77,356.86a1.5,1.5,0,0,0,0-3,1.5,1.5,0,0,0,0,3Z" transform="translate(-220.88 -288.13)"/><path d="M737,345.37a1.5,1.5,0,0,0,0-3,1.5,1.5,0,0,0,0,3Z" transform="translate(-220.88 -288.13)"/><path d="M871.85,350a1.5,1.5,0,0,0,0-3,1.5,1.5,0,0,0,0,3Z" transform="translate(-220.88 -288.13)"/><path d="M879.51,354.56a1.5,1.5,0,0,0,0-3,1.5,1.5,0,0,0,0,3Z" transform="translate(-220.88 -288.13)"/><path d="M903.26,425a1.5,1.5,0,0,0,0-3,1.5,1.5,0,0,0,0,3Z" transform="translate(-220.88 -288.13)"/><path d="M878,425.79a1.5,1.5,0,0,0,0-3,1.5,1.5,0,0,0,0,3Z" transform="translate(-220.88 -288.13)"/><path d="M911.68,469.45a1.5,1.5,0,0,0,0-3,1.5,1.5,0,0,0,0,3Z" transform="translate(-220.88 -288.13)"/><path d="M825.13,436.52a1.5,1.5,0,0,0,0-3,1.5,1.5,0,0,0,0,3Z" transform="translate(-220.88 -288.13)"/><path d="M782.23,447.24a1.5,1.5,0,0,0,0-3,1.5,1.5,0,0,0,0,3Z" transform="translate(-220.88 -288.13)"/><path d="M770,472.52a1.5,1.5,0,0,0,0-3,1.5,1.5,0,0,0,0,3Z" transform="translate(-220.88 -288.13)"/><path d="M747.77,475.58a1.5,1.5,0,0,0,0-3,1.5,1.5,0,0,0,0,3Z" transform="translate(-220.88 -288.13)"/><path d="M855.77,496.26a1.5,1.5,0,0,0,0-3,1.5,1.5,0,0,0,0,3Z" transform="translate(-220.88 -288.13)"/><path d="M745.47,399.75a1.5,1.5,0,0,0,0-3,1.5,1.5,0,0,0,0,3Z" transform="translate(-220.88 -288.13)"/><path d="M542.2,304.15l1.79.27a1.76,1.76,0,0,0,.63,1.21,3.07,3.07,0,0,0,1.87.51,3.29,3.29,0,0,0,2-.51,2.56,2.56,0,0,0,.95-1.44,12.08,12.08,0,0,0,.13-2.37,3.8,3.8,0,0,1-3,1.43,4.11,4.11,0,0,1-3.48-1.62,6.25,6.25,0,0,1-1.23-3.89,7.36,7.36,0,0,1,.56-2.88,4.55,4.55,0,0,1,1.64-2,4.39,4.39,0,0,1,2.52-.72,3.92,3.92,0,0,1,3.18,1.56v-1.31h1.7v9.41a9,9,0,0,1-.52,3.61,3.83,3.83,0,0,1-1.64,1.67,5.69,5.69,0,0,1-2.76.62,5.25,5.25,0,0,1-3.15-.88A3,3,0,0,1,542.2,304.15Zm1.53-6.54a4.72,4.72,0,0,0,.85,3.13,2.8,2.8,0,0,0,4.26,0,5.76,5.76,0,0,0,0-6.09,2.77,2.77,0,0,0-2.14-1,2.64,2.64,0,0,0-2.09,1A4.41,4.41,0,0,0,543.73,297.61Z" transform="translate(-220.88 -288.13)"/><path d="M554.19,303.25V292.36h1.67V294a4.52,4.52,0,0,1,1.17-1.53,2,2,0,0,1,1.18-.37,3.56,3.56,0,0,1,1.9.6l-.63,1.71a2.66,2.66,0,0,0-1.36-.4,1.76,1.76,0,0,0-1.08.36,1.92,1.92,0,0,0-.69,1,7.09,7.09,0,0,0-.31,2.16v5.7Z" transform="translate(-220.88 -288.13)"/><path d="M568.32,301.9a6.62,6.62,0,0,1-2,1.23,5.67,5.67,0,0,1-2,.36,4,4,0,0,1-2.76-.87,2.91,2.91,0,0,1-1-2.24,3.1,3.1,0,0,1,1.32-2.53,4.87,4.87,0,0,1,1.33-.6,12.46,12.46,0,0,1,1.64-.28,17.54,17.54,0,0,0,3.29-.63c0-.26,0-.42,0-.49a2,2,0,0,0-.52-1.59,3.12,3.12,0,0,0-2.1-.62,3.25,3.25,0,0,0-1.93.46,2.74,2.74,0,0,0-.91,1.61l-1.81-.25a4.67,4.67,0,0,1,.81-1.87,3.56,3.56,0,0,1,1.63-1.09,7.19,7.19,0,0,1,2.47-.39,6.53,6.53,0,0,1,2.27.33,3,3,0,0,1,1.28.82,2.93,2.93,0,0,1,.58,1.26,10.67,10.67,0,0,1,.09,1.7v2.46a25.66,25.66,0,0,0,.12,3.26,4.27,4.27,0,0,0,.46,1.31h-1.92A3.67,3.67,0,0,1,568.32,301.9Zm-.16-4.12a13,13,0,0,1-3,.7,6.75,6.75,0,0,0-1.61.37,1.59,1.59,0,0,0-1,1.48,1.59,1.59,0,0,0,.56,1.23,2.45,2.45,0,0,0,1.64.49,3.78,3.78,0,0,0,1.89-.47,2.84,2.84,0,0,0,1.22-1.28,4.38,4.38,0,0,0,.3-1.84Z" transform="translate(-220.88 -288.13)"/><path d="M575.91,303.25l-4.14-10.89h2l2.34,6.52q.38,1,.69,2.19.25-.85.69-2.07l2.42-6.64h1.9l-4.12,10.89Z" transform="translate(-220.88 -288.13)"/><path d="M583.4,290.34v-2.13h1.84v2.13Zm0,12.91V292.36h1.84v10.89Z" transform="translate(-220.88 -288.13)"/><path d="M592.08,301.6l.27,1.63a6.74,6.74,0,0,1-1.39.16,3.18,3.18,0,0,1-1.56-.32,1.78,1.78,0,0,1-.78-.83,6.6,6.6,0,0,1-.23-2.18v-6.27H587v-1.43h1.35v-2.7l1.84-1.11v3.81h1.85v1.43h-1.85v6.37a3.49,3.49,0,0,0,.09,1,.78.78,0,0,0,.32.35,1.23,1.23,0,0,0,.63.14A7.37,7.37,0,0,0,592.08,301.6Z" transform="translate(-220.88 -288.13)"/><path d="M601.34,299.74l1.91.24a4.65,4.65,0,0,1-1.67,2.59,5.68,5.68,0,0,1-6.91-.55,5.75,5.75,0,0,1-1.4-4.13,6,6,0,0,1,1.42-4.26,4.78,4.78,0,0,1,3.67-1.52,4.69,4.69,0,0,1,3.57,1.49,5.9,5.9,0,0,1,1.38,4.18c0,.11,0,.28,0,.49h-8.12a4.17,4.17,0,0,0,1,2.75,3,3,0,0,0,2.27,1,2.82,2.82,0,0,0,1.74-.54A3.55,3.55,0,0,0,601.34,299.74Zm-6.06-3h6.08a3.66,3.66,0,0,0-.69-2.06,2.81,2.81,0,0,0-2.29-1.07,2.93,2.93,0,0,0-2.14.85A3.37,3.37,0,0,0,595.28,296.76Zm2-5.76,1.37-2.87h2.42L598.8,291Z" transform="translate(-220.88 -288.13)"/><path d="M606.05,303.25v-2.1h2.1v2.1a3.78,3.78,0,0,1-.41,1.87,2.7,2.7,0,0,1-1.3,1.1l-.51-.79a1.77,1.77,0,0,0,.86-.75,3.41,3.41,0,0,0,.31-1.43Z" transform="translate(-220.88 -288.13)"/><path d="M488.68,325.2l1.83-.29a2.57,2.57,0,0,0,.85,1.68,3,3,0,0,0,2,.59,2.92,2.92,0,0,0,1.89-.52,1.55,1.55,0,0,0,.61-1.22,1.12,1.12,0,0,0-.54-1,8.26,8.26,0,0,0-1.89-.63,17.08,17.08,0,0,1-2.81-.88,2.71,2.71,0,0,1-1.19-1,2.75,2.75,0,0,1-.41-1.46,2.81,2.81,0,0,1,.33-1.35,3.11,3.11,0,0,1,.91-1,4,4,0,0,1,1.18-.54,5.41,5.41,0,0,1,1.59-.22,6.24,6.24,0,0,1,2.25.37,3.08,3.08,0,0,1,1.43,1,3.91,3.91,0,0,1,.64,1.69l-1.81.24a2,2,0,0,0-.71-1.31,2.63,2.63,0,0,0-1.67-.47,3,3,0,0,0-1.81.42,1.23,1.23,0,0,0-.54,1,1,1,0,0,0,.22.65,1.63,1.63,0,0,0,.71.49c.18.07.73.23,1.63.47a23.07,23.07,0,0,1,2.73.86,2.81,2.81,0,0,1,1.22,1,2.73,2.73,0,0,1,.44,1.58,3.13,3.13,0,0,1-.54,1.74,3.55,3.55,0,0,1-1.55,1.26,5.82,5.82,0,0,1-2.3.44,5.13,5.13,0,0,1-3.24-.88A4.14,4.14,0,0,1,488.68,325.2Z" transform="translate(-220.88 -288.13)"/><path d="M507,327.1a6.5,6.5,0,0,1-2,1.23,5.67,5.67,0,0,1-2,.36,4,4,0,0,1-2.76-.87,2.91,2.91,0,0,1-1-2.24,3.06,3.06,0,0,1,1.31-2.53,4.87,4.87,0,0,1,1.33-.6,12.46,12.46,0,0,1,1.64-.28,17.54,17.54,0,0,0,3.29-.63c0-.26,0-.42,0-.49a2,2,0,0,0-.52-1.59,3.12,3.12,0,0,0-2.1-.62,3.19,3.19,0,0,0-1.92.46,2.74,2.74,0,0,0-.92,1.61l-1.81-.25a4.67,4.67,0,0,1,.81-1.87,3.54,3.54,0,0,1,1.64-1.09,7.15,7.15,0,0,1,2.47-.39,6.46,6.46,0,0,1,2.26.33,3,3,0,0,1,1.28.82,2.93,2.93,0,0,1,.58,1.26,10.67,10.67,0,0,1,.09,1.7v2.46a25.66,25.66,0,0,0,.12,3.26,4.27,4.27,0,0,0,.46,1.31H507.4A3.88,3.88,0,0,1,507,327.1Zm-.16-4.12a13,13,0,0,1-3,.7,6.75,6.75,0,0,0-1.61.37,1.61,1.61,0,0,0-.73.6,1.56,1.56,0,0,0-.25.88,1.58,1.58,0,0,0,.55,1.23,2.47,2.47,0,0,0,1.64.49,3.85,3.85,0,0,0,1.9-.47,2.9,2.9,0,0,0,1.22-1.28,4.58,4.58,0,0,0,.29-1.84Z" transform="translate(-220.88 -288.13)"/><path d="M511.6,328.45V317.56h1.66v1.55a3.92,3.92,0,0,1,3.47-1.8,4.5,4.5,0,0,1,1.81.36,2.77,2.77,0,0,1,1.23.92,3.53,3.53,0,0,1,.58,1.37,10.43,10.43,0,0,1,.1,1.79v6.7H518.6v-6.63a5,5,0,0,0-.21-1.68,1.77,1.77,0,0,0-.77-.9,2.41,2.41,0,0,0-1.28-.33,3,3,0,0,0-2,.75,3.7,3.7,0,0,0-.85,2.84v5.95Z" transform="translate(-220.88 -288.13)"/><path d="M522.54,325.2l1.83-.29a2.57,2.57,0,0,0,.85,1.68,3,3,0,0,0,2,.59,2.91,2.91,0,0,0,1.88-.52,1.56,1.56,0,0,0,.62-1.22,1.12,1.12,0,0,0-.54-1,8.26,8.26,0,0,0-1.89-.63,17.63,17.63,0,0,1-2.82-.88,2.68,2.68,0,0,1-1.59-2.5,2.81,2.81,0,0,1,.33-1.35,3,3,0,0,1,.91-1,4,4,0,0,1,1.17-.54,5.53,5.53,0,0,1,1.6-.22,6.24,6.24,0,0,1,2.25.37,3.08,3.08,0,0,1,1.43,1,3.91,3.91,0,0,1,.64,1.69l-1.81.24a2,2,0,0,0-.71-1.31,2.63,2.63,0,0,0-1.67-.47,3,3,0,0,0-1.81.42,1.21,1.21,0,0,0-.55,1,1,1,0,0,0,.23.65,1.63,1.63,0,0,0,.71.49c.18.07.72.23,1.63.47a23.72,23.72,0,0,1,2.73.86,2.81,2.81,0,0,1,1.22,1,2.73,2.73,0,0,1,.44,1.58,3.13,3.13,0,0,1-.54,1.74,3.52,3.52,0,0,1-1.56,1.26,5.74,5.74,0,0,1-2.29.44,5.11,5.11,0,0,1-3.24-.88A4.14,4.14,0,0,1,522.54,325.2Z" transform="translate(-220.88 -288.13)"/><path d="M539.11,324.48l1.85-.25a4,4,0,0,0,1.08,2.26,2.64,2.64,0,0,0,1.86.7,3,3,0,0,0,2.2-.91,3,3,0,0,0,.9-2.23,2.85,2.85,0,0,0-.83-2.1,2.89,2.89,0,0,0-2.12-.82,5.15,5.15,0,0,0-1.3.2l.21-1.62.29,0a3.82,3.82,0,0,0,2.13-.61,2.11,2.11,0,0,0,.94-1.9,2.22,2.22,0,0,0-.69-1.68,2.41,2.41,0,0,0-1.77-.67,2.53,2.53,0,0,0-1.8.68,3.47,3.47,0,0,0-.92,2l-1.84-.33a4.71,4.71,0,0,1,1.53-2.88,4.46,4.46,0,0,1,3-1,4.92,4.92,0,0,1,2.26.53,3.84,3.84,0,0,1,1.59,1.44,3.78,3.78,0,0,1,.55,1.94,3.15,3.15,0,0,1-.53,1.77,3.52,3.52,0,0,1-1.54,1.28,3.5,3.5,0,0,1,2.07,1.27A3.92,3.92,0,0,1,549,324a4.41,4.41,0,0,1-1.44,3.33,5,5,0,0,1-3.63,1.37,4.77,4.77,0,0,1-3.29-1.17A4.57,4.57,0,0,1,539.11,324.48Z" transform="translate(-220.88 -288.13)"/><path d="M557.14,315.54v-2.12H559v2.12Zm0,12.91V317.56H559v10.89Z" transform="translate(-220.88 -288.13)"/><path d="M561.79,328.45V317.56h1.66v1.55a3.93,3.93,0,0,1,3.47-1.8,4.47,4.47,0,0,1,1.81.36,2.87,2.87,0,0,1,1.24.92,3.68,3.68,0,0,1,.57,1.37,10.43,10.43,0,0,1,.1,1.79v6.7H568.8v-6.63a4.75,4.75,0,0,0-.22-1.68,1.8,1.8,0,0,0-.76-.9,2.48,2.48,0,0,0-1.29-.33,3,3,0,0,0-2,.75,3.7,3.7,0,0,0-.86,2.84v5.95Z" transform="translate(-220.88 -288.13)"/><path d="M577.5,326.8l.27,1.63a6.74,6.74,0,0,1-1.39.16,3.18,3.18,0,0,1-1.56-.32,1.78,1.78,0,0,1-.78-.83,6.6,6.6,0,0,1-.23-2.18V319h-1.35v-1.43h1.35v-2.7l1.84-1.11v3.81h1.85V319h-1.85v6.37a3.49,3.49,0,0,0,.09,1,.78.78,0,0,0,.32.35,1.23,1.23,0,0,0,.63.14A7.37,7.37,0,0,0,577.5,326.8Z" transform="translate(-220.88 -288.13)"/><path d="M586.76,324.94l1.91.24a4.65,4.65,0,0,1-1.67,2.59,5.68,5.68,0,0,1-6.91-.55,5.75,5.75,0,0,1-1.4-4.13,6,6,0,0,1,1.42-4.26,4.78,4.78,0,0,1,3.67-1.52,4.69,4.69,0,0,1,3.57,1.49,5.9,5.9,0,0,1,1.38,4.18c0,.11,0,.28,0,.49H580.6a4.22,4.22,0,0,0,1,2.75,3,3,0,0,0,2.28,1,2.77,2.77,0,0,0,1.73-.54A3.49,3.49,0,0,0,586.76,324.94Zm-6.06-3h6.08a3.66,3.66,0,0,0-.69-2.06,2.82,2.82,0,0,0-2.29-1.07,2.93,2.93,0,0,0-2.14.85A3.37,3.37,0,0,0,580.7,322Z" transform="translate(-220.88 -288.13)"/><path d="M591,328.45V317.56h1.66v1.65a4.52,4.52,0,0,1,1.17-1.53,2,2,0,0,1,1.19-.37,3.55,3.55,0,0,1,1.89.6l-.63,1.71a2.6,2.6,0,0,0-1.36-.4,1.76,1.76,0,0,0-1.08.36,2,2,0,0,0-.69,1,7.42,7.42,0,0,0-.31,2.16v5.7Z" transform="translate(-220.88 -288.13)"/><path d="M605.09,327.1a6.62,6.62,0,0,1-2,1.23,5.67,5.67,0,0,1-2,.36,4,4,0,0,1-2.76-.87,2.91,2.91,0,0,1-1-2.24,3.1,3.1,0,0,1,1.32-2.53,4.74,4.74,0,0,1,1.33-.6,12.46,12.46,0,0,1,1.64-.28,17.54,17.54,0,0,0,3.29-.63c0-.26,0-.42,0-.49a2,2,0,0,0-.52-1.59,3.12,3.12,0,0,0-2.1-.62,3.25,3.25,0,0,0-1.93.46,2.74,2.74,0,0,0-.91,1.61l-1.81-.25a4.67,4.67,0,0,1,.81-1.87,3.56,3.56,0,0,1,1.63-1.09,7.19,7.19,0,0,1,2.47-.39,6.53,6.53,0,0,1,2.27.33,3,3,0,0,1,1.28.82,3.06,3.06,0,0,1,.58,1.26,10.67,10.67,0,0,1,.09,1.7v2.46a25.66,25.66,0,0,0,.12,3.26,4,4,0,0,0,.46,1.31h-1.93A3.88,3.88,0,0,1,605.09,327.1Zm-.16-4.12a13,13,0,0,1-3,.7,6.75,6.75,0,0,0-1.61.37,1.59,1.59,0,0,0-1,1.48,1.59,1.59,0,0,0,.56,1.23,2.45,2.45,0,0,0,1.64.49,3.78,3.78,0,0,0,1.89-.47,2.84,2.84,0,0,0,1.22-1.28,4.38,4.38,0,0,0,.3-1.84Z" transform="translate(-220.88 -288.13)"/><path d="M616.77,324.46l1.81.23a4.74,4.74,0,0,1-1.52,2.94,4.43,4.43,0,0,1-3,1.06,4.67,4.67,0,0,1-3.6-1.46A6,6,0,0,1,609.1,323a7.56,7.56,0,0,1,.58-3.08,4.08,4.08,0,0,1,1.78-2,5.29,5.29,0,0,1,2.6-.66,4.51,4.51,0,0,1,2.9.9,4.18,4.18,0,0,1,1.45,2.55l-1.8.27a3,3,0,0,0-.91-1.65,2.31,2.31,0,0,0-1.57-.55,2.86,2.86,0,0,0-2.27,1A4.75,4.75,0,0,0,611,323a4.89,4.89,0,0,0,.84,3.19,2.75,2.75,0,0,0,2.2,1,2.59,2.59,0,0,0,1.81-.67A3.28,3.28,0,0,0,616.77,324.46Z" transform="translate(-220.88 -288.13)"/><path d="M624.19,326.8l.27,1.63a6.83,6.83,0,0,1-1.4.16,3.18,3.18,0,0,1-1.56-.32,1.78,1.78,0,0,1-.78-.83,6.69,6.69,0,0,1-.22-2.18V319h-1.36v-1.43h1.36v-2.7l1.83-1.11v3.81h1.86V319h-1.86v6.37a3.37,3.37,0,0,0,.1,1,.73.73,0,0,0,.32.35,1.2,1.2,0,0,0,.63.14A7.79,7.79,0,0,0,624.19,326.8Z" transform="translate(-220.88 -288.13)"/><path d="M626,315.54v-2.12h1.85v2.12Zm0,12.91V317.56h1.85v10.89Z" transform="translate(-220.88 -288.13)"/><path d="M630,323a5.62,5.62,0,0,1,1.68-4.48,5.06,5.06,0,0,1,3.43-1.21,4.88,4.88,0,0,1,3.67,1.47,5.61,5.61,0,0,1,1.43,4.07,7.24,7.24,0,0,1-.64,3.31,4.52,4.52,0,0,1-1.83,1.87,5.38,5.38,0,0,1-2.63.66,4.88,4.88,0,0,1-3.7-1.46A5.87,5.87,0,0,1,630,323Zm1.9,0a4.61,4.61,0,0,0,.91,3.13,2.93,2.93,0,0,0,2.3,1.05,2.89,2.89,0,0,0,2.28-1.05,4.74,4.74,0,0,0,.92-3.19,4.49,4.49,0,0,0-.92-3.06,3,3,0,0,0-4.58,0A4.59,4.59,0,0,0,631.87,323Z" transform="translate(-220.88 -288.13)"/><path d="M642.34,328.45V317.56H644v1.55a3.92,3.92,0,0,1,3.47-1.8,4.5,4.5,0,0,1,1.81.36,2.77,2.77,0,0,1,1.23.92,3.53,3.53,0,0,1,.58,1.37,11.6,11.6,0,0,1,.1,1.79v6.7h-1.85v-6.63a5,5,0,0,0-.21-1.68,1.82,1.82,0,0,0-.77-.9,2.41,2.41,0,0,0-1.28-.33,3,3,0,0,0-2,.75,3.7,3.7,0,0,0-.85,2.84v5.95Z" transform="translate(-220.88 -288.13)"/><path d="M653.28,325.2l1.82-.29a2.58,2.58,0,0,0,.86,1.68,3,3,0,0,0,2,.59,2.92,2.92,0,0,0,1.89-.52,1.56,1.56,0,0,0,.62-1.22,1.11,1.11,0,0,0-.55-1,7.93,7.93,0,0,0-1.88-.63,17.28,17.28,0,0,1-2.82-.88,2.68,2.68,0,0,1-1.59-2.5,2.81,2.81,0,0,1,.33-1.35,3,3,0,0,1,.91-1,4,4,0,0,1,1.17-.54,5.53,5.53,0,0,1,1.6-.22,6.24,6.24,0,0,1,2.25.37,3.14,3.14,0,0,1,1.43,1,3.91,3.91,0,0,1,.63,1.69l-1.8.24a2,2,0,0,0-.71-1.31,2.65,2.65,0,0,0-1.67-.47,3,3,0,0,0-1.81.42,1.21,1.21,0,0,0-.55,1,1,1,0,0,0,.23.65,1.59,1.59,0,0,0,.7.49c.19.07.73.23,1.63.47a23.4,23.4,0,0,1,2.74.86,2.78,2.78,0,0,1,1.21,1,2.65,2.65,0,0,1,.44,1.58,3.2,3.2,0,0,1-.53,1.74,3.52,3.52,0,0,1-1.56,1.26,5.75,5.75,0,0,1-2.3.44,5.09,5.09,0,0,1-3.23-.88A4.14,4.14,0,0,1,653.28,325.2Z" transform="translate(-220.88 -288.13)"/><circle class="cls-5" cx="354.71" cy="113.6" r="2.68"/><text class="cls-6" transform="translate(314.11 167.65)">≈ trou noir</text><text class="cls-6" transform="translate(85.51 153.48)"><tspan class="cls-7">T</tspan><tspan x="9" y="0">erre</tspan></text></svg>