<svg id="Calque_1" data-name="Calque 1" xmlns="http://www.w3.org/2000/svg" viewBox="0 0 846.79 319.71"><defs><style>.cls-1,.cls-2,.cls-4,.cls-5{fill:none;}.cls-1,.cls-2,.cls-5{stroke:#000;stroke-miterlimit:10;}.cls-1{stroke-width:2px;}.cls-3{font-size:48px;font-family:ArialMT, Arial;}.cls-5{stroke-width:3px;}</style></defs><title>bruit_com_en</title><circle class="cls-1" cx="533.95" cy="179.49" r="111.79"/><circle class="cls-2" cx="598.42" cy="181.28" r="19.81"/><line class="cls-2" x1="622.18" y1="166.79" x2="677.98" y2="128.39"/><path d="M918.62,520a30,30,0,0,1,9.73-.93l-4.11-2.95L923,511.19A30.29,30.29,0,0,1,918.62,520Z" transform="translate(-301.41 -349.75)"/><line class="cls-2" x1="608.3" y1="83.36" x2="664.1" y2="44.96"/><path d="M904.74,436.52a30.3,30.3,0,0,1,9.74-.92l-4.12-3-1.28-4.89A30.11,30.11,0,0,1,904.74,436.52Z" transform="translate(-301.41 -349.75)"/><path d="M983.56,372.68l.46,2.8a11.57,11.57,0,0,1-2.39.28,5.43,5.43,0,0,1-2.67-.54,3.09,3.09,0,0,1-1.34-1.44,11.27,11.27,0,0,1-.38-3.73V359.31h-2.32v-2.46h2.32v-4.63l3.14-1.89v6.52h3.18v2.46h-3.18v10.91a5.45,5.45,0,0,0,.17,1.74,1.3,1.3,0,0,0,.54.62,2.17,2.17,0,0,0,1.08.23A9.16,9.16,0,0,0,983.56,372.68Z" transform="translate(-301.41 -349.75)"/><path d="M986.66,375.51V349.75h3.16V359a7.08,7.08,0,0,1,5.59-2.57,7.56,7.56,0,0,1,3.6.82,4.83,4.83,0,0,1,2.19,2.26,10.41,10.41,0,0,1,.66,4.18v11.83H998.7V363.68a4.86,4.86,0,0,0-1-3.45,3.84,3.84,0,0,0-2.91-1.08,5.05,5.05,0,0,0-2.64.73,4.09,4.09,0,0,0-1.77,2,9.09,9.09,0,0,0-.53,3.44v10.21Z" transform="translate(-301.41 -349.75)"/><path d="M1019.46,369.5l3.27.41a7.94,7.94,0,0,1-2.87,4.44,9.68,9.68,0,0,1-11.84-.94,9.85,9.85,0,0,1-2.4-7.07q0-4.71,2.43-7.31a8.19,8.19,0,0,1,6.29-2.61,8,8,0,0,1,6.12,2.55q2.37,2.55,2.37,7.18c0,.18,0,.46,0,.84h-13.93a7.2,7.2,0,0,0,1.74,4.71,5.2,5.2,0,0,0,3.91,1.63,4.83,4.83,0,0,0,3-.91A6.06,6.06,0,0,0,1019.46,369.5Zm-10.39-5.11h10.42a6.41,6.41,0,0,0-1.19-3.54,4.88,4.88,0,0,0-3.92-1.82,5,5,0,0,0-3.67,1.46A5.73,5.73,0,0,0,1009.07,364.39Z" transform="translate(-301.41 -349.75)"/><path d="M1049.48,369.5l3.27.41a7.93,7.93,0,0,1-2.86,4.44,8.61,8.61,0,0,1-5.35,1.59,8.5,8.5,0,0,1-6.49-2.53,9.85,9.85,0,0,1-2.4-7.07q0-4.71,2.42-7.31a8.21,8.21,0,0,1,6.3-2.61,8,8,0,0,1,6.11,2.55q2.38,2.55,2.38,7.18c0,.18,0,.46,0,.84h-13.92a7.1,7.1,0,0,0,1.74,4.71,5.16,5.16,0,0,0,3.9,1.63,4.83,4.83,0,0,0,3-.91A6.06,6.06,0,0,0,1049.48,369.5Zm-10.39-5.11h10.43a6.33,6.33,0,0,0-1.2-3.54,4.86,4.86,0,0,0-3.92-1.82,5,5,0,0,0-3.66,1.46A5.79,5.79,0,0,0,1039.09,364.39Z" transform="translate(-301.41 -349.75)"/><path d="M1056.72,375.51V356.85h2.85v2.65a6.71,6.71,0,0,1,5.94-3.08,7.91,7.91,0,0,1,3.11.61,5,5,0,0,1,2.11,1.59,6.18,6.18,0,0,1,1,2.34,19.16,19.16,0,0,1,.17,3.08v11.47h-3.16V364.16a8.41,8.41,0,0,0-.37-2.89,3,3,0,0,0-1.31-1.53,4.18,4.18,0,0,0-2.21-.57,5.08,5.08,0,0,0-3.48,1.28q-1.47,1.29-1.47,4.87v10.19Z" transform="translate(-301.41 -349.75)"/><path d="M1083.65,372.68l.46,2.8a11.57,11.57,0,0,1-2.39.28,5.43,5.43,0,0,1-2.67-.54,3.09,3.09,0,0,1-1.34-1.44,11.27,11.27,0,0,1-.38-3.73V359.31H1075v-2.46h2.33v-4.63l3.14-1.89v6.52h3.18v2.46h-3.18v10.91a5.45,5.45,0,0,0,.17,1.74,1.3,1.3,0,0,0,.54.62,2.17,2.17,0,0,0,1.08.23A9.16,9.16,0,0,0,1083.65,372.68Z" transform="translate(-301.41 -349.75)"/><path d="M1086.76,353.38v-3.63h3.17v3.63Zm0,22.13V356.85h3.17v18.66Z" transform="translate(-301.41 -349.75)"/><path d="M1094.71,375.51V356.85h2.85v2.83a7.63,7.63,0,0,1,2-2.62,3.54,3.54,0,0,1,2-.64,6.15,6.15,0,0,1,3.25,1l-1.09,2.94a4.48,4.48,0,0,0-2.32-.69,3,3,0,0,0-1.86.63,3.39,3.39,0,0,0-1.18,1.73,12.37,12.37,0,0,0-.53,3.69v9.77Z" transform="translate(-301.41 -349.75)"/><path d="M1119.51,369.5l3.27.41a7.93,7.93,0,0,1-2.86,4.44,8.61,8.61,0,0,1-5.35,1.59,8.5,8.5,0,0,1-6.49-2.53,9.85,9.85,0,0,1-2.4-7.07q0-4.71,2.42-7.31a8.21,8.21,0,0,1,6.3-2.61,8,8,0,0,1,6.11,2.55q2.38,2.55,2.38,7.18c0,.18,0,.46,0,.84H1109a7.2,7.2,0,0,0,1.74,4.71,5.16,5.16,0,0,0,3.9,1.63,4.83,4.83,0,0,0,3-.91A6.06,6.06,0,0,0,1119.51,369.5Zm-10.39-5.11h10.43a6.33,6.33,0,0,0-1.2-3.54,4.86,4.86,0,0,0-3.92-1.82,5,5,0,0,0-3.66,1.46A5.79,5.79,0,0,0,1109.12,364.39Z" transform="translate(-301.41 -349.75)"/><path d="M976.66,425.87V400.05h2.88v2.42a7.08,7.08,0,0,1,2.3-2.13,6.27,6.27,0,0,1,3.11-.71,7.37,7.37,0,0,1,4.22,1.23,7.5,7.5,0,0,1,2.76,3.47,12.67,12.67,0,0,1,.93,4.91,12.42,12.42,0,0,1-1,5.16,7.78,7.78,0,0,1-7.11,4.74,6,6,0,0,1-2.84-.67,6.61,6.61,0,0,1-2.06-1.69v9.09Zm2.86-16.38q0,3.6,1.46,5.32a4.47,4.47,0,0,0,3.53,1.73,4.6,4.6,0,0,0,3.62-1.79q1.5-1.78,1.5-5.53a8.22,8.22,0,0,0-1.47-5.34,4.44,4.44,0,0,0-3.51-1.78,4.54,4.54,0,0,0-3.57,1.89A8.44,8.44,0,0,0,979.52,409.49Z" transform="translate(-301.41 -349.75)"/><path d="M995.5,409.38q0-5.19,2.88-7.68a8.7,8.7,0,0,1,5.87-2.07,8.39,8.39,0,0,1,6.3,2.52,9.62,9.62,0,0,1,2.44,7,12.38,12.38,0,0,1-1.08,5.67,7.65,7.65,0,0,1-3.15,3.2,9.09,9.09,0,0,1-4.51,1.15,8.37,8.37,0,0,1-6.33-2.52C996.3,415,995.5,412.53,995.5,409.38Zm3.25,0a7.92,7.92,0,0,0,1.57,5.37,5.19,5.19,0,0,0,7.85,0c1.05-1.19,1.57-3,1.57-5.46a7.71,7.71,0,0,0-1.58-5.25,5.2,5.2,0,0,0-7.84,0Q998.74,405.79,998.75,409.38Z" transform="translate(-301.41 -349.75)"/><path d="M1016.7,425.87V400.05h2.88v2.42a7.08,7.08,0,0,1,2.3-2.13,6.31,6.31,0,0,1,3.12-.71,7.34,7.34,0,0,1,4.21,1.23,7.5,7.5,0,0,1,2.76,3.47,13.37,13.37,0,0,1-.09,10.07,7.8,7.8,0,0,1-3,3.52,7.71,7.71,0,0,1-4.12,1.22,6,6,0,0,1-2.84-.67,6.54,6.54,0,0,1-2.07-1.69v9.09Zm2.86-16.38q0,3.6,1.46,5.32a4.49,4.49,0,0,0,3.54,1.73,4.58,4.58,0,0,0,3.61-1.79q1.5-1.78,1.5-5.53a8.22,8.22,0,0,0-1.47-5.34,4.42,4.42,0,0,0-3.5-1.78,4.56,4.56,0,0,0-3.58,1.89A8.44,8.44,0,0,0,1019.56,409.49Z" transform="translate(-301.41 -349.75)"/><path d="M1049,418.71V416a6.82,6.82,0,0,1-5.92,3.17,7.39,7.39,0,0,1-3.08-.64,5,5,0,0,1-2.13-1.59,6.06,6.06,0,0,1-1-2.34,16.1,16.1,0,0,1-.19-3V400.05h3.16V410.4a18.14,18.14,0,0,0,.2,3.34,3.31,3.31,0,0,0,1.26,2,4,4,0,0,0,2.39.71,5.16,5.16,0,0,0,2.67-.73,4,4,0,0,0,1.77-2,9.91,9.91,0,0,0,.52-3.65v-10h3.16v18.66Z" transform="translate(-301.41 -349.75)"/><path d="M1056.67,418.71V393h3.16v25.76Z" transform="translate(-301.41 -349.75)"/><path d="M1076.92,416.41a11.71,11.71,0,0,1-3.38,2.11,9.82,9.82,0,0,1-3.49.62,6.75,6.75,0,0,1-4.73-1.51,5,5,0,0,1-1.65-3.84,5.18,5.18,0,0,1,2.26-4.32,7.72,7.72,0,0,1,2.27-1A23.17,23.17,0,0,1,1071,408a29.54,29.54,0,0,0,5.65-1.09c0-.44,0-.71,0-.83a3.46,3.46,0,0,0-.89-2.72,5.28,5.28,0,0,0-3.61-1.08,5.52,5.52,0,0,0-3.29.79,4.76,4.76,0,0,0-1.57,2.76l-3.1-.42a7.67,7.67,0,0,1,1.39-3.2,6.1,6.1,0,0,1,2.8-1.89,12.41,12.41,0,0,1,4.23-.65,11.12,11.12,0,0,1,3.89.56,4.44,4.44,0,0,1,3.18,3.57,18.26,18.26,0,0,1,.16,2.91v4.22a43.87,43.87,0,0,0,.2,5.58,6.84,6.84,0,0,0,.8,2.24h-3.31A6.74,6.74,0,0,1,1076.92,416.41Zm-.26-7.06a23.89,23.89,0,0,1-5.17,1.19,12.4,12.4,0,0,0-2.76.63,2.78,2.78,0,0,0-1.25,1,2.72,2.72,0,0,0-.44,1.51,2.68,2.68,0,0,0,1,2.1,4.08,4.08,0,0,0,2.8.85,6.59,6.59,0,0,0,3.26-.8,5,5,0,0,0,2.09-2.19,7.62,7.62,0,0,0,.51-3.16Z" transform="translate(-301.41 -349.75)"/><path d="M1091.67,415.88l.46,2.8a11.57,11.57,0,0,1-2.39.28,5.5,5.5,0,0,1-2.68-.54,3.07,3.07,0,0,1-1.33-1.44,11.19,11.19,0,0,1-.39-3.73V402.51H1083v-2.46h2.32v-4.63l3.15-1.89v6.52h3.18v2.46h-3.18v10.91a5.56,5.56,0,0,0,.16,1.74,1.38,1.38,0,0,0,.55.62,2.12,2.12,0,0,0,1.08.23A9.39,9.39,0,0,0,1091.67,415.88Z" transform="translate(-301.41 -349.75)"/><path d="M1094.78,396.58V393h3.16v3.63Zm0,22.13V400.05h3.16v18.66Z" transform="translate(-301.41 -349.75)"/><path d="M1101.58,409.38q0-5.19,2.89-7.68a8.68,8.68,0,0,1,5.87-2.07,8.38,8.38,0,0,1,6.29,2.52,9.58,9.58,0,0,1,2.44,7,12.38,12.38,0,0,1-1.08,5.67,7.68,7.68,0,0,1-3.14,3.2,9.09,9.09,0,0,1-4.51,1.15,8.38,8.38,0,0,1-6.34-2.52C1102.39,415,1101.58,412.53,1101.58,409.38Zm3.25,0a8,8,0,0,0,1.57,5.37,5.2,5.2,0,0,0,7.86,0c1-1.19,1.56-3,1.56-5.46a7.71,7.71,0,0,0-1.57-5.25,5.21,5.21,0,0,0-7.85,0A7.92,7.92,0,0,0,1104.83,409.38Z" transform="translate(-301.41 -349.75)"/><path d="M1122.78,418.71V400.05h2.85v2.65a6.7,6.7,0,0,1,5.94-3.07,7.83,7.83,0,0,1,3.1.6,5,5,0,0,1,2.12,1.59,6.18,6.18,0,0,1,1,2.34,19.16,19.16,0,0,1,.17,3.08v11.47h-3.16V407.36a8.41,8.41,0,0,0-.37-2.89,3,3,0,0,0-1.31-1.53,4.18,4.18,0,0,0-2.21-.57,5.12,5.12,0,0,0-3.49,1.28q-1.46,1.29-1.46,4.87v10.19Z" transform="translate(-301.41 -349.75)"/><path d="M986.87,482.92V464.25h2.84v2.83a7.84,7.84,0,0,1,2-2.62,3.51,3.51,0,0,1,2-.63,6.18,6.18,0,0,1,3.25,1l-1.09,2.94a4.5,4.5,0,0,0-2.32-.69,3,3,0,0,0-1.86.63,3.27,3.27,0,0,0-1.18,1.73,12.32,12.32,0,0,0-.53,3.69v9.77Z" transform="translate(-301.41 -349.75)"/><path d="M1011.67,476.91l3.27.4a8,8,0,0,1-2.87,4.45,9.72,9.72,0,0,1-11.84-.94,9.85,9.85,0,0,1-2.4-7.07c0-3.15.81-5.58,2.43-7.32a8.24,8.24,0,0,1,6.29-2.6,8,8,0,0,1,6.12,2.55q2.37,2.55,2.37,7.17c0,.19,0,.47,0,.85H1001.1a7.2,7.2,0,0,0,1.74,4.71,5.2,5.2,0,0,0,3.91,1.63,4.83,4.83,0,0,0,3-.91A6.06,6.06,0,0,0,1011.67,476.91Zm-10.39-5.12h10.42a6.29,6.29,0,0,0-1.19-3.53,4.86,4.86,0,0,0-3.92-1.83,5.05,5.05,0,0,0-3.67,1.46A5.8,5.8,0,0,0,1001.28,471.79Z" transform="translate(-301.41 -349.75)"/><path d="M1031.09,476.08l3.11.41a8.06,8.06,0,0,1-2.61,5,7.57,7.57,0,0,1-5.16,1.82,8,8,0,0,1-6.16-2.5c-1.55-1.67-2.33-4.07-2.33-7.18a12.93,12.93,0,0,1,1-5.29,6.86,6.86,0,0,1,3-3.4,9,9,0,0,1,4.45-1.14,7.73,7.73,0,0,1,5,1.54,7.09,7.09,0,0,1,2.48,4.37l-3.08.47a5.1,5.1,0,0,0-1.56-2.83,4,4,0,0,0-2.69-.95,4.9,4.9,0,0,0-3.89,1.72c-1,1.14-1.49,3-1.49,5.42s.48,4.33,1.44,5.47a4.7,4.7,0,0,0,3.76,1.7,4.44,4.44,0,0,0,3.11-1.14A5.65,5.65,0,0,0,1031.09,476.08Z" transform="translate(-301.41 -349.75)"/><path d="M1049.69,476.91l3.27.4a8,8,0,0,1-2.87,4.45,9.7,9.7,0,0,1-11.83-.94,9.85,9.85,0,0,1-2.4-7.07c0-3.15.81-5.58,2.42-7.32a8.24,8.24,0,0,1,6.3-2.6,8,8,0,0,1,6.11,2.55,10.14,10.14,0,0,1,2.38,7.17c0,.19,0,.47,0,.85h-13.92a7.1,7.1,0,0,0,1.74,4.71,5.16,5.16,0,0,0,3.9,1.63,4.83,4.83,0,0,0,3-.91A6.06,6.06,0,0,0,1049.69,476.91Zm-10.39-5.12h10.43a6.37,6.37,0,0,0-1.2-3.53,4.84,4.84,0,0,0-3.92-1.83,5,5,0,0,0-3.66,1.46A5.81,5.81,0,0,0,1039.3,471.79Z" transform="translate(-301.41 -349.75)"/><path d="M1056.93,490.08V464.25h2.89v2.43a7.12,7.12,0,0,1,2.3-2.14,6.35,6.35,0,0,1,3.11-.71,7.39,7.39,0,0,1,4.22,1.23,7.55,7.55,0,0,1,2.76,3.47,12.76,12.76,0,0,1,.93,4.92,12.42,12.42,0,0,1-1,5.16,7.82,7.82,0,0,1-7.11,4.73,6,6,0,0,1-2.84-.66,6.49,6.49,0,0,1-2.06-1.69v9.09Zm2.87-16.39c0,2.41.48,4.18,1.46,5.33a4.46,4.46,0,0,0,3.53,1.72,4.56,4.56,0,0,0,3.61-1.78c1-1.19,1.51-3,1.51-5.53a8.22,8.22,0,0,0-1.47-5.34,4.41,4.41,0,0,0-3.51-1.78,4.56,4.56,0,0,0-3.58,1.89A8.49,8.49,0,0,0,1059.8,473.69Z" transform="translate(-301.41 -349.75)"/><path d="M1083.86,480.09l.46,2.8a12.3,12.3,0,0,1-2.39.28,5.32,5.32,0,0,1-2.67-.55,3,3,0,0,1-1.34-1.43,11.26,11.26,0,0,1-.39-3.74V466.71h-2.32v-2.46h2.32v-4.62l3.15-1.9v6.52h3.18v2.46h-3.18v10.92a5.54,5.54,0,0,0,.17,1.74,1.35,1.35,0,0,0,.54.62,2.12,2.12,0,0,0,1.08.22A10.4,10.4,0,0,0,1083.86,480.09Z" transform="translate(-301.41 -349.75)"/><path d="M1087,460.79v-3.64h3.17v3.64Zm0,22.13V464.25h3.17v18.67Z" transform="translate(-301.41 -349.75)"/><path d="M1100.14,482.92l-7.1-18.67h3.34l4,11.18c.43,1.21.83,2.46,1.19,3.76.28-1,.67-2.16,1.18-3.55l4.15-11.39h3.25l-7.07,18.67Z" transform="translate(-301.41 -349.75)"/><path d="M1125.73,476.91l3.27.4a8,8,0,0,1-2.86,4.45,9.72,9.72,0,0,1-11.84-.94,9.85,9.85,0,0,1-2.4-7.07c0-3.15.81-5.58,2.43-7.32a8.21,8.21,0,0,1,6.29-2.6,8,8,0,0,1,6.12,2.55q2.37,2.55,2.37,7.17c0,.19,0,.47,0,.85h-13.92a7.2,7.2,0,0,0,1.74,4.71,5.16,5.16,0,0,0,3.9,1.63,4.83,4.83,0,0,0,3-.91A6.06,6.06,0,0,0,1125.73,476.91Zm-10.39-5.12h10.43a6.29,6.29,0,0,0-1.2-3.53,4.83,4.83,0,0,0-3.92-1.83,5,5,0,0,0-3.66,1.46A5.81,5.81,0,0,0,1115.34,471.79Z" transform="translate(-301.41 -349.75)"/><path d="M986.9,533.28V507.45h2.88v2.43a7.15,7.15,0,0,1,2.31-2.14,6.35,6.35,0,0,1,3.11-.71,7.39,7.39,0,0,1,4.22,1.23,7.55,7.55,0,0,1,2.76,3.47,12.76,12.76,0,0,1,.93,4.92,12.42,12.42,0,0,1-1,5.16,7.77,7.77,0,0,1-3,3.51,7.6,7.6,0,0,1-4.12,1.22,6,6,0,0,1-2.84-.66,6.39,6.39,0,0,1-2.06-1.69v9.09Zm2.87-16.39c0,2.4.48,4.18,1.46,5.33a4.46,4.46,0,0,0,3.53,1.72,4.56,4.56,0,0,0,3.61-1.78q1.5-1.78,1.5-5.53a8.28,8.28,0,0,0-1.46-5.34,4.41,4.41,0,0,0-3.51-1.78,4.56,4.56,0,0,0-3.58,1.89A8.49,8.49,0,0,0,989.77,516.89Z" transform="translate(-301.41 -349.75)"/><path d="M1005.75,516.79q0-5.19,2.88-7.68a8.64,8.64,0,0,1,5.87-2.08,8.37,8.37,0,0,1,6.29,2.52,9.62,9.62,0,0,1,2.45,7,12.18,12.18,0,0,1-1.09,5.67,7.65,7.65,0,0,1-3.14,3.21,9.19,9.19,0,0,1-4.51,1.14,8.38,8.38,0,0,1-6.34-2.51Q1005.74,521.51,1005.75,516.79Zm3.25,0a8,8,0,0,0,1.56,5.37,5.22,5.22,0,0,0,7.86,0q1.56-1.8,1.56-5.47a7.67,7.67,0,0,0-1.57-5.24,5.21,5.21,0,0,0-7.85,0A7.92,7.92,0,0,0,1009,516.79Z" transform="translate(-301.41 -349.75)"/><path d="M1026.94,533.28V507.45h2.89v2.43a7.12,7.12,0,0,1,2.3-2.14,6.38,6.38,0,0,1,3.11-.71,7.39,7.39,0,0,1,4.22,1.23,7.55,7.55,0,0,1,2.76,3.47,12.76,12.76,0,0,1,.93,4.92,12.42,12.42,0,0,1-1,5.16,7.71,7.71,0,0,1-3,3.51,7.6,7.6,0,0,1-4.12,1.22,6,6,0,0,1-2.84-.66,6.61,6.61,0,0,1-2.06-1.69v9.09Zm2.87-16.39q0,3.6,1.46,5.33a4.46,4.46,0,0,0,3.53,1.72,4.56,4.56,0,0,0,3.61-1.78q1.52-1.78,1.51-5.53a8.22,8.22,0,0,0-1.47-5.34,4.41,4.41,0,0,0-3.51-1.78,4.53,4.53,0,0,0-3.57,1.89A8.43,8.43,0,0,0,1029.81,516.89Z" transform="translate(-301.41 -349.75)"/><path d="M1059.2,526.12v-2.74a6.82,6.82,0,0,1-5.92,3.16,7.59,7.59,0,0,1-3.09-.63,5.14,5.14,0,0,1-2.13-1.59,6,6,0,0,1-1-2.35,16,16,0,0,1-.19-3V507.45h3.16v10.36a18.51,18.51,0,0,0,.19,3.34,3.31,3.31,0,0,0,1.27,2,3.94,3.94,0,0,0,2.39.71,5.16,5.16,0,0,0,2.67-.73,4.11,4.11,0,0,0,1.77-2,10.06,10.06,0,0,0,.52-3.64v-10H1062v18.67Z" transform="translate(-301.41 -349.75)"/><path d="M1066.92,526.12V500.35h3.16v25.77Z" transform="translate(-301.41 -349.75)"/><path d="M1087.17,523.82a11.83,11.83,0,0,1-3.39,2.11,9.74,9.74,0,0,1-3.49.61,6.77,6.77,0,0,1-4.72-1.5,4.93,4.93,0,0,1-1.66-3.84,5.21,5.21,0,0,1,2.26-4.32,7.53,7.53,0,0,1,2.28-1,22.77,22.77,0,0,1,2.81-.48,27.76,27.76,0,0,0,5.64-1.09c0-.43,0-.71,0-.82a3.5,3.5,0,0,0-.9-2.73,5.3,5.3,0,0,0-3.6-1.07,5.56,5.56,0,0,0-3.29.78,4.79,4.79,0,0,0-1.58,2.77l-3.09-.42a7.65,7.65,0,0,1,1.39-3.21,6.08,6.08,0,0,1,2.79-1.88,12.46,12.46,0,0,1,4.24-.66,11.3,11.3,0,0,1,3.88.56A5.15,5.15,0,0,1,1089,509a4.91,4.91,0,0,1,1,2.15,17.25,17.25,0,0,1,.16,2.92v4.22a46,46,0,0,0,.2,5.58,7.33,7.33,0,0,0,.8,2.24h-3.3A6.59,6.59,0,0,1,1087.17,523.82Zm-.27-7.07a23.23,23.23,0,0,1-5.16,1.2,11.59,11.59,0,0,0-2.76.63,2.72,2.72,0,0,0-1.25,1,2.64,2.64,0,0,0-.44,1.5,2.68,2.68,0,0,0,1,2.11,4.11,4.11,0,0,0,2.8.84,6.45,6.45,0,0,0,3.25-.8,4.88,4.88,0,0,0,2.09-2.18,7.67,7.67,0,0,0,.51-3.17Z" transform="translate(-301.41 -349.75)"/><path d="M1101.92,523.29l.45,2.8a12.3,12.3,0,0,1-2.39.28,5.32,5.32,0,0,1-2.67-.55,3.07,3.07,0,0,1-1.34-1.43,11.64,11.64,0,0,1-.38-3.74V509.91h-2.32v-2.46h2.32v-4.62l3.14-1.9v6.52h3.19v2.46h-3.19v10.92a5.54,5.54,0,0,0,.17,1.74,1.32,1.32,0,0,0,.55.62,2.12,2.12,0,0,0,1.08.22A10.67,10.67,0,0,0,1101.92,523.29Z" transform="translate(-301.41 -349.75)"/><path d="M1105,504v-3.64h3.16V504Zm0,22.13V507.45h3.16v18.67Z" transform="translate(-301.41 -349.75)"/><path d="M1111.83,516.79q0-5.19,2.88-7.68a8.66,8.66,0,0,1,5.87-2.08,8.39,8.39,0,0,1,6.3,2.52,9.65,9.65,0,0,1,2.44,7,12.32,12.32,0,0,1-1.08,5.67,7.62,7.62,0,0,1-3.15,3.21,9.19,9.19,0,0,1-4.51,1.14,8.36,8.36,0,0,1-6.33-2.51C1112.63,522.35,1111.83,519.94,1111.83,516.79Zm3.25,0a7.92,7.92,0,0,0,1.57,5.37,5.21,5.21,0,0,0,7.85,0q1.57-1.8,1.57-5.47a7.67,7.67,0,0,0-1.58-5.24,5.2,5.2,0,0,0-7.84,0Q1115.07,513.2,1115.08,516.79Z" transform="translate(-301.41 -349.75)"/><path d="M1133,526.12V507.45h2.85v2.66a6.71,6.71,0,0,1,5.94-3.08,7.69,7.69,0,0,1,3.1.61,4.85,4.85,0,0,1,2.12,1.59,6.1,6.1,0,0,1,1,2.34,17.61,17.61,0,0,1,.18,3.07v11.48H1145V514.77a8.78,8.78,0,0,0-.36-2.9,3.11,3.11,0,0,0-1.31-1.52,4.12,4.12,0,0,0-2.21-.58,5.11,5.11,0,0,0-3.49,1.29c-1,.85-1.47,2.48-1.47,4.87v10.19Z" transform="translate(-301.41 -349.75)"/><text class="cls-3" transform="translate(0 192.9)">message</text><line class="cls-2" x1="205.61" y1="180.09" x2="568.43" y2="180.09"/><path d="M875.87,529.83a30.34,30.34,0,0,0-8.55,4.76l1.73-4.76-1.73-4.75A30.31,30.31,0,0,0,875.87,529.83Z" transform="translate(-301.41 -349.75)"/><path class="cls-4" d="M786.7,419.72" transform="translate(-301.41 -349.75)"/><path class="cls-4" d="M403.72,484.06" transform="translate(-301.41 -349.75)"/><path class="cls-2" d="M403.21,500.36c18.66-18.84,64.29-59.7,135.83-75.57,94.39-20.94,170.49,15.68,196.47,30.19" transform="translate(-301.41 -349.75)"/><path d="M740.74,458a30.29,30.29,0,0,0-9.78,0l3.83-3.31.82-5A30.2,30.2,0,0,0,740.74,458Z" transform="translate(-301.41 -349.75)"/><path class="cls-2" d="M403.66,557.55c22.25,19.27,113.48,93.8,246.13,88.85,79.26-2.95,138.63-33,169.52-51.95" transform="translate(-301.41 -349.75)"/><path d="M824.43,591.26a30,30,0,0,0-4.83,8.5l-1-5-3.94-3.17A30.47,30.47,0,0,0,824.43,591.26Z" transform="translate(-301.41 -349.75)"/><line class="cls-5" x1="226.78" y1="51.69" x2="277.08" y2="93.04"/><line class="cls-5" x1="231.25" y1="97.51" x2="272.6" y2="47.21"/><line class="cls-5" x1="266.35" y1="267.55" x2="306.53" y2="318.79"/><line class="cls-5" x1="260.82" y1="313.26" x2="312.06" y2="273.08"/></svg>