<svg id="Calque_1" data-name="Calque 1" xmlns="http://www.w3.org/2000/svg" viewBox="0 0 745.05 623.62"><defs><style>.cls-1,.cls-4,.cls-5{fill:none;stroke:#000;}.cls-1,.cls-5{stroke-miterlimit:10;}.cls-1{stroke-width:2px;}.cls-2{font-size:21px;font-family:ArialMT, Arial;}.cls-3{fill:#fff;}</style></defs><title>cadran_newton_einstein_gravite</title><line class="cls-1" x1="430.24" x2="430.24" y2="623.62"/><line class="cls-1" x1="118.43" y1="311.81" x2="742.05" y2="311.81"/><text class="cls-2" transform="translate(1.75 154.3)">Newton</text><text class="cls-2" transform="translate(0 454.03)">Einstein</text><path class="cls-3" d="M342.27,640.9l146.12-61.7,142.42,60.34-42.68,19.15-4.84,2.17-5.38,2.42c-9,3.31-17.51,8.67-26.52,11.9l-4.82,2.16-57.32,25.72Z" transform="translate(-223.25 -190.03)"/><line class="cls-4" x1="119.02" y1="449.72" x2="266" y2="511.88"/><line class="cls-4" x1="129.05" y1="445.48" x2="275.71" y2="507.52"/><line class="cls-4" x1="139.03" y1="441.27" x2="285.38" y2="503.18"/><line class="cls-4" x1="148.97" y1="437.07" x2="295.01" y2="498.86"/><line class="cls-4" x1="158.87" y1="432.89" x2="304.6" y2="494.56"/><path class="cls-4" d="M392,618.76l57.93,24.51,4.89,2.09c12.43,6.8,26.73,9.48,38.9,16.45l4.53,1.91,39.18,16.58" transform="translate(-223.25 -190.03)"/><path class="cls-4" d="M401.8,614.61l39.09,16.55,4.52,1.91,6.16,2.79c17,11.39,36.66,18.53,56.25,23.62l4.37,1.85,4.89,2.08c7.14,2.47,13.84,6.05,21.11,9l4.18,1.71,4.55,1.92" transform="translate(-223.25 -190.03)"/><path class="cls-4" d="M411.58,610.48l34.92,14.78,4.09,1.74c15.2,14.49,34.28,21.89,54.1,26,2.2.46,4.42.88,6.63,1.27a76.17,76.17,0,0,1,13.34,4.44c10.72,4.46,21,9.38,31.73,13" transform="translate(-223.25 -190.03)"/><path class="cls-4" d="M421.31,606.37l30.39,12.87c1.37.57,2.77,1.17,4.19,1.79,11.52,16,29.23,24.24,47.82,27.05,2.06.32,4.14.56,6.22.74,2.67.09,5.8.09,8.48,1,15.19,8,30.82,14.74,47.4,17.82" transform="translate(-223.25 -190.03)"/><path class="cls-4" d="M431,602.27l26,11,4.32,1.85c9.71,15.35,24.87,22.57,41.45,25.73q2.76.52,5.57.9c2.9.45,5.58,0,7.37,1.34,18.76,12.51,38,19.66,59.49,20.27" transform="translate(-223.25 -190.03)"/><path class="cls-4" d="M440.67,598.2l18.69,7.91,7.26,3.07c12.62,9.45,25.38,19.94,40.23,24.21a50.46,50.46,0,0,0,6.5,1.42c2.83.25,5.95-.19,7.74,2C536.72,654.72,560,659.18,581.85,658l2.73,1.14" transform="translate(-223.25 -190.03)"/><path class="cls-4" d="M450.29,594.13l14.52,6.15,11.38,4.82,4.3,1.84c11.5,5.77,22.66,11.49,34.46,15.83,2,.73,3.95,1.41,5.95,2.06,14.48,21.85,40.84,29.89,65.63,27,1.56.65,2.9,1.21,4,1.68L593.9,655" transform="translate(-223.25 -190.03)"/><path class="cls-4" d="M459.88,590.09l30.64,13,3.91,1.66c9.88,3.21,18.81,9,29.18,12.35l4.11,1.74,5.93,3.94c13.35,13.64,32.11,22.58,51.65,23,2.16.15,4.35.23,6.55.2l4.76,2,6.58,2.78" transform="translate(-223.25 -190.03)"/><path class="cls-4" d="M469.42,586.06l62.39,26.42,4.24,1.8,5.29,2.5c1.76.84,3.52,1.68,5.28,2.54a167.29,167.29,0,0,0,37.87,15.9l5.6,1.95,6.31,2.67,16,6.8" transform="translate(-223.25 -190.03)"/><path class="cls-4" d="M478.92,582l71.56,30.32,4.66,2c12,5.08,24,10.44,36,15.22l3.74,1.59,26.78,11.34" transform="translate(-223.25 -190.03)"/><line class="cls-4" x1="265.14" y1="388.02" x2="407.56" y2="448.36"/><line class="cls-4" x1="119.02" y1="449.72" x2="265.14" y2="388.02"/><line class="cls-4" x1="128.83" y1="453.86" x2="274.64" y2="392.04"/><line class="cls-4" x1="138.64" y1="458.01" x2="284.14" y2="396.07"/><path class="cls-4" d="M371.69,652.19l88.44-37.8,4.49-1.92c5.74-2.75,11.54-5,17.26-7.38l18.05-7.71,17-7.26" transform="translate(-223.25 -190.03)"/><path class="cls-4" d="M381.49,656.33l67.52-29c1.64-.71,3.29-1.41,4.93-2.09a185.83,185.83,0,0,0,46.33-19.91l3.77-1.62,3.54-1.52,18.81-8.07" transform="translate(-223.25 -190.03)"/><path class="cls-4" d="M391.3,660.48l52.79-22.75,4.8-2.07a98.14,98.14,0,0,0,60.93-26.25l3.76-1.62,22.31-9.62" transform="translate(-223.25 -190.03)"/><path class="cls-4" d="M401.1,664.62l48-20.75c1.55-.67,3.12-1.35,4.7-2,13.46-.89,27.31,1.79,39.82-6.25,10.27-6.7,15.18-17.42,25.78-22.18l3.75-1.62,22.27-9.63" transform="translate(-223.25 -190.03)"/><path class="cls-4" d="M410.9,668.77l38.79-16.85,4.48-1.95c2-.52,3.95-1.06,5.91-1.54,22.34-.29,45.12-5.65,59.41-26.2.9-1.34,3.13-1.79,5.11-2.86l4.32-1.87,26-11.28" transform="translate(-223.25 -190.03)"/><path class="cls-4" d="M420.7,672.91,459.41,656c1.46-.64,2.95-1.29,4.45-1.93a94.52,94.52,0,0,0,45.55-14c1.95-1.21,3.86-2.49,5.71-3.83,6-8.32,16.24-11,25.26-15.36L545,619c1.54-.64,3.07-1.3,4.57-2,1.71-.78,3.39-1.6,5-2.5,3.06-1.35,5.5-2.41,7.18-3.14l2.58-1.13" transform="translate(-223.25 -190.03)"/><path class="cls-4" d="M430.49,677.06l34.58-15.15,4.05-1.77c1.91-.75,3.82-1.5,5.72-2.23a162.9,162.9,0,0,0,32.28-11.6c2.07-1,4.11-2,6.12-3.1,18.12-2.79,33.31-13.51,49-23q2.61-1.53,5.21-3.09l6.44-2.85" transform="translate(-223.25 -190.03)"/><path class="cls-4" d="M440.29,681.2l38.55-17,4.45-2c7.46-3.41,15.15-6.14,22.73-9.15,1.51-.61,3-1.22,4.53-1.85C534,651.14,555,640,572.41,624.69q2.52-1.83,5-3.76l6-2.64" transform="translate(-223.25 -190.03)"/><path class="cls-4" d="M450.09,685.34,507.53,660l4.84-2.14c24.8-1.78,51.15-8.48,67.8-29,1.83-1.11,3.64-2.22,5.45-3.35l5.34-2.36,1.9-.84" transform="translate(-223.25 -190.03)"/><path class="cls-4" d="M459.88,689.48l52.26-23.16,4.49-2c24.11-5.15,50-10.06,68-29q2.68-1.73,5.31-3.52l5.19-2.3,7.23-3.2" transform="translate(-223.25 -190.03)"/><path class="cls-4" d="M469.67,693.63l52.15-23.21,4.49-2c22.92-5.22,44.36-14.15,63.31-28.16,1.22-.56,2.39-1.08,3.53-1.59l18.69-8.32" transform="translate(-223.25 -190.03)"/><path class="cls-4" d="M479.46,697.77l52.33-23.39,4.75-2.12c17.16-7.72,36.37-10.84,50.84-22.71l4.11-1.85,29.84-13.33" transform="translate(-223.25 -190.03)"/><path class="cls-4" d="M489.25,701.91l52.55-23.58,4.77-2.14,4.82-2.16c9-3.23,17.5-8.59,26.52-11.9l5.38-2.42,4.84-2.17,42.68-19.15" transform="translate(-223.25 -190.03)"/><circle cx="332.68" cy="443.55" r="16.03"/><circle cx="264.51" cy="435.72" r="16.03"/><path class="cls-3" d="M685.25,641.5l72.34-31,7.2-3.09c2.79-1.07,5.51-2.27,8.23-3.5s5.48-2.51,8.34-3.72,5.56-2.38,8.33-3.55l8.22-3.44,10.19-4.37L829,579.85l139.13,58L828.83,701.25l-17-7-11.51-4.79c-14.42-6.36-28.83-11.93-43.32-18l-7.68-3.2Z" transform="translate(-223.25 -190.03)"/><path class="cls-4" d="M685.25,641.5l64.11,26.68,7.68,3.2c14.49,6.1,28.9,11.67,43.32,18l11.51,4.79,17,7" transform="translate(-223.25 -190.03)"/><path class="cls-4" d="M695.11,637.27l49,20.38,7.43,3.1a94.77,94.77,0,0,0,8.06,5c2.75,1.54,5.57,3,8.43,4.27,14.5,6.48,29.79,10.74,44.65,16.32,3,1.11,5.92,2.27,8.82,3.52l9,3.73,7.94,3.31" transform="translate(-223.25 -190.03)"/><path class="cls-4" d="M704.92,633.06l34.82,14.49,6.87,2.86q3.81,2.69,7.75,5.09c23.36,14.92,50.45,21.71,76.65,30.06l9,3.72,7.92,3.3" transform="translate(-223.25 -190.03)"/><path class="cls-4" d="M714.7,628.86l16.85,7L743,640.64c3,2,6,3.88,9,5.86,24,22.62,56.79,32.43,88.56,34.78,3.44,1.4,6.46,2.65,9,3.69l7.9,3.29" transform="translate(-223.25 -190.03)"/><path class="cls-4" d="M724.44,624.69l16.81,7a112.41,112.41,0,0,1,11.32,5.3C772.91,669.15,814,677.57,850,677c3.43,1.4,6.44,2.66,8.93,3.69L866.8,684" transform="translate(-223.25 -190.03)"/><path class="cls-4" d="M734.14,620.53,742,623.8c2.48,1,5.48,2.29,8.89,3.78,21.61,37.19,67.93,48.2,108.53,45.13l8.9,3.7,7.87,3.28" transform="translate(-223.25 -190.03)"/><path class="cls-4" d="M743.8,616.38l7.85,3.27a103.79,103.79,0,0,0,5.6,8.76c20.64,31,59.16,48,96.66,38.85,2.2-.54,4.41-1.17,6.6-1.89,3.07-.46,5.68,2.14,8.31,3.09l6.93,2.89,9.81,4.08" transform="translate(-223.25 -190.03)"/><path class="cls-4" d="M753.41,612.26s2.89,1.2,7.82,3.4c11.68,35.19,49.62,53.52,85.19,49.13,2.37-.3,4.73-.69,7.07-1.19,12.33-4.84,25.86-.13,36.87,5.7l4.52,1.89" transform="translate(-223.25 -190.03)"/><path class="cls-4" d="M763,608.15c2.53,1.51,5.6,1.05,7.75,3.75a57.57,57.57,0,0,0,26,40c15.29,9,32.64,10.88,49.46,8.1q2.8-.47,5.59-1.1c16.3-5,32,2.8,47.9,6.23l4.51,1.85" transform="translate(-223.25 -190.03)"/><path class="cls-4" d="M772.53,604.07a70.69,70.69,0,0,0,69.34,49.64q3.18-.09,6.34-.46c20.72-.65,40.39,4.45,60.69,7.65l4.51,1.85" transform="translate(-223.25 -190.03)"/><path class="cls-4" d="M782,600c11.7,22.42,34.54,36.3,59,40,2.22.33,4.46.58,6.7.81,21.19,9.62,43.9,16.87,67.85,14.87,1.49.59,2.76,1.12,3.79,1.55l3.22,1.34" transform="translate(-223.25 -190.03)"/><path class="cls-4" d="M791.5,595.92q4.32,2.76,8.67,5.61c12.93,9.63,27.25,18.66,43,23.31q2.63.78,5.31,1.39c3.58.24,8.83.64,9.7,1.94,12.95,22.23,37.88,25.09,59.87,21,1.84.51,3.67,1.13,5.49,1.79l6.06,2.52,2.18.91" transform="translate(-223.25 -190.03)"/><path class="cls-4" d="M800.92,591.88l7.76,3.24q3.9,1.49,7.77,3.07c14.63,5.58,28.71,12.76,43.12,18.6,1.8.73,3.61,1.44,5.41,2.15,13.28,17.39,33.75,30.36,56.44,23.74,2.15.71,4.31,1.43,6.47,2.12l5.44,2.27,7.59,3.16" transform="translate(-223.25 -190.03)"/><path class="cls-4" d="M810.31,587.85l7.74,3.23,8.76,3.65c10.6,4.28,21.08,8.13,31.24,13l6.15,2.56,6.37,2.65c2.14.9,4.3,1.79,6.44,2.73,12.27,11.78,29.31,16,45.7,19q3,1.18,5.92,2.46l6,2.53L950,646.09" transform="translate(-223.25 -190.03)"/><path class="cls-4" d="M819.66,583.84,876,607.32,889.56,613l4.55,1.9c5.33,2,10.12,5,15.33,6.48l3.87,1.53c1.29.52,2.58,1.06,3.86,1.61l4.34,1.8L959.07,642" transform="translate(-223.25 -190.03)"/><line class="cls-4" x1="605.72" y1="389.82" x2="744.85" y2="447.83"/><path class="cls-4" d="M685.25,641.5l72.34-31,7.2-3.09c2.79-1.07,5.51-2.27,8.23-3.5s5.48-2.51,8.34-3.72,5.56-2.38,8.33-3.55l8.22-3.44,10.19-4.37L829,579.85" transform="translate(-223.25 -190.03)"/><path class="cls-4" d="M694.83,645.49l49-21.11,7.44-3.21q5-2,9.87-4.08c13.55-5.75,26.73-12,40.4-17.91,2.74-1.12,5.49-2.19,8.26-3.19l11.51-5,16.93-7.29" transform="translate(-223.25 -190.03)"/><path class="cls-4" d="M704.41,649.47l34.85-15.07,6.87-3a96.63,96.63,0,0,0,10.54-.88c24.47-3.5,46.9-15.5,66.29-30.43q3.88-2.6,7.67-5.22l7-3,9.9-4.28" transform="translate(-223.25 -190.03)"/><path class="cls-4" d="M714,653.46l16.87-7.32,11.45-5c2.88-1.2,5.78-2.31,8.67-3.28,31.75,9.73,66.06-8.94,82.91-36.19,1.33-1.8,4-2.7,6.07-2.92l7-3,9.89-4.29" transform="translate(-223.25 -190.03)"/><path class="cls-4" d="M723.56,657.44l16.83-7.33c3.43-1.49,7.27-3.14,11.35-4.53,35.67,17.76,77.46-6.22,93.07-41.38.45-1.32,2.63-.46,4.45-1.54l7-3,9.86-4.3" transform="translate(-223.25 -190.03)"/><path class="cls-4" d="M733.14,661.43,741,658c2.48-1.09,5.49-2.4,8.9-3.83a69.58,69.58,0,0,0,9.76,3.38c36.89,10.55,78.22-11.24,92.53-47.7.89-1.76,3.52-2.65,6.37-3.28l6.95-3,9.84-4.3" transform="translate(-223.25 -190.03)"/><path class="cls-4" d="M742.71,665.41l7.86-3.45a95.43,95.43,0,0,0,10.14,2.1c27.86,5,59.78-3.34,80-23.77q2.53-2.55,4.81-5.36c3.45-3.62,5.67-8,7.92-12.21a67,67,0,0,0,3-6.85c4.19-2.24,8-3.94,11.43-5.44l16.76-7.36" transform="translate(-223.25 -190.03)"/><path class="cls-4" d="M752.28,669.4s2.89-1.28,7.8-3.22c27.06,7.13,56.73.44,79.14-16q2.6-1.9,5-4c9.89-7.05,15.23-17.6,22.75-27.29,2.65-3.09,6.6-3.56,10.18-4.6l6.93-3.06,9.8-4.32" transform="translate(-223.25 -190.03)"/><path class="cls-4" d="M761.85,673.39a116.12,116.12,0,0,0,11.8.8c24.45.55,48.9-6.25,68.72-20.85q2.7-2,5.28-4.16c15.71-11,28.1-26.84,45.94-34.28l5.09-2.1,4.52-2" transform="translate(-223.25 -190.03)"/><path class="cls-4" d="M771.41,677.42c3.69-.16,7.41-.42,11.13-.79,20.57-1.59,41.19-7.17,59.27-17.76,2-1.18,4-2.42,5.93-3.72,19.93-8.23,36.66-19.75,52.11-35.2a13.31,13.31,0,0,1,4.43-1.78q2.34-1,4.71-1.95l3.49-1.55" transform="translate(-223.25 -190.03)"/><path class="cls-4" d="M781,681.43c21.91-1.61,42.76-8.75,61.64-19.41q2.58-1.46,5.1-3c2.34-.58,3.23-2.78,5.43-3.23,25-2,46.09-15.26,61.59-34.13l3.79-1.7,3.22-1.44" transform="translate(-223.25 -190.03)"/><path class="cls-4" d="M790.56,685.37c3.13-.53,6.21-1.18,9.26-1.93,16.66-4.11,31.88-11.34,46.66-19.47l4.91-2.74c2.16-.62,3.92-2.82,6.12-3.28,22.77-.62,45.61-9.56,59.34-29.05,2.21-1.11,4.19-2,5.92-2.8l8.25-3.7" transform="translate(-223.25 -190.03)"/><path class="cls-4" d="M800.13,689.31q4.41-2,8.84-3.83c14.56-6.24,29.26-11.84,43.41-18.47,2-1,4-1.91,6-2.91,22.31-5.9,46.87-10.48,62.84-28.87,2-1.05,4.09-2.09,6.12-3.15l5.4-2.42,7.53-3.39" transform="translate(-223.25 -190.03)"/><path class="cls-4" d="M809.7,693.29l7.74-3.49q3.94-1.56,7.83-3.23t7.72-3.39c8.62-3.78,17.07-7.81,25.56-11.84l5.1-2.41q2.94-1.08,5.91-2.12c18.13-5.6,36.13-11.88,51.13-23.26q2.76-1.45,5.5-2.86l6.57-3,16.8-7.59" transform="translate(-223.25 -190.03)"/><path class="cls-4" d="M819.26,697.27,876,671.54l4.12-1.87c11.89-5.43,24.19-9.91,36-16,1.69-.85,3.38-1.72,5.05-2.64l4.2-1.91L958.83,634" transform="translate(-223.25 -190.03)"/><line class="cls-4" x1="605.58" y1="511.23" x2="744.85" y2="447.83"/><circle cx="665.26" cy="438.67" r="16.03"/><circle cx="587.41" cy="435.66" r="38.06"/><circle cx="330.73" cy="148.05" r="16.03"/><line class="cls-5" x1="325.5" y1="148.05" x2="293.91" y2="148.05"/><polygon points="297.22 143.96 297.9 144.69 294.29 148.04 297.9 151.4 297.22 152.13 292.82 148.04 297.22 143.96"/><circle cx="525.51" cy="147.69" r="38.06"/><circle cx="703.36" cy="147.69" r="16.03"/><line class="cls-5" x1="698.14" y1="147.69" x2="666.54" y2="147.69"/><polygon points="669.86 143.6 670.54 144.33 666.93 147.69 670.54 151.04 669.86 151.78 665.46 147.69 669.86 143.6"/><line class="cls-5" x1="547.46" y1="147.69" x2="634.54" y2="147.69"/><polygon points="631.23 151.78 630.55 151.04 634.16 147.69 630.55 144.33 631.23 143.6 635.63 147.69 631.23 151.78"/><path class="cls-5" d="M849.35,337.72" transform="translate(-223.25 -190.03)"/><circle cx="195.95" cy="147.2" r="16.03"/><line class="cls-5" x1="201.18" y1="147.2" x2="232.77" y2="147.2"/><polygon points="229.46 151.29 228.78 150.56 232.39 147.2 228.78 143.85 229.46 143.11 233.86 147.2 229.46 151.29"/></svg>