<svg id="Calque_1" data-name="Calque 1" xmlns="http://www.w3.org/2000/svg" viewBox="0 0 112.52 112.65"><defs><style>.cls-1{fill:none;stroke:#000;stroke-miterlimit:10;}</style></defs><title>cadre_points_cinq</title><rect class="cls-1" x="0.5" y="0.5" width="51.39" height="51.39"/><rect class="cls-1" x="60.63" y="0.5" width="51.39" height="51.39"/><rect class="cls-1" x="0.5" y="60.76" width="51.39" height="51.39"/><rect class="cls-1" x="60.63" y="60.76" width="51.39" height="51.39"/><circle cx="13.87" cy="30.22" r="1.04"/><circle cx="37.22" cy="37" r="1.04"/><circle cx="85.09" cy="41.57" r="1.04"/><circle cx="93.3" cy="40.39" r="1.04"/><circle cx="72.04" cy="43.65" r="1.04"/><circle cx="88.83" cy="73" r="1.04"/><circle cx="97.04" cy="87.87" r="1.04"/><circle cx="26.87" cy="91.91" r="1.04"/><circle cx="33.83" cy="100.65" r="1.04"/><circle cx="15.04" cy="88.26" r="1.04"/><circle cx="30.52" cy="16.52" r="1.04"/><circle cx="24.13" cy="42.22" r="1.04"/><circle cx="15.91" cy="9.87" r="1.04"/><circle cx="73.7" cy="31.78" r="1.04"/><circle cx="71.09" cy="16.39" r="1.04"/><circle cx="93.43" cy="25.65" r="1.04"/><circle cx="76.3" cy="78.09" r="1.04"/><circle cx="85.17" cy="98.96" r="1.04"/><circle cx="76.57" cy="86.3" r="1.04"/><circle cx="32.22" cy="77.3" r="1.04"/><circle cx="42.39" cy="79.78" r="1.04"/><circle cx="21.43" cy="68.7" r="1.04"/><circle cx="17.87" cy="103.78" r="1.04"/><circle cx="16.92" cy="76.17" r="1.04"/></svg>