<svg id="Calque_1" data-name="Calque 1" xmlns="http://www.w3.org/2000/svg" viewBox="0 0 860.32 197.95"><defs><style>.cls-1{font-size:36px;font-family:ArialMT, Arial;}.cls-2,.cls-3{fill:none;stroke:#000;stroke-miterlimit:10;}.cls-2{stroke-width:2px;}.cls-3{stroke-width:4px;}</style></defs><title>capteur_inconscient_xp_en</title><path d="M466.81,495.45l3.13-.5a4.33,4.33,0,0,0,1.47,2.89,5.08,5.08,0,0,0,3.36,1A5,5,0,0,0,478,498a2.65,2.65,0,0,0,1.05-2.08,1.92,1.92,0,0,0-.93-1.69,13.56,13.56,0,0,0-3.23-1.07,29.94,29.94,0,0,1-4.83-1.52,4.64,4.64,0,0,1-2-1.78,4.7,4.7,0,0,1-.69-2.5,4.82,4.82,0,0,1,.57-2.31,5.18,5.18,0,0,1,1.55-1.77,6.69,6.69,0,0,1,2-.92,9.63,9.63,0,0,1,2.73-.38,10.89,10.89,0,0,1,3.86.63,5.24,5.24,0,0,1,2.45,1.72,6.65,6.65,0,0,1,1.09,2.89l-3.09.42a3.37,3.37,0,0,0-1.23-2.25,4.44,4.44,0,0,0-2.85-.81,5.18,5.18,0,0,0-3.11.72,2.1,2.1,0,0,0-.93,1.69,1.74,1.74,0,0,0,.38,1.11,2.75,2.75,0,0,0,1.22.84q.47.18,2.79.81a38.86,38.86,0,0,1,4.68,1.47,4.75,4.75,0,0,1,2.09,1.66,4.64,4.64,0,0,1,.75,2.7,5.26,5.26,0,0,1-.92,3,5.89,5.89,0,0,1-2.66,2.17,9.72,9.72,0,0,1-3.94.76,8.78,8.78,0,0,1-5.55-1.51A7,7,0,0,1,466.81,495.45Z" transform="translate(-219.99 -348.43)"/><path d="M498.85,495l3.27.4a8,8,0,0,1-2.86,4.45,8.66,8.66,0,0,1-5.34,1.58,8.54,8.54,0,0,1-6.5-2.52,9.86,9.86,0,0,1-2.4-7.08c0-3.14.81-5.57,2.43-7.31a8.21,8.21,0,0,1,6.29-2.6,8,8,0,0,1,6.12,2.55q2.37,2.55,2.37,7.17c0,.19,0,.47,0,.84H488.29A7.2,7.2,0,0,0,490,497.2a5.17,5.17,0,0,0,3.9,1.64,4.9,4.9,0,0,0,3-.91A6.1,6.1,0,0,0,498.85,495Zm-10.38-5.12h10.42a6.27,6.27,0,0,0-1.2-3.53,4.83,4.83,0,0,0-3.92-1.83,5,5,0,0,0-3.66,1.46A5.73,5.73,0,0,0,488.47,489.89Z" transform="translate(-219.99 -348.43)"/><path d="M506.1,501V482.35h2.84V485a6.72,6.72,0,0,1,5.95-3.08,7.73,7.73,0,0,1,3.1.61,4.85,4.85,0,0,1,2.12,1.59,6.06,6.06,0,0,1,1,2.33,17.82,17.82,0,0,1,.18,3.08V501H518.1V489.66a8.41,8.41,0,0,0-.37-2.89,3,3,0,0,0-1.31-1.53,4.14,4.14,0,0,0-2.2-.57,5.15,5.15,0,0,0-3.49,1.28q-1.47,1.29-1.47,4.87V501Z" transform="translate(-219.99 -348.43)"/><path d="M524.85,495.45,528,495a4.41,4.41,0,0,0,1.47,2.89,5.09,5.09,0,0,0,3.37,1,4.94,4.94,0,0,0,3.23-.89,2.65,2.65,0,0,0,1.05-2.08,1.92,1.92,0,0,0-.93-1.69,13.56,13.56,0,0,0-3.23-1.07,29.94,29.94,0,0,1-4.83-1.52,4.6,4.6,0,0,1-2.73-4.28A4.82,4.82,0,0,1,526,485a5.1,5.1,0,0,1,1.56-1.77,6.51,6.51,0,0,1,2-.92,9.63,9.63,0,0,1,2.73-.38,10.85,10.85,0,0,1,3.86.63,5.19,5.19,0,0,1,2.45,1.72,6.65,6.65,0,0,1,1.09,2.89l-3.09.42a3.4,3.4,0,0,0-1.22-2.25,4.49,4.49,0,0,0-2.86-.81,5.18,5.18,0,0,0-3.11.72,2.1,2.1,0,0,0-.93,1.69,1.75,1.75,0,0,0,.39,1.11,2.71,2.71,0,0,0,1.21.84c.31.12,1.25.39,2.79.81a39.81,39.81,0,0,1,4.69,1.47,4.72,4.72,0,0,1,2.08,1.66,4.65,4.65,0,0,1,.76,2.7,5.27,5.27,0,0,1-.93,3,5.89,5.89,0,0,1-2.66,2.17,9.68,9.68,0,0,1-3.94.76,8.75,8.75,0,0,1-5.54-1.51A7,7,0,0,1,524.85,495.45Z" transform="translate(-219.99 -348.43)"/><path d="M542.94,491.69q0-5.19,2.88-7.69a8.72,8.72,0,0,1,5.87-2.07,8.39,8.39,0,0,1,6.3,2.52,9.6,9.6,0,0,1,2.44,7,12.38,12.38,0,0,1-1.08,5.67,7.62,7.62,0,0,1-3.15,3.21,9.16,9.16,0,0,1-4.51,1.14,8.4,8.4,0,0,1-6.33-2.51Q542.94,496.41,542.94,491.69Zm3.25,0a7.92,7.92,0,0,0,1.57,5.37,5.21,5.21,0,0,0,7.85,0q1.57-1.8,1.57-5.47a7.77,7.77,0,0,0-1.57-5.25,5.23,5.23,0,0,0-7.85,0A7.9,7.9,0,0,0,546.19,491.69Z" transform="translate(-219.99 -348.43)"/><path d="M564.1,501V482.35H567v2.83a7.86,7.86,0,0,1,2-2.62,3.56,3.56,0,0,1,2-.63,6.18,6.18,0,0,1,3.25,1l-1.09,2.93a4.61,4.61,0,0,0-2.32-.68,3.07,3.07,0,0,0-1.87.62,3.39,3.39,0,0,0-1.17,1.73,12.12,12.12,0,0,0-.53,3.7V501Z" transform="translate(-219.99 -348.43)"/><path d="M576,508.21l-.35-3a6.9,6.9,0,0,0,1.81.28,3.5,3.5,0,0,0,1.68-.35,2.9,2.9,0,0,0,1-1,15.55,15.55,0,0,0,1-2.35c.06-.18.15-.44.28-.78l-7.09-18.7h3.42l3.88,10.81c.5,1.37,1,2.81,1.35,4.33.37-1.46.8-2.88,1.3-4.26l4-10.88h3.17l-7.1,19a36.62,36.62,0,0,1-1.78,4.23,6.36,6.36,0,0,1-1.93,2.3,4.64,4.64,0,0,1-2.6.73A6.29,6.29,0,0,1,576,508.21Z" transform="translate(-219.99 -348.43)"/><path d="M475.81,538.65l3.13-.49a4.33,4.33,0,0,0,1.47,2.88,5.08,5.08,0,0,0,3.36,1,5,5,0,0,0,3.24-.89,2.65,2.65,0,0,0,1.05-2.08,1.92,1.92,0,0,0-.93-1.69,13.56,13.56,0,0,0-3.23-1.07,29.94,29.94,0,0,1-4.83-1.52,4.64,4.64,0,0,1-2-1.78,4.7,4.7,0,0,1-.69-2.5,4.82,4.82,0,0,1,.57-2.31,5.18,5.18,0,0,1,1.55-1.77,6.69,6.69,0,0,1,2-.92,9.63,9.63,0,0,1,2.73-.38,10.89,10.89,0,0,1,3.86.63,5.24,5.24,0,0,1,2.45,1.72,6.65,6.65,0,0,1,1.09,2.89l-3.09.42a3.37,3.37,0,0,0-1.23-2.25,4.44,4.44,0,0,0-2.85-.81,5.18,5.18,0,0,0-3.11.72,2.11,2.11,0,0,0-.93,1.69,1.74,1.74,0,0,0,.38,1.11,2.75,2.75,0,0,0,1.22.84q.47.18,2.79.81a38.86,38.86,0,0,1,4.68,1.47,4.75,4.75,0,0,1,2.09,1.66,4.65,4.65,0,0,1,.75,2.71,5.25,5.25,0,0,1-.92,3,5.89,5.89,0,0,1-2.66,2.17,9.72,9.72,0,0,1-3.94.76,8.78,8.78,0,0,1-5.55-1.51A7,7,0,0,1,475.81,538.65Z" transform="translate(-219.99 -348.43)"/><path d="M507.85,538.21l3.27.4a8,8,0,0,1-2.86,4.45,8.66,8.66,0,0,1-5.34,1.58,8.54,8.54,0,0,1-6.5-2.52A9.86,9.86,0,0,1,494,535c0-3.14.81-5.57,2.43-7.31a8.21,8.21,0,0,1,6.29-2.6,8,8,0,0,1,6.12,2.55q2.37,2.55,2.37,7.17c0,.19,0,.47,0,.84H497.29a7.21,7.21,0,0,0,1.74,4.72,5.16,5.16,0,0,0,3.9,1.63,4.83,4.83,0,0,0,3-.91A6.1,6.1,0,0,0,507.85,538.21Zm-10.38-5.12h10.42a6.27,6.27,0,0,0-1.2-3.53,4.83,4.83,0,0,0-3.92-1.83,5,5,0,0,0-3.66,1.46A5.73,5.73,0,0,0,497.47,533.09Z" transform="translate(-219.99 -348.43)"/><path d="M515.1,544.22V525.55h2.84v2.66a6.74,6.74,0,0,1,5.95-3.08,7.73,7.73,0,0,1,3.1.61,4.85,4.85,0,0,1,2.12,1.59,6,6,0,0,1,1,2.34,17.61,17.61,0,0,1,.18,3.07v11.48H527.1V532.86a8.45,8.45,0,0,0-.37-2.89,3,3,0,0,0-1.31-1.53,4.14,4.14,0,0,0-2.2-.57,5.11,5.11,0,0,0-3.49,1.29q-1.47,1.27-1.47,4.86v10.2Z" transform="translate(-219.99 -348.43)"/><path d="M533.85,538.65l3.13-.49a4.41,4.41,0,0,0,1.47,2.88,5.09,5.09,0,0,0,3.37,1,4.94,4.94,0,0,0,3.23-.89,2.65,2.65,0,0,0,1.05-2.08,1.92,1.92,0,0,0-.93-1.69,13.56,13.56,0,0,0-3.23-1.07,29.94,29.94,0,0,1-4.83-1.52,4.6,4.6,0,0,1-2.73-4.28,4.82,4.82,0,0,1,.57-2.31,5.1,5.1,0,0,1,1.56-1.77,6.51,6.51,0,0,1,2-.92,9.63,9.63,0,0,1,2.73-.38,10.85,10.85,0,0,1,3.86.63,5.19,5.19,0,0,1,2.45,1.72,6.65,6.65,0,0,1,1.09,2.89l-3.09.42a3.4,3.4,0,0,0-1.22-2.25,4.49,4.49,0,0,0-2.86-.81,5.18,5.18,0,0,0-3.11.72,2.11,2.11,0,0,0-.93,1.69,1.75,1.75,0,0,0,.39,1.11,2.71,2.71,0,0,0,1.21.84c.31.12,1.25.39,2.79.81a39.81,39.81,0,0,1,4.69,1.47A4.72,4.72,0,0,1,548.6,536a4.66,4.66,0,0,1,.76,2.71,5.26,5.26,0,0,1-.93,3,5.89,5.89,0,0,1-2.66,2.17,9.68,9.68,0,0,1-3.94.76,8.75,8.75,0,0,1-5.54-1.51A7,7,0,0,1,533.85,538.65Z" transform="translate(-219.99 -348.43)"/><path d="M551.94,534.89q0-5.19,2.88-7.69a8.72,8.72,0,0,1,5.87-2.07,8.39,8.39,0,0,1,6.3,2.52,9.6,9.6,0,0,1,2.44,7,12.38,12.38,0,0,1-1.08,5.67,7.62,7.62,0,0,1-3.15,3.21,9.16,9.16,0,0,1-4.51,1.14,8.4,8.4,0,0,1-6.33-2.51Q551.94,539.61,551.94,534.89Zm3.25,0a7.92,7.92,0,0,0,1.57,5.37,5.21,5.21,0,0,0,7.85,0q1.57-1.8,1.57-5.47a7.77,7.77,0,0,0-1.57-5.25,5.23,5.23,0,0,0-7.85,0A7.92,7.92,0,0,0,555.19,534.89Z" transform="translate(-219.99 -348.43)"/><path d="M573.1,544.22V525.55H576v2.83a7.86,7.86,0,0,1,2-2.62,3.56,3.56,0,0,1,2-.63,6.18,6.18,0,0,1,3.25,1l-1.09,2.93a4.61,4.61,0,0,0-2.32-.68A3.07,3.07,0,0,0,578,529a3.39,3.39,0,0,0-1.17,1.73,12.12,12.12,0,0,0-.53,3.7v9.77Z" transform="translate(-219.99 -348.43)"/><text class="cls-1" transform="translate(684.21 172.77)">experience</text><path d="M667.19,374.2v-2.74a6.82,6.82,0,0,1-5.92,3.16,7.59,7.59,0,0,1-3.09-.63,5.14,5.14,0,0,1-2.13-1.59,6,6,0,0,1-1-2.35,15.77,15.77,0,0,1-.2-2.95V355.53h3.17v10.35a18.36,18.36,0,0,0,.19,3.34,3.25,3.25,0,0,0,1.27,2,3.88,3.88,0,0,0,2.39.72,5.26,5.26,0,0,0,2.67-.73,4.11,4.11,0,0,0,1.77-2,10.09,10.09,0,0,0,.52-3.65v-10H670V374.2Z" transform="translate(-219.99 -348.43)"/><path d="M675,374.2V355.53h2.84v2.66a6.72,6.72,0,0,1,5.95-3.08,7.73,7.73,0,0,1,3.1.61,4.85,4.85,0,0,1,2.12,1.59,6.06,6.06,0,0,1,1,2.33,17.82,17.82,0,0,1,.18,3.08V374.2H687V362.84a8.41,8.41,0,0,0-.37-2.89,3,3,0,0,0-1.31-1.53,4.14,4.14,0,0,0-2.2-.57,5.15,5.15,0,0,0-3.49,1.28q-1.47,1.29-1.47,4.87v10.2Z" transform="translate(-219.99 -348.43)"/><path d="M707.18,367.36l3.11.41a8.06,8.06,0,0,1-2.61,5,7.62,7.62,0,0,1-5.16,1.82,8,8,0,0,1-6.16-2.5c-1.55-1.67-2.33-4.07-2.33-7.18a13.19,13.19,0,0,1,1-5.3,7,7,0,0,1,3.05-3.4,9.12,9.12,0,0,1,4.46-1.13,7.7,7.7,0,0,1,5,1.54A7,7,0,0,1,710,361l-3.07.47a5.18,5.18,0,0,0-1.56-2.83,4,4,0,0,0-2.7-1,4.9,4.9,0,0,0-3.88,1.71q-1.5,1.72-1.5,5.43t1.44,5.46a4.71,4.71,0,0,0,3.77,1.71,4.44,4.44,0,0,0,3.11-1.14A5.68,5.68,0,0,0,707.18,367.36Z" transform="translate(-219.99 -348.43)"/><path d="M711.82,364.87q0-5.19,2.88-7.69a8.72,8.72,0,0,1,5.87-2.07,8.39,8.39,0,0,1,6.3,2.52,9.6,9.6,0,0,1,2.44,7,12.38,12.38,0,0,1-1.08,5.67,7.62,7.62,0,0,1-3.15,3.21,9.16,9.16,0,0,1-4.51,1.14,8.4,8.4,0,0,1-6.33-2.51Q711.83,369.59,711.82,364.87Zm3.25,0a7.92,7.92,0,0,0,1.57,5.37,5.21,5.21,0,0,0,7.85,0q1.57-1.8,1.57-5.47a7.77,7.77,0,0,0-1.57-5.25,5.23,5.23,0,0,0-7.85,0A7.9,7.9,0,0,0,715.07,364.87Z" transform="translate(-219.99 -348.43)"/><path d="M733,374.2V355.53h2.85v2.66a6.69,6.69,0,0,1,5.94-3.08,7.69,7.69,0,0,1,3.1.61,4.85,4.85,0,0,1,2.12,1.59,5.91,5.91,0,0,1,1,2.33,17.82,17.82,0,0,1,.18,3.08V374.2H745V362.84a8.67,8.67,0,0,0-.37-2.89,3.09,3.09,0,0,0-1.31-1.53,4.2,4.2,0,0,0-2.21-.57,5.15,5.15,0,0,0-3.49,1.28q-1.47,1.29-1.47,4.87v10.2Z" transform="translate(-219.99 -348.43)"/><path d="M751.78,368.63l3.12-.5a4.41,4.41,0,0,0,1.47,2.89,5.11,5.11,0,0,0,3.37,1,4.94,4.94,0,0,0,3.23-.89,2.63,2.63,0,0,0,1.06-2.08,1.92,1.92,0,0,0-.93-1.69,13.89,13.89,0,0,0-3.24-1.07,29.39,29.39,0,0,1-4.82-1.52,4.63,4.63,0,0,1-2.74-4.28,4.82,4.82,0,0,1,.57-2.31,5.1,5.1,0,0,1,1.56-1.77,6.51,6.51,0,0,1,2-.92,9.65,9.65,0,0,1,2.74-.38,10.79,10.79,0,0,1,3.85.63,5.27,5.27,0,0,1,2.46,1.72,6.78,6.78,0,0,1,1.09,2.89l-3.1.42a3.4,3.4,0,0,0-1.22-2.25,4.47,4.47,0,0,0-2.86-.81,5.18,5.18,0,0,0-3.11.72,2.1,2.1,0,0,0-.93,1.69,1.75,1.75,0,0,0,.39,1.11,2.77,2.77,0,0,0,1.21.84c.32.12,1.25.39,2.8.81a39.48,39.48,0,0,1,4.68,1.47,4.66,4.66,0,0,1,2.08,1.66,4.57,4.57,0,0,1,.76,2.7,5.33,5.33,0,0,1-.92,3,6,6,0,0,1-2.67,2.17,9.67,9.67,0,0,1-3.93.76,8.76,8.76,0,0,1-5.55-1.51A7,7,0,0,1,751.78,368.63Z" transform="translate(-219.99 -348.43)"/><path d="M783.22,367.36l3.11.41a8.06,8.06,0,0,1-2.61,5,7.62,7.62,0,0,1-5.16,1.82,8,8,0,0,1-6.16-2.5c-1.55-1.67-2.33-4.07-2.33-7.18a13,13,0,0,1,1-5.3,7,7,0,0,1,3-3.4,9.09,9.09,0,0,1,4.45-1.13,7.73,7.73,0,0,1,5,1.54A7.06,7.06,0,0,1,786,361l-3.08.47a5.06,5.06,0,0,0-1.56-2.83,4,4,0,0,0-2.69-1,4.92,4.92,0,0,0-3.89,1.71c-1,1.15-1.49,3-1.49,5.43s.48,4.33,1.44,5.46a4.68,4.68,0,0,0,3.76,1.71,4.44,4.44,0,0,0,3.11-1.14A5.68,5.68,0,0,0,783.22,367.36Z" transform="translate(-219.99 -348.43)"/><path d="M789.06,352.07v-3.64h3.16v3.64Zm0,22.13V355.53h3.16V374.2Z" transform="translate(-219.99 -348.43)"/><path d="M795.86,364.87q0-5.19,2.88-7.69a8.73,8.73,0,0,1,5.88-2.07,8.38,8.38,0,0,1,6.29,2.52,9.6,9.6,0,0,1,2.44,7,12.38,12.38,0,0,1-1.08,5.67,7.62,7.62,0,0,1-3.15,3.21,9.15,9.15,0,0,1-4.5,1.14,8.4,8.4,0,0,1-6.34-2.51Q795.87,369.59,795.86,364.87Zm3.25,0a7.92,7.92,0,0,0,1.57,5.37,5.22,5.22,0,0,0,7.86,0q1.56-1.8,1.56-5.47a7.71,7.71,0,0,0-1.57-5.25,5.23,5.23,0,0,0-7.85,0A7.9,7.9,0,0,0,799.11,364.87Z" transform="translate(-219.99 -348.43)"/><path d="M829.29,374.2v-2.74a6.81,6.81,0,0,1-5.92,3.16,7.54,7.54,0,0,1-3.08-.63,5,5,0,0,1-2.13-1.59,6,6,0,0,1-1-2.35,16,16,0,0,1-.19-2.95V355.53h3.16v10.35a18.06,18.06,0,0,0,.2,3.34,3.28,3.28,0,0,0,1.26,2,3.9,3.9,0,0,0,2.39.72,5.32,5.32,0,0,0,2.68-.73,4,4,0,0,0,1.76-2,9.87,9.87,0,0,0,.52-3.65v-10h3.17V374.2Z" transform="translate(-219.99 -348.43)"/><path d="M835.82,368.63l3.13-.5a4.36,4.36,0,0,0,1.46,2.89,5.13,5.13,0,0,0,3.37,1,4.94,4.94,0,0,0,3.23-.89,2.63,2.63,0,0,0,1.06-2.08,1.92,1.92,0,0,0-.93-1.69,13.71,13.71,0,0,0-3.24-1.07,29.39,29.39,0,0,1-4.82-1.52,4.64,4.64,0,0,1-2-1.78,4.85,4.85,0,0,1-.12-4.81,5.07,5.07,0,0,1,1.55-1.77,6.51,6.51,0,0,1,2-.92,9.65,9.65,0,0,1,2.74-.38,10.89,10.89,0,0,1,3.86.63,5.29,5.29,0,0,1,2.45,1.72,6.78,6.78,0,0,1,1.09,2.89l-3.1.42a3.36,3.36,0,0,0-1.22-2.25,4.44,4.44,0,0,0-2.85-.81,5.21,5.21,0,0,0-3.12.72,2.1,2.1,0,0,0-.93,1.69,1.75,1.75,0,0,0,.39,1.11,2.77,2.77,0,0,0,1.21.84c.32.12,1.25.39,2.8.81a38.86,38.86,0,0,1,4.68,1.47,4.66,4.66,0,0,1,2.08,1.66,4.57,4.57,0,0,1,.76,2.7,5.33,5.33,0,0,1-.92,3,6,6,0,0,1-2.67,2.17,9.67,9.67,0,0,1-3.93.76,8.76,8.76,0,0,1-5.55-1.51A7,7,0,0,1,835.82,368.63Z" transform="translate(-219.99 -348.43)"/><path d="M650,395.27v-3.64h3.17v3.64Zm0,22.13V398.73h3.17V417.4Z" transform="translate(-219.99 -348.43)"/><path d="M658,417.4V398.73h2.85v2.66a6.69,6.69,0,0,1,5.94-3.08,7.66,7.66,0,0,1,3.1.61,4.79,4.79,0,0,1,2.12,1.59,6.07,6.07,0,0,1,1,2.33,19.25,19.25,0,0,1,.17,3.08V417.4H670V406a8.67,8.67,0,0,0-.37-2.89,3,3,0,0,0-1.31-1.53,4.18,4.18,0,0,0-2.21-.57,5.17,5.17,0,0,0-3.49,1.28q-1.46,1.29-1.46,4.87v10.2Z" transform="translate(-219.99 -348.43)"/><path d="M684.88,414.57l.46,2.79a11.64,11.64,0,0,1-2.39.29,5.42,5.42,0,0,1-2.67-.55,3,3,0,0,1-1.34-1.43,11.26,11.26,0,0,1-.39-3.74V401.19h-2.32v-2.46h2.32v-4.62l3.15-1.9v6.52h3.18v2.46H681.7v10.92a5.54,5.54,0,0,0,.17,1.74,1.28,1.28,0,0,0,.54.61,2,2,0,0,0,1.08.23A10.53,10.53,0,0,0,684.88,414.57Z" transform="translate(-219.99 -348.43)"/><path d="M700.75,411.39l3.27.4a8,8,0,0,1-2.86,4.45,8.66,8.66,0,0,1-5.34,1.58,8.54,8.54,0,0,1-6.5-2.52,9.86,9.86,0,0,1-2.4-7.08c0-3.14.81-5.57,2.43-7.31a8.21,8.21,0,0,1,6.29-2.6,8,8,0,0,1,6.12,2.55q2.37,2.55,2.37,7.17c0,.19,0,.47,0,.84H690.19a7.18,7.18,0,0,0,1.74,4.71,5.17,5.17,0,0,0,3.9,1.64,4.83,4.83,0,0,0,3-.91A6.1,6.1,0,0,0,700.75,411.39Zm-10.38-5.12h10.42a6.27,6.27,0,0,0-1.2-3.53,4.83,4.83,0,0,0-3.92-1.83,5,5,0,0,0-3.66,1.46A5.73,5.73,0,0,0,690.37,406.27Z" transform="translate(-219.99 -348.43)"/><path d="M708,417.4V398.73h2.85v2.83a7.86,7.86,0,0,1,2-2.62,3.53,3.53,0,0,1,2-.63,6.15,6.15,0,0,1,3.25,1L717,402.26a4.56,4.56,0,0,0-2.32-.68,3,3,0,0,0-1.86.62,3.47,3.47,0,0,0-1.18,1.73,12.44,12.44,0,0,0-.52,3.7v9.77Z" transform="translate(-219.99 -348.43)"/><path d="M720,424.55V398.73h2.88v2.43a7.22,7.22,0,0,1,2.3-2.14,6.38,6.38,0,0,1,3.11-.71,7.37,7.37,0,0,1,4.22,1.23,7.55,7.55,0,0,1,2.76,3.47,12.71,12.71,0,0,1,.93,4.91,12.42,12.42,0,0,1-1,5.16,7.78,7.78,0,0,1-7.11,4.74,5.92,5.92,0,0,1-2.84-.67,6.44,6.44,0,0,1-2.06-1.68v9.08Zm2.86-16.38q0,3.6,1.46,5.33a4.46,4.46,0,0,0,3.53,1.72,4.59,4.59,0,0,0,3.62-1.78c1-1.19,1.5-3,1.5-5.53a8.27,8.27,0,0,0-1.47-5.35,4.43,4.43,0,0,0-3.51-1.77,4.54,4.54,0,0,0-3.57,1.89A8.43,8.43,0,0,0,722.85,408.17Z" transform="translate(-219.99 -348.43)"/><path d="M740,417.4V398.73h2.85v2.83a7.86,7.86,0,0,1,2-2.62,3.53,3.53,0,0,1,2-.63,6.15,6.15,0,0,1,3.25,1L749,402.26a4.56,4.56,0,0,0-2.32-.68,3,3,0,0,0-1.86.62,3.47,3.47,0,0,0-1.18,1.73,12.44,12.44,0,0,0-.52,3.7v9.77Z" transform="translate(-219.99 -348.43)"/><path d="M764.77,411.39l3.27.4a8,8,0,0,1-2.86,4.45,8.67,8.67,0,0,1-5.35,1.58,8.53,8.53,0,0,1-6.49-2.52,9.86,9.86,0,0,1-2.4-7.08c0-3.14.81-5.57,2.43-7.31a8.21,8.21,0,0,1,6.29-2.6,8,8,0,0,1,6.12,2.55q2.37,2.55,2.37,7.17c0,.19,0,.47,0,.84H754.21a7.18,7.18,0,0,0,1.74,4.71,5.17,5.17,0,0,0,3.9,1.64,4.83,4.83,0,0,0,3-.91A6.1,6.1,0,0,0,764.77,411.39Zm-10.38-5.12h10.42a6.27,6.27,0,0,0-1.2-3.53,4.83,4.83,0,0,0-3.92-1.83,5,5,0,0,0-3.66,1.46A5.73,5.73,0,0,0,754.39,406.27Z" transform="translate(-219.99 -348.43)"/><path d="M778.92,414.57l.46,2.79a11.64,11.64,0,0,1-2.39.29,5.42,5.42,0,0,1-2.67-.55,3.07,3.07,0,0,1-1.34-1.43,11.64,11.64,0,0,1-.38-3.74V401.19h-2.32v-2.46h2.32v-4.62l3.14-1.9v6.52h3.18v2.46h-3.18v10.92a5.54,5.54,0,0,0,.17,1.74,1.25,1.25,0,0,0,.55.61,2,2,0,0,0,1.08.23A10.4,10.4,0,0,0,778.92,414.57Z" transform="translate(-219.99 -348.43)"/><path d="M794.2,415.1a11.93,11.93,0,0,1-3.38,2.11,9.82,9.82,0,0,1-3.49.61,6.8,6.8,0,0,1-4.73-1.5,5,5,0,0,1-1.65-3.84,5.08,5.08,0,0,1,.62-2.51,5.24,5.24,0,0,1,1.64-1.82,7.7,7.7,0,0,1,2.27-1,21,21,0,0,1,2.81-.48,28.77,28.77,0,0,0,5.65-1.09c0-.43,0-.71,0-.82a3.5,3.5,0,0,0-.89-2.73,5.33,5.33,0,0,0-3.61-1.07,5.6,5.6,0,0,0-3.29.78,4.79,4.79,0,0,0-1.58,2.77l-3.09-.42a7.66,7.66,0,0,1,1.39-3.21,6.13,6.13,0,0,1,2.79-1.88,12.5,12.5,0,0,1,4.24-.66,11.4,11.4,0,0,1,3.89.56,5.17,5.17,0,0,1,2.19,1.42,5,5,0,0,1,1,2.15,18.42,18.42,0,0,1,.16,2.92v4.22a43.87,43.87,0,0,0,.2,5.58,6.92,6.92,0,0,0,.8,2.24h-3.31A6.59,6.59,0,0,1,794.2,415.1Zm-.26-7.07a23.21,23.21,0,0,1-5.17,1.2,11.35,11.35,0,0,0-2.76.63,2.76,2.76,0,0,0-.73,4.64,4.13,4.13,0,0,0,2.8.84,6.42,6.42,0,0,0,3.25-.8,4.93,4.93,0,0,0,2.1-2.19,7.62,7.62,0,0,0,.51-3.16Z" transform="translate(-219.99 -348.43)"/><path d="M809,414.57l.46,2.79a11.73,11.73,0,0,1-2.4.29,5.48,5.48,0,0,1-2.67-.55,3,3,0,0,1-1.33-1.43,11.26,11.26,0,0,1-.39-3.74V401.19H800.3v-2.46h2.32v-4.62l3.15-1.9v6.52H809v2.46h-3.18v10.92a5.65,5.65,0,0,0,.16,1.74,1.3,1.3,0,0,0,.55.61,2,2,0,0,0,1.08.23A10.67,10.67,0,0,0,809,414.57Z" transform="translate(-219.99 -348.43)"/><path d="M812.06,395.27v-3.64h3.16v3.64Zm0,22.13V398.73h3.16V417.4Z" transform="translate(-219.99 -348.43)"/><path d="M818.86,408.07q0-5.19,2.89-7.69a8.68,8.68,0,0,1,5.87-2.07,8.38,8.38,0,0,1,6.29,2.52,9.6,9.6,0,0,1,2.44,7,12.38,12.38,0,0,1-1.08,5.67,7.65,7.65,0,0,1-3.14,3.21,9.19,9.19,0,0,1-4.51,1.14,8.4,8.4,0,0,1-6.34-2.51Q818.87,412.79,818.86,408.07Zm3.25,0a8,8,0,0,0,1.57,5.37,5.22,5.22,0,0,0,7.86,0q1.56-1.8,1.56-5.47a7.71,7.71,0,0,0-1.57-5.25,5.23,5.23,0,0,0-7.85,0A8,8,0,0,0,822.11,408.07Z" transform="translate(-219.99 -348.43)"/><path d="M840.06,417.4V398.73h2.85v2.66a6.69,6.69,0,0,1,5.94-3.08,7.66,7.66,0,0,1,3.1.61,4.79,4.79,0,0,1,2.12,1.59,6.07,6.07,0,0,1,1,2.33,19.25,19.25,0,0,1,.17,3.08V417.4h-3.16V406a8.67,8.67,0,0,0-.37-2.89,3,3,0,0,0-1.31-1.53,4.18,4.18,0,0,0-2.21-.57,5.15,5.15,0,0,0-3.49,1.28c-1,.86-1.46,2.48-1.46,4.87v10.2Z" transform="translate(-219.99 -348.43)"/><path class="cls-2" d="M991.35,470.67C984.23,423.48,935.78,387,877,387" transform="translate(-219.99 -348.43)"/><path d="M992.25,482.7c1.63-5.83,4.62-13.16,8-17.83l-9.19,4.23-9.76-2.64C985.51,470.5,989.68,477.22,992.25,482.7Z" transform="translate(-219.99 -348.43)"/><line class="cls-2" x1="392.07" y1="163.51" x2="653.9" y2="163.51"/><path d="M886,511.93c-5.67,2.11-12.72,5.71-17.09,9.52l3.44-9.52-3.44-9.5C873.24,506.23,880.29,509.83,886,511.93Z" transform="translate(-219.99 -348.43)"/><path class="cls-3" d="M847.05,490.59" transform="translate(-219.99 -348.43)"/><path class="cls-3" d="M728.28,496" transform="translate(-219.99 -348.43)"/><path class="cls-3" d="M779.05,549.15" transform="translate(-219.99 -348.43)"/><path class="cls-3" d="M789.87,430.75" transform="translate(-219.99 -348.43)"/><path class="cls-3" d="M727.56,489.88" transform="translate(-219.99 -348.43)"/><line class="cls-3" x1="500.33" y1="194.89" x2="565.4" y2="132.72"/><line class="cls-3" x1="501.57" y1="131.5" x2="563.74" y2="196.57"/><path class="cls-2" d="M531.38,457.51c0-36,37.07-65.63,85-69.93" transform="translate(-219.99 -348.43)"/><path d="M628.47,387c-5.56,2.42-12.4,6.39-16.55,10.43l2.92-9.68-4-9.31C615.45,382,622.68,385.25,628.47,387Z" transform="translate(-219.99 -348.43)"/><text class="cls-1" transform="translate(0 173.77)">reality</text><line class="cls-2" x1="115.75" y1="164.03" x2="210.49" y2="164.03"/><path d="M442.55,512.46c-5.68,2.11-12.72,5.71-17.09,9.52l3.44-9.52L425.46,503C429.83,506.76,436.87,510.36,442.55,512.46Z" transform="translate(-219.99 -348.43)"/></svg>