<svg id="Calque_1" data-name="Calque 1" xmlns="http://www.w3.org/2000/svg" viewBox="0 0 878.33 200.09"><defs><style>.cls-1{font-size:36px;font-family:ArialMT, Arial;}.cls-2,.cls-3{fill:none;stroke:#000;stroke-miterlimit:10;}.cls-2{stroke-width:2px;}.cls-3{stroke-width:4px;}</style></defs><title>capteur_inconscient_xp</title><path d="M472.25,492.18l3.11.41a8.06,8.06,0,0,1-2.61,5,7.62,7.62,0,0,1-5.16,1.82,8,8,0,0,1-6.16-2.5c-1.56-1.67-2.33-4.07-2.33-7.18a13,13,0,0,1,1-5.3,7,7,0,0,1,3-3.4,9.09,9.09,0,0,1,4.45-1.13,7.73,7.73,0,0,1,5,1.54,7.06,7.06,0,0,1,2.48,4.37l-3.08.47a5.11,5.11,0,0,0-1.55-2.83,4.06,4.06,0,0,0-2.7-1,4.92,4.92,0,0,0-3.89,1.71c-1,1.15-1.49,2.95-1.49,5.43s.48,4.33,1.44,5.46a4.68,4.68,0,0,0,3.76,1.71,4.44,4.44,0,0,0,3.11-1.14A5.68,5.68,0,0,0,472.25,492.18Z" transform="translate(-201.98 -346.29)"/><path d="M490.25,496.72a12,12,0,0,1-3.39,2.11,9.78,9.78,0,0,1-3.49.61,6.82,6.82,0,0,1-4.73-1.5A5,5,0,0,1,477,494.1a5.08,5.08,0,0,1,.63-2.51,5.21,5.21,0,0,1,1.63-1.82,7.65,7.65,0,0,1,2.28-1,20.7,20.7,0,0,1,2.81-.48,28.79,28.79,0,0,0,5.64-1.09c0-.43,0-.71,0-.82a3.5,3.5,0,0,0-.9-2.73,5.32,5.32,0,0,0-3.6-1.07,5.61,5.61,0,0,0-3.3.78,4.75,4.75,0,0,0-1.57,2.77l-3.09-.42a7.65,7.65,0,0,1,1.38-3.21,6.09,6.09,0,0,1,2.8-1.88,12.46,12.46,0,0,1,4.24-.66,11.34,11.34,0,0,1,3.88.56,5.15,5.15,0,0,1,2.2,1.42,5,5,0,0,1,1,2.15,17.25,17.25,0,0,1,.16,2.92v4.22a46,46,0,0,0,.2,5.58,7.16,7.16,0,0,0,.8,2.24h-3.3A6.59,6.59,0,0,1,490.25,496.72Zm-.27-7.07a23.21,23.21,0,0,1-5.17,1.2,11.35,11.35,0,0,0-2.76.63,2.69,2.69,0,0,0-1.24,1,2.64,2.64,0,0,0-.44,1.5,2.72,2.72,0,0,0,.95,2.11,4.16,4.16,0,0,0,2.81.84,6.45,6.45,0,0,0,3.25-.8,4.86,4.86,0,0,0,2.09-2.19,7.62,7.62,0,0,0,.51-3.16Z" transform="translate(-201.98 -346.29)"/><path d="M498.08,506.17V480.35H501v2.43a7.22,7.22,0,0,1,2.3-2.14,6.38,6.38,0,0,1,3.11-.71,7.37,7.37,0,0,1,4.22,1.23,7.55,7.55,0,0,1,2.76,3.47,12.71,12.71,0,0,1,.93,4.91,12.42,12.42,0,0,1-1,5.16,7.78,7.78,0,0,1-7.11,4.74,5.92,5.92,0,0,1-2.84-.67,6.44,6.44,0,0,1-2.06-1.68v9.08ZM501,489.79q0,3.6,1.46,5.33a4.46,4.46,0,0,0,3.53,1.72,4.59,4.59,0,0,0,3.61-1.78c1-1.19,1.51-3,1.51-5.53a8.27,8.27,0,0,0-1.47-5.35,4.43,4.43,0,0,0-3.51-1.77,4.54,4.54,0,0,0-3.57,1.89A8.43,8.43,0,0,0,501,489.79Z" transform="translate(-201.98 -346.29)"/><path d="M525,496.19l.46,2.79a11.64,11.64,0,0,1-2.39.29,5.42,5.42,0,0,1-2.67-.55,3.07,3.07,0,0,1-1.34-1.43,11.64,11.64,0,0,1-.38-3.74V482.81h-2.32v-2.46h2.32v-4.62l3.14-1.9v6.52H525v2.46h-3.18v10.92a5.54,5.54,0,0,0,.17,1.74,1.28,1.28,0,0,0,.54.61,2.08,2.08,0,0,0,1.09.23A10.4,10.4,0,0,0,525,496.19Z" transform="translate(-201.98 -346.29)"/><path d="M540.89,493l3.27.4a8,8,0,0,1-2.87,4.45,9.72,9.72,0,0,1-11.84-.94,9.86,9.86,0,0,1-2.4-7.08c0-3.14.81-5.57,2.43-7.31a8.22,8.22,0,0,1,6.29-2.6,8,8,0,0,1,6.12,2.55q2.37,2.55,2.37,7.17c0,.19,0,.47,0,.84H530.32a7.2,7.2,0,0,0,1.74,4.71,5.21,5.21,0,0,0,3.91,1.64,4.9,4.9,0,0,0,3-.91A6.1,6.1,0,0,0,540.89,493Zm-10.39-5.12h10.42a6.34,6.34,0,0,0-1.19-3.53,4.86,4.86,0,0,0-3.92-1.83,5,5,0,0,0-3.67,1.46A5.73,5.73,0,0,0,530.5,487.89Z" transform="translate(-201.98 -346.29)"/><path d="M560.36,499v-2.74a6.81,6.81,0,0,1-5.92,3.16,7.54,7.54,0,0,1-3.08-.63,5,5,0,0,1-2.13-1.59,6,6,0,0,1-1-2.35,16,16,0,0,1-.19-2.95V480.35h3.16V490.7a18.06,18.06,0,0,0,.2,3.34,3.28,3.28,0,0,0,1.26,2,3.9,3.9,0,0,0,2.39.72,5.32,5.32,0,0,0,2.68-.73,4,4,0,0,0,1.76-2,9.87,9.87,0,0,0,.52-3.65v-10h3.16V499Z" transform="translate(-201.98 -346.29)"/><path d="M568.12,499V480.35H571v2.83a7.74,7.74,0,0,1,2-2.62,3.51,3.51,0,0,1,2-.63,6.18,6.18,0,0,1,3.25,1l-1.09,2.93a4.59,4.59,0,0,0-2.32-.68,3,3,0,0,0-1.86.62,3.35,3.35,0,0,0-1.18,1.73,12.44,12.44,0,0,0-.53,3.7V499Z" transform="translate(-201.98 -346.29)"/><path d="M446.8,536.65l3.13-.49A4.37,4.37,0,0,0,451.4,539a5.08,5.08,0,0,0,3.36,1,5,5,0,0,0,3.24-.89,2.65,2.65,0,0,0,1.05-2.08,1.92,1.92,0,0,0-.93-1.69,13.56,13.56,0,0,0-3.23-1.07,29.94,29.94,0,0,1-4.83-1.52,4.6,4.6,0,0,1-2.73-4.28,4.82,4.82,0,0,1,.57-2.31,5.1,5.1,0,0,1,1.56-1.77,6.51,6.51,0,0,1,2-.92,9.63,9.63,0,0,1,2.73-.38,10.85,10.85,0,0,1,3.86.63,5.24,5.24,0,0,1,2.45,1.72,6.65,6.65,0,0,1,1.09,2.89l-3.09.42a3.4,3.4,0,0,0-1.22-2.25,4.49,4.49,0,0,0-2.86-.81,5.18,5.18,0,0,0-3.11.72,2.11,2.11,0,0,0-.93,1.69,1.8,1.8,0,0,0,.38,1.11,2.81,2.81,0,0,0,1.22.84q.47.18,2.79.81a39.81,39.81,0,0,1,4.69,1.47,4.77,4.77,0,0,1,2.08,1.66,4.65,4.65,0,0,1,.75,2.71,5.25,5.25,0,0,1-.92,3,5.89,5.89,0,0,1-2.66,2.17,9.68,9.68,0,0,1-3.94.76,8.75,8.75,0,0,1-5.54-1.51A7,7,0,0,1,446.8,536.65Z" transform="translate(-201.98 -346.29)"/><path d="M478.85,536.21l3.27.4a8.06,8.06,0,0,1-2.87,4.45,9.72,9.72,0,0,1-11.84-.94A9.86,9.86,0,0,1,465,533c0-3.14.81-5.57,2.43-7.31a8.21,8.21,0,0,1,6.29-2.6,8,8,0,0,1,6.12,2.55q2.37,2.55,2.37,7.17c0,.19,0,.47,0,.84H468.28a7.21,7.21,0,0,0,1.74,4.72,5.18,5.18,0,0,0,3.9,1.63,4.83,4.83,0,0,0,3-.91A6.12,6.12,0,0,0,478.85,536.21Zm-10.39-5.12h10.42a6.34,6.34,0,0,0-1.19-3.53,4.86,4.86,0,0,0-3.92-1.83,5,5,0,0,0-3.67,1.46A5.73,5.73,0,0,0,468.46,531.09Z" transform="translate(-201.98 -346.29)"/><path d="M486.09,542.22V523.55h2.85v2.66a6.71,6.71,0,0,1,5.94-3.08,7.69,7.69,0,0,1,3.1.61,4.85,4.85,0,0,1,2.12,1.59,6,6,0,0,1,1,2.34,17.61,17.61,0,0,1,.18,3.07v11.48h-3.17V530.86a8.45,8.45,0,0,0-.37-2.89,3,3,0,0,0-1.3-1.53,4.2,4.2,0,0,0-2.21-.57,5.11,5.11,0,0,0-3.49,1.29q-1.47,1.27-1.47,4.86v10.2Z" transform="translate(-201.98 -346.29)"/><path d="M504.84,536.65l3.13-.49a4.41,4.41,0,0,0,1.47,2.88,5.11,5.11,0,0,0,3.37,1,4.94,4.94,0,0,0,3.23-.89,2.66,2.66,0,0,0,1.06-2.08,1.91,1.91,0,0,0-.94-1.69,13.56,13.56,0,0,0-3.23-1.07,29.94,29.94,0,0,1-4.83-1.52,4.65,4.65,0,0,1-2.73-4.28,4.82,4.82,0,0,1,.57-2.31,5.1,5.1,0,0,1,1.56-1.77,6.51,6.51,0,0,1,2-.92,9.63,9.63,0,0,1,2.73-.38,10.81,10.81,0,0,1,3.86.63,5.19,5.19,0,0,1,2.45,1.72,6.53,6.53,0,0,1,1.09,2.89l-3.09.42a3.4,3.4,0,0,0-1.22-2.25,4.47,4.47,0,0,0-2.86-.81,5.18,5.18,0,0,0-3.11.72,2.11,2.11,0,0,0-.93,1.69,1.75,1.75,0,0,0,.39,1.11,2.71,2.71,0,0,0,1.21.84q.48.18,2.79.81a39.81,39.81,0,0,1,4.69,1.47,4.72,4.72,0,0,1,2.08,1.66,4.59,4.59,0,0,1,.76,2.71,5.26,5.26,0,0,1-.93,3,5.89,5.89,0,0,1-2.66,2.17,9.68,9.68,0,0,1-3.94.76,8.75,8.75,0,0,1-5.54-1.51A7.08,7.08,0,0,1,504.84,536.65Z" transform="translate(-201.98 -346.29)"/><path d="M522.93,532.89q0-5.19,2.88-7.69a8.73,8.73,0,0,1,5.88-2.07,8.38,8.38,0,0,1,6.29,2.52,9.6,9.6,0,0,1,2.44,7,12.38,12.38,0,0,1-1.08,5.67,7.62,7.62,0,0,1-3.15,3.21,9.15,9.15,0,0,1-4.5,1.14,8.4,8.4,0,0,1-6.34-2.51Q522.93,537.61,522.93,532.89Zm3.25,0a8,8,0,0,0,1.57,5.37,5.22,5.22,0,0,0,7.86,0q1.56-1.8,1.56-5.47a7.71,7.71,0,0,0-1.57-5.25,5.23,5.23,0,0,0-7.85,0A8,8,0,0,0,526.18,532.89Z" transform="translate(-201.98 -346.29)"/><path d="M544.1,542.22V523.55h2.84v2.83a7.74,7.74,0,0,1,2-2.62,3.51,3.51,0,0,1,2-.63,6.18,6.18,0,0,1,3.25,1l-1.09,2.93a4.59,4.59,0,0,0-2.32-.68A3.09,3.09,0,0,0,549,527a3.39,3.39,0,0,0-1.17,1.73,12.44,12.44,0,0,0-.53,3.7v9.77Z" transform="translate(-201.98 -346.29)"/><path d="M556.14,520.09v-3.64h3.16v3.64Zm0,22.13V523.55h3.16v18.67Z" transform="translate(-201.98 -346.29)"/><path d="M576.9,536.21l3.27.4a8,8,0,0,1-2.87,4.45,9.72,9.72,0,0,1-11.84-.94,9.86,9.86,0,0,1-2.4-7.08c0-3.14.81-5.57,2.43-7.31a8.22,8.22,0,0,1,6.29-2.6,8,8,0,0,1,6.12,2.55q2.37,2.55,2.37,7.17c0,.19,0,.47,0,.84H566.33a7.21,7.21,0,0,0,1.74,4.72A5.19,5.19,0,0,0,572,540a4.86,4.86,0,0,0,3-.91A6.1,6.1,0,0,0,576.9,536.21Zm-10.39-5.12h10.42a6.34,6.34,0,0,0-1.19-3.53,4.86,4.86,0,0,0-3.92-1.83,5,5,0,0,0-3.67,1.46A5.73,5.73,0,0,0,566.51,531.09Z" transform="translate(-201.98 -346.29)"/><path d="M584.07,542.22V516.45h3.16v25.77Z" transform="translate(-201.98 -346.29)"/><text class="cls-1" transform="translate(702.22 174.91)">expérience</text><path d="M650,350.07v-3.64h3.17v3.64Zm0,22.13V353.53h3.17V372.2Z" transform="translate(-201.98 -346.29)"/><path d="M658,372.2V353.53h2.85v2.66a6.69,6.69,0,0,1,5.94-3.08,7.66,7.66,0,0,1,3.1.61,4.79,4.79,0,0,1,2.12,1.59,6.07,6.07,0,0,1,1,2.33,19.25,19.25,0,0,1,.17,3.08V372.2H670V360.84a8.67,8.67,0,0,0-.37-2.89,3,3,0,0,0-1.31-1.53,4.18,4.18,0,0,0-2.21-.57,5.17,5.17,0,0,0-3.49,1.28q-1.46,1.29-1.46,4.87v10.2Z" transform="translate(-201.98 -346.29)"/><path d="M684.88,369.37l.46,2.79a11.64,11.64,0,0,1-2.39.29,5.42,5.42,0,0,1-2.67-.55,3,3,0,0,1-1.34-1.43,11.26,11.26,0,0,1-.39-3.74V356h-2.32v-2.46h2.32v-4.62l3.15-1.9v6.52h3.18V356H681.7v10.92a5.54,5.54,0,0,0,.17,1.74,1.28,1.28,0,0,0,.54.61,2,2,0,0,0,1.08.23A10.53,10.53,0,0,0,684.88,369.37Z" transform="translate(-201.98 -346.29)"/><path d="M700.75,366.19l3.27.4a8,8,0,0,1-2.86,4.45,8.66,8.66,0,0,1-5.34,1.58,8.54,8.54,0,0,1-6.5-2.52,9.86,9.86,0,0,1-2.4-7.08c0-3.14.81-5.57,2.43-7.31a8.21,8.21,0,0,1,6.29-2.6,8,8,0,0,1,6.12,2.55q2.37,2.55,2.37,7.17c0,.19,0,.47,0,.84H690.19a7.2,7.2,0,0,0,1.74,4.71,5.17,5.17,0,0,0,3.9,1.64,4.9,4.9,0,0,0,3-.91A6.1,6.1,0,0,0,700.75,366.19Zm-10.38-5.12h10.42a6.27,6.27,0,0,0-1.2-3.53,4.83,4.83,0,0,0-3.92-1.83,5,5,0,0,0-3.66,1.46A5.73,5.73,0,0,0,690.37,361.07Z" transform="translate(-201.98 -346.29)"/><path d="M708,372.2V353.53h2.85v2.83a7.86,7.86,0,0,1,2-2.62,3.53,3.53,0,0,1,2-.63,6.15,6.15,0,0,1,3.25,1L717,357.06a4.56,4.56,0,0,0-2.32-.68,3,3,0,0,0-1.86.62,3.47,3.47,0,0,0-1.18,1.73,12.44,12.44,0,0,0-.52,3.7v9.77Z" transform="translate(-201.98 -346.29)"/><path d="M720,379.35V353.53h2.88V356a7.22,7.22,0,0,1,2.3-2.14,6.38,6.38,0,0,1,3.11-.71,7.37,7.37,0,0,1,4.22,1.23,7.55,7.55,0,0,1,2.76,3.47,12.71,12.71,0,0,1,.93,4.91,12.42,12.42,0,0,1-1,5.16,7.78,7.78,0,0,1-7.11,4.74,5.92,5.92,0,0,1-2.84-.67,6.44,6.44,0,0,1-2.06-1.68v9.08ZM722.85,363q0,3.6,1.46,5.33a4.46,4.46,0,0,0,3.53,1.72,4.62,4.62,0,0,0,3.62-1.78c1-1.19,1.5-3,1.5-5.53a8.27,8.27,0,0,0-1.47-5.35,4.43,4.43,0,0,0-3.51-1.77,4.54,4.54,0,0,0-3.57,1.89A8.43,8.43,0,0,0,722.85,363Z" transform="translate(-201.98 -346.29)"/><path d="M740,372.2V353.53h2.85v2.83a7.86,7.86,0,0,1,2-2.62,3.53,3.53,0,0,1,2-.63,6.15,6.15,0,0,1,3.25,1L749,357.06a4.56,4.56,0,0,0-2.32-.68,3,3,0,0,0-1.86.62,3.47,3.47,0,0,0-1.18,1.73,12.44,12.44,0,0,0-.52,3.7v9.77Z" transform="translate(-201.98 -346.29)"/><path d="M764.77,366.19l3.27.4a8,8,0,0,1-2.86,4.45,8.67,8.67,0,0,1-5.35,1.58,8.53,8.53,0,0,1-6.49-2.52,9.86,9.86,0,0,1-2.4-7.08c0-3.14.81-5.57,2.43-7.31a8.21,8.21,0,0,1,6.29-2.6,8,8,0,0,1,6.12,2.55q2.37,2.55,2.37,7.17c0,.19,0,.47,0,.84H754.21a7.2,7.2,0,0,0,1.74,4.71,5.17,5.17,0,0,0,3.9,1.64,4.9,4.9,0,0,0,3-.91A6.1,6.1,0,0,0,764.77,366.19Zm-10.38-5.12h10.42a6.27,6.27,0,0,0-1.2-3.53,4.83,4.83,0,0,0-3.92-1.83,5,5,0,0,0-3.66,1.46A5.73,5.73,0,0,0,754.39,361.07Zm3.41-9.86,2.33-4.92h4.15l-3.86,4.92Z" transform="translate(-201.98 -346.29)"/><path d="M778.92,369.37l.46,2.79a11.64,11.64,0,0,1-2.39.29,5.42,5.42,0,0,1-2.67-.55,3.07,3.07,0,0,1-1.34-1.43,11.64,11.64,0,0,1-.38-3.74V356h-2.32v-2.46h2.32v-4.62l3.14-1.9v6.52h3.18V356h-3.18v10.92a5.54,5.54,0,0,0,.17,1.74,1.25,1.25,0,0,0,.55.61,2,2,0,0,0,1.08.23A10.4,10.4,0,0,0,778.92,369.37Z" transform="translate(-201.98 -346.29)"/><path d="M794.2,369.9a11.93,11.93,0,0,1-3.38,2.11,9.82,9.82,0,0,1-3.49.61,6.8,6.8,0,0,1-4.73-1.5,5,5,0,0,1-1.65-3.84,5.08,5.08,0,0,1,.62-2.51,5.24,5.24,0,0,1,1.64-1.82,7.7,7.7,0,0,1,2.27-1,21,21,0,0,1,2.81-.48,28.77,28.77,0,0,0,5.65-1.09c0-.43,0-.71,0-.82a3.5,3.5,0,0,0-.89-2.73,5.33,5.33,0,0,0-3.61-1.07,5.6,5.6,0,0,0-3.29.78,4.79,4.79,0,0,0-1.58,2.77l-3.09-.42a7.66,7.66,0,0,1,1.39-3.21,6.05,6.05,0,0,1,2.79-1.88,12.5,12.5,0,0,1,4.24-.66,11.4,11.4,0,0,1,3.89.56,5.17,5.17,0,0,1,2.19,1.42,5,5,0,0,1,1,2.15,18.42,18.42,0,0,1,.16,2.92v4.22a43.87,43.87,0,0,0,.2,5.58,6.92,6.92,0,0,0,.8,2.24h-3.31A6.59,6.59,0,0,1,794.2,369.9Zm-.26-7.07a23.21,23.21,0,0,1-5.17,1.2,11.35,11.35,0,0,0-2.76.63,2.76,2.76,0,0,0-.73,4.64,4.13,4.13,0,0,0,2.8.84,6.42,6.42,0,0,0,3.25-.8,4.93,4.93,0,0,0,2.1-2.19,7.62,7.62,0,0,0,.51-3.16Z" transform="translate(-201.98 -346.29)"/><path d="M809,369.37l.46,2.79a11.73,11.73,0,0,1-2.4.29,5.48,5.48,0,0,1-2.67-.55,3,3,0,0,1-1.33-1.43,11.26,11.26,0,0,1-.39-3.74V356H800.3v-2.46h2.32v-4.62l3.15-1.9v6.52H809V356h-3.18v10.92a5.65,5.65,0,0,0,.16,1.74,1.3,1.3,0,0,0,.55.61,2,2,0,0,0,1.08.23A10.67,10.67,0,0,0,809,369.37Z" transform="translate(-201.98 -346.29)"/><path d="M812.06,350.07v-3.64h3.16v3.64Zm0,22.13V353.53h3.16V372.2Z" transform="translate(-201.98 -346.29)"/><path d="M818.86,362.87q0-5.19,2.89-7.69a8.68,8.68,0,0,1,5.87-2.07,8.38,8.38,0,0,1,6.29,2.52,9.6,9.6,0,0,1,2.44,7,12.38,12.38,0,0,1-1.08,5.67,7.65,7.65,0,0,1-3.14,3.21,9.19,9.19,0,0,1-4.51,1.14,8.4,8.4,0,0,1-6.34-2.51Q818.87,367.59,818.86,362.87Zm3.25,0a8,8,0,0,0,1.57,5.37,5.22,5.22,0,0,0,7.86,0q1.56-1.8,1.56-5.47a7.71,7.71,0,0,0-1.57-5.25,5.23,5.23,0,0,0-7.85,0A8,8,0,0,0,822.11,362.87Z" transform="translate(-201.98 -346.29)"/><path d="M840.06,372.2V353.53h2.85v2.66a6.69,6.69,0,0,1,5.94-3.08,7.66,7.66,0,0,1,3.1.61,4.79,4.79,0,0,1,2.12,1.59,6.07,6.07,0,0,1,1,2.33,19.25,19.25,0,0,1,.17,3.08V372.2h-3.16V360.84a8.67,8.67,0,0,0-.37-2.89,3,3,0,0,0-1.31-1.53,4.18,4.18,0,0,0-2.21-.57,5.15,5.15,0,0,0-3.49,1.28c-1,.86-1.46,2.48-1.46,4.87v10.2Z" transform="translate(-201.98 -346.29)"/><path d="M655,393.27v-3.64h3.17v3.64Zm0,22.13V396.73h3.17V415.4Z" transform="translate(-201.98 -346.29)"/><path d="M663,415.4V396.73h2.85v2.66a6.69,6.69,0,0,1,5.94-3.08,7.66,7.66,0,0,1,3.1.61,4.79,4.79,0,0,1,2.12,1.59,6.07,6.07,0,0,1,1,2.33,19.25,19.25,0,0,1,.17,3.08V415.4H675V404a8.41,8.41,0,0,0-.37-2.89,3,3,0,0,0-1.31-1.53,4.18,4.18,0,0,0-2.21-.57,5.17,5.17,0,0,0-3.49,1.28q-1.46,1.29-1.46,4.87v10.2Z" transform="translate(-201.98 -346.29)"/><path d="M695.16,408.56l3.11.41a8.06,8.06,0,0,1-2.61,5,7.62,7.62,0,0,1-5.16,1.82,8,8,0,0,1-6.16-2.5c-1.56-1.67-2.33-4.07-2.33-7.18a13,13,0,0,1,1-5.3,7,7,0,0,1,3-3.4,9.1,9.1,0,0,1,4.46-1.13,7.72,7.72,0,0,1,5,1.54,7,7,0,0,1,2.48,4.37l-3.08.47a5.11,5.11,0,0,0-1.55-2.83,4.06,4.06,0,0,0-2.7-.95,4.9,4.9,0,0,0-3.89,1.72q-1.49,1.71-1.49,5.42t1.44,5.46a4.69,4.69,0,0,0,3.76,1.71,4.42,4.42,0,0,0,3.11-1.14A5.68,5.68,0,0,0,695.16,408.56Z" transform="translate(-201.98 -346.29)"/><path d="M699.8,406.07q0-5.19,2.88-7.69a8.7,8.7,0,0,1,5.87-2.07,8.37,8.37,0,0,1,6.29,2.52,9.6,9.6,0,0,1,2.45,7,12.38,12.38,0,0,1-1.08,5.67,7.62,7.62,0,0,1-3.15,3.21,9.19,9.19,0,0,1-4.51,1.14,8.44,8.44,0,0,1-6.34-2.51Q699.8,410.79,699.8,406.07Zm3.25,0a8,8,0,0,0,1.56,5.37,5.22,5.22,0,0,0,7.86,0c1-1.2,1.57-3,1.57-5.47a7.71,7.71,0,0,0-1.58-5.25,5,5,0,0,0-3.91-1.78,5.05,5.05,0,0,0-3.94,1.77A8,8,0,0,0,703.05,406.07Z" transform="translate(-201.98 -346.29)"/><path d="M721,415.4V396.73h2.84v2.66a6.71,6.71,0,0,1,5.95-3.08,7.73,7.73,0,0,1,3.1.61,4.85,4.85,0,0,1,2.12,1.59,6.22,6.22,0,0,1,1,2.33,17.82,17.82,0,0,1,.18,3.08V415.4H733V404a8.41,8.41,0,0,0-.37-2.89,3,3,0,0,0-1.31-1.53,4.14,4.14,0,0,0-2.2-.57,5.15,5.15,0,0,0-3.49,1.28q-1.47,1.29-1.47,4.87v10.2Z" transform="translate(-201.98 -346.29)"/><path d="M739.75,409.83l3.13-.5a4.41,4.41,0,0,0,1.47,2.89,5.08,5.08,0,0,0,3.36,1,5,5,0,0,0,3.24-.89,2.65,2.65,0,0,0,1-2.08,1.92,1.92,0,0,0-.93-1.69,13.56,13.56,0,0,0-3.23-1.07A29.94,29.94,0,0,1,743,406a4.6,4.6,0,0,1-2.73-4.28,4.82,4.82,0,0,1,.57-2.31,5.1,5.1,0,0,1,1.56-1.77,6.51,6.51,0,0,1,2-.92,9.63,9.63,0,0,1,2.73-.38,10.85,10.85,0,0,1,3.86.63,5.19,5.19,0,0,1,2.45,1.72,6.65,6.65,0,0,1,1.09,2.89l-3.09.42a3.4,3.4,0,0,0-1.22-2.25,4.49,4.49,0,0,0-2.86-.81,5.18,5.18,0,0,0-3.11.72,2.1,2.1,0,0,0-.93,1.69,1.8,1.8,0,0,0,.38,1.11,2.81,2.81,0,0,0,1.22.84c.31.12,1.25.39,2.79.81a39.81,39.81,0,0,1,4.69,1.47,4.72,4.72,0,0,1,2.08,1.66,4.66,4.66,0,0,1,.76,2.71,5.26,5.26,0,0,1-.93,3,5.89,5.89,0,0,1-2.66,2.17,9.68,9.68,0,0,1-3.94.76,8.75,8.75,0,0,1-5.54-1.51A7,7,0,0,1,739.75,409.83Z" transform="translate(-201.98 -346.29)"/><path d="M771.2,408.56l3.11.41a8.06,8.06,0,0,1-2.61,5,7.62,7.62,0,0,1-5.16,1.82,8,8,0,0,1-6.16-2.5c-1.55-1.67-2.33-4.07-2.33-7.18a13,13,0,0,1,1-5.3,7,7,0,0,1,3.05-3.4,9.12,9.12,0,0,1,4.46-1.13,7.7,7.7,0,0,1,5,1.54,7,7,0,0,1,2.48,4.37l-3.07.47a5.18,5.18,0,0,0-1.56-2.83,4,4,0,0,0-2.7-.95,4.88,4.88,0,0,0-3.88,1.72q-1.5,1.71-1.5,5.42t1.44,5.46a4.71,4.71,0,0,0,3.77,1.71,4.44,4.44,0,0,0,3.11-1.14A5.68,5.68,0,0,0,771.2,408.56Z" transform="translate(-201.98 -346.29)"/><path d="M777,393.27v-3.64h3.16v3.64Zm0,22.13V396.73h3.16V415.4Z" transform="translate(-201.98 -346.29)"/><path d="M797.79,409.39l3.27.4a8,8,0,0,1-2.86,4.45,8.66,8.66,0,0,1-5.34,1.58,8.56,8.56,0,0,1-6.5-2.52,9.86,9.86,0,0,1-2.4-7.08c0-3.14.81-5.57,2.43-7.31a8.21,8.21,0,0,1,6.29-2.6,8,8,0,0,1,6.12,2.55q2.37,2.55,2.37,7.17c0,.19,0,.47,0,.84H787.23a7.18,7.18,0,0,0,1.74,4.71,5.17,5.17,0,0,0,3.9,1.64,4.83,4.83,0,0,0,3-.91A6.1,6.1,0,0,0,797.79,409.39Zm-10.38-5.12h10.42a6.27,6.27,0,0,0-1.2-3.53,4.83,4.83,0,0,0-3.92-1.83,5,5,0,0,0-3.66,1.46A5.73,5.73,0,0,0,787.41,404.27Z" transform="translate(-201.98 -346.29)"/><path d="M805,415.4V396.73h2.84v2.66a6.72,6.72,0,0,1,6-3.08,7.69,7.69,0,0,1,3.1.61,4.85,4.85,0,0,1,2.12,1.59,6.06,6.06,0,0,1,1,2.33,17.82,17.82,0,0,1,.18,3.08V415.4H817V404a8.41,8.41,0,0,0-.37-2.89,3,3,0,0,0-1.31-1.53,4.14,4.14,0,0,0-2.2-.57,5.15,5.15,0,0,0-3.49,1.28q-1.47,1.29-1.47,4.87v10.2Z" transform="translate(-201.98 -346.29)"/><path d="M832,412.57l.45,2.79a11.56,11.56,0,0,1-2.39.29,5.42,5.42,0,0,1-2.67-.55,3,3,0,0,1-1.33-1.43,11.26,11.26,0,0,1-.39-3.74V399.19h-2.32v-2.46h2.32v-4.62l3.15-1.9v6.52H832v2.46h-3.18v10.92a5.65,5.65,0,0,0,.16,1.74,1.3,1.3,0,0,0,.55.61,2,2,0,0,0,1.08.23A10.67,10.67,0,0,0,832,412.57Z" transform="translate(-201.98 -346.29)"/><path d="M847.84,409.39l3.27.4a8,8,0,0,1-2.87,4.45,8.62,8.62,0,0,1-5.34,1.58,8.52,8.52,0,0,1-6.49-2.52,9.86,9.86,0,0,1-2.4-7.08c0-3.14.8-5.57,2.42-7.31a8.24,8.24,0,0,1,6.29-2.6,8,8,0,0,1,6.12,2.55q2.37,2.55,2.37,7.17c0,.19,0,.47,0,.84H837.28a7.08,7.08,0,0,0,1.74,4.71,5.17,5.17,0,0,0,3.9,1.64,4.83,4.83,0,0,0,3-.91A6.1,6.1,0,0,0,847.84,409.39Zm-10.39-5.12h10.43a6.34,6.34,0,0,0-1.2-3.53,4.84,4.84,0,0,0-3.92-1.83,5.05,5.05,0,0,0-3.67,1.46A5.78,5.78,0,0,0,837.45,404.27Z" transform="translate(-201.98 -346.29)"/><path class="cls-2" d="M990.61,463.87C983,420.45,935.09,387,877,387" transform="translate(-201.98 -346.29)"/><path d="M991.65,475.89c1.56-5.85,4.47-13.21,7.84-17.92l-9.14,4.33-9.79-2.52C984.76,463.76,989,470.44,991.65,475.89Z" transform="translate(-201.98 -346.29)"/><line class="cls-2" x1="415.76" y1="165.65" x2="671.91" y2="165.65"/><path d="M886,511.93c-5.67,2.11-12.72,5.71-17.09,9.52l3.44-9.52-3.44-9.5C873.24,506.23,880.29,509.83,886,511.93Z" transform="translate(-201.98 -346.29)"/><path class="cls-3" d="M847.05,490.59" transform="translate(-201.98 -346.29)"/><path class="cls-3" d="M728.28,496" transform="translate(-201.98 -346.29)"/><path class="cls-3" d="M779.05,549.15" transform="translate(-201.98 -346.29)"/><path class="cls-3" d="M789.87,430.75" transform="translate(-201.98 -346.29)"/><path class="cls-3" d="M727.56,489.88" transform="translate(-201.98 -346.29)"/><line class="cls-3" x1="518.34" y1="197.04" x2="583.41" y2="134.86"/><line class="cls-3" x1="519.58" y1="133.64" x2="581.75" y2="198.71"/><path class="cls-2" d="M531.38,457.51c0-36,37.07-65.63,85-69.93" transform="translate(-201.98 -346.29)"/><path d="M628.47,387c-5.56,2.42-12.4,6.39-16.55,10.43l2.92-9.68-4-9.31C615.45,382,622.68,385.25,628.47,387Z" transform="translate(-201.98 -346.29)"/><text class="cls-1" transform="translate(0 175.91)">réalité</text><line class="cls-2" x1="118.76" y1="166.18" x2="213.5" y2="166.18"/><path d="M427.55,512.46c-5.68,2.11-12.72,5.71-17.09,9.52l3.44-9.52L410.46,503C414.83,506.76,421.87,510.36,427.55,512.46Z" transform="translate(-201.98 -346.29)"/></svg>