<svg id="Calque_1" data-name="Calque 1" xmlns="http://www.w3.org/2000/svg" viewBox="0 0 507.28 600.24"><defs><style>.cls-1{font-size:36px;font-family:ArialMT, Arial;}.cls-2{fill:none;stroke:#000;stroke-miterlimit:10;stroke-width:2px;}</style></defs><title>carre_maths</title><text class="cls-1" transform="translate(199.39 588.55)">3</text><line class="cls-2" x1="16.13" y1="525.4" x2="392.3" y2="525.4"/><polygon points="19.05 535.37 1.78 525.4 19.05 515.43 19.05 535.37"/><polygon points="389.38 535.37 406.65 525.4 389.38 515.43 389.38 535.37"/><rect class="cls-2" x="1" y="70.6" width="406.17" height="406.17"/><line class="cls-2" x1="1" y1="341.38" x2="407.17" y2="341.38"/><line class="cls-2" x1="1" y1="205.99" x2="407.17" y2="205.99"/><line class="cls-2" x1="271.78" y1="70.6" x2="271.78" y2="476.77"/><line class="cls-2" x1="136.39" y1="70.6" x2="136.39" y2="476.77"/><line class="cls-2" x1="460.35" y1="463.31" x2="460.35" y2="87.14"/><polygon points="470.32 460.39 460.35 477.66 450.38 460.39 470.32 460.39"/><polygon points="470.32 90.06 460.35 72.79 450.38 90.06 470.32 90.06"/><text class="cls-1" transform="translate(487.26 284.42)">3</text><text class="cls-1" transform="translate(38.85 30.89)">3² = 3x3 = 3+3+3 = 9</text></svg>