<svg id="Calque_1" data-name="Calque 1" xmlns="http://www.w3.org/2000/svg" viewBox="0 0 510.72 353.18"><defs><style>.cls-1,.cls-10,.cls-2,.cls-3,.cls-4,.cls-9{fill:none;}.cls-1,.cls-10,.cls-2,.cls-3{stroke:#000;}.cls-1,.cls-10,.cls-2,.cls-9{stroke-miterlimit:10;}.cls-2,.cls-3,.cls-4{stroke-width:2px;}.cls-10,.cls-3,.cls-4,.cls-9{stroke-linecap:round;}.cls-3,.cls-4{stroke-linejoin:round;}.cls-4,.cls-9{stroke:#7d7d7d;}.cls-5{font-size:12px;}.cls-5,.cls-6{font-family:ArialMT, Arial;}.cls-6{font-size:13px;}.cls-7{letter-spacing:-0.02em;}.cls-8{letter-spacing:-0.11em;}.cls-10,.cls-9{stroke-width:3px;}</style></defs><title>courbe_elephant_en</title><ellipse class="cls-1" cx="395.73" cy="266.47" rx="39.67" ry="20.85"/><line class="cls-1" x1="351.77" y1="255.49" x2="323.04" y2="239.98"/><path d="M789.06,539.19a30.46,30.46,0,0,1-5.26-8.25l-.74,5-3.78,3.36A30.22,30.22,0,0,1,789.06,539.19Z" transform="translate(-431.98 -280.83)"/><path d="M678.76,512.83l-2.47-9.31h1.27l1.41,6.1c.15.64.28,1.28.39,1.91.24-1,.38-1.57.42-1.72l1.77-6.29H683l1.33,4.71a24.51,24.51,0,0,1,.73,3.3c.11-.59.27-1.27.46-2l1.46-6h1.24l-2.55,9.31h-1.19l-2-7.09c-.17-.59-.27-1-.29-1.09-.1.42-.19.79-.28,1.09l-2,7.09Z" transform="translate(-431.98 -280.83)"/><path d="M693.64,510.66l1.18.14a2.92,2.92,0,0,1-1,1.61,3.14,3.14,0,0,1-1.93.57,3.08,3.08,0,0,1-2.35-.91,3.55,3.55,0,0,1-.86-2.55,3.76,3.76,0,0,1,.87-2.65,3,3,0,0,1,2.27-.93,2.86,2.86,0,0,1,2.21.92,3.65,3.65,0,0,1,.86,2.59c0,.06,0,.16,0,.3h-5a2.6,2.6,0,0,0,.62,1.7,1.89,1.89,0,0,0,1.41.59,1.78,1.78,0,0,0,1.08-.33A2.2,2.2,0,0,0,693.64,510.66Zm-3.75-1.85h3.76a2.28,2.28,0,0,0-.43-1.28,1.73,1.73,0,0,0-1.41-.66,1.83,1.83,0,0,0-1.33.53A2.12,2.12,0,0,0,689.89,508.81Z" transform="translate(-431.98 -280.83)"/><path d="M695.8,510.82l1.13-.18a1.56,1.56,0,0,0,.53,1,1.84,1.84,0,0,0,1.21.36,1.74,1.74,0,0,0,1.17-.32.93.93,0,0,0,.38-.75.7.7,0,0,0-.33-.61,5.31,5.31,0,0,0-1.17-.39,9.75,9.75,0,0,1-1.74-.55,1.61,1.61,0,0,1-.74-.64,1.65,1.65,0,0,1-.25-.9,1.74,1.74,0,0,1,.21-.84,1.8,1.8,0,0,1,.56-.64,2.42,2.42,0,0,1,.72-.33,3.54,3.54,0,0,1,1-.13,4,4,0,0,1,1.4.22,2,2,0,0,1,.88.62,2.4,2.4,0,0,1,.39,1.05L700,508a1.21,1.21,0,0,0-.44-.81,1.61,1.61,0,0,0-1-.3,1.9,1.9,0,0,0-1.12.26.79.79,0,0,0-.34.61.63.63,0,0,0,.14.4,1,1,0,0,0,.44.31c.12,0,.45.14,1,.29a14.25,14.25,0,0,1,1.69.53,1.82,1.82,0,0,1,.76.6,1.69,1.69,0,0,1,.27,1,1.84,1.84,0,0,1-.34,1.07,2.08,2.08,0,0,1-1,.78,3.4,3.4,0,0,1-1.42.28,3.2,3.2,0,0,1-2-.54A2.58,2.58,0,0,1,695.8,510.82Z" transform="translate(-431.98 -280.83)"/><path d="M705.25,511.81l.17,1a4.94,4.94,0,0,1-.87.1,2,2,0,0,1-1-.2,1,1,0,0,1-.48-.52,3.88,3.88,0,0,1-.14-1.35V507h-.84v-.89H703v-1.67l1.13-.69v2.36h1.15V507H704.1v3.94a2.07,2.07,0,0,0,.06.63.53.53,0,0,0,.2.22.81.81,0,0,0,.39.08A3.52,3.52,0,0,0,705.25,511.81Z" transform="translate(-431.98 -280.83)"/><path d="M711,510.66l1.18.14a2.87,2.87,0,0,1-1,1.61,3.11,3.11,0,0,1-1.93.57,3.08,3.08,0,0,1-2.35-.91,3.59,3.59,0,0,1-.86-2.55,3.76,3.76,0,0,1,.87-2.65,3,3,0,0,1,2.28-.93,2.84,2.84,0,0,1,2.2.92,3.6,3.6,0,0,1,.86,2.59c0,.06,0,.16,0,.3h-5a2.55,2.55,0,0,0,.63,1.7,1.86,1.86,0,0,0,1.41.59,1.77,1.77,0,0,0,1.07-.33A2.2,2.2,0,0,0,711,510.66Zm-3.75-1.85H711a2.36,2.36,0,0,0-.44-1.28,1.73,1.73,0,0,0-1.41-.66,1.83,1.83,0,0,0-1.33.53A2.12,2.12,0,0,0,707.23,508.81Z" transform="translate(-431.98 -280.83)"/><path d="M713.58,512.83v-6.74h1v1a3,3,0,0,1,.73-.95,1.28,1.28,0,0,1,.73-.22,2.28,2.28,0,0,1,1.18.36l-.4,1.06a1.62,1.62,0,0,0-.83-.24,1.11,1.11,0,0,0-.68.22,1.18,1.18,0,0,0-.42.63,4.32,4.32,0,0,0-.19,1.33v3.53Z" transform="translate(-431.98 -280.83)"/><path d="M717.93,512.83v-6.74h1v1a2.44,2.44,0,0,1,2.15-1.11,2.9,2.9,0,0,1,1.12.21,1.8,1.8,0,0,1,.77.58,2.44,2.44,0,0,1,.35.84,6.88,6.88,0,0,1,.06,1.11v4.15h-1.14v-4.1a3.08,3.08,0,0,0-.13-1.05,1.14,1.14,0,0,0-.47-.55,1.51,1.51,0,0,0-.8-.2,1.83,1.83,0,0,0-1.26.46,2.3,2.3,0,0,0-.53,1.76v3.68Z" transform="translate(-431.98 -280.83)"/><path d="M728.77,512.83v-6.74h1V507a2.36,2.36,0,0,1,.84-.79,2.43,2.43,0,0,1,1.2-.3,2.2,2.2,0,0,1,1.23.31,1.61,1.61,0,0,1,.68.87,2.41,2.41,0,0,1,2.08-1.18,2,2,0,0,1,1.54.55,2.37,2.37,0,0,1,.54,1.71v4.63h-1.13v-4.25a3.23,3.23,0,0,0-.11-1,.94.94,0,0,0-.41-.49,1.25,1.25,0,0,0-.68-.18,1.56,1.56,0,0,0-1.18.47,2,2,0,0,0-.47,1.51v3.92h-1.15v-4.38a1.88,1.88,0,0,0-.28-1.14,1,1,0,0,0-.91-.38,1.64,1.64,0,0,0-.89.25,1.53,1.53,0,0,0-.6.74,4.31,4.31,0,0,0-.18,1.41v3.5Z" transform="translate(-431.98 -280.83)"/><path d="M739.6,504.84v-1.32h1.15v1.32Zm0,8v-6.74h1.15v6.74Z" transform="translate(-431.98 -280.83)"/><path d="M746.86,512.83V512a2.1,2.1,0,0,1-1.89,1,2.7,2.7,0,0,1-1.48-.44,3,3,0,0,1-1-1.24,4.48,4.48,0,0,1-.37-1.84,4.89,4.89,0,0,1,.34-1.83,2.62,2.62,0,0,1,2.51-1.69,2.2,2.2,0,0,1,1.86.92v-3.34h1.14v9.31Zm-3.61-3.37a3,3,0,0,0,.54,1.94,1.66,1.66,0,0,0,1.29.64,1.59,1.59,0,0,0,1.27-.61,2.82,2.82,0,0,0,.53-1.87,3.2,3.2,0,0,0-.53-2,1.67,1.67,0,0,0-1.32-.65,1.59,1.59,0,0,0-1.27.62A3.09,3.09,0,0,0,743.25,509.46Z" transform="translate(-431.98 -280.83)"/><path d="M754.09,512.83V512a2.1,2.1,0,0,1-1.89,1,2.7,2.7,0,0,1-1.48-.44,3,3,0,0,1-1.05-1.24,4.48,4.48,0,0,1-.37-1.84,4.89,4.89,0,0,1,.34-1.83,2.62,2.62,0,0,1,2.51-1.69,2.2,2.2,0,0,1,1.86.92v-3.34h1.14v9.31Zm-3.61-3.37a3,3,0,0,0,.54,1.94,1.66,1.66,0,0,0,1.29.64,1.59,1.59,0,0,0,1.27-.61,2.82,2.82,0,0,0,.53-1.87,3.2,3.2,0,0,0-.53-2,1.67,1.67,0,0,0-1.32-.65,1.59,1.59,0,0,0-1.27.62A3.09,3.09,0,0,0,750.48,509.46Z" transform="translate(-431.98 -280.83)"/><path d="M756.92,512.83v-9.31h1.14v9.31Z" transform="translate(-431.98 -280.83)"/><path d="M764.45,510.66l1.18.14a2.88,2.88,0,0,1-1,1.61,3.5,3.5,0,0,1-4.27-.34,3.55,3.55,0,0,1-.87-2.55,3.77,3.77,0,0,1,.88-2.65,3,3,0,0,1,2.27-.93,2.86,2.86,0,0,1,2.21.92,3.65,3.65,0,0,1,.86,2.59c0,.06,0,.16,0,.3h-5a2.66,2.66,0,0,0,.63,1.7,1.89,1.89,0,0,0,1.41.59,1.78,1.78,0,0,0,1.08-.33A2.2,2.2,0,0,0,764.45,510.66Zm-3.75-1.85h3.76a2.28,2.28,0,0,0-.43-1.28,1.75,1.75,0,0,0-1.42-.66,1.83,1.83,0,0,0-1.32.53A2.08,2.08,0,0,0,760.7,508.81Z" transform="translate(-431.98 -280.83)"/><path d="M704.75,526l1.13.15a2.9,2.9,0,0,1-1,1.81,2.71,2.71,0,0,1-1.86.66,2.89,2.89,0,0,1-2.22-.9,3.7,3.7,0,0,1-.85-2.6,4.75,4.75,0,0,1,.37-1.91,2.54,2.54,0,0,1,1.1-1.23,3.29,3.29,0,0,1,1.61-.41,2.78,2.78,0,0,1,1.79.56,2.54,2.54,0,0,1,.9,1.58l-1.11.17a1.93,1.93,0,0,0-.56-1,1.47,1.47,0,0,0-1-.35,1.79,1.79,0,0,0-1.4.62,3,3,0,0,0-.54,2,3,3,0,0,0,.52,2,1.7,1.7,0,0,0,1.36.61,1.61,1.61,0,0,0,1.12-.41A2.07,2.07,0,0,0,704.75,526Z" transform="translate(-431.98 -280.83)"/><path d="M706.83,528.43v-9.31H708v9.31Z" transform="translate(-431.98 -280.83)"/><path d="M714.14,527.6a4.25,4.25,0,0,1-1.22.76,3.48,3.48,0,0,1-1.26.22A2.47,2.47,0,0,1,710,528a1.79,1.79,0,0,1-.59-1.39,1.87,1.87,0,0,1,.81-1.56,2.55,2.55,0,0,1,.82-.37,9.13,9.13,0,0,1,1-.18,10.82,10.82,0,0,0,2-.39v-.3a1.28,1.28,0,0,0-.32-1,1.91,1.91,0,0,0-1.3-.39,2,2,0,0,0-1.19.28,1.69,1.69,0,0,0-.57,1l-1.12-.15a2.81,2.81,0,0,1,.5-1.16,2.28,2.28,0,0,1,1-.68,4.47,4.47,0,0,1,1.53-.24,4,4,0,0,1,1.41.21,1.75,1.75,0,0,1,.79.51,1.65,1.65,0,0,1,.35.78,6,6,0,0,1,.06,1.05v1.52a18.51,18.51,0,0,0,.07,2,2.71,2.71,0,0,0,.29.81h-1.19A2.6,2.6,0,0,1,714.14,527.6Zm-.09-2.55a9.19,9.19,0,0,1-1.87.43,3.79,3.79,0,0,0-1,.23,1,1,0,0,0-.45.37,1,1,0,0,0-.16.54,1,1,0,0,0,.35.76,1.51,1.51,0,0,0,1,.31,2.43,2.43,0,0,0,1.18-.29,1.84,1.84,0,0,0,.75-.79,2.66,2.66,0,0,0,.19-1.15Z" transform="translate(-431.98 -280.83)"/><path d="M716.52,526.42l1.12-.18a1.61,1.61,0,0,0,.53,1,1.87,1.87,0,0,0,1.22.36,1.82,1.82,0,0,0,1.17-.32,1,1,0,0,0,.38-.75.69.69,0,0,0-.34-.61,5,5,0,0,0-1.16-.39,10.23,10.23,0,0,1-1.75-.55,1.67,1.67,0,0,1-1-1.54,1.74,1.74,0,0,1,.2-.84,2,2,0,0,1,.56-.64,2.37,2.37,0,0,1,.73-.33,3.53,3.53,0,0,1,1-.14,3.93,3.93,0,0,1,1.39.23,2,2,0,0,1,.89.62,2.4,2.4,0,0,1,.39,1l-1.12.15a1.21,1.21,0,0,0-.44-.81,1.58,1.58,0,0,0-1-.3,1.8,1.8,0,0,0-1.12.27.73.73,0,0,0-.34.6.63.63,0,0,0,.14.4.94.94,0,0,0,.44.31c.11,0,.45.14,1,.29a14.25,14.25,0,0,1,1.69.53,1.73,1.73,0,0,1,.75.6,1.69,1.69,0,0,1,.27,1,1.9,1.9,0,0,1-.33,1.07,2.08,2.08,0,0,1-1,.78,3.4,3.4,0,0,1-1.42.28,3.15,3.15,0,0,1-2-.55A2.52,2.52,0,0,1,716.52,526.42Z" transform="translate(-431.98 -280.83)"/><path d="M723,526.42l1.12-.18a1.61,1.61,0,0,0,.53,1,1.87,1.87,0,0,0,1.22.36,1.82,1.82,0,0,0,1.17-.32,1,1,0,0,0,.38-.75.69.69,0,0,0-.34-.61,5,5,0,0,0-1.16-.39,10.23,10.23,0,0,1-1.75-.55,1.67,1.67,0,0,1-1-1.54,1.74,1.74,0,0,1,.2-.84A2,2,0,0,1,724,522a2.37,2.37,0,0,1,.73-.33,3.53,3.53,0,0,1,1-.14,3.93,3.93,0,0,1,1.39.23,2,2,0,0,1,.89.62,2.4,2.4,0,0,1,.39,1l-1.12.15a1.21,1.21,0,0,0-.44-.81,1.58,1.58,0,0,0-1-.3,1.8,1.8,0,0,0-1.12.27.73.73,0,0,0-.34.6.63.63,0,0,0,.14.4.94.94,0,0,0,.44.31c.11,0,.45.14,1,.29a14.25,14.25,0,0,1,1.69.53,1.73,1.73,0,0,1,.75.6,1.69,1.69,0,0,1,.27,1,1.9,1.9,0,0,1-.33,1.07,2.08,2.08,0,0,1-1,.78,3.4,3.4,0,0,1-1.42.28,3.15,3.15,0,0,1-2-.55A2.52,2.52,0,0,1,723,526.42Z" transform="translate(-431.98 -280.83)"/><path d="M734.59,526.26l1.18.14a2.88,2.88,0,0,1-1,1.61,3.5,3.5,0,0,1-4.27-.34,3.56,3.56,0,0,1-.87-2.56,3.71,3.71,0,0,1,.88-2.64,3,3,0,0,1,2.27-.94,2.87,2.87,0,0,1,2.21.93,3.65,3.65,0,0,1,.86,2.59c0,.06,0,.16,0,.3h-5a2.55,2.55,0,0,0,.63,1.7,1.89,1.89,0,0,0,1.41.59,1.73,1.73,0,0,0,1.07-.33A2.22,2.22,0,0,0,734.59,526.26Zm-3.75-1.85h3.76a2.28,2.28,0,0,0-.43-1.28,1.77,1.77,0,0,0-1.42-.66,1.83,1.83,0,0,0-1.32.53A2,2,0,0,0,730.84,524.41Z" transform="translate(-431.98 -280.83)"/><path d="M736.75,526.42l1.12-.18a1.61,1.61,0,0,0,.53,1,1.87,1.87,0,0,0,1.22.36,1.83,1.83,0,0,0,1.17-.32,1,1,0,0,0,.38-.75.69.69,0,0,0-.34-.61,5,5,0,0,0-1.16-.39,10.23,10.23,0,0,1-1.75-.55,1.64,1.64,0,0,1-.73-.64,1.66,1.66,0,0,1-.26-.9,1.74,1.74,0,0,1,.21-.84,2,2,0,0,1,.56-.64,2.37,2.37,0,0,1,.73-.33,3.53,3.53,0,0,1,1-.14,3.93,3.93,0,0,1,1.39.23,2,2,0,0,1,.89.62,2.4,2.4,0,0,1,.39,1l-1.12.15a1.21,1.21,0,0,0-.44-.81,1.58,1.58,0,0,0-1-.3,1.78,1.78,0,0,0-1.12.27.73.73,0,0,0-.34.6.63.63,0,0,0,.14.4.94.94,0,0,0,.44.31c.11,0,.45.14,1,.29a14.9,14.9,0,0,1,1.69.53,1.73,1.73,0,0,1,.75.6,1.69,1.69,0,0,1,.27,1,1.9,1.9,0,0,1-.33,1.07,2.08,2.08,0,0,1-1,.78,3.4,3.4,0,0,1-1.42.28,3.15,3.15,0,0,1-2-.55A2.52,2.52,0,0,1,736.75,526.42Z" transform="translate(-431.98 -280.83)"/><line class="cls-2" x1="48.9" y1="7.18" x2="48.9" y2="279.57"/><polygon points="43.91 8.63 48.9 0 53.89 8.63 43.91 8.63"/><line class="cls-2" x1="47.96" y1="279.57" x2="503.55" y2="279.57"/><polygon points="502.09 284.56 510.72 279.57 502.09 274.59 502.09 284.56"/><polyline class="cls-3" points="60.26 239.98 81.02 188.94 106.21 187.23 123.92 182.47 165.79 162.04 186.89 147.4 207.02 138.64 223.87 136.34 248.13 133.91 268.81 120.64 292.81 131.49 310.3 141.57 331.11 147.19 374.13 276.08 416.17 264.34 438.98 234.21 457.36 214.13 478.43 137.62"/><polyline class="cls-4" points="60.26 41.53 80.26 48.64 89.58 54.51 104.38 63.57 141.91 78.13 170.13 81.45 210.55 80.34 220.09 80.34 239.66 82.21 259.06 85.96 286.3 95.66 303.15 103.02 327.4 114.77 342.08 122.68 350.26 128.17 361.49 137.75 372.72 148.72 379.75 160.98 390.21 178.6 410.21 210.89 414.47 216.68 424.85 225.87 432 232.17 437.99 235.51 448.17 238.13 467.4 241.7 478.43 242.55"/><text class="cls-5" transform="translate(20.15 283.6)">0.0</text><text class="cls-5" transform="translate(20.15 253.91)">1.0</text><text class="cls-5" transform="translate(20.15 224.51)">2.0</text><text class="cls-5" transform="translate(20.15 194.85)">3.0</text><text class="cls-5" transform="translate(20.15 165.21)">4.0</text><text class="cls-5" transform="translate(20.15 135.89)">5.0</text><text class="cls-5" transform="translate(20.15 105.62)">6.0</text><text class="cls-5" transform="translate(20.15 76.17)">7.0</text><text class="cls-5" transform="translate(20.15 45.96)">8.0</text><text class="cls-5" transform="translate(20.15 16.77)">9.0</text><text class="cls-6" transform="translate(11.16 263.38) rotate(-90)"><tspan class="cls-7">A</tspan><tspan x="8.44" y="0">verage real annual growth rate (in %)</tspan></text><text class="cls-6" transform="translate(133.18 326.51)">Percentile of global income distribution</text><text class="cls-5" transform="translate(64.39 295.6) rotate(-90)">5</text><text class="cls-5" transform="translate(85.16 302.27) rotate(-90)">10</text><text class="cls-5" transform="translate(106.48 302.27) rotate(-90)">15</text><text class="cls-5" transform="translate(127.5 302.27) rotate(-90)">20</text><text class="cls-5" transform="translate(148.97 302.27) rotate(-90)">25</text><text class="cls-5" transform="translate(169.6 302.27) rotate(-90)">30</text><text class="cls-5" transform="translate(189.73 302.27) rotate(-90)">35</text><text class="cls-5" transform="translate(211.09 302.27) rotate(-90)">40</text><text class="cls-5" transform="translate(232.03 302.27) rotate(-90)">45</text><text class="cls-5" transform="translate(253.31 302.27) rotate(-90)">50</text><text class="cls-5" transform="translate(273.99 302.27) rotate(-90)">55</text><text class="cls-5" transform="translate(294.58 302.27) rotate(-90)">60</text><text class="cls-5" transform="translate(315.78 302.27) rotate(-90)">65</text><text class="cls-5" transform="translate(336.6 302.27) rotate(-90)">70</text><text class="cls-5" transform="translate(357.55 302.27) rotate(-90)">75</text><text class="cls-5" transform="translate(378.48 302.27) rotate(-90)">80</text><text class="cls-5" transform="translate(399.84 302.27) rotate(-90)">85</text><text class="cls-5" transform="translate(419.97 302.27) rotate(-90)">90</text><text class="cls-5" transform="translate(440.95 302.27) rotate(-90)">95</text><text class="cls-5" transform="translate(461.88 319.61) rotate(-90)">96-99</text><text class="cls-5" transform="translate(483.33 328.95) rotate(-90)"><tspan class="cls-8">T</tspan><tspan x="6" y="0">op 1%</tspan></text><text class="cls-5" transform="translate(226.78 349.28)">1988-2008</text><text class="cls-5" transform="translate(338.41 349.28)">2008-18</text><line class="cls-9" x1="298.49" y1="346.08" x2="331.43" y2="346.08"/><line class="cls-10" x1="187.11" y1="346.08" x2="220.04" y2="346.08"/></svg>