<svg id="Calque_1" data-name="Calque 1" xmlns="http://www.w3.org/2000/svg" viewBox="0 0 510.72 353.18"><defs><style>.cls-1,.cls-2,.cls-3,.cls-4,.cls-8,.cls-9{fill:none;}.cls-1,.cls-2,.cls-3,.cls-9{stroke:#000;}.cls-1,.cls-2,.cls-8,.cls-9{stroke-miterlimit:10;}.cls-2,.cls-3,.cls-4{stroke-width:2px;}.cls-3,.cls-4,.cls-8,.cls-9{stroke-linecap:round;}.cls-3,.cls-4{stroke-linejoin:round;}.cls-4,.cls-8{stroke:#7d7d7d;}.cls-5{font-size:12px;}.cls-5,.cls-6{font-family:ArialMT, Arial;}.cls-6{font-size:13px;}.cls-7{letter-spacing:-0.11em;}.cls-8,.cls-9{stroke-width:3px;}</style></defs><title>courbe_elephant</title><ellipse class="cls-1" cx="395.73" cy="266.47" rx="39.67" ry="20.85"/><line class="cls-1" x1="351.77" y1="255.49" x2="323.04" y2="239.98"/><path d="M711.06,600.19a30.46,30.46,0,0,1-5.26-8.25l-.74,5-3.78,3.36A30.22,30.22,0,0,1,711.06,600.19Z" transform="translate(-353.98 -341.83)"/><path d="M585.9,569.57l1.23.31a4.15,4.15,0,0,1-1.39,2.31,3.85,3.85,0,0,1-2.46.8,4.4,4.4,0,0,1-2.45-.62,3.73,3.73,0,0,1-1.43-1.77,6.29,6.29,0,0,1-.5-2.49,5.5,5.5,0,0,1,.56-2.54,3.8,3.8,0,0,1,1.58-1.64,4.57,4.57,0,0,1,2.26-.57,3.8,3.8,0,0,1,2.35.72,3.7,3.7,0,0,1,1.32,2l-1.21.29a2.9,2.9,0,0,0-.94-1.48,2.5,2.5,0,0,0-1.55-.46,3,3,0,0,0-1.79.51,2.75,2.75,0,0,0-1,1.38,5.47,5.47,0,0,0-.3,1.79,5.68,5.68,0,0,0,.35,2.07,2.61,2.61,0,0,0,1.08,1.33,3,3,0,0,0,1.58.43,2.63,2.63,0,0,0,1.75-.59A3.06,3.06,0,0,0,585.9,569.57Z" transform="translate(-353.98 -341.83)"/><path d="M588.48,572.83v-9.31h1.14v9.31Z" transform="translate(-353.98 -341.83)"/><path d="M595.79,572a4.25,4.25,0,0,1-1.22.76,3.48,3.48,0,0,1-1.26.22,2.47,2.47,0,0,1-1.71-.54,1.79,1.79,0,0,1-.6-1.39,1.83,1.83,0,0,1,.23-.9,1.8,1.8,0,0,1,.59-.66,2.55,2.55,0,0,1,.82-.37,8.71,8.71,0,0,1,1-.18,10.52,10.52,0,0,0,2-.39c0-.16,0-.26,0-.3a1.28,1.28,0,0,0-.32-1,1.92,1.92,0,0,0-1.3-.39,2.12,2.12,0,0,0-1.2.28,1.77,1.77,0,0,0-.56,1L591.2,568a2.81,2.81,0,0,1,.5-1.16,2.23,2.23,0,0,1,1-.68,4.48,4.48,0,0,1,1.53-.23,3.92,3.92,0,0,1,1.4.2,1.79,1.79,0,0,1,.8.51,1.81,1.81,0,0,1,.35.78,6,6,0,0,1,.06,1.05V570a16.12,16.12,0,0,0,.07,2,2.71,2.71,0,0,0,.29.81H596A2.3,2.3,0,0,1,595.79,572Zm-.1-2.55a8.9,8.9,0,0,1-1.86.43,4.25,4.25,0,0,0-1,.23,1,1,0,0,0-.45.37.93.93,0,0,0-.16.54,1,1,0,0,0,.35.76,1.45,1.45,0,0,0,1,.31,2.36,2.36,0,0,0,1.17-.29,1.76,1.76,0,0,0,.76-.79,2.84,2.84,0,0,0,.18-1.15Z" transform="translate(-353.98 -341.83)"/><path d="M598.16,570.82l1.13-.18a1.61,1.61,0,0,0,.53,1A1.87,1.87,0,0,0,601,572a1.78,1.78,0,0,0,1.17-.32,1,1,0,0,0,.38-.75.71.71,0,0,0-.34-.61,5.31,5.31,0,0,0-1.17-.39,10,10,0,0,1-1.74-.55,1.66,1.66,0,0,1-.74-.64,1.76,1.76,0,0,1,0-1.74,1.91,1.91,0,0,1,.56-.64,2.37,2.37,0,0,1,.73-.33,3.42,3.42,0,0,1,1-.13,4,4,0,0,1,1.4.22,1.93,1.93,0,0,1,.88.62,2.4,2.4,0,0,1,.4,1.05l-1.12.15a1.21,1.21,0,0,0-.44-.81,1.58,1.58,0,0,0-1-.3,1.84,1.84,0,0,0-1.13.27.74.74,0,0,0-.33.6.58.58,0,0,0,.14.4.94.94,0,0,0,.44.31l1,.29a14.58,14.58,0,0,1,1.7.53,1.73,1.73,0,0,1,.75.6,1.69,1.69,0,0,1,.27,1,1.9,1.9,0,0,1-.33,1.07,2.08,2.08,0,0,1-1,.78A3.44,3.44,0,0,1,601,573a3.2,3.2,0,0,1-2-.54A2.58,2.58,0,0,1,598.16,570.82Z" transform="translate(-353.98 -341.83)"/><path d="M604.66,570.82l1.13-.18a1.61,1.61,0,0,0,.53,1,1.87,1.87,0,0,0,1.22.36,1.78,1.78,0,0,0,1.17-.32,1,1,0,0,0,.38-.75.71.71,0,0,0-.34-.61,5.31,5.31,0,0,0-1.17-.39,10,10,0,0,1-1.74-.55,1.66,1.66,0,0,1-.74-.64,1.76,1.76,0,0,1,0-1.74,1.91,1.91,0,0,1,.56-.64,2.37,2.37,0,0,1,.73-.33,3.42,3.42,0,0,1,1-.13,4,4,0,0,1,1.4.22,1.93,1.93,0,0,1,.88.62,2.4,2.4,0,0,1,.4,1.05l-1.12.15a1.21,1.21,0,0,0-.44-.81,1.58,1.58,0,0,0-1-.3,1.84,1.84,0,0,0-1.13.27.74.74,0,0,0-.33.6.58.58,0,0,0,.14.4.94.94,0,0,0,.44.31l1,.29a14.58,14.58,0,0,1,1.7.53,1.73,1.73,0,0,1,.75.6,1.69,1.69,0,0,1,.27,1,1.9,1.9,0,0,1-.33,1.07,2.08,2.08,0,0,1-1,.78,3.44,3.44,0,0,1-1.43.28,3.2,3.2,0,0,1-2-.54A2.58,2.58,0,0,1,604.66,570.82Z" transform="translate(-353.98 -341.83)"/><path d="M616.23,570.66l1.19.14a2.93,2.93,0,0,1-1,1.61,3.11,3.11,0,0,1-1.93.57,3,3,0,0,1-2.34-.91,3.55,3.55,0,0,1-.87-2.55,3.76,3.76,0,0,1,.87-2.65,3,3,0,0,1,2.28-.93,2.88,2.88,0,0,1,2.21.92,3.64,3.64,0,0,1,.85,2.59v.3h-5a2.55,2.55,0,0,0,.63,1.7,1.86,1.86,0,0,0,1.41.59,1.75,1.75,0,0,0,1.07-.33A2.14,2.14,0,0,0,616.23,570.66Zm-3.75-1.85h3.77a2.36,2.36,0,0,0-.43-1.28,1.88,1.88,0,0,0-2.74-.13A2.08,2.08,0,0,0,612.48,568.81Z" transform="translate(-353.98 -341.83)"/><path d="M618.39,570.82l1.13-.18a1.61,1.61,0,0,0,.53,1,1.87,1.87,0,0,0,1.22.36,1.78,1.78,0,0,0,1.17-.32,1,1,0,0,0,.38-.75.69.69,0,0,0-.34-.61,5.31,5.31,0,0,0-1.17-.39,10,10,0,0,1-1.74-.55,1.66,1.66,0,0,1-.74-.64,1.76,1.76,0,0,1,0-1.74,1.91,1.91,0,0,1,.56-.64,2.37,2.37,0,0,1,.73-.33,3.44,3.44,0,0,1,1-.13,4,4,0,0,1,1.39.22,1.93,1.93,0,0,1,.88.62,2.4,2.4,0,0,1,.4,1.05l-1.12.15a1.21,1.21,0,0,0-.44-.81,1.58,1.58,0,0,0-1-.3,1.84,1.84,0,0,0-1.13.27.74.74,0,0,0-.33.6.58.58,0,0,0,.14.4.94.94,0,0,0,.44.31l1,.29a14.58,14.58,0,0,1,1.7.53,1.73,1.73,0,0,1,.75.6,1.69,1.69,0,0,1,.27,1,1.9,1.9,0,0,1-.33,1.07,2.08,2.08,0,0,1-1,.78,3.44,3.44,0,0,1-1.43.28,3.2,3.2,0,0,1-2-.54A2.58,2.58,0,0,1,618.39,570.82Z" transform="translate(-353.98 -341.83)"/><path d="M629,572.83v-6.74h1V567a2.48,2.48,0,0,1,.85-.79,2.38,2.38,0,0,1,1.2-.3,2.2,2.2,0,0,1,1.23.31,1.59,1.59,0,0,1,.67.87,2.41,2.41,0,0,1,2.08-1.18,2.07,2.07,0,0,1,1.55.55,2.37,2.37,0,0,1,.54,1.71v4.63H637v-4.25a3.23,3.23,0,0,0-.11-1,1,1,0,0,0-.4-.49,1.31,1.31,0,0,0-.69-.18,1.57,1.57,0,0,0-1.18.47,2.08,2.08,0,0,0-.47,1.51v3.92H633v-4.38a2,2,0,0,0-.28-1.14,1,1,0,0,0-.92-.38,1.64,1.64,0,0,0-.89.25,1.46,1.46,0,0,0-.59.74,4.26,4.26,0,0,0-.19,1.41v3.5Z" transform="translate(-353.98 -341.83)"/><path d="M639.37,569.46a3.48,3.48,0,0,1,1-2.78,3.17,3.17,0,0,1,2.12-.74,3,3,0,0,1,2.27.91,3.43,3.43,0,0,1,.88,2.51,4.48,4.48,0,0,1-.39,2,2.81,2.81,0,0,1-1.13,1.16,3.37,3.37,0,0,1-1.63.41,3,3,0,0,1-2.29-.91A3.61,3.61,0,0,1,639.37,569.46Zm1.17,0a2.86,2.86,0,0,0,.57,1.94,1.79,1.79,0,0,0,1.42.64,1.77,1.77,0,0,0,1.41-.65,2.91,2.91,0,0,0,.57-2,2.76,2.76,0,0,0-.57-1.89,1.87,1.87,0,0,0-2.83,0A2.86,2.86,0,0,0,640.54,569.46Z" transform="translate(-353.98 -341.83)"/><path d="M647,575.42l-.13-1.07a2.46,2.46,0,0,0,.66.1,1.35,1.35,0,0,0,.61-.12,1.16,1.16,0,0,0,.37-.36,5.61,5.61,0,0,0,.35-.85c0-.06,0-.16.1-.28l-2.56-6.75h1.24L649,570c.18.5.34,1,.49,1.56A13.52,13.52,0,0,1,650,570l1.44-3.93h1.14L650,572.94a12.69,12.69,0,0,1-.65,1.53,2.17,2.17,0,0,1-.69.83,1.65,1.65,0,0,1-.94.27A2.16,2.16,0,0,1,647,575.42Z" transform="translate(-353.98 -341.83)"/><path d="M658.14,570.66l1.18.14a2.88,2.88,0,0,1-1,1.61,3.11,3.11,0,0,1-1.93.57,3.06,3.06,0,0,1-2.34-.91,3.55,3.55,0,0,1-.87-2.55,3.72,3.72,0,0,1,.88-2.65,3,3,0,0,1,2.27-.93,2.86,2.86,0,0,1,2.21.92,3.64,3.64,0,0,1,.85,2.59v.3h-5a2.55,2.55,0,0,0,.63,1.7,1.89,1.89,0,0,0,1.41.59,1.75,1.75,0,0,0,1.07-.33A2.22,2.22,0,0,0,658.14,570.66Zm-3.76-1.85h3.77a2.36,2.36,0,0,0-.43-1.28,1.88,1.88,0,0,0-2.74-.13A2.08,2.08,0,0,0,654.38,568.81Z" transform="translate(-353.98 -341.83)"/><path d="M660.75,572.83v-6.74h1v1a2.41,2.41,0,0,1,2.14-1.11,2.9,2.9,0,0,1,1.12.21,1.74,1.74,0,0,1,.77.58,2.28,2.28,0,0,1,.36.84,6.88,6.88,0,0,1,.06,1.11v4.15h-1.14v-4.1a3,3,0,0,0-.14-1.05,1.09,1.09,0,0,0-.47-.55,1.49,1.49,0,0,0-.8-.2,1.87,1.87,0,0,0-1.26.46,2.3,2.3,0,0,0-.53,1.76v3.68Z" transform="translate(-353.98 -341.83)"/><path d="M668,572.83v-6.74h1v1a2.42,2.42,0,0,1,2.15-1.11,3,3,0,0,1,1.12.21,1.77,1.77,0,0,1,.76.58,2.28,2.28,0,0,1,.36.84,6.88,6.88,0,0,1,.06,1.11v4.15h-1.14v-4.1a3,3,0,0,0-.14-1.05,1.09,1.09,0,0,0-.47-.55,1.49,1.49,0,0,0-.8-.2,1.87,1.87,0,0,0-1.26.46,2.3,2.3,0,0,0-.53,1.76v3.68Z" transform="translate(-353.98 -341.83)"/><path d="M679.83,570.66l1.18.14a2.88,2.88,0,0,1-1,1.61A3.1,3.1,0,0,1,678,573a3.06,3.06,0,0,1-2.34-.91,3.55,3.55,0,0,1-.87-2.55,3.72,3.72,0,0,1,.88-2.65,3,3,0,0,1,2.27-.93,2.86,2.86,0,0,1,2.21.92,3.64,3.64,0,0,1,.85,2.59v.3h-5a2.55,2.55,0,0,0,.63,1.7,1.89,1.89,0,0,0,1.41.59,1.73,1.73,0,0,0,1.07-.33A2.22,2.22,0,0,0,679.83,570.66Zm-3.75-1.85h3.76a2.36,2.36,0,0,0-.43-1.28,1.8,1.8,0,0,0-1.42-.66,1.83,1.83,0,0,0-1.32.53A2,2,0,0,0,676.08,568.81Z" transform="translate(-353.98 -341.83)"/><path d="M682,570.82l1.13-.18a1.61,1.61,0,0,0,.53,1,1.87,1.87,0,0,0,1.22.36,1.78,1.78,0,0,0,1.17-.32,1,1,0,0,0,.38-.75.69.69,0,0,0-.34-.61,4.92,4.92,0,0,0-1.17-.39,10.36,10.36,0,0,1-1.74-.55,1.66,1.66,0,0,1-.74-.64,1.76,1.76,0,0,1,0-1.74,2,2,0,0,1,.56-.64,2.37,2.37,0,0,1,.73-.33,3.49,3.49,0,0,1,1-.13,3.94,3.94,0,0,1,1.39.22,2,2,0,0,1,.89.62,2.4,2.4,0,0,1,.39,1.05l-1.12.15a1.21,1.21,0,0,0-.44-.81,1.58,1.58,0,0,0-1-.3,1.78,1.78,0,0,0-1.12.27.73.73,0,0,0-.34.6.63.63,0,0,0,.14.4.94.94,0,0,0,.44.31c.11,0,.45.14,1,.29a14.9,14.9,0,0,1,1.69.53,1.73,1.73,0,0,1,.75.6,1.69,1.69,0,0,1,.27,1,1.9,1.9,0,0,1-.33,1.07,2.08,2.08,0,0,1-1,.78,3.43,3.43,0,0,1-1.42.28,3.21,3.21,0,0,1-2-.54A2.58,2.58,0,0,1,682,570.82Z" transform="translate(-353.98 -341.83)"/><path d="M597.47,585.06a3.5,3.5,0,0,1,1-2.78,3.14,3.14,0,0,1,2.12-.75,3,3,0,0,1,2.27.92,3.43,3.43,0,0,1,.89,2.51,4.47,4.47,0,0,1-.4,2,2.81,2.81,0,0,1-1.13,1.16,3.37,3.37,0,0,1-1.63.41,3,3,0,0,1-2.29-.91A3.61,3.61,0,0,1,597.47,585.06Zm1.17,0a2.86,2.86,0,0,0,.57,1.94,1.79,1.79,0,0,0,1.42.64A1.75,1.75,0,0,0,602,587a2.91,2.91,0,0,0,.57-2,2.8,2.8,0,0,0-.57-1.9,1.84,1.84,0,0,0-1.41-.64,1.79,1.79,0,0,0-1.42.64A2.85,2.85,0,0,0,598.64,585.06Z" transform="translate(-353.98 -341.83)"/><path d="M609.52,586l1.13.15a2.9,2.9,0,0,1-.95,1.81,2.71,2.71,0,0,1-1.86.66,2.89,2.89,0,0,1-2.22-.9,3.65,3.65,0,0,1-.85-2.6,4.75,4.75,0,0,1,.37-1.91,2.54,2.54,0,0,1,1.1-1.23,3.29,3.29,0,0,1,1.61-.41,2.78,2.78,0,0,1,1.79.56,2.54,2.54,0,0,1,.9,1.58l-1.11.17a1.93,1.93,0,0,0-.56-1,1.47,1.47,0,0,0-1-.35,1.79,1.79,0,0,0-1.4.62,3,3,0,0,0-.54,2,3,3,0,0,0,.52,2,1.7,1.7,0,0,0,1.36.61,1.61,1.61,0,0,0,1.12-.41A2.07,2.07,0,0,0,609.52,586Z" transform="translate(-353.98 -341.83)"/><path d="M616,586l1.13.15a2.9,2.9,0,0,1-.95,1.81,2.71,2.71,0,0,1-1.86.66,2.89,2.89,0,0,1-2.22-.9,3.65,3.65,0,0,1-.85-2.6,4.75,4.75,0,0,1,.37-1.91,2.54,2.54,0,0,1,1.1-1.23,3.29,3.29,0,0,1,1.61-.41,2.78,2.78,0,0,1,1.79.56,2.54,2.54,0,0,1,.9,1.58l-1.11.17a1.93,1.93,0,0,0-.56-1,1.47,1.47,0,0,0-1-.35,1.79,1.79,0,0,0-1.4.62,3,3,0,0,0-.54,2,3,3,0,0,0,.52,2,1.7,1.7,0,0,0,1.36.61,1.61,1.61,0,0,0,1.12-.41A2.07,2.07,0,0,0,616,586Z" transform="translate(-353.98 -341.83)"/><path d="M618.13,580.44v-1.32h1.14v1.32Zm0,8v-6.74h1.14v6.74Z" transform="translate(-353.98 -341.83)"/><path d="M625.39,588.43v-.85a2.1,2.1,0,0,1-1.89,1,2.67,2.67,0,0,1-1.48-.44,3,3,0,0,1-1-1.24,4.32,4.32,0,0,1-.37-1.84,4.7,4.7,0,0,1,.34-1.83,2.65,2.65,0,0,1,1-1.26,2.69,2.69,0,0,1,1.5-.44,2.28,2.28,0,0,1,1.09.26,2.38,2.38,0,0,1,.77.67v-3.34h1.14v9.31Zm-3.62-3.37a3,3,0,0,0,.55,1.94,1.63,1.63,0,0,0,1.29.64,1.6,1.6,0,0,0,1.27-.61,2.82,2.82,0,0,0,.53-1.87,3.14,3.14,0,0,0-.54-2,1.63,1.63,0,0,0-1.31-.65,1.59,1.59,0,0,0-1.27.62A3,3,0,0,0,621.77,585.06Z" transform="translate(-353.98 -341.83)"/><path d="M632.86,586.26l1.18.14a2.88,2.88,0,0,1-1,1.61,3.5,3.5,0,0,1-4.27-.34,3.56,3.56,0,0,1-.87-2.56,3.71,3.71,0,0,1,.88-2.64,3,3,0,0,1,2.27-.94,2.87,2.87,0,0,1,2.21.93,3.65,3.65,0,0,1,.86,2.59c0,.06,0,.16,0,.3h-5a2.55,2.55,0,0,0,.63,1.7,1.89,1.89,0,0,0,1.41.59,1.73,1.73,0,0,0,1.07-.33A2.22,2.22,0,0,0,632.86,586.26Zm-3.75-1.85h3.76a2.28,2.28,0,0,0-.43-1.28,1.77,1.77,0,0,0-1.42-.66,1.83,1.83,0,0,0-1.32.53A2,2,0,0,0,629.11,584.41Z" transform="translate(-353.98 -341.83)"/><path d="M635.47,588.43v-6.74h1v1a2.42,2.42,0,0,1,2.15-1.12,2.94,2.94,0,0,1,1.12.22,1.77,1.77,0,0,1,.76.58,2.28,2.28,0,0,1,.36.84,6.88,6.88,0,0,1,.06,1.11v4.15h-1.14v-4.1a3,3,0,0,0-.14-1.05,1,1,0,0,0-.47-.55,1.49,1.49,0,0,0-.8-.2,1.87,1.87,0,0,0-1.26.46,2.3,2.3,0,0,0-.52,1.76v3.68Z" transform="translate(-353.98 -341.83)"/><path d="M645.2,587.41l.16,1a4.84,4.84,0,0,1-.86.1,2,2,0,0,1-1-.2,1,1,0,0,1-.48-.52,4.15,4.15,0,0,1-.14-1.35v-3.87h-.84v-.89h.84V580l1.14-.69v2.36h1.15v.89h-1.15v3.94a2.07,2.07,0,0,0,.06.63.5.5,0,0,0,.19.22.87.87,0,0,0,.39.08A3.64,3.64,0,0,0,645.2,587.41Z" transform="translate(-353.98 -341.83)"/><path d="M650.71,587.6a4.25,4.25,0,0,1-1.22.76,3.48,3.48,0,0,1-1.26.22,2.47,2.47,0,0,1-1.71-.54,1.9,1.9,0,0,1,.22-2.95,2.65,2.65,0,0,1,.82-.37,9.13,9.13,0,0,1,1-.18,10.82,10.82,0,0,0,2-.39v-.3a1.24,1.24,0,0,0-.32-1,1.91,1.91,0,0,0-1.3-.39,2,2,0,0,0-1.19.28,1.69,1.69,0,0,0-.57,1l-1.12-.15a2.7,2.7,0,0,1,.51-1.16,2.2,2.2,0,0,1,1-.68,4.47,4.47,0,0,1,1.53-.24,4,4,0,0,1,1.41.21,1.61,1.61,0,0,1,1.15,1.29,7.74,7.74,0,0,1,0,1.05v1.52a15.36,15.36,0,0,0,.08,2,2.44,2.44,0,0,0,.28.81h-1.19A2.6,2.6,0,0,1,650.71,587.6Zm-.09-2.55a9.19,9.19,0,0,1-1.87.43,3.79,3.79,0,0,0-1,.23,1,1,0,0,0-.45.37,1,1,0,0,0-.15.54,1,1,0,0,0,.34.76,1.51,1.51,0,0,0,1,.31,2.4,2.4,0,0,0,1.18-.29,1.84,1.84,0,0,0,.75-.79,2.66,2.66,0,0,0,.19-1.15Z" transform="translate(-353.98 -341.83)"/><path d="M653.52,588.43v-9.31h1.14v9.31Z" transform="translate(-353.98 -341.83)"/><path d="M661.05,586.26l1.18.14a2.88,2.88,0,0,1-1,1.61,3.5,3.5,0,0,1-4.27-.34,3.56,3.56,0,0,1-.87-2.56,3.71,3.71,0,0,1,.88-2.64,3,3,0,0,1,2.27-.94,2.87,2.87,0,0,1,2.21.93,3.65,3.65,0,0,1,.86,2.59c0,.06,0,.16,0,.3h-5a2.55,2.55,0,0,0,.63,1.7,1.89,1.89,0,0,0,1.41.59,1.73,1.73,0,0,0,1.07-.33A2.22,2.22,0,0,0,661.05,586.26Zm-3.75-1.85h3.76a2.28,2.28,0,0,0-.43-1.28,1.77,1.77,0,0,0-1.42-.66,1.83,1.83,0,0,0-1.32.53A2,2,0,0,0,657.3,584.41Z" transform="translate(-353.98 -341.83)"/><path d="M663.21,586.42l1.12-.18a1.62,1.62,0,0,0,.54,1,1.84,1.84,0,0,0,1.21.36,1.8,1.8,0,0,0,1.17-.32,1,1,0,0,0,.38-.75.69.69,0,0,0-.34-.61,5,5,0,0,0-1.16-.39,10.23,10.23,0,0,1-1.75-.55,1.67,1.67,0,0,1-1-1.54,1.74,1.74,0,0,1,.2-.84,2,2,0,0,1,.56-.64,2.37,2.37,0,0,1,.73-.33,3.53,3.53,0,0,1,1-.14,3.93,3.93,0,0,1,1.39.23,2,2,0,0,1,.89.62,2.4,2.4,0,0,1,.39,1l-1.12.15a1.17,1.17,0,0,0-.44-.81,1.56,1.56,0,0,0-1-.3,1.8,1.8,0,0,0-1.12.27.73.73,0,0,0-.34.6.63.63,0,0,0,.14.4.94.94,0,0,0,.44.31c.11,0,.45.14,1,.29a14.25,14.25,0,0,1,1.69.53,1.73,1.73,0,0,1,.75.6,1.69,1.69,0,0,1,.27,1,1.9,1.9,0,0,1-.33,1.07,2.08,2.08,0,0,1-1,.78,3.4,3.4,0,0,1-1.42.28,3.15,3.15,0,0,1-2-.55A2.52,2.52,0,0,1,663.21,586.42Z" transform="translate(-353.98 -341.83)"/><line class="cls-2" x1="48.9" y1="7.18" x2="48.9" y2="279.57"/><polygon points="43.91 8.63 48.9 0 53.89 8.63 43.91 8.63"/><line class="cls-2" x1="47.96" y1="279.57" x2="503.55" y2="279.57"/><polygon points="502.09 284.56 510.72 279.57 502.09 274.59 502.09 284.56"/><polyline class="cls-3" points="60.26 239.98 81.02 188.94 106.21 187.23 123.92 182.47 165.79 162.04 186.89 147.4 207.02 138.64 223.87 136.34 248.13 133.91 268.81 120.64 292.81 131.49 310.3 141.57 331.11 147.19 374.13 276.08 416.17 264.34 438.98 234.21 457.36 214.13 478.43 137.62"/><polyline class="cls-4" points="60.26 41.53 80.25 48.64 89.57 54.51 104.38 63.57 141.91 78.13 170.13 81.45 210.55 80.34 220.09 80.34 239.66 82.21 259.06 85.96 286.3 95.66 303.15 103.02 327.4 114.77 342.08 122.68 350.25 128.17 361.49 137.75 372.72 148.72 379.74 160.98 390.21 178.6 410.21 210.89 414.47 216.68 424.85 225.87 432 232.17 437.99 235.51 448.17 238.13 467.4 241.7 478.43 242.55"/><text class="cls-5" transform="translate(20.15 283.6)">0.0</text><text class="cls-5" transform="translate(20.15 253.91)">1.0</text><text class="cls-5" transform="translate(20.15 224.51)">2.0</text><text class="cls-5" transform="translate(20.15 194.85)">3.0</text><text class="cls-5" transform="translate(20.15 165.21)">4.0</text><text class="cls-5" transform="translate(20.15 135.89)">5.0</text><text class="cls-5" transform="translate(20.15 105.62)">6.0</text><text class="cls-5" transform="translate(20.15 76.17)">7.0</text><text class="cls-5" transform="translate(20.15 45.96)">8.0</text><text class="cls-5" transform="translate(20.15 16.77)">9.0</text><text class="cls-6" transform="translate(11.16 272.57) rotate(-90)"><tspan class="cls-7">T</tspan><tspan x="6.5" y="0">aux de croissance annuel réel moyen (en %)</tspan></text><text class="cls-6" transform="translate(119.38 326.51)">Percentile de la répartition mondiale des revenus</text><text class="cls-5" transform="translate(64.39 295.6) rotate(-90)">5</text><text class="cls-5" transform="translate(85.16 302.27) rotate(-90)">10</text><text class="cls-5" transform="translate(106.48 302.27) rotate(-90)">15</text><text class="cls-5" transform="translate(127.5 302.27) rotate(-90)">20</text><text class="cls-5" transform="translate(148.97 302.27) rotate(-90)">25</text><text class="cls-5" transform="translate(169.6 302.27) rotate(-90)">30</text><text class="cls-5" transform="translate(189.73 302.27) rotate(-90)">35</text><text class="cls-5" transform="translate(211.09 302.27) rotate(-90)">40</text><text class="cls-5" transform="translate(232.03 302.27) rotate(-90)">45</text><text class="cls-5" transform="translate(253.31 302.27) rotate(-90)">50</text><text class="cls-5" transform="translate(273.99 302.27) rotate(-90)">55</text><text class="cls-5" transform="translate(294.58 302.27) rotate(-90)">60</text><text class="cls-5" transform="translate(315.77 302.27) rotate(-90)">65</text><text class="cls-5" transform="translate(336.6 302.27) rotate(-90)">70</text><text class="cls-5" transform="translate(357.55 302.27) rotate(-90)">75</text><text class="cls-5" transform="translate(378.48 302.27) rotate(-90)">80</text><text class="cls-5" transform="translate(399.84 302.27) rotate(-90)">85</text><text class="cls-5" transform="translate(419.97 302.27) rotate(-90)">90</text><text class="cls-5" transform="translate(440.94 302.27) rotate(-90)">95</text><text class="cls-5" transform="translate(461.88 319.61) rotate(-90)">96-99</text><text class="cls-5" transform="translate(483.33 328.95) rotate(-90)"><tspan class="cls-7">T</tspan><tspan x="6" y="0">op 1%</tspan></text><text class="cls-5" transform="translate(226.77 349.28)">1988-2008</text><text class="cls-5" transform="translate(338.41 349.28)">2008-18</text><line class="cls-8" x1="298.49" y1="346.08" x2="331.43" y2="346.08"/><line class="cls-9" x1="187.11" y1="346.08" x2="220.04" y2="346.08"/></svg>