<svg id="Calque_1" data-name="Calque 1" xmlns="http://www.w3.org/2000/svg" viewBox="0 0 453.44 611.55"><defs><style>.cls-1{fill:none;stroke:#000;stroke-miterlimit:10;stroke-width:2px;}.cls-2{font-size:36px;font-family:ArialMT, Arial;}</style></defs><title>dimensions</title><line class="cls-1" x1="37.18" y1="360.41" x2="164.48" y2="360.41"/><polygon points="161.56 370.38 178.83 360.41 161.56 350.44 161.56 370.38"/><line class="cls-1" x1="58.74" y1="384.11" x2="58.74" y2="256.81"/><polygon points="68.71 259.72 58.74 242.46 48.77 259.72 68.71 259.72"/><text class="cls-2" transform="translate(241.32 150.91)">1 dimension</text><text class="cls-2" transform="translate(241.32 315.65)">2 dimensions</text><text class="cls-2" transform="translate(241.32 516.73)">3 dimensions</text><line class="cls-1" x1="164.73" y1="144.85" x2="36.92" y2="144.85"/><polygon points="161.81 134.87 179.08 144.84 161.81 154.82 161.81 134.87"/><line class="cls-1" x1="108" y1="567.02" x2="108" y2="439.72"/><polygon points="117.97 442.63 108 425.36 98.03 442.63 117.97 442.63"/><line class="cls-1" x1="93.33" y1="540.72" x2="203.57" y2="604.37"/><polygon points="196.06 611.55 216 611.54 206.03 594.27 196.06 611.55"/><line class="cls-1" x1="122.67" y1="540.72" x2="12.43" y2="604.37"/><polygon points="9.97 594.27 0 611.54 19.94 611.54 9.97 594.27"/><circle cx="108" cy="20.71" r="4.38"/><text class="cls-2" transform="translate(241.32 30.89)">0 dimension</text></svg>