<svg id="Calque_1" data-name="Calque 1" xmlns="http://www.w3.org/2000/svg" viewBox="0 0 793.02 580.14"><defs><style>.cls-1{font-size:36px;font-family:ArialMT, Arial;}.cls-2,.cls-3{fill:none;stroke:#000;stroke-miterlimit:10;}.cls-3{stroke-width:2px;}</style></defs><title>ellipse_theorie_realite</title><text class="cls-1" transform="translate(245.27 30.89)">orbite des planètes</text><text class="cls-1" transform="translate(122.84 456.89)">en réalité</text><text class="cls-1" transform="translate(116.83 195.13)">en théorie</text><path class="cls-2" d="M1098.3,360.5c0,47.65-73.31,86.28-163.76,86.28S770.78,408.15,770.78,360.5s73.32-86.28,163.76-86.28c86.61,0,157.51,35.42,163.37,80.26" transform="translate(-345.82 -166.4)"/><path d="M1098.3,360.5a30.15,30.15,0,0,0-5.41-8.15l4.88,1.34,4.6-2.09A30.32,30.32,0,0,0,1098.3,360.5Z" transform="translate(-345.82 -166.4)"/><circle cx="589.01" cy="192.76" r="8.8"/><circle cx="735.81" cy="156.45" r="3.29"/><path class="cls-2" d="M1104.43,606.8c0,13-17.68,20.64-27.4,31.68-8,9-10.23,28-23.31,35-11,5.87-28.78-2-42.55,2.06-12.24,3.58-22.55,20-36.45,21.87-12.84,1.7-27.2-11.33-41.05-11.33s-28.2,13-41,11.33c-13.9-1.85-24.22-18.29-36.45-21.87-13.77-4-31.59,3.81-42.55-2.07-13.08-7-15.36-26-23.31-35-9.73-11-27.41-18.71-27.41-31.68s17.68-20.63,27.41-31.67c8-9,10.23-28,23.31-35,11-5.87,28.78,2,42.55-2.06,12.23-3.58,22.54-20,36.45-21.87,12.84-1.7,27.2,11.33,41,11.33s28.21-13,41-11.33c13.91,1.85,24.22,18.29,36.46,21.87,13.77,4,31.59-3.81,42.55,2.06,13.08,7,15.35,26,23.31,35,8.15,9.26,21.9,16.14,26.13,25.77" transform="translate(-345.82 -166.4)"/><path d="M1104.43,606.8a30.17,30.17,0,0,0-6.61-7.2l5,.56,4.22-2.77A30.44,30.44,0,0,0,1104.43,606.8Z" transform="translate(-345.82 -166.4)"/><circle cx="588.14" cy="439.06" r="8.8"/><circle cx="734.94" cy="412.53" r="3.29"/><line class="cls-3" x1="396.37" y1="71.54" x2="396.37" y2="580.14"/><line class="cls-3" y1="316.78" x2="793.02" y2="316.78"/></svg>