<svg id="Calque_1" data-name="Calque 1" xmlns="http://www.w3.org/2000/svg" viewBox="0 0 165.77 195.73"><defs><style>.cls-1,.cls-2{fill:none;stroke:#000;stroke-miterlimit:10;}.cls-2{stroke-width:0.5px;}</style></defs><title>escalier_connaissance</title><polygon class="cls-1" points="0.5 195.23 0.5 176.85 18.54 176.85 18.54 160.51 37.61 160.51 37.61 140.43 57.35 140.43 57.35 120.68 75.05 120.68 75.05 98.89 98.88 98.89 98.88 79.15 165.27 79.15 165.27 195.23 0.5 195.23"/><path class="cls-1" d="M804.06,269.34a219.46,219.46,0,0,0,2.73-24.25c.42-7.52.42-14.53.17-20.94" transform="translate(-720.16 -170.36)"/><polyline class="cls-1" points="105.95 79.06 99.9 62.13 86.63 74.72"/><path class="cls-1" d="M806.36,246.45c-5.79-3.45-9.22-7.91-9.27-9.45-.12-3.47,9.66-9.92,9.77-10l-.16.14" transform="translate(-720.16 -170.36)"/><path class="cls-1" d="M807.24,227c8.57-4.68,9.86-11.92,7.64-13.47-.91-.63-2.76-.94-5.42,0" transform="translate(-720.16 -170.36)"/><ellipse class="cls-1" cx="86.61" cy="47.89" rx="4.55" ry="5.47"/><rect class="cls-1" x="117.61" y="63.06" width="15.4" height="15.4"/><line class="cls-2" x1="96.62" y1="6.79" x2="96.62"/><path d="M816.63,181.23a7,7,0,0,0-3.77,1.32,7.24,7.24,0,0,0-2.41,3,7.38,7.38,0,0,0-.32,4.66,7.49,7.49,0,0,0,.57,1.48l.32.63a23,23,0,0,1,2.09,5.54,8.29,8.29,0,0,1,.15,1.17,6.18,6.18,0,0,0,.14,1.22,1.32,1.32,0,0,0,.85.93,93.18,93.18,0,0,0,5.46,0,1.15,1.15,0,0,0,.64-.49,2.08,2.08,0,0,0,.23-.53c0-.12.13-1,.13-1.2a3.89,3.89,0,0,1,0-.42,21.54,21.54,0,0,1,2.45-6.7,7.61,7.61,0,0,0,.82-2.59,10.73,10.73,0,0,0,0-1.7,7.12,7.12,0,0,0-2-4.26A7,7,0,0,0,816.63,181.23Zm.83.72a6.07,6.07,0,0,1,2.32.64,6.44,6.44,0,0,1,3.49,4.72,7.08,7.08,0,0,1-.11,2.71,7.5,7.5,0,0,1-.74,1.81,22.91,22.91,0,0,0-2.32,6.24,7.53,7.53,0,0,0-.11,1,7.85,7.85,0,0,1-.12,1.09.85.85,0,0,1-.17.3c-.11.1-.11.1-1.27.1h-1.08V200c0-.33,0-.8,0-1.06s0-.86,0-1.34c0-.86,0-1.4-.07-2.12a1.6,1.6,0,0,1,0-.71l.19-.11a10.73,10.73,0,0,0,.93-.62l.51-.49a5.88,5.88,0,0,0,1.67-2.6,1.54,1.54,0,0,0,0-.75,1.21,1.21,0,0,0-.72-.7c-.81-.32-1.56.17-2.15,1.39a11.44,11.44,0,0,0-.64,1.79,1.21,1.21,0,0,1-.1.29.39.39,0,0,1,0-.11,5.81,5.81,0,0,0-.33-1.18c-.45-1.07-1-1.64-1.58-1.69a1.08,1.08,0,0,0-1,.75,2.78,2.78,0,0,0,.4,2.62,3.56,3.56,0,0,0,.75.75,5.44,5.44,0,0,0,1.27.73c.1,0,.11,0,.12.1s.07,1,.09,1.57c0,.42.06,2.95.06,3.84v.23h-1.1c-1.24,0-1.2,0-1.33-.15s-.19-.38-.28-1.67a20,20,0,0,0-2.37-6.83,7.41,7.41,0,0,1-.79-2,4.92,4.92,0,0,1-.16-1.52,4.79,4.79,0,0,1,0-.89,6.33,6.33,0,0,1,.6-1.95,6.33,6.33,0,0,1,6.21-3.6Zm2.2,8.22a.4.4,0,0,1,.26.38,4.14,4.14,0,0,1-1.34,2.31,4.39,4.39,0,0,1-.85.76c-.23.15-.24.15-.23.1.06-.23.25-1,.33-1.23a4.15,4.15,0,0,1,1.29-2.35.37.37,0,0,1,.27,0A.43.43,0,0,1,819.66,190.17Zm-4.55.54a3.56,3.56,0,0,1,1.1,2.07,8.38,8.38,0,0,1,.19,1.25,5.06,5.06,0,0,1-1-.66,2.52,2.52,0,0,1-.79-1.23,2,2,0,0,1,0-1.1C814.7,190.72,814.89,190.6,815.11,190.71Z" transform="translate(-720.16 -170.36)"/><path d="M814.35,201.52a.62.62,0,0,0-.08,1.16l.11,0-.1.05a.55.55,0,0,0-.31.29.62.62,0,0,0,0,.53c.08.16.28.34.39.34s0,0-.05.06a.7.7,0,0,0-.34.32.62.62,0,0,0,0,.5.65.65,0,0,0,.29.32l.12.05h5.2l.11,0a.7.7,0,0,0,.33-.37.63.63,0,0,0-.34-.78c-.09,0-.11-.06-.06-.06a.63.63,0,0,0,.25-.15.7.7,0,0,0,.12-.18.62.62,0,0,0-.32-.84c-.1-.05-.1-.05,0-.06a.69.69,0,0,0,.33-.25.56.56,0,0,0,.1-.39.62.62,0,0,0-.34-.52l-.11-.05H817C814.93,201.49,814.41,201.5,814.35,201.52Zm4.61.84a.28.28,0,0,1,.18.3.28.28,0,0,1-.17.28,14.73,14.73,0,0,1-2,0H815l-.07,0a.36.36,0,0,1-.15-.33.41.41,0,0,1,.2-.26s.44,0,2,0h1.9Zm-1,1.38a.3.3,0,0,1,.19.19.34.34,0,0,1-.21.43c-.06,0-.46,0-1.45,0a5.93,5.93,0,0,1-1.46,0,.32.32,0,0,1-.11-.52c.1-.12.08-.12,1.59-.12A5.78,5.78,0,0,1,818,203.74Z" transform="translate(-720.16 -170.36)"/><path d="M815,205.44l.12.15a2.52,2.52,0,0,0,1.43.82,3.09,3.09,0,0,0,.86,0,2.52,2.52,0,0,0,.9-.37,3.56,3.56,0,0,0,.59-.56l0-.05h-2C815.9,205.42,815,205.43,815,205.44Z" transform="translate(-720.16 -170.36)"/><line class="cls-2" x1="89.64" y1="9.88" x2="86.17" y2="4.04"/><line class="cls-2" x1="107.89" y1="14.24" x2="113.99" y2="11.23"/><line class="cls-2" x1="104.1" y1="9.63" x2="107.57" y2="3.78"/><line class="cls-2" x1="85.47" y1="14.24" x2="79.37" y2="11.23"/><path class="cls-2" d="M847.3,227.47" transform="translate(-720.16 -170.36)"/><path class="cls-2" d="M825.09,202.45" transform="translate(-720.16 -170.36)"/><path class="cls-2" d="M825.32,195.74a45.79,45.79,0,0,1,16,17.69,45.06,45.06,0,0,1,4.68,16.5" transform="translate(-720.16 -170.36)"/><polygon points="123.63 58.15 123.95 57.77 125.82 59.38 127.29 57.4 127.69 57.69 125.9 60.11 123.63 58.15"/><rect class="cls-1" x="37.97" y="161.38" width="15.4" height="15.4"/><rect class="cls-1" x="75.35" y="121.02" width="15.4" height="15.4"/><rect class="cls-1" x="91.31" y="136.68" width="15.4" height="15.4"/><rect class="cls-1" x="74.97" y="179.72" width="15.4" height="15.4"/><rect class="cls-1" x="129.61" y="179.72" width="15.4" height="15.4"/><rect class="cls-1" x="149.85" y="152.81" width="15.4" height="15.4"/><rect class="cls-1" x="126.82" y="102.28" width="15.4" height="15.4"/></svg>