<svg id="Calque_1" data-name="Calque 1" xmlns="http://www.w3.org/2000/svg" viewBox="0 0 826.9 543.49"><defs><style>.cls-1,.cls-3,.cls-5{fill:none;stroke:#000;stroke-miterlimit:10;}.cls-1{stroke-width:3px;}.cls-2{font-size:24px;}.cls-2,.cls-4{font-family:ArialMT, Arial;}.cls-3,.cls-5{stroke-width:2px;}.cls-4{font-size:28px;}.cls-5{stroke-dasharray:4 4;}</style></defs><title>evolution_mini_max_intelligence_en</title><line class="cls-1" x1="84.4" y1="26.58" x2="84.4" y2="460"/><polygon points="75.68 32.52 84.4 0 93.11 32.52 75.68 32.52"/><line class="cls-1" x1="82.9" y1="460" x2="800.32" y2="460"/><polygon points="794.38 468.72 826.9 460 794.38 451.28 794.38 468.72"/><text class="cls-2" transform="translate(525.48 535.69)">welfare state</text><line class="cls-3" x1="765.27" y1="33.11" x2="84.4" y2="193.96"/><line class="cls-3" x1="765.27" y1="392.14" x2="84.4" y2="231.29"/><text class="cls-4" transform="translate(67.03 252.71) rotate(-90)">intelligence level</text><text class="cls-4" transform="translate(730.48 503.02)">years</text><text class="cls-2" transform="translate(0 535.7)">hunter-gatherer</text><path d="M829,582.15l2.08.27a5.42,5.42,0,0,1-1.74,3.36,5.12,5.12,0,0,1-3.44,1.21,5.34,5.34,0,0,1-4.11-1.67,6.75,6.75,0,0,1-1.55-4.79,8.79,8.79,0,0,1,.66-3.53,4.69,4.69,0,0,1,2-2.26,6,6,0,0,1,3-.76,5.1,5.1,0,0,1,3.31,1,4.72,4.72,0,0,1,1.66,2.91l-2,.32a3.4,3.4,0,0,0-1-1.89,2.71,2.71,0,0,0-1.8-.63,3.28,3.28,0,0,0-2.59,1.14,5.44,5.44,0,0,0-1,3.61,5.56,5.56,0,0,0,1,3.65,3.1,3.1,0,0,0,2.5,1.13,3,3,0,0,0,2.08-.76A3.79,3.79,0,0,0,829,582.15Z" transform="translate(-145.6 -300)"/><path d="M832.14,580.49a6.43,6.43,0,0,1,1.92-5.13A5.79,5.79,0,0,1,838,574a5.6,5.6,0,0,1,4.2,1.68,6.42,6.42,0,0,1,1.63,4.65,8.25,8.25,0,0,1-.72,3.78,5.16,5.16,0,0,1-2.1,2.14,6.09,6.09,0,0,1-3,.76,5.57,5.57,0,0,1-4.22-1.68A6.64,6.64,0,0,1,832.14,580.49Zm2.16,0a5.3,5.3,0,0,0,1.05,3.58,3.33,3.33,0,0,0,2.62,1.18,3.29,3.29,0,0,0,2.61-1.19,5.4,5.4,0,0,0,1-3.64,5.14,5.14,0,0,0-1-3.5,3.48,3.48,0,0,0-5.23,0A5.26,5.26,0,0,0,834.3,580.49Z" transform="translate(-145.6 -300)"/><path d="M846.27,586.71V574.26h1.89V576a4.46,4.46,0,0,1,1.55-1.47,4.41,4.41,0,0,1,2.22-.56,4,4,0,0,1,2.27.58,3,3,0,0,1,1.24,1.6,4.49,4.49,0,0,1,3.85-2.18,3.79,3.79,0,0,1,2.85,1,4.39,4.39,0,0,1,1,3.16v8.54H861v-7.84a5.66,5.66,0,0,0-.2-1.82,1.78,1.78,0,0,0-.75-.9,2.26,2.26,0,0,0-1.26-.34,3,3,0,0,0-2.18.87,3.85,3.85,0,0,0-.87,2.8v7.23h-2.11v-8.09a3.59,3.59,0,0,0-.51-2.11,2,2,0,0,0-1.69-.7,3.13,3.13,0,0,0-1.65.47,2.63,2.63,0,0,0-1.09,1.37,7.63,7.63,0,0,0-.34,2.6v6.46Z" transform="translate(-145.6 -300)"/><path d="M866.26,591.48V574.26h1.92v1.62a4.77,4.77,0,0,1,1.54-1.42,4.17,4.17,0,0,1,2.07-.48,4.89,4.89,0,0,1,2.81.82,5,5,0,0,1,1.84,2.32,8.86,8.86,0,0,1-.06,6.71,5.16,5.16,0,0,1-2,2.34,5.07,5.07,0,0,1-2.75.82,3.94,3.94,0,0,1-1.89-.45,4.25,4.25,0,0,1-1.38-1.12v6.06Zm1.91-10.92a5.47,5.47,0,0,0,1,3.55,3,3,0,0,0,2.36,1.14,3.05,3.05,0,0,0,2.41-1.18,5.67,5.67,0,0,0,1-3.69,5.5,5.5,0,0,0-1-3.56,3,3,0,0,0-2.34-1.19,3,3,0,0,0-2.38,1.26A5.65,5.65,0,0,0,868.17,580.56Z" transform="translate(-145.6 -300)"/><path d="M887.76,586.71v-1.83a4.53,4.53,0,0,1-3.94,2.11,5.06,5.06,0,0,1-2.06-.42,3.42,3.42,0,0,1-1.42-1.06,4.06,4.06,0,0,1-.65-1.57,10.31,10.31,0,0,1-.13-2v-7.71h2.11v6.91a11.8,11.8,0,0,0,.13,2.22,2.18,2.18,0,0,0,.84,1.31,2.66,2.66,0,0,0,1.6.47,3.52,3.52,0,0,0,1.78-.48,2.76,2.76,0,0,0,1.18-1.33,6.68,6.68,0,0,0,.34-2.43v-6.67h2.11v12.45Z" transform="translate(-145.6 -300)"/><path d="M897.56,584.82l.31,1.86a7.59,7.59,0,0,1-1.6.19,3.64,3.64,0,0,1-1.78-.36,2,2,0,0,1-.89-1,7.55,7.55,0,0,1-.26-2.49V575.9H891.8v-1.64h1.54v-3.08l2.1-1.26v4.34h2.12v1.64h-2.12v7.28a3.83,3.83,0,0,0,.11,1.16.92.92,0,0,0,.37.41,1.38,1.38,0,0,0,.72.15A6,6,0,0,0,897.56,584.82Z" transform="translate(-145.6 -300)"/><path d="M908.14,582.7l2.18.27a5.29,5.29,0,0,1-1.91,3,6.46,6.46,0,0,1-7.89-.62,6.57,6.57,0,0,1-1.6-4.72,6.85,6.85,0,0,1,1.62-4.87,5.45,5.45,0,0,1,4.19-1.74,5.32,5.32,0,0,1,4.08,1.7,6.73,6.73,0,0,1,1.58,4.78c0,.13,0,.31,0,.56H901.1a4.85,4.85,0,0,0,1.16,3.15,3.47,3.47,0,0,0,2.6,1.08,3.23,3.23,0,0,0,2-.6A4.06,4.06,0,0,0,908.14,582.7Zm-6.92-3.41h6.95a4.27,4.27,0,0,0-.8-2.36,3.22,3.22,0,0,0-2.61-1.21,3.36,3.36,0,0,0-2.45,1A3.84,3.84,0,0,0,901.22,579.29Z" transform="translate(-145.6 -300)"/><path d="M913,586.71V574.26h1.9v1.89a5.14,5.14,0,0,1,1.34-1.75,2.34,2.34,0,0,1,1.35-.42,4.14,4.14,0,0,1,2.17.68l-.73,2a3,3,0,0,0-1.54-.46,2,2,0,0,0-1.25.42,2.28,2.28,0,0,0-.78,1.15,8,8,0,0,0-.35,2.46v6.52Z" transform="translate(-145.6 -300)"/><path d="M825.35,612.73V608h-4.68v-2h4.68v-4.67h2v4.67H832v2h-4.68v4.71Z" transform="translate(-145.6 -300)"/><path d="M842.26,615.51V598.33h2.27v17.18Z" transform="translate(-145.6 -300)"/><path d="M848.27,615.51V603.06h1.9v1.77a4.47,4.47,0,0,1,4-2.05,5.2,5.2,0,0,1,2.07.41,3.21,3.21,0,0,1,1.41,1.06,4.11,4.11,0,0,1,.66,1.55,12,12,0,0,1,.12,2.06v7.65h-2.11v-7.57A5.8,5.8,0,0,0,856,606a2,2,0,0,0-.87-1,2.82,2.82,0,0,0-1.47-.38,3.42,3.42,0,0,0-2.33.85,4.26,4.26,0,0,0-1,3.25v6.8Z" transform="translate(-145.6 -300)"/><path d="M866.23,613.62l.3,1.86a7.43,7.43,0,0,1-1.59.19,3.61,3.61,0,0,1-1.78-.36,2,2,0,0,1-.9-1,7.64,7.64,0,0,1-.25-2.49V604.7h-1.55v-1.64H862V600l2.09-1.27v4.35h2.13v1.64H864.1V612a3.42,3.42,0,0,0,.12,1.16.84.84,0,0,0,.36.41,1.43,1.43,0,0,0,.72.15A6.2,6.2,0,0,0,866.23,613.62Z" transform="translate(-145.6 -300)"/><path d="M876.81,611.5l2.18.27a5.34,5.34,0,0,1-1.91,3,6.47,6.47,0,0,1-7.9-.62,6.61,6.61,0,0,1-1.6-4.72,6.85,6.85,0,0,1,1.62-4.87,5.48,5.48,0,0,1,4.2-1.74,5.35,5.35,0,0,1,4.08,1.7,6.77,6.77,0,0,1,1.58,4.78c0,.13,0,.31,0,.56h-9.29a4.8,4.8,0,0,0,1.16,3.14,3.46,3.46,0,0,0,2.61,1.09,3.27,3.27,0,0,0,2-.6A4.13,4.13,0,0,0,876.81,611.5Zm-6.93-3.41h7a4.19,4.19,0,0,0-.8-2.36,3.22,3.22,0,0,0-2.61-1.21,3.33,3.33,0,0,0-2.44,1A3.84,3.84,0,0,0,869.88,608.09Z" transform="translate(-145.6 -300)"/><path d="M881.61,615.51V603.06h1.9V605a5.26,5.26,0,0,1,1.34-1.75,2.35,2.35,0,0,1,1.36-.42,4.11,4.11,0,0,1,2.16.68l-.72,2a3,3,0,0,0-1.55-.46,2,2,0,0,0-1.24.42,2.23,2.23,0,0,0-.79,1.15,8.36,8.36,0,0,0-.35,2.46v6.52Z" transform="translate(-145.6 -300)"/><path d="M889.63,615.51V603.06h1.9v1.77a4.46,4.46,0,0,1,4-2.05,5.2,5.2,0,0,1,2.07.41,3.27,3.27,0,0,1,1.41,1.06,4,4,0,0,1,.65,1.55,12,12,0,0,1,.12,2.06v7.65h-2.11v-7.57a5.85,5.85,0,0,0-.24-1.93,2,2,0,0,0-.88-1,2.82,2.82,0,0,0-1.47-.38,3.39,3.39,0,0,0-2.32.85c-.66.58-1,1.66-1,3.25v6.8Z" transform="translate(-145.6 -300)"/><path d="M911.5,611.5l2.17.27a5.29,5.29,0,0,1-1.91,3,6.46,6.46,0,0,1-7.89-.62,6.61,6.61,0,0,1-1.6-4.72,6.85,6.85,0,0,1,1.62-4.87,5.47,5.47,0,0,1,4.19-1.74,5.32,5.32,0,0,1,4.08,1.7,6.73,6.73,0,0,1,1.59,4.78c0,.13,0,.31,0,.56h-9.28a4.8,4.8,0,0,0,1.16,3.14,3.44,3.44,0,0,0,2.6,1.09,3.23,3.23,0,0,0,2-.6A4.14,4.14,0,0,0,911.5,611.5Zm-6.93-3.41h6.95a4.27,4.27,0,0,0-.8-2.36,3.22,3.22,0,0,0-2.61-1.21,3.33,3.33,0,0,0-2.44,1A3.8,3.8,0,0,0,904.57,608.09Z" transform="translate(-145.6 -300)"/><path d="M920.93,613.62l.3,1.86a7.43,7.43,0,0,1-1.59.19,3.61,3.61,0,0,1-1.78-.36,2,2,0,0,1-.89-1,7.55,7.55,0,0,1-.26-2.49V604.7h-1.55v-1.64h1.55V600l2.1-1.27v4.35h2.12v1.64h-2.12V612a3.51,3.51,0,0,0,.11,1.16.84.84,0,0,0,.36.41,1.43,1.43,0,0,0,.72.15A6,6,0,0,0,920.93,613.62Z" transform="translate(-145.6 -300)"/><path d="M825.35,641.53v-4.71h-4.68v-2h4.68v-4.68h2v4.68H832v2h-4.68v4.71Z" transform="translate(-145.6 -300)"/><path d="M842.26,644.31V627.13h2.27v17.18Z" transform="translate(-145.6 -300)"/><path d="M846.66,644.31l6.59-17.18h2.45l7,17.18h-2.59l-2-5.21H851l-1.89,5.21Zm5-7.06h5.83l-1.8-4.75c-.54-1.45-.95-2.64-1.22-3.57a20.57,20.57,0,0,1-.92,3.28Z" transform="translate(-145.6 -300)"/><text class="cls-2" transform="translate(365.64 535.7)">printing</text><text class="cls-2" transform="translate(229.08 535.69)">writing</text><line class="cls-5" x1="84.4" y1="465.02" x2="84.4" y2="504.02"/><text x="-145.6" y="-300"/><text class="cls-2" transform="translate(256.55 359.22) rotate(10)">inability to survive</text><text class="cls-2" transform="translate(201.57 113.53) rotate(-13.27)">exceeds human capabilities</text><line class="cls-5" x1="263.99" y1="465.02" x2="263.99" y2="504.02"/><line class="cls-5" x1="405.7" y1="465.02" x2="405.7" y2="504.02"/><line class="cls-5" x1="594.12" y1="465.02" x2="594.12" y2="504.02"/><line class="cls-5" x1="740.4" y1="350.02" x2="740.4" y2="456.87"/></svg>