<svg xmlns="http://www.w3.org/2000/svg" viewBox="0 0 766.21 551.53"><defs><style>.cls-1,.cls-2,.cls-5,.cls-6{fill:none;stroke:#000;}.cls-1,.cls-5,.cls-6{stroke-miterlimit:10;}.cls-1,.cls-2{stroke-width:3px;}.cls-2{stroke-linejoin:bevel;}.cls-3,.cls-4{font-size:36px;}.cls-3,.cls-7{font-family:ArialMT, Arial;}.cls-4{font-family:KozGoPr6N-Regular-90ms-RKSJ-H, Kozuka Gothic Pr6N;}.cls-5{stroke-width:2px;}.cls-7{font-size:45px;}.cls-8{letter-spacing:-0.06em;}</style></defs><title>evolution_chiffre_en</title><g id="Calque_1" data-name="Calque 1"><line class="cls-1" x1="358.38" y1="79.4" x2="358.38" y2="110.88"/><line class="cls-1" x1="444.55" y1="79.4" x2="444.55" y2="110.88"/><line class="cls-1" x1="460.89" y1="79.4" x2="460.89" y2="110.88"/><line class="cls-1" x1="531.87" y1="79.4" x2="531.87" y2="110.88"/><line class="cls-1" x1="547.32" y1="79.4" x2="547.32" y2="110.88"/><line class="cls-1" x1="627.87" y1="79.4" x2="627.87" y2="110.88"/><line class="cls-1" x1="643.7" y1="79.4" x2="643.7" y2="110.88"/><line class="cls-1" x1="659.53" y1="79.4" x2="659.53" y2="110.88"/><line class="cls-1" x1="675.36" y1="79.4" x2="675.36" y2="110.88"/><line class="cls-1" x1="562.76" y1="79.4" x2="562.76" y2="110.88"/><polyline class="cls-2" points="728.47 110.89 741.4 79.39 754.68 110.89"/><line class="cls-1" x1="358.38" y1="151.91" x2="358.38" y2="183.4"/><line class="cls-1" x1="444.55" y1="151.91" x2="444.55" y2="183.4"/><line class="cls-1" x1="460.89" y1="151.91" x2="460.89" y2="183.4"/><line class="cls-1" x1="531.87" y1="151.91" x2="531.87" y2="183.4"/><line class="cls-1" x1="547.32" y1="151.91" x2="547.32" y2="183.4"/><line class="cls-1" x1="633.87" y1="151.91" x2="633.87" y2="183.4"/><line class="cls-1" x1="562.76" y1="151.91" x2="562.76" y2="183.4"/><polyline class="cls-2" points="728.47 151.91 741.4 183.4 754.68 151.91"/><polyline class="cls-2" points="643.86 151.91 656.8 183.4 670.07 151.91"/><circle cx="357.89" cy="240.17" r="3.57"/><circle cx="446.55" cy="240.17" r="3.57"/><circle cx="459.55" cy="240.17" r="3.57"/><circle cx="563.38" cy="240.17" r="3.57"/><circle cx="535.93" cy="240.17" r="3.57"/><circle cx="549.66" cy="240.17" r="3.57"/><circle cx="632.04" cy="240.17" r="3.57"/><circle cx="645.95" cy="240.17" r="3.57"/><circle cx="659.87" cy="240.17" r="3.57"/><circle cx="673.78" cy="240.17" r="3.57"/><line class="cls-1" x1="720.25" y1="240.17" x2="766.21" y2="240.17"/><text class="cls-3" transform="translate(343.23 539.84)">1</text><text class="cls-3" transform="translate(440.01 539.84)">2</text><text class="cls-3" transform="translate(536.78 539.84)">3</text><text class="cls-3" transform="translate(638.16 539.84)">4</text><text class="cls-3" transform="translate(730.34 539.84)">5</text><text class="cls-4" transform="translate(340.95 322.43)">一</text><text class="cls-4" transform="translate(434.73 322.43)">二</text><text class="cls-4" transform="translate(531.51 322.43)">三</text><text class="cls-4" transform="translate(635.88 322.43)">四</text><text class="cls-4" transform="translate(724.06 322.43)">五</text><line class="cls-1" x1="341.19" y1="384.99" x2="374.25" y2="384.99"/><line class="cls-1" x1="437.04" y1="380.96" x2="470.1" y2="380.96"/><line class="cls-1" x1="437.04" y1="389.03" x2="470.1" y2="389.03"/><line class="cls-1" x1="533.12" y1="377" x2="566.19" y2="377"/><line class="cls-1" x1="533.12" y1="384.99" x2="566.19" y2="384.99"/><line class="cls-1" x1="533.12" y1="392.99" x2="566.19" y2="392.99"/><line class="cls-1" x1="641.19" y1="384.99" x2="665.1" y2="384.99"/><line class="cls-1" x1="652.79" y1="372.48" x2="652.79" y2="397.5"/><path class="cls-1" d="M965.11,604.88a45.56,45.56,0,0,1-3.51-15.06c-.42-5.82.31-10.65.7-15.07" transform="translate(-214.53 -199.29)"/><path class="cls-1" d="M950.55,564c-.44,6,6.16,10.28,11.62,10.63,5.84.38,8.89-4.46,8.6-10.93" transform="translate(-214.53 -199.29)"/><path class="cls-5" d="M961.47,638.73c-6.81-1.15-16.17,8.72-10,12.85,3.65,2.44,6.21,2.81,8.06,2.13,4.45-1.63,5.18-8.64,6.15-8.52s-.77,5.81-.38,30.2" transform="translate(-214.53 -199.29)"/><path class="cls-5" d="M888.77,639.57c-.26,0-13.79-1.54-13.86,7.34s19.6,2.61,14.05,4.59c-2.77,1-11.94,4.5-21.35,7.34-7.67,2.32-15.8-1.13-12.77-9.38.6-1.63,5.31-2.52,7.6.13,1.13,1.31,3.17,13.31-3.42,25" transform="translate(-214.53 -199.29)"/><path class="cls-5" d="M753.47,643.23c4.81-2.85,14-5.7,16.51-3.41,8,7.18-11.62,11.28-11.62,11.28-.08.28,15.9-3.29,18.64-.58,1.83,1.82-11,6.87-13.79,24.52" transform="translate(-214.53 -199.29)"/><path class="cls-5" d="M649.63,647.48c10.42,0,19.47-.85,19.43,3.17-.06,6.66-19.72,6.62-19.72,7s17.36-3.06,40.72,9" transform="translate(-214.53 -199.29)"/><path class="cls-5" d="M568.4,643.48c1.29-.84,3.15-1.66,3.19-.77.18,4.66.3,15.14-.51,29" transform="translate(-214.53 -199.29)"/><line class="cls-6" x1="358.38" y1="13.13" x2="358.38" y2="35.68"/><polygon points="353.52 5.81 358.41 14.01 363.29 5.81 353.52 5.81"/><line class="cls-5" x1="358.38" y1="7.51" x2="358.38" y2="37.38"/><line class="cls-6" x1="445.53" y1="13.13" x2="445.53" y2="35.68"/><polygon points="440.67 5.81 445.56 14.01 450.44 5.81 440.67 5.81"/><line class="cls-5" x1="445.53" y1="7.51" x2="445.53" y2="37.38"/><line class="cls-6" x1="460.17" y1="13.13" x2="460.17" y2="35.68"/><polygon points="455.31 5.81 460.19 14.01 465.08 5.81 455.31 5.81"/><line class="cls-5" x1="460.17" y1="7.51" x2="460.17" y2="37.38"/><line class="cls-6" x1="566.95" y1="13.13" x2="566.95" y2="35.68"/><polygon points="562.1 5.81 566.98 14.01 571.87 5.81 562.1 5.81"/><line class="cls-5" x1="566.95" y1="7.51" x2="566.95" y2="37.38"/><line class="cls-6" x1="533.7" y1="13.13" x2="533.7" y2="35.68"/><polygon points="528.84 5.81 533.73 14.01 538.61 5.81 528.84 5.81"/><line class="cls-5" x1="533.7" y1="7.51" x2="533.7" y2="37.38"/><line class="cls-6" x1="550.33" y1="13.13" x2="550.33" y2="35.68"/><polygon points="545.47 5.81 550.35 14.01 555.24 5.81 545.47 5.81"/><line class="cls-5" x1="550.33" y1="7.51" x2="550.33" y2="37.38"/><line class="cls-6" x1="646" y1="29.95" x2="646" y2="44.03"/><polygon points="641.14 22.62 646.02 30.83 650.91 22.62 641.14 22.62"/><line class="cls-5" x1="646" y1="23.84" x2="646" y2="45.25"/><line class="cls-6" x1="658.17" y1="29.95" x2="658.17" y2="44.03"/><polygon points="653.31 22.62 658.19 30.83 663.08 22.62 653.31 22.62"/><line class="cls-5" x1="658.17" y1="23.84" x2="658.17" y2="45.25"/><line class="cls-6" x1="646" y1="7.32" x2="646" y2="21.4"/><polygon points="641.14 0 646.02 8.2 650.91 0 641.14 0"/><line class="cls-5" x1="646" y1="1.22" x2="646" y2="22.62"/><line class="cls-6" x1="658.17" y1="7.32" x2="658.17" y2="21.4"/><polygon points="653.31 0 658.19 8.2 663.08 0 653.31 0"/><line class="cls-5" x1="658.17" y1="1.22" x2="658.17" y2="22.62"/><line class="cls-6" x1="730.34" y1="29.88" x2="730.34" y2="43.96"/><polygon points="725.48 22.56 730.37 30.76 735.25 22.56 725.48 22.56"/><line class="cls-5" x1="730.34" y1="23.78" x2="730.34" y2="45.18"/><line class="cls-6" x1="742.75" y1="29.88" x2="742.75" y2="43.96"/><polygon points="737.89 22.56 742.78 30.76 747.67 22.56 737.89 22.56"/><line class="cls-5" x1="742.75" y1="23.78" x2="742.75" y2="45.18"/><line class="cls-6" x1="730.34" y1="7.39" x2="730.34" y2="21.47"/><polygon points="725.48 0.07 730.37 8.27 735.25 0.07 725.48 0.07"/><line class="cls-5" x1="730.34" y1="1.28" x2="730.34" y2="22.69"/><line class="cls-6" x1="742.75" y1="7.39" x2="742.75" y2="21.47"/><polygon points="737.89 0.07 742.78 8.27 747.67 0.07 737.89 0.07"/><line class="cls-5" x1="742.75" y1="1.28" x2="742.75" y2="22.69"/><line class="cls-6" x1="755.17" y1="7.39" x2="755.17" y2="21.47"/><polygon points="750.31 0.07 755.19 8.27 760.08 0.07 750.31 0.07"/><line class="cls-5" x1="755.17" y1="1.28" x2="755.17" y2="30.67"/><text class="cls-7" transform="translate(31.34 29.07) scale(0.58)">Cuneiform notation</text><text class="cls-7" transform="translate(32.81 101.55) scale(0.58)">Etruscan numerals</text><text class="cls-7" transform="translate(42.29 174.03) scale(0.58)">Roman numerals</text><text class="cls-7" transform="translate(45.94 246.51) scale(0.58)">Mayas numerals</text><text class="cls-7" transform="translate(36.45 318.99) scale(0.58)">Chinese numerals</text><text class="cls-7" transform="translate(1.46 391.99) scale(0.58)">Ancient Indian numerals</text><text class="cls-7" transform="translate(33.55 463.95) scale(0.58)">Arabic handwritten</text><text class="cls-7" transform="translate(0 536.43) scale(0.58)">Modern<tspan class="cls-8" x="152.58" y="0"> </tspan><tspan x="162.6" y="0">Arabic numerals</tspan></text></g></svg>