<svg xmlns="http://www.w3.org/2000/svg" viewBox="0 0 779.01 551.53"><defs><style>.cls-1,.cls-2,.cls-5,.cls-6{fill:none;stroke:#000;}.cls-1,.cls-5,.cls-6{stroke-miterlimit:10;}.cls-1,.cls-2{stroke-width:3px;}.cls-2{stroke-linejoin:bevel;}.cls-3,.cls-4{font-size:36px;}.cls-3,.cls-7{font-family:ArialMT, Arial;}.cls-4{font-family:KozGoPr6N-Regular-90ms-RKSJ-H, Kozuka Gothic Pr6N;}.cls-5{stroke-width:2px;}.cls-7{font-size:45px;}.cls-8{letter-spacing:-0.02em;}.cls-9{letter-spacing:0em;}</style></defs><title>evolution_chiffre</title><g id="Calque_1" data-name="Calque 1"><line class="cls-1" x1="371.18" y1="79.4" x2="371.18" y2="110.88"/><line class="cls-1" x1="457.35" y1="79.4" x2="457.35" y2="110.88"/><line class="cls-1" x1="473.69" y1="79.4" x2="473.69" y2="110.88"/><line class="cls-1" x1="544.67" y1="79.4" x2="544.67" y2="110.88"/><line class="cls-1" x1="560.11" y1="79.4" x2="560.11" y2="110.88"/><line class="cls-1" x1="640.67" y1="79.4" x2="640.67" y2="110.88"/><line class="cls-1" x1="656.5" y1="79.4" x2="656.5" y2="110.88"/><line class="cls-1" x1="672.33" y1="79.4" x2="672.33" y2="110.88"/><line class="cls-1" x1="688.16" y1="79.4" x2="688.16" y2="110.88"/><line class="cls-1" x1="575.56" y1="79.4" x2="575.56" y2="110.88"/><polyline class="cls-2" points="741.26 110.89 754.2 79.39 767.48 110.89"/><line class="cls-1" x1="371.18" y1="151.91" x2="371.18" y2="183.4"/><line class="cls-1" x1="457.35" y1="151.91" x2="457.35" y2="183.4"/><line class="cls-1" x1="473.69" y1="151.91" x2="473.69" y2="183.4"/><line class="cls-1" x1="544.67" y1="151.91" x2="544.67" y2="183.4"/><line class="cls-1" x1="560.11" y1="151.91" x2="560.11" y2="183.4"/><line class="cls-1" x1="646.67" y1="151.91" x2="646.67" y2="183.4"/><line class="cls-1" x1="575.56" y1="151.91" x2="575.56" y2="183.4"/><polyline class="cls-2" points="741.26 151.91 754.2 183.4 767.48 151.91"/><polyline class="cls-2" points="656.66 151.91 669.59 183.4 682.87 151.91"/><circle cx="370.69" cy="240.17" r="3.57"/><circle cx="459.35" cy="240.17" r="3.57"/><circle cx="472.35" cy="240.17" r="3.57"/><circle cx="576.18" cy="240.17" r="3.57"/><circle cx="548.73" cy="240.17" r="3.57"/><circle cx="562.45" cy="240.17" r="3.57"/><circle cx="644.84" cy="240.17" r="3.57"/><circle cx="658.75" cy="240.17" r="3.57"/><circle cx="672.67" cy="240.17" r="3.57"/><circle cx="686.58" cy="240.17" r="3.57"/><line class="cls-1" x1="733.05" y1="240.17" x2="779.01" y2="240.17"/><text class="cls-3" transform="translate(356.03 539.84)">1</text><text class="cls-3" transform="translate(452.81 539.84)">2</text><text class="cls-3" transform="translate(549.58 539.84)">3</text><text class="cls-3" transform="translate(650.95 539.84)">4</text><text class="cls-3" transform="translate(743.14 539.84)">5</text><text class="cls-4" transform="translate(353.75 322.43)">一</text><text class="cls-4" transform="translate(447.53 322.43)">二</text><text class="cls-4" transform="translate(544.31 322.43)">三</text><text class="cls-4" transform="translate(648.68 322.43)">四</text><text class="cls-4" transform="translate(736.86 322.43)">五</text><line class="cls-1" x1="353.99" y1="384.16" x2="387.05" y2="384.16"/><line class="cls-1" x1="449.84" y1="380.13" x2="482.9" y2="380.13"/><line class="cls-1" x1="449.84" y1="388.19" x2="482.9" y2="388.19"/><line class="cls-1" x1="545.92" y1="376.17" x2="578.99" y2="376.17"/><line class="cls-1" x1="545.92" y1="384.16" x2="578.99" y2="384.16"/><line class="cls-1" x1="545.92" y1="392.16" x2="578.99" y2="392.16"/><line class="cls-1" x1="653.99" y1="384.16" x2="677.9" y2="384.16"/><line class="cls-1" x1="665.59" y1="371.65" x2="665.59" y2="396.67"/><path class="cls-5" d="M961.47,638.73c-6.81-1.15-16.17,8.72-10,12.85,3.65,2.44,6.21,2.81,8.06,2.13,4.45-1.63,5.18-8.64,6.15-8.52s-.77,5.81-.38,30.2" transform="translate(-201.74 -199.29)"/><path class="cls-5" d="M888.77,639.57c-.26,0-13.79-1.54-13.86,7.34s19.6,2.61,14.05,4.59c-2.77,1-11.94,4.5-21.35,7.34-7.67,2.32-15.8-1.13-12.77-9.38.6-1.63,5.31-2.52,7.6.13,1.13,1.31,3.17,13.31-3.42,25" transform="translate(-201.74 -199.29)"/><path class="cls-5" d="M753.47,643.23c4.81-2.85,14-5.7,16.51-3.41,8,7.18-11.62,11.28-11.62,11.28-.08.28,15.9-3.29,18.64-.58,1.83,1.82-11,6.87-13.79,24.52" transform="translate(-201.74 -199.29)"/><path class="cls-5" d="M649.63,647.48c10.42,0,19.47-.85,19.43,3.17-.06,6.66-19.72,6.62-19.72,7s17.36-3.06,40.72,9" transform="translate(-201.74 -199.29)"/><path class="cls-5" d="M568.4,643.48c1.29-.84,3.15-1.66,3.19-.77.18,4.66.3,15.14-.51,29" transform="translate(-201.74 -199.29)"/><line class="cls-6" x1="371.18" y1="13.13" x2="371.18" y2="35.68"/><polygon points="366.32 5.81 371.2 14.01 376.09 5.81 366.32 5.81"/><line class="cls-5" x1="371.18" y1="7.51" x2="371.18" y2="37.38"/><line class="cls-6" x1="458.33" y1="13.13" x2="458.33" y2="35.68"/><polygon points="453.47 5.81 458.35 14.01 463.24 5.81 453.47 5.81"/><line class="cls-5" x1="458.33" y1="7.51" x2="458.33" y2="37.38"/><line class="cls-6" x1="472.97" y1="13.13" x2="472.97" y2="35.68"/><polygon points="468.11 5.81 472.99 14.01 477.88 5.81 468.11 5.81"/><line class="cls-5" x1="472.97" y1="7.51" x2="472.97" y2="37.38"/><line class="cls-6" x1="579.75" y1="13.13" x2="579.75" y2="35.68"/><polygon points="574.89 5.81 579.78 14.01 584.67 5.81 574.89 5.81"/><line class="cls-5" x1="579.75" y1="7.51" x2="579.75" y2="37.38"/><line class="cls-6" x1="546.5" y1="13.13" x2="546.5" y2="35.68"/><polygon points="541.64 5.81 546.52 14.01 551.41 5.81 541.64 5.81"/><line class="cls-5" x1="546.5" y1="7.51" x2="546.5" y2="37.38"/><line class="cls-6" x1="563.12" y1="13.13" x2="563.12" y2="35.68"/><polygon points="558.27 5.81 563.15 14.01 568.04 5.81 558.27 5.81"/><line class="cls-5" x1="563.12" y1="7.51" x2="563.12" y2="37.38"/><line class="cls-6" x1="658.8" y1="29.95" x2="658.8" y2="44.03"/><polygon points="653.94 22.62 658.82 30.83 663.71 22.62 653.94 22.62"/><line class="cls-5" x1="658.8" y1="23.84" x2="658.8" y2="45.25"/><line class="cls-6" x1="670.97" y1="29.95" x2="670.97" y2="44.03"/><polygon points="666.11 22.62 670.99 30.83 675.88 22.62 666.11 22.62"/><line class="cls-5" x1="670.97" y1="23.84" x2="670.97" y2="45.25"/><line class="cls-6" x1="658.8" y1="7.32" x2="658.8" y2="21.4"/><polygon points="653.94 0 658.82 8.2 663.71 0 653.94 0"/><line class="cls-5" x1="658.8" y1="1.22" x2="658.8" y2="22.62"/><line class="cls-6" x1="670.97" y1="7.32" x2="670.97" y2="21.4"/><polygon points="666.11 0 670.99 8.2 675.88 0 666.11 0"/><line class="cls-5" x1="670.97" y1="1.22" x2="670.97" y2="22.62"/><line class="cls-6" x1="743.14" y1="29.88" x2="743.14" y2="43.96"/><polygon points="738.28 22.56 743.16 30.76 748.05 22.56 738.28 22.56"/><line class="cls-5" x1="743.14" y1="23.78" x2="743.14" y2="45.18"/><line class="cls-6" x1="755.55" y1="29.88" x2="755.55" y2="43.96"/><polygon points="750.69 22.56 755.58 30.76 760.46 22.56 750.69 22.56"/><line class="cls-5" x1="755.55" y1="23.78" x2="755.55" y2="45.18"/><line class="cls-6" x1="743.14" y1="7.39" x2="743.14" y2="21.47"/><polygon points="738.28 0.07 743.16 8.27 748.05 0.07 738.28 0.07"/><line class="cls-5" x1="743.14" y1="1.28" x2="743.14" y2="22.69"/><line class="cls-6" x1="755.55" y1="7.39" x2="755.55" y2="21.47"/><polygon points="750.69 0.07 755.58 8.27 760.46 0.07 750.69 0.07"/><line class="cls-5" x1="755.55" y1="1.28" x2="755.55" y2="22.69"/><line class="cls-6" x1="767.97" y1="7.39" x2="767.97" y2="21.47"/><polygon points="763.11 0.07 767.99 8.27 772.88 0.07 763.11 0.07"/><line class="cls-5" x1="767.97" y1="1.28" x2="767.97" y2="30.67"/><text class="cls-7" transform="translate(33.29 29.07) scale(0.58)">Notation cunéiforme</text><text class="cls-7" transform="translate(44.48 101.55) scale(0.58)">Chi<tspan class="cls-8" x="67.52" y="0">f</tspan><tspan class="cls-9" x="79.21" y="0">fres étrusques</tspan></text><text class="cls-7" transform="translate(55.43 174.03) scale(0.58)">Chi<tspan class="cls-8" x="67.52" y="0">f</tspan><tspan class="cls-9" x="79.21" y="0">fres romains</tspan></text><text class="cls-7" transform="translate(63.45 246.51) scale(0.58)">Chi<tspan class="cls-8" x="67.52" y="0">f</tspan><tspan class="cls-9" x="79.21" y="0">fres mayas</tspan></text><text class="cls-7" transform="translate(61.25 318.99) scale(0.58)">Chi<tspan class="cls-8" x="67.52" y="0">f</tspan><tspan class="cls-9" x="79.21" y="0">fres chinois</tspan></text><text class="cls-7" transform="translate(13.14 391.16) scale(0.58)">Anciens chi<tspan class="cls-8" x="230.12" y="0">f</tspan><tspan x="241.81" y="0">fres indiens</tspan></text><text class="cls-7" transform="translate(55.2 463.95) scale(0.58)">Arabe manuscrit</text><text class="cls-7" transform="translate(0 536.43) scale(0.58)">Chi<tspan class="cls-8" x="67.52" y="0">f</tspan><tspan class="cls-9" x="79.21" y="0">fres arabes modernes</tspan></text><path class="cls-1" d="M962.11,604.05A45.63,45.63,0,0,1,958.6,589c-.42-5.81.31-10.64.7-15.06" transform="translate(-201.74 -199.29)"/><path class="cls-1" d="M947.55,563.15c-.44,6,6.16,10.27,11.62,10.63,5.84.38,8.89-4.46,8.6-10.93" transform="translate(-201.74 -199.29)"/></g></svg>