<svg id="Calque_1" data-name="Calque 1" xmlns="http://www.w3.org/2000/svg" viewBox="0 0 463.24 537.97"><defs><style>.cls-1,.cls-4{fill:none;stroke:#000;stroke-miterlimit:10;}.cls-1{stroke-width:2px;}.cls-2{font-size:36px;}.cls-2,.cls-3{font-family:ArialMT, Arial;}.cls-3{font-size:24px;}</style></defs><title>ex_taille_dimensions</title><line class="cls-1" x1="47.94" y1="246.16" x2="175.24" y2="246.16"/><polygon points="172.32 256.14 189.59 246.17 172.32 236.19 172.32 256.14"/><line class="cls-1" x1="69.51" y1="269.86" x2="69.51" y2="142.56"/><polygon points="79.48 145.48 69.51 128.21 59.54 145.48 79.48 145.48"/><text class="cls-2" transform="translate(251.13 49.5)">1 dimension</text><text class="cls-2" transform="translate(251.13 213.55)">2 dimensions</text><text class="cls-2" transform="translate(251.13 422.68)">3 dimensions</text><line class="cls-1" x1="50.83" y1="41.6" x2="178.63" y2="41.6"/><polygon points="175.71 51.57 192.98 41.6 175.71 31.63 175.71 51.57"/><text class="cls-3" transform="translate(44.55 20.6)">0</text><text class="cls-3" transform="translate(95.67 20.6)">1m</text><text class="cls-3" transform="translate(152.78 20.6)">2m</text><line class="cls-4" x1="51.33" y1="41.6" x2="51.33" y2="29.86"/><line class="cls-4" x1="114.94" y1="42.21" x2="114.94" y2="30.47"/><text class="cls-3" transform="translate(133.7 74.68)">taille</text><text class="cls-3" transform="translate(0 168.07)">poids</text><text class="cls-3" transform="translate(140.96 281.73)">taille</text><line class="cls-1" x1="118.77" y1="462.94" x2="118.77" y2="335.64"/><polygon points="128.74 338.56 118.77 321.29 108.8 338.56 128.74 338.56"/><line class="cls-1" x1="104.09" y1="436.64" x2="214.34" y2="500.29"/><polygon points="206.83 507.47 226.77 507.47 216.8 490.2 206.83 507.47"/><line class="cls-1" x1="133.44" y1="436.64" x2="23.2" y2="500.29"/><polygon points="20.74 490.2 10.77 507.47 30.71 507.47 20.74 490.2"/><text class="cls-3" transform="translate(161.87 505.1) rotate(30)">taille</text><text class="cls-3" transform="translate(46.02 355.96)">poids</text><text class="cls-3" transform="translate(33.93 531.22) rotate(-30)">âge</text></svg>