<svg id="Calque_1" data-name="Calque 1" xmlns="http://www.w3.org/2000/svg" viewBox="0 0 476.24 527.97"><defs><style>.cls-1{font-size:36px;}.cls-1,.cls-3{font-family:ArialMT, Arial;}.cls-2,.cls-4{fill:none;stroke:#000;stroke-miterlimit:10;}.cls-2{stroke-width:2px;}.cls-3{font-size:24px;}</style></defs><title>ex_taille_dimensions_en</title><text class="cls-1" transform="translate(264.13 49.5)">1 dimension</text><line class="cls-2" x1="63.83" y1="41.6" x2="191.63" y2="41.6"/><polygon points="188.71 51.57 205.98 41.6 188.71 31.63 188.71 51.57"/><text class="cls-3" transform="translate(57.55 20.6)">0</text><text class="cls-3" transform="translate(108.67 20.6)">1m</text><text class="cls-3" transform="translate(165.78 20.6)">2m</text><line class="cls-4" x1="64.33" y1="41.6" x2="64.33" y2="29.86"/><line class="cls-4" x1="127.94" y1="42.21" x2="127.94" y2="30.47"/><text class="cls-3" transform="translate(150.04 73.68)">size</text><line class="cls-2" x1="60.94" y1="241.16" x2="188.24" y2="241.16"/><polygon points="185.32 251.14 202.59 241.17 185.32 231.19 185.32 251.14"/><line class="cls-2" x1="82.51" y1="264.86" x2="82.51" y2="137.56"/><polygon points="92.48 140.48 82.51 123.21 72.54 140.48 92.48 140.48"/><text class="cls-1" transform="translate(264.13 208.55)">2 dimensions</text><text class="cls-3" transform="translate(0 163.07)">weight</text><text class="cls-3" transform="translate(157.3 272.73)">size</text><text class="cls-1" transform="translate(264.13 413.68)">3 dimensions</text><line class="cls-2" x1="131.77" y1="453.94" x2="131.77" y2="326.64"/><polygon points="141.74 329.56 131.77 312.29 121.8 329.56 141.74 329.56"/><line class="cls-2" x1="117.09" y1="427.64" x2="227.34" y2="491.29"/><polygon points="219.83 498.47 239.77 498.47 229.8 481.2 219.83 498.47"/><line class="cls-2" x1="146.44" y1="427.64" x2="36.2" y2="491.29"/><polygon points="33.74 481.2 23.77 498.47 43.71 498.47 33.74 481.2"/><text class="cls-3" transform="translate(177.76 496.77) rotate(30)">size</text><text class="cls-3" transform="translate(48.02 346.96)">weight</text><text class="cls-3" transform="translate(46.93 521.22) rotate(-30)">age</text></svg>