<svg id="Calque_1" data-name="Calque 1" xmlns="http://www.w3.org/2000/svg" viewBox="0 0 648.07 682.31"><defs><style>.cls-1,.cls-3,.cls-4,.cls-5{fill:none;stroke:#000;stroke-miterlimit:10;}.cls-1{stroke-width:3px;}.cls-2{font-size:24px;font-family:ArialMT, Arial;}.cls-3{stroke-width:4px;}.cls-4{stroke-width:2px;}</style></defs><title>fleche_pierre__degre_liberte_en</title><circle class="cls-1" cx="292.22" cy="111.52" r="70.98"/><text class="cls-2" transform="translate(19.13 117.92)">information</text><path class="cls-3" d="M333.93,300.08" transform="translate(-272.86 -188.56)"/><line class="cls-4" x1="148.24" y1="111.52" x2="208.06" y2="111.52"/><path d="M493,300.08c-5.68,2.11-12.73,5.7-17.09,9.51l3.44-9.51-3.44-9.51C480.26,294.38,487.31,298,493,300.08Z" transform="translate(-272.86 -188.56)"/><text class="cls-2" transform="translate(262.87 20.6)">stone</text><text class="cls-2" transform="translate(19.13 366.55)">information</text><circle class="cls-1" cx="292.22" cy="360.15" r="70.98"/><polyline class="cls-4" points="148.74 360.15 220.63 360.15 330 418.38 362.68 353.02 298.34 290.72 235.03 397.96 360.64 381.11 242.68 311.15 280.98 425.53 424.42 371.09"/><path d="M708.57,555.37c-4.57,4-9.88,9.85-12.61,15l-.16-10.12-6.59-7.67C694.65,554.55,702.51,555.42,708.57,555.37Z" transform="translate(-272.86 -188.56)"/><path d="M539.44,430.28a7.87,7.87,0,0,1-2.26,1.4,6.38,6.38,0,0,1-2.33.41,4.53,4.53,0,0,1-3.15-1,3.32,3.32,0,0,1-1.1-2.56,3.48,3.48,0,0,1,1.51-2.88,4.84,4.84,0,0,1,1.51-.69,14.71,14.71,0,0,1,1.88-.32,19,19,0,0,0,3.76-.73c0-.29,0-.47,0-.55a2.34,2.34,0,0,0-.59-1.81,3.52,3.52,0,0,0-2.41-.72,3.76,3.76,0,0,0-2.19.52A3.14,3.14,0,0,0,533,423.2l-2.07-.28a5.09,5.09,0,0,1,.93-2.14,4.15,4.15,0,0,1,1.86-1.26,8.46,8.46,0,0,1,2.83-.43,7.52,7.52,0,0,1,2.59.37,3.39,3.39,0,0,1,1.46.94,3.42,3.42,0,0,1,.66,1.44,12.09,12.09,0,0,1,.1,1.94v2.82a29.41,29.41,0,0,0,.14,3.72,4.75,4.75,0,0,0,.53,1.49h-2.2A4.41,4.41,0,0,1,539.44,430.28Zm-.18-4.71a15.63,15.63,0,0,1-3.44.79,8.61,8.61,0,0,0-1.84.42,1.92,1.92,0,0,0-.84.69,1.83,1.83,0,0,0-.29,1,1.8,1.8,0,0,0,.64,1.41,2.78,2.78,0,0,0,1.87.56,4.44,4.44,0,0,0,2.17-.53,3.32,3.32,0,0,0,1.39-1.46,5.05,5.05,0,0,0,.34-2.11Z" transform="translate(-272.86 -188.56)"/><path d="M544.66,431.81V419.37h1.9v1.77a4.48,4.48,0,0,1,4-2.05,5.2,5.2,0,0,1,2.07.4,3.21,3.21,0,0,1,1.41,1.06,4.07,4.07,0,0,1,.66,1.56,11.76,11.76,0,0,1,.12,2.05v7.65h-2.11v-7.57a5.55,5.55,0,0,0-.25-1.93,2,2,0,0,0-.87-1,2.82,2.82,0,0,0-1.47-.38,3.43,3.43,0,0,0-2.33.86c-.65.57-1,1.65-1,3.25v6.79Z" transform="translate(-272.86 -188.56)"/><path d="M558,417.06v-2.43h2.11v2.43Zm0,14.75V419.37h2.11v12.44Z" transform="translate(-272.86 -188.56)"/><path d="M563.34,431.81V419.37h1.89v1.74a4.37,4.37,0,0,1,3.77-2,4.11,4.11,0,0,1,2.27.57,3.06,3.06,0,0,1,1.25,1.61,4.44,4.44,0,0,1,3.84-2.18,3.79,3.79,0,0,1,2.85,1,4.4,4.4,0,0,1,1,3.16v8.54h-2.1V424a5.64,5.64,0,0,0-.21-1.82,1.75,1.75,0,0,0-.74-.9,2.38,2.38,0,0,0-1.27-.34,2.93,2.93,0,0,0-2.18.88,3.87,3.87,0,0,0-.86,2.79v7.23h-2.11v-8.08a3.51,3.51,0,0,0-.52-2.11,1.94,1.94,0,0,0-1.69-.71,3.07,3.07,0,0,0-1.64.47,2.65,2.65,0,0,0-1.1,1.37,7.88,7.88,0,0,0-.34,2.6v6.46Z" transform="translate(-272.86 -188.56)"/><path d="M591.46,430.28a7.87,7.87,0,0,1-2.26,1.4,6.38,6.38,0,0,1-2.33.41,4.53,4.53,0,0,1-3.15-1,3.32,3.32,0,0,1-1.1-2.56,3.48,3.48,0,0,1,1.51-2.88,4.84,4.84,0,0,1,1.51-.69,14.71,14.71,0,0,1,1.88-.32,19,19,0,0,0,3.76-.73c0-.29,0-.47,0-.55a2.3,2.3,0,0,0-.6-1.81,3.49,3.49,0,0,0-2.4-.72,3.76,3.76,0,0,0-2.19.52,3.14,3.14,0,0,0-1.05,1.85l-2.07-.28a5.09,5.09,0,0,1,.93-2.14,4.15,4.15,0,0,1,1.86-1.26,8.46,8.46,0,0,1,2.83-.43,7.52,7.52,0,0,1,2.59.37,3.39,3.39,0,0,1,1.46.94,3.42,3.42,0,0,1,.66,1.44,12.09,12.09,0,0,1,.1,1.94v2.82a29.41,29.41,0,0,0,.14,3.72,4.75,4.75,0,0,0,.53,1.49h-2.2A4.41,4.41,0,0,1,591.46,430.28Zm-.18-4.71a15.63,15.63,0,0,1-3.44.79,8.46,8.46,0,0,0-1.84.42,1.92,1.92,0,0,0-.84.69,1.83,1.83,0,0,0-.29,1,1.8,1.8,0,0,0,.64,1.41,2.78,2.78,0,0,0,1.87.56,4.44,4.44,0,0,0,2.17-.53,3.32,3.32,0,0,0,1.39-1.46,5.05,5.05,0,0,0,.34-2.11Z" transform="translate(-272.86 -188.56)"/><path d="M596.64,431.81V414.63h2.11v17.18Z" transform="translate(-272.86 -188.56)"/><path d="M541.93,460.61h-2V443.43h2.11v6.13a4.16,4.16,0,0,1,3.41-1.67,5.15,5.15,0,0,1,2.17.46,4.39,4.39,0,0,1,1.69,1.3,6.32,6.32,0,0,1,1,2,8.32,8.32,0,0,1,.37,2.53,7.11,7.11,0,0,1-1.58,4.95,5,5,0,0,1-3.8,1.74,4,4,0,0,1-3.45-1.84Zm0-6.31a6.5,6.5,0,0,0,.61,3.23,3,3,0,0,0,5.09.43,5.48,5.48,0,0,0,1-3.58,5.57,5.57,0,0,0-1-3.6,2.94,2.94,0,0,0-2.34-1.16,3,3,0,0,0-2.39,1.2A5.29,5.29,0,0,0,541.9,454.3Z" transform="translate(-272.86 -188.56)"/><path d="M553.31,460.61V448.17h1.89v1.88a5.2,5.2,0,0,1,1.35-1.74,2.34,2.34,0,0,1,1.35-.42,4.15,4.15,0,0,1,2.17.67l-.73,2a3.05,3.05,0,0,0-1.55-.46,2,2,0,0,0-1.24.42,2.25,2.25,0,0,0-.78,1.16,8,8,0,0,0-.35,2.46v6.51Z" transform="translate(-272.86 -188.56)"/><path d="M569.44,459.08a7.83,7.83,0,0,1-2.25,1.4,6.42,6.42,0,0,1-2.33.41,4.5,4.5,0,0,1-3.15-1,3.29,3.29,0,0,1-1.1-2.56,3.43,3.43,0,0,1,1.5-2.88,4.89,4.89,0,0,1,1.52-.69,14.39,14.39,0,0,1,1.88-.32,19.2,19.2,0,0,0,3.76-.73c0-.29,0-.47,0-.55a2.3,2.3,0,0,0-.6-1.81,3.51,3.51,0,0,0-2.4-.72,3.79,3.79,0,0,0-2.2.52A3.25,3.25,0,0,0,563,452l-2.06-.28a5.09,5.09,0,0,1,.93-2.14,4.15,4.15,0,0,1,1.86-1.26,8.36,8.36,0,0,1,2.82-.43,7.44,7.44,0,0,1,2.59.37,3.37,3.37,0,0,1,1.47.94,3.3,3.3,0,0,1,.65,1.44,11.75,11.75,0,0,1,.11,1.94v2.82a30.21,30.21,0,0,0,.13,3.72,4.53,4.53,0,0,0,.54,1.49h-2.21A4.9,4.9,0,0,1,569.44,459.08Zm-.17-4.71a15.9,15.9,0,0,1-3.45.79,8.61,8.61,0,0,0-1.84.42,1.89,1.89,0,0,0-.83.69,1.75,1.75,0,0,0-.29,1,1.8,1.8,0,0,0,.64,1.41,2.74,2.74,0,0,0,1.86.56,4.39,4.39,0,0,0,2.17-.53,3.29,3.29,0,0,0,1.4-1.46,5.22,5.22,0,0,0,.34-2.11Z" transform="translate(-272.86 -188.56)"/><path d="M574.68,445.86v-2.43h2.11v2.43Zm0,14.75V448.17h2.11v12.44Z" transform="translate(-272.86 -188.56)"/><path d="M580,460.61V448.17h1.9v1.77a4.46,4.46,0,0,1,4-2.05,5.2,5.2,0,0,1,2.07.4,3.21,3.21,0,0,1,1.41,1.06,4.23,4.23,0,0,1,.66,1.56,12,12,0,0,1,.11,2v7.65H588V453a5.8,5.8,0,0,0-.25-1.93,2.09,2.09,0,0,0-.87-1,2.82,2.82,0,0,0-1.47-.38,3.43,3.43,0,0,0-2.33.86c-.65.57-1,1.65-1,3.24v6.8Z" transform="translate(-272.86 -188.56)"/><text class="cls-2" transform="translate(19.9 616.23)">information</text><path class="cls-3" d="M334.69,798.39" transform="translate(-272.86 -188.56)"/><line class="cls-4" x1="149" y1="609.83" x2="220.89" y2="609.83"/><path d="M530,682.87V665.69h2.11v6.16a4.73,4.73,0,0,1,3.73-1.71,5,5,0,0,1,2.4.55,3.16,3.16,0,0,1,1.46,1.5,7,7,0,0,1,.44,2.79v7.89H538V675a3.29,3.29,0,0,0-.68-2.3,2.57,2.57,0,0,0-1.94-.72,3.46,3.46,0,0,0-1.77.48,2.76,2.76,0,0,0-1.17,1.32,6,6,0,0,0-.36,2.3v6.81Z" transform="translate(-272.86 -188.56)"/><path d="M551.48,682.87V681a4.55,4.55,0,0,1-4,2.11,5.06,5.06,0,0,1-2.06-.42,3.49,3.49,0,0,1-1.42-1.06,4.22,4.22,0,0,1-.65-1.57,11.46,11.46,0,0,1-.12-2v-7.71h2.1v6.9a12.82,12.82,0,0,0,.13,2.23,2.24,2.24,0,0,0,.85,1.31,2.65,2.65,0,0,0,1.59.47,3.5,3.5,0,0,0,1.78-.48,2.71,2.71,0,0,0,1.18-1.33,6.65,6.65,0,0,0,.35-2.43v-6.67h2.11v12.45Z" transform="translate(-272.86 -188.56)"/><path d="M556.67,682.87V670.42h1.89v1.75a4.4,4.4,0,0,1,1.56-1.47,4.35,4.35,0,0,1,2.21-.56,4.13,4.13,0,0,1,2.27.57,3.14,3.14,0,0,1,1.25,1.61,4.46,4.46,0,0,1,3.84-2.18,3.79,3.79,0,0,1,2.85,1,4.37,4.37,0,0,1,1,3.15v8.55h-2.09V675a5.6,5.6,0,0,0-.21-1.82,1.76,1.76,0,0,0-.74-.9,2.3,2.3,0,0,0-1.27-.34,3,3,0,0,0-2.18.87,3.85,3.85,0,0,0-.87,2.8v7.23h-2.11v-8.09a3.59,3.59,0,0,0-.51-2.11,2,2,0,0,0-1.69-.7,3.13,3.13,0,0,0-1.65.47,2.68,2.68,0,0,0-1.09,1.37,7.63,7.63,0,0,0-.34,2.6v6.46Z" transform="translate(-272.86 -188.56)"/><path d="M584.78,681.33a7.89,7.89,0,0,1-2.25,1.41,6.64,6.64,0,0,1-2.33.41,4.54,4.54,0,0,1-3.15-1,3.29,3.29,0,0,1-1.1-2.56,3.47,3.47,0,0,1,1.5-2.89A5.4,5.4,0,0,1,579,676a14.76,14.76,0,0,1,1.88-.31,20,20,0,0,0,3.76-.73c0-.29,0-.47,0-.55a2.33,2.33,0,0,0-.6-1.82,3.56,3.56,0,0,0-2.4-.71,3.72,3.72,0,0,0-2.2.52,3.22,3.22,0,0,0-1,1.84l-2.06-.28a5.2,5.2,0,0,1,.93-2.14,4.06,4.06,0,0,1,1.86-1.25,8.35,8.35,0,0,1,2.82-.44,7.42,7.42,0,0,1,2.59.38,3.37,3.37,0,0,1,1.47.94,3.31,3.31,0,0,1,.65,1.43,10.77,10.77,0,0,1,.11,2v2.81a29.41,29.41,0,0,0,.14,3.72,4.42,4.42,0,0,0,.53,1.5h-2.2A4.63,4.63,0,0,1,584.78,681.33Zm-.17-4.71a15.8,15.8,0,0,1-3.45.8,7.52,7.52,0,0,0-1.84.42,1.82,1.82,0,0,0-.83.69,1.75,1.75,0,0,0-.29,1,1.77,1.77,0,0,0,.64,1.4,2.7,2.7,0,0,0,1.87.57,4.28,4.28,0,0,0,2.16-.54,3.24,3.24,0,0,0,1.4-1.46,5.19,5.19,0,0,0,.34-2.11Z" transform="translate(-272.86 -188.56)"/><path d="M590,682.87V670.42h1.9v1.77a4.46,4.46,0,0,1,4-2.05,5.38,5.38,0,0,1,2.07.4,3.22,3.22,0,0,1,1.41,1.07,4.11,4.11,0,0,1,.66,1.55,13.32,13.32,0,0,1,.11,2.05v7.66H598V675.3a5.81,5.81,0,0,0-.24-1.93,2,2,0,0,0-.88-1,2.77,2.77,0,0,0-1.47-.38,3.41,3.41,0,0,0-2.32.85c-.65.57-1,1.66-1,3.25v6.8Z" transform="translate(-272.86 -188.56)"/><path d="M541.93,711.67h-2V694.49h2.11v6.13a4.17,4.17,0,0,1,3.41-1.68,5.15,5.15,0,0,1,2.17.46,4.49,4.49,0,0,1,1.69,1.3,6.37,6.37,0,0,1,1,2,8.28,8.28,0,0,1,.37,2.53,7.07,7.07,0,0,1-1.58,4.94,4.93,4.93,0,0,1-3.8,1.75,4,4,0,0,1-3.45-1.84Zm0-6.32a6.5,6.5,0,0,0,.61,3.23,3,3,0,0,0,5.09.43,5.46,5.46,0,0,0,1-3.58,5.55,5.55,0,0,0-1-3.6,2.94,2.94,0,0,0-2.34-1.16,3,3,0,0,0-2.39,1.21A5.26,5.26,0,0,0,541.9,705.35Z" transform="translate(-272.86 -188.56)"/><path d="M553.31,711.67V699.22h1.9v1.89a5.14,5.14,0,0,1,1.34-1.75,2.34,2.34,0,0,1,1.35-.42,4.17,4.17,0,0,1,2.17.68l-.73,2a3,3,0,0,0-1.55-.46,2,2,0,0,0-1.24.42,2.22,2.22,0,0,0-.78,1.15,8,8,0,0,0-.35,2.46v6.52Z" transform="translate(-272.86 -188.56)"/><path d="M569.44,710.13a7.89,7.89,0,0,1-2.25,1.41,6.64,6.64,0,0,1-2.33.41,4.54,4.54,0,0,1-3.15-1,3.3,3.3,0,0,1-1.1-2.56,3.47,3.47,0,0,1,1.5-2.89,5.4,5.4,0,0,1,1.52-.69,14.76,14.76,0,0,1,1.88-.31,20,20,0,0,0,3.76-.73c0-.29,0-.47,0-.55a2.33,2.33,0,0,0-.6-1.82,3.51,3.51,0,0,0-2.4-.71,3.72,3.72,0,0,0-2.2.52,3.22,3.22,0,0,0-1.05,1.84l-2.06-.28a5.2,5.2,0,0,1,.93-2.14,4.06,4.06,0,0,1,1.86-1.25,8.35,8.35,0,0,1,2.82-.44,7.42,7.42,0,0,1,2.59.38,3.37,3.37,0,0,1,1.47.94,3.31,3.31,0,0,1,.65,1.43,10.77,10.77,0,0,1,.11,1.95v2.81a29.41,29.41,0,0,0,.14,3.72,4.64,4.64,0,0,0,.53,1.5h-2.2A4.63,4.63,0,0,1,569.44,710.13Zm-.17-4.71a15.8,15.8,0,0,1-3.45.8,7.65,7.65,0,0,0-1.84.42,1.81,1.81,0,0,0-1.12,1.69,1.77,1.77,0,0,0,.64,1.4,2.7,2.7,0,0,0,1.87.57,4.28,4.28,0,0,0,2.16-.54,3.24,3.24,0,0,0,1.4-1.46,5.19,5.19,0,0,0,.34-2.11Z" transform="translate(-272.86 -188.56)"/><path d="M574.68,696.91v-2.42h2.11v2.42Zm0,14.76V699.22h2.11v12.45Z" transform="translate(-272.86 -188.56)"/><path d="M580,711.67V699.22h1.9V701a4.46,4.46,0,0,1,4-2,5.38,5.38,0,0,1,2.07.4,3.22,3.22,0,0,1,1.41,1.07A4.11,4.11,0,0,1,590,702a11.84,11.84,0,0,1,.12,2v7.66H588V704.1a5.76,5.76,0,0,0-.25-1.93,2,2,0,0,0-.87-1,2.82,2.82,0,0,0-1.47-.38,3.42,3.42,0,0,0-2.33.85c-.65.57-1,1.66-1,3.25v6.8Z" transform="translate(-272.86 -188.56)"/><circle class="cls-1" cx="292.22" cy="609.83" r="70.98"/><polyline class="cls-4" points="221.56 609.71 249.6 650.95 269.87 650.95 269.87 621.52 286.32 621.52 286.32 649.15 285 635.22 301.58 630.89 325 630.89 325 606.03 301.94 606.03 301.94 629.81 312.51 629.81 312.51 619.48 303.5 619.48 303.5 618.28 312.39 618.28 312.39 606.99 314.07 606.99 314.07 617.32 324.76 617.32 324.76 619.48 314.55 619.48 314.55 629.93 314.55 605.55 334.01 597.74 296.05 564.71 252.57 601.22 252.57 647.59 251.49 647.47 251.49 602.18 241.16 602.18 263.2 580.14 263.2 563.39 274.19 563.39 274.19 571.8 295.09 555.46 349.02 599.3 343.8 604.53 335.45 598.46 335.45 650.23 289.44 650.23 355.74 641.93"/><path class="cls-4" d="M652.45,819.51" transform="translate(-272.86 -188.56)"/><path class="cls-4" d="M636.68,797.5" transform="translate(-272.86 -188.56)"/><text class="cls-2" transform="translate(414.61 117.92)">nothing</text><text class="cls-2" transform="translate(453.28 366.55)">reaction</text><path d="M822,771.87l.31,1.86a8.22,8.22,0,0,1-1.59.19,3.67,3.67,0,0,1-1.79-.37,2.08,2.08,0,0,1-.89-.95,7.72,7.72,0,0,1-.25-2.49V763h-1.55v-1.64h1.55v-3.09l2.09-1.26v4.35H822V763h-2.12v7.27a3.78,3.78,0,0,0,.11,1.16.87.87,0,0,0,.37.41,1.33,1.33,0,0,0,.72.16A7.61,7.61,0,0,0,822,771.87Z" transform="translate(-272.86 -188.56)"/><path d="M824,773.75V756.57h2.11v6.17a4.69,4.69,0,0,1,3.72-1.71,5.1,5.1,0,0,1,2.41.54,3.16,3.16,0,0,1,1.45,1.51,6.82,6.82,0,0,1,.44,2.79v7.88h-2.11v-7.88a3.26,3.26,0,0,0-.68-2.31,2.55,2.55,0,0,0-1.94-.72,3.34,3.34,0,0,0-1.76.49,2.7,2.7,0,0,0-1.18,1.32,5.92,5.92,0,0,0-.35,2.29v6.81Z" transform="translate(-272.86 -188.56)"/><path d="M836.6,767.53a6.41,6.41,0,0,1,1.92-5.12,5.81,5.81,0,0,1,3.92-1.38,5.58,5.58,0,0,1,4.19,1.68,6.37,6.37,0,0,1,1.63,4.64,8.23,8.23,0,0,1-.72,3.78,5.1,5.1,0,0,1-2.1,2.14,6.08,6.08,0,0,1-3,.76,5.63,5.63,0,0,1-4.23-1.67A6.72,6.72,0,0,1,836.6,767.53Zm2.17,0a5.33,5.33,0,0,0,1,3.58,3.36,3.36,0,0,0,2.63,1.19,3.33,3.33,0,0,0,2.61-1.2,5.43,5.43,0,0,0,1-3.64A5.14,5.14,0,0,0,845,764a3.47,3.47,0,0,0-5.23,0A5.28,5.28,0,0,0,838.77,767.53Z" transform="translate(-272.86 -188.56)"/><path d="M858.89,773.75v-1.83a4.55,4.55,0,0,1-3.95,2.11,5.09,5.09,0,0,1-2.06-.42,3.4,3.4,0,0,1-1.42-1.06,4.17,4.17,0,0,1-.65-1.56,11.54,11.54,0,0,1-.12-2v-7.71h2.1v6.9a13,13,0,0,0,.13,2.23,2.22,2.22,0,0,0,.85,1.3,2.59,2.59,0,0,0,1.59.48,3.51,3.51,0,0,0,1.78-.49,2.69,2.69,0,0,0,1.18-1.32,6.67,6.67,0,0,0,.35-2.44v-6.66h2.11v12.44Z" transform="translate(-272.86 -188.56)"/><path d="M863.69,774.78l2,.31a2,2,0,0,0,.72,1.38,3.51,3.51,0,0,0,2.14.59,3.81,3.81,0,0,0,2.27-.59,2.85,2.85,0,0,0,1.07-1.64,13.85,13.85,0,0,0,.16-2.71,4.34,4.34,0,0,1-3.45,1.63,4.71,4.71,0,0,1-4-1.85,7.1,7.1,0,0,1-1.41-4.44,8.29,8.29,0,0,1,.65-3.29,5.1,5.1,0,0,1,1.87-2.32,5,5,0,0,1,2.87-.82,4.44,4.44,0,0,1,3.63,1.78v-1.5h2v10.75a10.26,10.26,0,0,1-.59,4.12,4.35,4.35,0,0,1-1.88,1.92,6.44,6.44,0,0,1-3.15.7,5.93,5.93,0,0,1-3.6-1A3.38,3.38,0,0,1,863.69,774.78Zm1.75-7.47a5.38,5.38,0,0,0,1,3.57,3.1,3.1,0,0,0,2.44,1.13,3.15,3.15,0,0,0,2.44-1.12,5.27,5.27,0,0,0,1-3.51,5.15,5.15,0,0,0-1-3.45,3.15,3.15,0,0,0-2.45-1.16,3.06,3.06,0,0,0-2.39,1.14A5.15,5.15,0,0,0,865.44,767.31Z" transform="translate(-272.86 -188.56)"/><path d="M877.43,773.75V756.57h2.11v6.17a4.69,4.69,0,0,1,3.72-1.71,5.07,5.07,0,0,1,2.41.54,3.23,3.23,0,0,1,1.46,1.51,7,7,0,0,1,.43,2.79v7.88h-2.1v-7.88a3.26,3.26,0,0,0-.69-2.31,2.55,2.55,0,0,0-1.94-.72,3.37,3.37,0,0,0-1.76.49,2.7,2.7,0,0,0-1.18,1.32,5.92,5.92,0,0,0-.35,2.29v6.81Z" transform="translate(-272.86 -188.56)"/><path d="M895.38,771.87l.31,1.86a8.32,8.32,0,0,1-1.6.19,3.63,3.63,0,0,1-1.78-.37,2,2,0,0,1-.89-.95,7.63,7.63,0,0,1-.26-2.49V763h-1.54v-1.64h1.54v-3.09l2.1-1.26v4.35h2.12V763h-2.12v7.27a3.78,3.78,0,0,0,.11,1.16.9.9,0,0,0,.36.41,1.34,1.34,0,0,0,.73.16A7.61,7.61,0,0,0,895.38,771.87Z" transform="translate(-272.86 -188.56)"/><path d="M898,773.75V763h-1.87v-1.64H898V760a5.79,5.79,0,0,1,.22-1.86,2.67,2.67,0,0,1,1.07-1.33,3.86,3.86,0,0,1,2.15-.51,10.34,10.34,0,0,1,2,.21l-.32,1.84a6.84,6.84,0,0,0-1.24-.12,1.87,1.87,0,0,0-1.36.41,2.28,2.28,0,0,0-.4,1.54v1.15h2.43V763H900v10.8Z" transform="translate(-272.86 -188.56)"/><path d="M912.27,773.75v-1.83a4.55,4.55,0,0,1-3.95,2.11,5.06,5.06,0,0,1-2.06-.42,3.4,3.4,0,0,1-1.42-1.06,4.17,4.17,0,0,1-.65-1.56,11.3,11.3,0,0,1-.13-2v-7.71h2.11v6.9a13,13,0,0,0,.13,2.23,2.22,2.22,0,0,0,.85,1.3,2.59,2.59,0,0,0,1.59.48,3.51,3.51,0,0,0,1.78-.49,2.69,2.69,0,0,0,1.18-1.32A6.7,6.7,0,0,0,912,768v-6.66h2.11v12.44Z" transform="translate(-272.86 -188.56)"/><path d="M917.41,773.75V756.57h2.11v17.18Z" transform="translate(-272.86 -188.56)"/><path d="M824.84,798l2.07.27a5.33,5.33,0,0,1-1.74,3.36,5.05,5.05,0,0,1-3.44,1.21,5.3,5.3,0,0,1-4.1-1.67,6.74,6.74,0,0,1-1.56-4.78,8.75,8.75,0,0,1,.67-3.53,4.67,4.67,0,0,1,2-2.27,6.07,6.07,0,0,1,3-.75,5.17,5.17,0,0,1,3.31,1,4.67,4.67,0,0,1,1.65,2.91l-2.05.32a3.39,3.39,0,0,0-1-1.89,2.71,2.71,0,0,0-1.8-.63,3.28,3.28,0,0,0-2.59,1.14,5.4,5.4,0,0,0-1,3.62,5.6,5.6,0,0,0,1,3.64,3.13,3.13,0,0,0,2.51,1.14,3,3,0,0,0,2.08-.76A3.82,3.82,0,0,0,824.84,798Z" transform="translate(-272.86 -188.56)"/><path d="M827.93,796.33a6.38,6.38,0,0,1,1.93-5.12,5.79,5.79,0,0,1,3.91-1.38,5.57,5.57,0,0,1,4.19,1.68,6.37,6.37,0,0,1,1.63,4.64,8.25,8.25,0,0,1-.72,3.78,5.13,5.13,0,0,1-2.09,2.14,6.09,6.09,0,0,1-3,.76,5.64,5.64,0,0,1-4.23-1.67A6.72,6.72,0,0,1,827.93,796.33Zm2.17,0a5.33,5.33,0,0,0,1,3.58,3.36,3.36,0,0,0,2.63,1.19,3.3,3.3,0,0,0,2.61-1.2,5.38,5.38,0,0,0,1-3.64,5.14,5.14,0,0,0-1-3.5,3.35,3.35,0,0,0-2.61-1.19,3.39,3.39,0,0,0-2.63,1.18A5.33,5.33,0,0,0,830.1,796.33Z" transform="translate(-272.86 -188.56)"/><path d="M842.07,802.55V790.11H844v1.77a4.49,4.49,0,0,1,4-2,5.12,5.12,0,0,1,2.06.4,3.3,3.3,0,0,1,1.42,1.06,4.06,4.06,0,0,1,.65,1.56,11.76,11.76,0,0,1,.12,2v7.65h-2.11V795a5.55,5.55,0,0,0-.25-1.93,2,2,0,0,0-.87-1,2.82,2.82,0,0,0-1.47-.38,3.44,3.44,0,0,0-2.33.86c-.65.57-1,1.65-1,3.24v6.8Z" transform="translate(-272.86 -188.56)"/><path d="M854.57,798.84l2.09-.33a2.9,2.9,0,0,0,1,1.92,3.41,3.41,0,0,0,2.25.67,3.34,3.34,0,0,0,2.16-.59,1.81,1.81,0,0,0,.7-1.39,1.3,1.3,0,0,0-.62-1.13,9.71,9.71,0,0,0-2.16-.71,19,19,0,0,1-3.22-1,3.15,3.15,0,0,1-1.36-1.18,3.2,3.2,0,0,1-.46-1.67,3.25,3.25,0,0,1,.38-1.54,3.47,3.47,0,0,1,1-1.18,4.54,4.54,0,0,1,1.34-.61,6.35,6.35,0,0,1,1.82-.25,7.27,7.27,0,0,1,2.58.42,3.51,3.51,0,0,1,1.63,1.14,4.56,4.56,0,0,1,.73,1.93l-2.06.28a2.29,2.29,0,0,0-.82-1.5,3,3,0,0,0-1.9-.54,3.48,3.48,0,0,0-2.08.48,1.42,1.42,0,0,0-.62,1.13,1.16,1.16,0,0,0,.26.73,1.83,1.83,0,0,0,.81.57c.21.07.83.25,1.86.53a27,27,0,0,1,3.12,1,3.22,3.22,0,0,1,1.39,1.11,3.09,3.09,0,0,1,.51,1.81,3.53,3.53,0,0,1-.62,2,4,4,0,0,1-1.77,1.44,6.49,6.49,0,0,1-2.63.51,5.87,5.87,0,0,1-3.7-1A4.72,4.72,0,0,1,854.57,798.84Z" transform="translate(-272.86 -188.56)"/><path d="M875.54,798l2.07.27a5.42,5.42,0,0,1-1.74,3.36,5.05,5.05,0,0,1-3.44,1.21,5.34,5.34,0,0,1-4.11-1.67,6.79,6.79,0,0,1-1.55-4.78,8.58,8.58,0,0,1,.67-3.53,4.61,4.61,0,0,1,2-2.27,6.07,6.07,0,0,1,3-.75,5.2,5.2,0,0,1,3.32,1,4.67,4.67,0,0,1,1.65,2.91l-2,.32a3.4,3.4,0,0,0-1-1.89,2.67,2.67,0,0,0-1.8-.63,3.29,3.29,0,0,0-2.59,1.14,5.46,5.46,0,0,0-1,3.62,5.6,5.6,0,0,0,1,3.64,3.13,3.13,0,0,0,2.51,1.14,3,3,0,0,0,2.07-.76A3.77,3.77,0,0,0,875.54,798Z" transform="translate(-272.86 -188.56)"/><path d="M879.43,787.8v-2.43h2.11v2.43Zm0,14.75V790.11h2.11v12.44Z" transform="translate(-272.86 -188.56)"/><path d="M884,796.33a6.41,6.41,0,0,1,1.92-5.12,5.81,5.81,0,0,1,3.92-1.38,5.57,5.57,0,0,1,4.19,1.68,6.37,6.37,0,0,1,1.63,4.64,8.25,8.25,0,0,1-.72,3.78,5.1,5.1,0,0,1-2.1,2.14,6.08,6.08,0,0,1-3,.76,5.63,5.63,0,0,1-4.23-1.67A6.72,6.72,0,0,1,884,796.33Zm2.17,0a5.33,5.33,0,0,0,1,3.58,3.36,3.36,0,0,0,2.63,1.19,3.33,3.33,0,0,0,2.61-1.2,5.38,5.38,0,0,0,1-3.64,5.14,5.14,0,0,0-1.05-3.5,3.32,3.32,0,0,0-2.6-1.19,3.39,3.39,0,0,0-2.63,1.18A5.33,5.33,0,0,0,886.13,796.33Z" transform="translate(-272.86 -188.56)"/><path d="M906.25,802.55v-1.83a4.55,4.55,0,0,1-4,2.11,5.09,5.09,0,0,1-2.06-.42,3.3,3.3,0,0,1-1.41-1.06,3.93,3.93,0,0,1-.65-1.56,10.38,10.38,0,0,1-.13-2v-7.71h2.11V797a12,12,0,0,0,.13,2.23,2.16,2.16,0,0,0,.84,1.3,2.59,2.59,0,0,0,1.59.48,3.48,3.48,0,0,0,1.78-.49,2.69,2.69,0,0,0,1.18-1.32,6.67,6.67,0,0,0,.35-2.44v-6.66h2.11v12.44Z" transform="translate(-272.86 -188.56)"/><path d="M910.6,798.84l2.08-.33a3,3,0,0,0,1,1.92,3.41,3.41,0,0,0,2.25.67,3.3,3.3,0,0,0,2.15-.59,1.79,1.79,0,0,0,.71-1.39,1.29,1.29,0,0,0-.63-1.13,9.36,9.36,0,0,0-2.15-.71,19,19,0,0,1-3.22-1,3.05,3.05,0,0,1-1.82-2.85,3.25,3.25,0,0,1,.38-1.54,3.37,3.37,0,0,1,1-1.18,4.42,4.42,0,0,1,1.34-.61,6.3,6.3,0,0,1,1.82-.25,7.17,7.17,0,0,1,2.57.42,3.49,3.49,0,0,1,1.64,1.14,4.43,4.43,0,0,1,.72,1.93l-2.06.28a2.24,2.24,0,0,0-.81-1.5,3,3,0,0,0-1.91-.54,3.43,3.43,0,0,0-2.07.48,1.42,1.42,0,0,0-.62,1.13,1.11,1.11,0,0,0,.26.73,1.85,1.85,0,0,0,.8.57c.22.07.84.25,1.87.53a27,27,0,0,1,3.12,1,3.28,3.28,0,0,1,1.39,1.11,3.09,3.09,0,0,1,.5,1.81,3.52,3.52,0,0,1-.61,2,4,4,0,0,1-1.78,1.44,6.45,6.45,0,0,1-2.62.51,5.87,5.87,0,0,1-3.7-1A4.68,4.68,0,0,1,910.6,798.84Z" transform="translate(-272.86 -188.56)"/><path d="M846.18,829.82a7.74,7.74,0,0,1-2.26,1.4,6.33,6.33,0,0,1-2.32.41,4.5,4.5,0,0,1-3.15-1,3.3,3.3,0,0,1-1.11-2.56,3.37,3.37,0,0,1,.42-1.67,3.45,3.45,0,0,1,1.09-1.21,4.79,4.79,0,0,1,1.52-.69,14.49,14.49,0,0,1,1.87-.32,18.88,18.88,0,0,0,3.76-.73c0-.29,0-.47,0-.55a2.3,2.3,0,0,0-.6-1.81,3.51,3.51,0,0,0-2.4-.72,3.7,3.7,0,0,0-2.2.52,3.25,3.25,0,0,0-1.05,1.85l-2.06-.28a5,5,0,0,1,.92-2.14,4.13,4.13,0,0,1,1.87-1.26,8.36,8.36,0,0,1,2.82-.43,7.48,7.48,0,0,1,2.59.37,3.49,3.49,0,0,1,1.47.94,3.3,3.3,0,0,1,.65,1.44,11.75,11.75,0,0,1,.11,1.94v2.82a30.21,30.21,0,0,0,.13,3.72,4.75,4.75,0,0,0,.53,1.49h-2.2A4.41,4.41,0,0,1,846.18,829.82Zm-.18-4.71a15.63,15.63,0,0,1-3.44.79,8.61,8.61,0,0,0-1.84.42,1.83,1.83,0,0,0-.83.69,1.76,1.76,0,0,0-.3,1,1.84,1.84,0,0,0,.64,1.41,2.78,2.78,0,0,0,1.87.56,4.41,4.41,0,0,0,2.17-.53,3.26,3.26,0,0,0,1.39-1.46,5.05,5.05,0,0,0,.34-2.11Z" transform="translate(-272.86 -188.56)"/><path d="M859.53,826.79l2.07.27a5.37,5.37,0,0,1-1.74,3.36,5.05,5.05,0,0,1-3.44,1.21,5.34,5.34,0,0,1-4.11-1.67,6.79,6.79,0,0,1-1.55-4.78,8.58,8.58,0,0,1,.67-3.53,4.65,4.65,0,0,1,2-2.27,6.07,6.07,0,0,1,3-.75,5.18,5.18,0,0,1,3.32,1,4.67,4.67,0,0,1,1.65,2.91l-2,.32a3.34,3.34,0,0,0-1-1.89,2.66,2.66,0,0,0-1.79-.63,3.26,3.26,0,0,0-2.59,1.14,5.4,5.4,0,0,0-1,3.62,5.6,5.6,0,0,0,1,3.64,3.13,3.13,0,0,0,2.51,1.14,3,3,0,0,0,2.07-.76A3.77,3.77,0,0,0,859.53,826.79Z" transform="translate(-272.86 -188.56)"/><path d="M868,829.46l.31,1.87a8.32,8.32,0,0,1-1.6.19,3.63,3.63,0,0,1-1.78-.37,2,2,0,0,1-.89-.95,7.63,7.63,0,0,1-.26-2.49v-7.16h-1.54v-1.64h1.54v-3.09l2.1-1.26v4.35H868v1.64h-2.12v7.27A3.78,3.78,0,0,0,866,829a.87.87,0,0,0,.37.41,1.28,1.28,0,0,0,.72.16A6.22,6.22,0,0,0,868,829.46Z" transform="translate(-272.86 -188.56)"/><path d="M870.09,816.6v-2.43h2.11v2.43Zm0,14.75V818.91h2.11v12.44Z" transform="translate(-272.86 -188.56)"/><path d="M874.62,825.13a6.41,6.41,0,0,1,1.92-5.12,5.81,5.81,0,0,1,3.92-1.38,5.57,5.57,0,0,1,4.19,1.68,6.37,6.37,0,0,1,1.63,4.64,8.25,8.25,0,0,1-.72,3.78,5.1,5.1,0,0,1-2.1,2.14,6.08,6.08,0,0,1-3,.76,5.63,5.63,0,0,1-4.23-1.67A6.72,6.72,0,0,1,874.62,825.13Zm2.17,0a5.33,5.33,0,0,0,1,3.58,3.36,3.36,0,0,0,2.63,1.19,3.31,3.31,0,0,0,2.61-1.2,5.38,5.38,0,0,0,1-3.64,5.14,5.14,0,0,0-1.05-3.5,3.32,3.32,0,0,0-2.6-1.19,3.39,3.39,0,0,0-2.63,1.18A5.33,5.33,0,0,0,876.79,825.13Z" transform="translate(-272.86 -188.56)"/><path d="M888.75,831.35V818.91h1.9v1.77a4.48,4.48,0,0,1,4-2,5.2,5.2,0,0,1,2.07.4,3.21,3.21,0,0,1,1.41,1.06,3.92,3.92,0,0,1,.66,1.56,11.76,11.76,0,0,1,.12,2.05v7.65h-2.11v-7.57a5.55,5.55,0,0,0-.25-1.93,2,2,0,0,0-.87-1,2.82,2.82,0,0,0-1.47-.38,3.43,3.43,0,0,0-2.33.86c-.65.57-1,1.65-1,3.24v6.8Z" transform="translate(-272.86 -188.56)"/><polyline class="cls-4" points="441.72 652.2 441.72 622.01 458.06 622.01 458.06 652.02"/><polygon class="cls-4" points="474.36 632.38 487.26 632.38 498.4 632.38 498.4 607.93 474.63 607.93 474.36 632.38"/><line class="cls-4" x1="486.31" y1="608.07" x2="486.31" y2="632.51"/><line class="cls-4" x1="474.54" y1="619.57" x2="498.31" y2="619.57"/><polygon class="cls-4" points="467.16 564.34 510.48 599.1 510.48 652.2 441.72 652.2 425.2 652.2 425.2 599.24 467.16 564.34"/><polyline class="cls-4" points="510.33 603.31 524.34 603.31 466.89 555.38 411.21 603.31 425.06 603.31 425.35 603.31"/><polyline class="cls-4" points="446.66 572.35 446.66 563.12 435.66 563.12 435.66 582.13"/><polyline class="cls-5" points="390.21 651.87 402.29 651.87 399.53 639.32 406.27 621.51"/><polyline class="cls-5" points="409.23 653.08 411.91 642.83 399.53 639.32"/><circle class="cls-5" cx="407.66" cy="618.24" r="3.78"/><line class="cls-5" x1="420.68" y1="616.85" x2="414.05" y2="614.71"/><line class="cls-5" x1="414.74" y1="612.82" x2="413.31" y2="616.6"/><polyline class="cls-5" points="405.05 624.7 415.9 624.12 418.37 616.11"/><polyline class="cls-5" points="405 625.02 412.02 633.32 419.9 630.43"/><line class="cls-5" x1="356.65" y1="641.84" x2="397.16" y2="622.49"/><path d="M675.47,808.45a30.06,30.06,0,0,0-5.66,8l-.5-5-3.6-3.55A30.2,30.2,0,0,0,675.47,808.45Z" transform="translate(-272.86 -188.56)"/><line class="cls-5" y1="205.61" x2="559.66" y2="205.61"/><line class="cls-5" y1="454.61" x2="559.66" y2="454.61"/></svg>