<svg id="Calque_1" data-name="Calque 1" xmlns="http://www.w3.org/2000/svg" viewBox="0 0 778.73 374.42"><defs><style>.cls-1,.cls-2,.cls-3{fill:none;stroke:#000;stroke-miterlimit:10;}.cls-1{stroke-width:3px;}.cls-2,.cls-3{stroke-width:2px;}.cls-2{opacity:0.51;}.cls-4{font-size:24px;font-family:ArialMT, Arial;}.cls-5{letter-spacing:-0.09em;}.cls-6{letter-spacing:-0.11em;}</style></defs><title>futur_intelligence_maj_elite_en</title><line class="cls-1" x1="40.23" y1="26.58" x2="40.23" y2="310"/><polygon points="31.52 32.52 40.23 0 48.95 32.52 31.52 32.52"/><line class="cls-1" x1="38.73" y1="310" x2="752.16" y2="310"/><polygon points="746.21 318.72 778.74 310 746.21 301.28 746.21 318.72"/><path d="M837.75,682.34V665.16H840v17.18Z" transform="translate(-227.77 -337)"/><path d="M843.76,682.34V669.89h1.9v1.77a4.46,4.46,0,0,1,4-2,5.2,5.2,0,0,1,2.07.4,3.29,3.29,0,0,1,1.41,1.06,4.23,4.23,0,0,1,.66,1.56,13.32,13.32,0,0,1,.11,2v7.66h-2.11v-7.57a5.81,5.81,0,0,0-.24-1.93,2.06,2.06,0,0,0-.87-1,2.74,2.74,0,0,0-1.48-.38,3.41,3.41,0,0,0-2.32.85c-.65.57-1,1.66-1,3.25v6.8Z" transform="translate(-227.77 -337)"/><path d="M861.71,680.45l.31,1.86a7.59,7.59,0,0,1-1.6.19,3.67,3.67,0,0,1-1.78-.36,2.05,2.05,0,0,1-.89-1,7.64,7.64,0,0,1-.25-2.49v-7.16H856v-1.64h1.55v-3.08l2.09-1.27v4.35h2.12v1.64h-2.12v7.28a3.83,3.83,0,0,0,.11,1.16.92.92,0,0,0,.37.41,1.43,1.43,0,0,0,.72.15A7.61,7.61,0,0,0,861.71,680.45Z" transform="translate(-227.77 -337)"/><path d="M872.3,678.33l2.18.27a5.34,5.34,0,0,1-1.91,3,6.47,6.47,0,0,1-7.9-.62,6.63,6.63,0,0,1-1.6-4.72,6.89,6.89,0,0,1,1.62-4.88,5.5,5.5,0,0,1,4.2-1.73,5.31,5.31,0,0,1,4.07,1.7,6.73,6.73,0,0,1,1.59,4.78c0,.12,0,.31,0,.56h-9.28a4.8,4.8,0,0,0,1.16,3.14,3.46,3.46,0,0,0,2.6,1.09,3.23,3.23,0,0,0,2-.61A4,4,0,0,0,872.3,678.33Zm-6.93-3.41h7a4.19,4.19,0,0,0-.8-2.36,3.23,3.23,0,0,0-2.61-1.22,3.34,3.34,0,0,0-2.44,1A3.82,3.82,0,0,0,865.37,674.92Z" transform="translate(-227.77 -337)"/><path d="M877.08,682.34V665.16h2.11v17.18Z" transform="translate(-227.77 -337)"/><path d="M882.41,682.34V665.16h2.11v17.18Z" transform="translate(-227.77 -337)"/><path d="M896.31,678.33l2.18.27a5.34,5.34,0,0,1-1.91,3,6.47,6.47,0,0,1-7.9-.62,6.63,6.63,0,0,1-1.6-4.72,6.89,6.89,0,0,1,1.62-4.88,5.5,5.5,0,0,1,4.2-1.73,5.35,5.35,0,0,1,4.08,1.7,6.77,6.77,0,0,1,1.58,4.78c0,.12,0,.31,0,.56h-9.29a4.8,4.8,0,0,0,1.16,3.14,3.46,3.46,0,0,0,2.61,1.09,3.22,3.22,0,0,0,2-.61A4,4,0,0,0,896.31,678.33Zm-6.93-3.41h7a4.19,4.19,0,0,0-.8-2.36,3.23,3.23,0,0,0-2.61-1.22,3.34,3.34,0,0,0-2.44,1A3.82,3.82,0,0,0,889.38,674.92Z" transform="translate(-227.77 -337)"/><path d="M909.26,677.78l2.07.27a5.37,5.37,0,0,1-1.74,3.35,5.06,5.06,0,0,1-3.44,1.22A5.37,5.37,0,0,1,902,681a6.81,6.81,0,0,1-1.55-4.79,8.62,8.62,0,0,1,.67-3.53,4.63,4.63,0,0,1,2-2.26,6,6,0,0,1,3-.76,5.2,5.2,0,0,1,3.32,1,4.72,4.72,0,0,1,1.65,2.92l-2,.31a3.35,3.35,0,0,0-1-1.88,2.62,2.62,0,0,0-1.79-.64,3.24,3.24,0,0,0-2.59,1.15,5.37,5.37,0,0,0-1,3.61,5.64,5.64,0,0,0,1,3.65,3.15,3.15,0,0,0,2.51,1.13,2.92,2.92,0,0,0,2.07-.76A3.77,3.77,0,0,0,909.26,677.78Z" transform="translate(-227.77 -337)"/><path d="M917.74,680.45l.31,1.86a7.59,7.59,0,0,1-1.6.19,3.64,3.64,0,0,1-1.78-.36,2.05,2.05,0,0,1-.89-1,7.55,7.55,0,0,1-.26-2.49v-7.16H912v-1.64h1.54v-3.08l2.1-1.27v4.35h2.12v1.64h-2.12v7.28a3.83,3.83,0,0,0,.11,1.16,1,1,0,0,0,.36.41,1.45,1.45,0,0,0,.73.15A7.61,7.61,0,0,0,917.74,680.45Z" transform="translate(-227.77 -337)"/><path d="M928,682.34v-1.83a4.58,4.58,0,0,1-4,2.11,5.09,5.09,0,0,1-2.06-.42,3.4,3.4,0,0,1-1.41-1.07,3.81,3.81,0,0,1-.65-1.56,10.31,10.31,0,0,1-.13-2v-7.71h2.11v6.9A11.93,11.93,0,0,0,922,679a2.21,2.21,0,0,0,.84,1.31,2.65,2.65,0,0,0,1.59.47,3.39,3.39,0,0,0,1.78-.49,2.65,2.65,0,0,0,1.18-1.32,6.65,6.65,0,0,0,.35-2.43v-6.67h2.11v12.45Z" transform="translate(-227.77 -337)"/><path d="M941.27,680.8a8.11,8.11,0,0,1-2.25,1.41,6.64,6.64,0,0,1-2.33.41,4.54,4.54,0,0,1-3.15-1,3.31,3.31,0,0,1-1.1-2.57,3.43,3.43,0,0,1,1.5-2.88,5.4,5.4,0,0,1,1.52-.69,16.5,16.5,0,0,1,1.87-.32,19.32,19.32,0,0,0,3.77-.72c0-.29,0-.48,0-.55a2.33,2.33,0,0,0-.6-1.82,3.51,3.51,0,0,0-2.4-.71,3.72,3.72,0,0,0-2.2.52,3.19,3.19,0,0,0-1,1.84l-2.06-.28a5.2,5.2,0,0,1,.93-2.14,4.06,4.06,0,0,1,1.86-1.25,8.35,8.35,0,0,1,2.82-.44A7.44,7.44,0,0,1,941,670a3.38,3.38,0,0,1,1.47.95,3.31,3.31,0,0,1,.65,1.43,11.81,11.81,0,0,1,.11,1.95v2.81a30.21,30.21,0,0,0,.13,3.72,4.67,4.67,0,0,0,.54,1.5h-2.21A4.63,4.63,0,0,1,941.27,680.8Zm-.17-4.71a15.8,15.8,0,0,1-3.45.8,7.52,7.52,0,0,0-1.84.42,1.76,1.76,0,0,0-.83.68,1.87,1.87,0,0,0,.35,2.41,2.69,2.69,0,0,0,1.86.56,4.28,4.28,0,0,0,2.17-.53,3.24,3.24,0,0,0,1.4-1.46,5.19,5.19,0,0,0,.34-2.11Z" transform="translate(-227.77 -337)"/><path d="M946.45,682.34V665.16h2.11v17.18Z" transform="translate(-227.77 -337)"/><path d="M966.62,680.8a8,8,0,0,1-2.26,1.41,6.54,6.54,0,0,1-2.32.41,4.54,4.54,0,0,1-3.15-1,3.32,3.32,0,0,1-1.11-2.57,3.42,3.42,0,0,1,.42-1.67,3.53,3.53,0,0,1,1.09-1.21,5.4,5.4,0,0,1,1.52-.69,16.5,16.5,0,0,1,1.87-.32,19,19,0,0,0,3.76-.72c0-.29,0-.48,0-.55a2.33,2.33,0,0,0-.6-1.82,3.51,3.51,0,0,0-2.4-.71,3.7,3.7,0,0,0-2.2.52,3.19,3.19,0,0,0-1,1.84l-2.06-.28a5.07,5.07,0,0,1,.92-2.14,4,4,0,0,1,1.87-1.25,8.35,8.35,0,0,1,2.82-.44,7.48,7.48,0,0,1,2.59.37,3.5,3.5,0,0,1,1.47.95,3.31,3.31,0,0,1,.65,1.43,11.81,11.81,0,0,1,.11,1.95v2.81a30.21,30.21,0,0,0,.13,3.72,4.67,4.67,0,0,0,.54,1.5H967A4.41,4.41,0,0,1,966.62,680.8Zm-.18-4.71a15.54,15.54,0,0,1-3.44.8,7.52,7.52,0,0,0-1.84.42,1.76,1.76,0,0,0-.83.68,1.85,1.85,0,0,0,.34,2.41,2.73,2.73,0,0,0,1.87.56,4.31,4.31,0,0,0,2.17-.53A3.21,3.21,0,0,0,966.1,679a5,5,0,0,0,.34-2.11Z" transform="translate(-227.77 -337)"/><path d="M971.85,682.34V669.89h1.9v1.77a4.46,4.46,0,0,1,4-2,5.12,5.12,0,0,1,2.06.4,3.38,3.38,0,0,1,1.42,1.06,4.06,4.06,0,0,1,.65,1.56,11.84,11.84,0,0,1,.12,2v7.66h-2.11v-7.57a5.51,5.51,0,0,0-.25-1.93,2,2,0,0,0-.87-1,2.73,2.73,0,0,0-1.47-.38,3.43,3.43,0,0,0-2.33.85c-.65.57-1,1.66-1,3.25v6.8Z" transform="translate(-227.77 -337)"/><path d="M993.27,682.34v-1.57a3.88,3.88,0,0,1-3.48,1.85,5,5,0,0,1-2.74-.82,5.44,5.44,0,0,1-1.93-2.29,7.88,7.88,0,0,1-.69-3.38,9,9,0,0,1,.62-3.39,4.9,4.9,0,0,1,4.64-3.13,4.12,4.12,0,0,1,3.44,1.71v-6.16h2.1v17.18Zm-6.67-6.21a5.41,5.41,0,0,0,1,3.57,3,3,0,0,0,2.38,1.18,3,3,0,0,0,2.35-1.13,5.22,5.22,0,0,0,1-3.45,5.84,5.84,0,0,0-1-3.75,3,3,0,0,0-2.43-1.19,2.94,2.94,0,0,0-2.35,1.14A5.76,5.76,0,0,0,986.6,676.13Z" transform="translate(-227.77 -337)"/><path d="M845.61,707.13l2.18.27a5.29,5.29,0,0,1-1.91,3,6.46,6.46,0,0,1-7.89-.62,6.58,6.58,0,0,1-1.6-4.72,6.88,6.88,0,0,1,1.62-4.88,5.47,5.47,0,0,1,4.19-1.73,5.32,5.32,0,0,1,4.08,1.7,6.76,6.76,0,0,1,1.58,4.78c0,.12,0,.31,0,.56h-9.28a4.75,4.75,0,0,0,1.16,3.14,3.43,3.43,0,0,0,2.6,1.09,3.22,3.22,0,0,0,2-.61A4,4,0,0,0,845.61,707.13Zm-6.92-3.41h6.95a4.27,4.27,0,0,0-.8-2.36,3.23,3.23,0,0,0-2.61-1.22,3.36,3.36,0,0,0-2.45,1A3.82,3.82,0,0,0,838.69,703.72Z" transform="translate(-227.77 -337)"/><path d="M858.51,711.14v-1.57a3.86,3.86,0,0,1-3.48,1.85,4.91,4.91,0,0,1-2.73-.82,5.46,5.46,0,0,1-1.94-2.29,8,8,0,0,1-.68-3.39,9,9,0,0,1,.62-3.38,4.85,4.85,0,0,1,1.86-2.32,5,5,0,0,1,2.78-.81,4.19,4.19,0,0,1,2,.47,4.11,4.11,0,0,1,1.43,1.24V694h2.1v17.18Zm-6.66-6.22a5.42,5.42,0,0,0,1,3.58,3.05,3.05,0,0,0,2.38,1.18,3,3,0,0,0,2.35-1.13,5.17,5.17,0,0,0,1-3.45,5.9,5.9,0,0,0-1-3.75,3,3,0,0,0-2.43-1.19,2.93,2.93,0,0,0-2.35,1.14A5.68,5.68,0,0,0,851.85,704.92Z" transform="translate(-227.77 -337)"/><path d="M871.94,711.14v-1.83a4.55,4.55,0,0,1-3.94,2.11,5.06,5.06,0,0,1-2.06-.42,3.43,3.43,0,0,1-1.42-1.07,4,4,0,0,1-.65-1.56,10.31,10.31,0,0,1-.13-2v-7.71h2.11v6.9a11.93,11.93,0,0,0,.13,2.23,2.21,2.21,0,0,0,.84,1.31,2.66,2.66,0,0,0,1.6.47,3.44,3.44,0,0,0,1.78-.49,2.7,2.7,0,0,0,1.18-1.32,6.68,6.68,0,0,0,.34-2.43v-6.67h2.11v12.45Z" transform="translate(-227.77 -337)"/><path d="M885.26,706.58l2.07.27a5.37,5.37,0,0,1-1.74,3.35,5.06,5.06,0,0,1-3.44,1.22,5.37,5.37,0,0,1-4.11-1.67,6.81,6.81,0,0,1-1.55-4.79,8.62,8.62,0,0,1,.67-3.53,4.58,4.58,0,0,1,2-2.26,6,6,0,0,1,3-.76,5.2,5.2,0,0,1,3.32,1,4.72,4.72,0,0,1,1.65,2.92l-2,.31a3.35,3.35,0,0,0-1-1.88,2.62,2.62,0,0,0-1.79-.64,3.24,3.24,0,0,0-2.59,1.15,5.37,5.37,0,0,0-1,3.61,5.64,5.64,0,0,0,1,3.65,3.15,3.15,0,0,0,2.51,1.13,2.92,2.92,0,0,0,2.07-.76A3.77,3.77,0,0,0,885.26,706.58Z" transform="translate(-227.77 -337)"/><path d="M897.26,709.6A8.15,8.15,0,0,1,895,711a6.6,6.6,0,0,1-2.33.41,4.58,4.58,0,0,1-3.15-1,3.34,3.34,0,0,1-1.1-2.57,3.48,3.48,0,0,1,1.51-2.88,5.34,5.34,0,0,1,1.51-.69,16.76,16.76,0,0,1,1.88-.32,19.19,19.19,0,0,0,3.76-.72c0-.29,0-.48,0-.55a2.37,2.37,0,0,0-.59-1.82,3.52,3.52,0,0,0-2.41-.71,3.68,3.68,0,0,0-2.19.52,3.08,3.08,0,0,0-1,1.84l-2.07-.28a5.2,5.2,0,0,1,.93-2.14,4.06,4.06,0,0,1,1.86-1.25,8.45,8.45,0,0,1,2.83-.44,7.52,7.52,0,0,1,2.59.37,3,3,0,0,1,2.12,2.38,12.15,12.15,0,0,1,.1,2v2.81a29.41,29.41,0,0,0,.14,3.72,4.89,4.89,0,0,0,.53,1.5h-2.2A4.41,4.41,0,0,1,897.26,709.6Zm-.18-4.71a15.54,15.54,0,0,1-3.44.8,7.52,7.52,0,0,0-1.84.42,1.83,1.83,0,0,0-.84.68,1.86,1.86,0,0,0-.29,1,1.77,1.77,0,0,0,.64,1.4,2.73,2.73,0,0,0,1.87.56,4.33,4.33,0,0,0,2.17-.53,3.27,3.27,0,0,0,1.39-1.46,5,5,0,0,0,.34-2.11Z" transform="translate(-227.77 -337)"/><path d="M907.09,709.25l.3,1.86a7.43,7.43,0,0,1-1.59.19,3.61,3.61,0,0,1-1.78-.36,2.05,2.05,0,0,1-.89-1,7.55,7.55,0,0,1-.26-2.49v-7.16h-1.55v-1.64h1.55v-3.08l2.1-1.27v4.35h2.12v1.64H905v7.28a3.51,3.51,0,0,0,.11,1.16.84.84,0,0,0,.36.41,1.43,1.43,0,0,0,.72.15A7.58,7.58,0,0,0,907.09,709.25Z" transform="translate(-227.77 -337)"/><path d="M909.16,696.38V694h2.11v2.42Zm0,14.76V698.69h2.11v12.45Z" transform="translate(-227.77 -337)"/><path d="M913.7,704.91a6.42,6.42,0,0,1,1.92-5.12,5.8,5.8,0,0,1,3.91-1.38,5.59,5.59,0,0,1,4.2,1.68,6.38,6.38,0,0,1,1.63,4.65,8.25,8.25,0,0,1-.72,3.78,5.15,5.15,0,0,1-2.1,2.14,6.2,6.2,0,0,1-3,.76,5.57,5.57,0,0,1-4.22-1.68A6.72,6.72,0,0,1,913.7,704.91Zm2.17,0a5.26,5.26,0,0,0,1,3.58,3.31,3.31,0,0,0,2.62,1.19,3.36,3.36,0,0,0,2.62-1.19,5.46,5.46,0,0,0,1-3.65,5.15,5.15,0,0,0-1.05-3.5,3.49,3.49,0,0,0-5.23,0A5.25,5.25,0,0,0,915.87,704.91Z" transform="translate(-227.77 -337)"/><path d="M927.83,711.14V698.69h1.9v1.77a4.46,4.46,0,0,1,4-2.05,5.2,5.2,0,0,1,2.07.4,3.29,3.29,0,0,1,1.41,1.06,4.23,4.23,0,0,1,.66,1.56,12.13,12.13,0,0,1,.11,2.05v7.66h-2.11v-7.57a5.81,5.81,0,0,0-.24-1.93,2.06,2.06,0,0,0-.87-1,2.73,2.73,0,0,0-1.47-.38,3.42,3.42,0,0,0-2.33.85c-.65.57-1,1.66-1,3.25v6.8Z" transform="translate(-227.77 -337)"/><path d="M947.8,711.14V694h2.11v17.18Z" transform="translate(-227.77 -337)"/><path d="M961.7,707.13l2.18.27a5.34,5.34,0,0,1-1.91,3,6.46,6.46,0,0,1-7.89-.62,6.58,6.58,0,0,1-1.6-4.72,6.87,6.87,0,0,1,1.61-4.88,5.5,5.5,0,0,1,4.2-1.73,5.35,5.35,0,0,1,4.08,1.7,6.76,6.76,0,0,1,1.58,4.78c0,.12,0,.31,0,.56h-9.28a4.7,4.7,0,0,0,1.16,3.14,3.43,3.43,0,0,0,2.6,1.09,3.22,3.22,0,0,0,2-.61A4,4,0,0,0,961.7,707.13Zm-6.93-3.41h7a4.19,4.19,0,0,0-.8-2.36,3.23,3.23,0,0,0-2.61-1.22,3.34,3.34,0,0,0-2.44,1A3.82,3.82,0,0,0,954.77,703.72Z" transform="translate(-227.77 -337)"/><path d="M970,711.14l-4.73-12.45h2.23l2.67,7.45c.29.81.55,1.64.79,2.51.19-.65.45-1.44.79-2.37l2.77-7.59h2.16L972,711.14Z" transform="translate(-227.77 -337)"/><path d="M987.05,707.13l2.18.27a5.34,5.34,0,0,1-1.91,3,6.47,6.47,0,0,1-7.9-.62,6.63,6.63,0,0,1-1.6-4.72,6.88,6.88,0,0,1,1.62-4.88,5.5,5.5,0,0,1,4.2-1.73,5.31,5.31,0,0,1,4.07,1.7,6.71,6.71,0,0,1,1.59,4.78c0,.12,0,.31,0,.56H980a4.8,4.8,0,0,0,1.16,3.14,3.46,3.46,0,0,0,2.6,1.09,3.23,3.23,0,0,0,2-.61A4,4,0,0,0,987.05,707.13Zm-6.93-3.41h7a4.19,4.19,0,0,0-.8-2.36,3.23,3.23,0,0,0-2.61-1.22,3.34,3.34,0,0,0-2.44,1A3.82,3.82,0,0,0,980.12,703.72Z" transform="translate(-227.77 -337)"/><path d="M991.83,711.14V694h2.11v17.18Z" transform="translate(-227.77 -337)"/><path class="cls-2" d="M268.23,646.31c32.11-156.78,72.54-229.77,97.22-229.77,22.19,0,28.74,20,36.2,75,3.13,23.1,21.59,51.45,31.39,63.21C493.33,627.14,678,619,746,621.69c36.21,1.46,30.9.19,104.26,6.74,19.16,1.7,61.69,11.88,73,18.57" transform="translate(-227.77 -337)"/><path class="cls-3" d="M321.73,585.68" transform="translate(-227.77 -337)"/><path class="cls-3" d="M268,647c51-89.08,103-153.56,202.59-138.86C607.6,528.37,729.78,637.66,742,646.71" transform="translate(-227.77 -337)"/><text class="cls-4" transform="translate(20.6 294.4) rotate(-90)">Number in the population</text><text class="cls-4" transform="translate(241.53 80.47)"><tspan class="cls-5">Y</tspan><tspan x="13.8" y="0">esterday</tspan></text><text class="cls-4" transform="translate(513.81 188.39)"><tspan class="cls-6">T</tspan><tspan x="12" y="0">omorrow</tspan></text><line class="cls-3" x1="293.36" y1="90.36" x2="279.79" y2="153.62"/><path d="M505,502.43c-.87-6-2.9-13.64-5.71-18.71l8.58,5.36,10-1.37C513.27,491.18,508.27,497.31,505,502.43Z" transform="translate(-227.77 -337)"/><line class="cls-3" x1="566.73" y1="198.49" x2="574.79" y2="262.69"/><path d="M804.06,611.66c-2.8-5.37-7.25-11.91-11.57-15.77l9.87,2.23,9-4.6C808.13,598.33,805.44,605.77,804.06,611.66Z" transform="translate(-227.77 -337)"/></svg>