<svg id="Calque_1" data-name="Calque 1" xmlns="http://www.w3.org/2000/svg" viewBox="0 0 787.52 381.93"><defs><style>.cls-1,.cls-3,.cls-4{fill:none;stroke:#000;stroke-miterlimit:10;}.cls-1{stroke-width:3px;}.cls-2{font-size:24px;font-family:ArialMT, Arial;}.cls-3,.cls-4{stroke-width:2px;}.cls-3{opacity:0.51;}</style></defs><title>futur_intelligence_maj_elite</title><line class="cls-1" x1="40.23" y1="26.58" x2="40.23" y2="310"/><polygon points="31.52 32.52 40.23 0 48.95 32.52 31.52 32.52"/><line class="cls-1" x1="38.73" y1="310" x2="752.16" y2="310"/><polygon points="746.21 318.72 778.74 310 746.21 301.28 746.21 318.72"/><text class="cls-2" transform="translate(592.75 345.34)">Niveau intellectuel<tspan x="0" y="28.8">et dՎducation</tspan></text><path class="cls-3" d="M294.58,619.18c32.12-156.78,72.55-229.77,97.23-229.77,22.19,0,28.74,20,36.2,75,3.13,23.11,21.59,51.46,31.39,63.21,60.29,72.36,245,64.17,312.93,66.91,36.2,1.46,30.9.2,104.26,6.74,19.16,1.71,61.68,11.88,73,18.57" transform="translate(-254.12 -309.87)"/><path class="cls-4" d="M348.09,558.55" transform="translate(-254.12 -309.87)"/><path class="cls-4" d="M294.36,619.87c51-89.08,103-153.56,202.58-138.86,137,20.23,259.2,129.53,271.46,138.58" transform="translate(-254.12 -309.87)"/><text class="cls-2" transform="translate(20.6 297.4) rotate(-90)">Nombre dans la population</text><text class="cls-2" transform="translate(273.53 80.47)">Hier</text><text class="cls-2" transform="translate(523.81 188.39)">Demain</text><line class="cls-4" x1="293.36" y1="90.36" x2="279.79" y2="153.62"/><path d="M531.38,475.3c-.87-6-2.91-13.64-5.72-18.71l8.58,5.36,10-1.37C539.62,464.05,534.63,470.19,531.38,475.3Z" transform="translate(-254.12 -309.87)"/><line class="cls-4" x1="566.73" y1="198.49" x2="574.79" y2="262.69"/><path d="M830.41,584.54c-2.79-5.37-7.24-11.92-11.56-15.78l9.86,2.23,9-4.6C834.49,571.2,831.8,578.64,830.41,584.54Z" transform="translate(-254.12 -309.87)"/></svg>