<svg id="Calque_1" data-name="Calque 1" xmlns="http://www.w3.org/2000/svg" viewBox="0 0 722.3 201.02"><defs><style>.cls-1{font-size:36px;font-family:ArialMT, Arial;}.cls-2{fill:none;stroke:#000;stroke-miterlimit:10;stroke-width:2px;}</style></defs><title>general_trad_symbole_en</title><text class="cls-1" transform="translate(486.18 110.11)">consciousness</text><line class="cls-2" x1="165.49" y1="100.51" x2="225.32" y2="100.51"/><path d="M389,518.53c-5.68,2.11-12.72,5.7-17.09,9.51l3.44-9.51L371.91,509C376.28,512.83,383.32,516.42,389,518.53Z" transform="translate(-151.62 -418.02)"/><line class="cls-2" x1="396.69" y1="100.51" x2="456.52" y2="100.51"/><path d="M620.2,518.53c-5.68,2.11-12.72,5.7-17.09,9.51l3.44-9.51L603.11,509C607.48,512.83,614.52,516.42,620.2,518.53Z" transform="translate(-151.62 -418.02)"/><text class="cls-1" transform="translate(20.75 83.71)">too far</text><text class="cls-1" transform="translate(8 136.52)">invisible</text><text class="cls-1" transform="translate(0 30.89)">too small</text><text class="cls-1" transform="translate(8 189.33)">abstract</text><text class="cls-1" transform="translate(260.03 110.11)">symbol</text></svg>