<svg id="Calque_1" data-name="Calque 1" xmlns="http://www.w3.org/2000/svg" viewBox="0 0 692.37 201.02"><defs><style>.cls-1{font-size:36px;font-family:ArialMT, Arial;}.cls-2{fill:none;stroke:#000;stroke-miterlimit:10;stroke-width:2px;}</style></defs><title>general_trad_symbole</title><text class="cls-1" transform="translate(6 83.71)">trop loin</text><text class="cls-1" transform="translate(512.26 109.8)">conscience</text><line class="cls-2" x1="163.57" y1="100.19" x2="223.39" y2="100.19"/><path d="M389,518.47c-5.68,2.1-12.72,5.7-17.09,9.51l3.44-9.51L371.91,509C376.28,512.77,383.32,516.36,389,518.47Z" transform="translate(-153.54 -418.27)"/><line class="cls-2" x1="418.77" y1="100.19" x2="478.59" y2="100.19"/><path d="M644.2,518.47c-5.68,2.1-12.72,5.7-17.09,9.51l3.44-9.51L627.11,509C631.48,512.77,638.52,516.36,644.2,518.47Z" transform="translate(-153.54 -418.27)"/><text class="cls-1" transform="translate(6.01 136.52)">invisible</text><text class="cls-1" transform="translate(0 30.89)">trop petit</text><text class="cls-1" transform="translate(11.01 189.33)">abstrait</text><text class="cls-1" transform="translate(260.09 109.8)">symbole</text></svg>