<svg id="Calque_1" data-name="Calque 1" xmlns="http://www.w3.org/2000/svg" viewBox="0 0 904.63 112.59"><defs><style>.cls-1{font-size:36px;}.cls-1,.cls-5{font-family:ArialMT, Arial;}.cls-2{fill:#fff;}.cls-2,.cls-3,.cls-4{stroke:#000;stroke-miterlimit:10;}.cls-2,.cls-4{stroke-width:2px;}.cls-3,.cls-4{fill:none;}.cls-3{stroke-width:4px;}.cls-5{font-size:24px;}</style></defs><title>information_conscience_idée_startup_en</title><text class="cls-1" transform="translate(0 68.97)">information</text><path d="M824.84,472.11l3.13-.49a4.33,4.33,0,0,0,1.47,2.88,5.08,5.08,0,0,0,3.36,1,4.93,4.93,0,0,0,3.24-.89,2.65,2.65,0,0,0,1.05-2.08,1.93,1.93,0,0,0-.93-1.69,13.53,13.53,0,0,0-3.24-1.07,29.73,29.73,0,0,1-4.82-1.52,4.64,4.64,0,0,1-2-1.78,4.7,4.7,0,0,1-.69-2.5,4.82,4.82,0,0,1,.57-2.31,5.18,5.18,0,0,1,1.55-1.77,6.69,6.69,0,0,1,2-.92,9.63,9.63,0,0,1,2.73-.38,10.89,10.89,0,0,1,3.86.63,5.31,5.31,0,0,1,2.45,1.72,6.65,6.65,0,0,1,1.09,2.89l-3.09.42a3.37,3.37,0,0,0-1.23-2.25,4.44,4.44,0,0,0-2.85-.81,5.16,5.16,0,0,0-3.11.72,2.12,2.12,0,0,0-.94,1.69,1.75,1.75,0,0,0,.39,1.11,2.77,2.77,0,0,0,1.21.84c.32.12,1.25.39,2.8.81a38.86,38.86,0,0,1,4.68,1.47,4.75,4.75,0,0,1,2.09,1.66,4.68,4.68,0,0,1,.75,2.71,5.3,5.3,0,0,1-.92,3,6,6,0,0,1-2.66,2.16,9.72,9.72,0,0,1-3.94.76,8.76,8.76,0,0,1-5.55-1.51A7,7,0,0,1,824.84,472.11Z" transform="translate(-136.9 -451.91)"/><path d="M851,474.85l.46,2.8a12.3,12.3,0,0,1-2.39.28,5.32,5.32,0,0,1-2.67-.55,3,3,0,0,1-1.34-1.43,11.26,11.26,0,0,1-.39-3.74V461.47h-2.32V459h2.32v-4.62l3.15-1.9V459H851v2.46h-3.18v10.92a5.54,5.54,0,0,0,.17,1.74,1.35,1.35,0,0,0,.54.62,2.15,2.15,0,0,0,1.08.22A10.4,10.4,0,0,0,851,474.85Z" transform="translate(-136.9 -451.91)"/><path d="M866.29,475.38a11.83,11.83,0,0,1-3.39,2.11,9.72,9.72,0,0,1-3.48.61,6.78,6.78,0,0,1-4.73-1.5,4.93,4.93,0,0,1-1.66-3.84,5.08,5.08,0,0,1,.63-2.51,5.21,5.21,0,0,1,1.63-1.82,7.88,7.88,0,0,1,2.28-1,22.77,22.77,0,0,1,2.81-.48,28.48,28.48,0,0,0,5.64-1.09c0-.43,0-.71,0-.82a3.54,3.54,0,0,0-.89-2.73,5.33,5.33,0,0,0-3.61-1.07,5.58,5.58,0,0,0-3.29.78,4.79,4.79,0,0,0-1.58,2.77l-3.09-.42a7.59,7.59,0,0,1,1.39-3.21,6.08,6.08,0,0,1,2.79-1.88,12.46,12.46,0,0,1,4.24-.66,11.3,11.3,0,0,1,3.88.56,5.15,5.15,0,0,1,2.2,1.42,5,5,0,0,1,1,2.15,18.78,18.78,0,0,1,.15,2.92v4.22a43.12,43.12,0,0,0,.21,5.58,6.84,6.84,0,0,0,.8,2.24h-3.31A6.59,6.59,0,0,1,866.29,475.38Zm-.27-7.07a23.09,23.09,0,0,1-5.16,1.2,11.85,11.85,0,0,0-2.76.63,2.76,2.76,0,0,0-.73,4.64,4.13,4.13,0,0,0,2.8.84,6.45,6.45,0,0,0,3.25-.8,4.88,4.88,0,0,0,2.09-2.18,7.67,7.67,0,0,0,.51-3.17Z" transform="translate(-136.9 -451.91)"/><path d="M874.09,477.68V459h2.85v2.83a8,8,0,0,1,2-2.62,3.55,3.55,0,0,1,2-.63,6.21,6.21,0,0,1,3.26,1l-1.09,2.94a4.53,4.53,0,0,0-2.32-.69,3,3,0,0,0-1.87.62,3.46,3.46,0,0,0-1.18,1.74,12.33,12.33,0,0,0-.52,3.69v9.77Z" transform="translate(-136.9 -451.91)"/><path d="M893,474.85l.46,2.8a12.3,12.3,0,0,1-2.39.28,5.32,5.32,0,0,1-2.67-.55,3.07,3.07,0,0,1-1.34-1.43,11.64,11.64,0,0,1-.38-3.74V461.47h-2.32V459h2.32v-4.62l3.14-1.9V459H893v2.46h-3.18v10.92a5.54,5.54,0,0,0,.17,1.74,1.35,1.35,0,0,0,.54.62,2.19,2.19,0,0,0,1.09.22A10.4,10.4,0,0,0,893,474.85Z" transform="translate(-136.9 -451.91)"/><path d="M908.35,477.68v-2.74a6.82,6.82,0,0,1-5.92,3.16,7.62,7.62,0,0,1-3.09-.63,5,5,0,0,1-2.12-1.59,5.9,5.9,0,0,1-1-2.35,16,16,0,0,1-.19-2.95V459h3.16v10.36a18.22,18.22,0,0,0,.2,3.34,3.29,3.29,0,0,0,1.26,2,4,4,0,0,0,2.39.71,5.26,5.26,0,0,0,2.67-.73,4.06,4.06,0,0,0,1.77-2A9.87,9.87,0,0,0,908,469V459h3.16v18.67Z" transform="translate(-136.9 -451.91)"/><path d="M916.14,484.83V459H919v2.43a7.15,7.15,0,0,1,2.31-2.14,6.35,6.35,0,0,1,3.11-.71,7.39,7.39,0,0,1,4.22,1.23,7.68,7.68,0,0,1,2.76,3.47,12.72,12.72,0,0,1,.93,4.92,12.58,12.58,0,0,1-1,5.16,7.77,7.77,0,0,1-3,3.51,7.63,7.63,0,0,1-4.12,1.22,5.9,5.9,0,0,1-2.84-.67,6.38,6.38,0,0,1-2.07-1.68v9.08ZM919,468.45q0,3.6,1.46,5.33A4.48,4.48,0,0,0,924,475.5a4.57,4.57,0,0,0,3.61-1.78c1-1.19,1.5-3,1.5-5.53a8.27,8.27,0,0,0-1.47-5.35,4.4,4.4,0,0,0-3.5-1.77,4.56,4.56,0,0,0-3.58,1.89A8.43,8.43,0,0,0,919,468.45Z" transform="translate(-136.9 -451.91)"/><path d="M946.18,455.55v-3.64h3.16v3.64Zm0,22.13V459h3.16v18.67Z" transform="translate(-136.9 -451.91)"/><path d="M966.27,477.68v-2.35a5.79,5.79,0,0,1-5.22,2.77,7.31,7.31,0,0,1-4.1-1.23,8,8,0,0,1-2.9-3.43,11.88,11.88,0,0,1-1-5.08,13.31,13.31,0,0,1,.93-5.07,7.35,7.35,0,0,1,2.8-3.49,7.53,7.53,0,0,1,4.16-1.21,6.19,6.19,0,0,1,5.15,2.57v-9.25h3.15v25.77Zm-10-9.32a8.13,8.13,0,0,0,1.51,5.37,4.57,4.57,0,0,0,3.57,1.77,4.47,4.47,0,0,0,3.53-1.7,7.84,7.84,0,0,0,1.45-5.17c0-2.56-.5-4.43-1.48-5.63a4.57,4.57,0,0,0-3.64-1.79,4.36,4.36,0,0,0-3.52,1.72Q956.27,464.66,956.27,468.36Z" transform="translate(-136.9 -451.91)"/><path d="M987,471.67l3.27.4a8,8,0,0,1-2.86,4.45,9.72,9.72,0,0,1-11.84-.94,9.86,9.86,0,0,1-2.4-7.08c0-3.14.81-5.57,2.42-7.31a8.24,8.24,0,0,1,6.3-2.6,8,8,0,0,1,6.11,2.55q2.38,2.55,2.38,7.17c0,.19,0,.47,0,.85H976.4a7.1,7.1,0,0,0,1.74,4.71,5.16,5.16,0,0,0,3.9,1.63,4.83,4.83,0,0,0,3-.91A6.1,6.1,0,0,0,987,471.67Zm-10.39-5.12H987a6.29,6.29,0,0,0-1.2-3.53,4.84,4.84,0,0,0-3.92-1.83,5,5,0,0,0-3.66,1.46A5.79,5.79,0,0,0,976.57,466.55Z" transform="translate(-136.9 -451.91)"/><path d="M1006.39,475.38a12,12,0,0,1-3.39,2.11,9.78,9.78,0,0,1-3.49.61,6.82,6.82,0,0,1-4.73-1.5,5,5,0,0,1-1.65-3.84,5.08,5.08,0,0,1,.63-2.51,5.21,5.21,0,0,1,1.63-1.82,7.65,7.65,0,0,1,2.28-1,22.77,22.77,0,0,1,2.81-.48,28.63,28.63,0,0,0,5.64-1.09c0-.43,0-.71,0-.82a3.5,3.5,0,0,0-.9-2.73,5.32,5.32,0,0,0-3.6-1.07,5.61,5.61,0,0,0-3.3.78,4.79,4.79,0,0,0-1.57,2.77l-3.09-.42a7.59,7.59,0,0,1,1.39-3.21,6.08,6.08,0,0,1,2.79-1.88,12.46,12.46,0,0,1,4.24-.66,11.3,11.3,0,0,1,3.88.56,5.15,5.15,0,0,1,2.2,1.42,4.85,4.85,0,0,1,1,2.15,17.25,17.25,0,0,1,.16,2.92v4.22a46,46,0,0,0,.2,5.58,7.08,7.08,0,0,0,.8,2.24H1007A6.59,6.59,0,0,1,1006.39,475.38Zm-.27-7.07a23.21,23.21,0,0,1-5.17,1.2,11.85,11.85,0,0,0-2.76.63,2.74,2.74,0,0,0-1.24,1,2.64,2.64,0,0,0-.44,1.5,2.72,2.72,0,0,0,1,2.11,4.16,4.16,0,0,0,2.81.84,6.45,6.45,0,0,0,3.25-.8,4.88,4.88,0,0,0,2.09-2.18,7.67,7.67,0,0,0,.51-3.17Z" transform="translate(-136.9 -451.91)"/><path d="M794.85,515.31l3.13-.49a4.37,4.37,0,0,0,1.47,2.88,5.08,5.08,0,0,0,3.36,1,4.92,4.92,0,0,0,3.24-.89,2.65,2.65,0,0,0,1.05-2.08,1.93,1.93,0,0,0-.93-1.69,13.56,13.56,0,0,0-3.23-1.07,29.94,29.94,0,0,1-4.83-1.52,4.6,4.6,0,0,1-2.73-4.28,4.82,4.82,0,0,1,.57-2.31,5.18,5.18,0,0,1,1.55-1.77,6.69,6.69,0,0,1,2-.92,9.63,9.63,0,0,1,2.73-.38,10.85,10.85,0,0,1,3.86.63,5.31,5.31,0,0,1,2.45,1.72,6.65,6.65,0,0,1,1.09,2.89l-3.09.42a3.4,3.4,0,0,0-1.22-2.25,4.49,4.49,0,0,0-2.86-.81,5.18,5.18,0,0,0-3.11.72,2.11,2.11,0,0,0-.93,1.69,1.8,1.8,0,0,0,.38,1.11,2.81,2.81,0,0,0,1.22.84q.47.18,2.79.81a39.81,39.81,0,0,1,4.69,1.47,4.77,4.77,0,0,1,2.08,1.66,4.68,4.68,0,0,1,.75,2.71,5.3,5.3,0,0,1-.92,3,5.94,5.94,0,0,1-2.66,2.16,9.68,9.68,0,0,1-3.94.76,8.75,8.75,0,0,1-5.54-1.51A7,7,0,0,1,794.85,515.31Z" transform="translate(-136.9 -451.91)"/><path d="M826.3,514l3.11.41a8.06,8.06,0,0,1-2.61,5,7.57,7.57,0,0,1-5.16,1.82,8,8,0,0,1-6.16-2.5c-1.55-1.67-2.33-4.07-2.33-7.18a12.94,12.94,0,0,1,1-5.29,7,7,0,0,1,3.05-3.41,9.12,9.12,0,0,1,4.46-1.13,7.72,7.72,0,0,1,5,1.54,7,7,0,0,1,2.48,4.37l-3.08.47a5.11,5.11,0,0,0-1.55-2.83,4.06,4.06,0,0,0-2.7-.95,4.88,4.88,0,0,0-3.88,1.72q-1.5,1.71-1.5,5.42t1.44,5.47a4.71,4.71,0,0,0,3.76,1.7,4.46,4.46,0,0,0,3.12-1.14A5.65,5.65,0,0,0,826.3,514Z" transform="translate(-136.9 -451.91)"/><path d="M832.13,498.75v-3.64h3.17v3.64Zm0,22.13V502.21h3.17v18.67Z" transform="translate(-136.9 -451.91)"/><path d="M852.89,514.87l3.27.4a8,8,0,0,1-2.86,4.45,9.72,9.72,0,0,1-11.84-.94,9.85,9.85,0,0,1-2.4-7.07c0-3.15.81-5.58,2.43-7.32a8.21,8.21,0,0,1,6.29-2.6,8,8,0,0,1,6.12,2.55q2.37,2.55,2.37,7.17c0,.19,0,.47,0,.85H842.33a7.2,7.2,0,0,0,1.74,4.71,5.16,5.16,0,0,0,3.9,1.63,4.83,4.83,0,0,0,3-.91A6.06,6.06,0,0,0,852.89,514.87Zm-10.39-5.12h10.43a6.29,6.29,0,0,0-1.2-3.53,4.83,4.83,0,0,0-3.92-1.83,5,5,0,0,0-3.66,1.46A5.81,5.81,0,0,0,842.5,509.75Z" transform="translate(-136.9 -451.91)"/><path d="M860.14,520.88V502.21H863v2.66a6.71,6.71,0,0,1,5.94-3.08,7.74,7.74,0,0,1,3.11.61,4.85,4.85,0,0,1,2.12,1.59,6.19,6.19,0,0,1,1,2.34,17.61,17.61,0,0,1,.18,3.07v11.48h-3.17V509.53a8.48,8.48,0,0,0-.37-2.9,3.07,3.07,0,0,0-1.31-1.53,4.14,4.14,0,0,0-2.2-.57,5.11,5.11,0,0,0-3.49,1.29q-1.47,1.28-1.47,4.87v10.19Z" transform="translate(-136.9 -451.91)"/><path d="M887.07,518.05l.45,2.8a12.3,12.3,0,0,1-2.39.28,5.32,5.32,0,0,1-2.67-.55,3.07,3.07,0,0,1-1.34-1.43,11.64,11.64,0,0,1-.38-3.74V504.67h-2.32v-2.46h2.32v-4.62l3.14-1.9v6.52h3.19v2.46h-3.19v10.92a5.54,5.54,0,0,0,.17,1.74,1.32,1.32,0,0,0,.55.62,2.12,2.12,0,0,0,1.08.22A10.67,10.67,0,0,0,887.07,518.05Z" transform="translate(-136.9 -451.91)"/><path d="M890.18,498.75v-3.64h3.16v3.64Zm0,22.13V502.21h3.16v18.67Z" transform="translate(-136.9 -451.91)"/><path d="M898.91,520.88V504.67h-2.79v-2.46h2.79v-2a8.47,8.47,0,0,1,.34-2.8,4,4,0,0,1,1.61-2,5.76,5.76,0,0,1,3.22-.77A15.49,15.49,0,0,1,907,495l-.47,2.76a10.42,10.42,0,0,0-1.86-.18,2.78,2.78,0,0,0-2,.62,3.33,3.33,0,0,0-.6,2.3v1.72h3.64v2.46h-3.64v16.21Z" transform="translate(-136.9 -451.91)"/><path d="M908.18,498.75v-3.64h3.16v3.64Zm0,22.13V502.21h3.16v18.67Z" transform="translate(-136.9 -451.91)"/><path d="M928.34,514l3.11.41a8.06,8.06,0,0,1-2.61,5,7.57,7.57,0,0,1-5.16,1.82,8,8,0,0,1-6.16-2.5c-1.55-1.67-2.33-4.07-2.33-7.18a12.94,12.94,0,0,1,1-5.29,7,7,0,0,1,3-3.41,9.12,9.12,0,0,1,4.46-1.13,7.7,7.7,0,0,1,5,1.54,7,7,0,0,1,2.48,4.37l-3.07.47a5.18,5.18,0,0,0-1.56-2.83,4,4,0,0,0-2.7-.95,4.88,4.88,0,0,0-3.88,1.72q-1.5,1.71-1.5,5.42t1.44,5.47a4.72,4.72,0,0,0,3.77,1.7,4.45,4.45,0,0,0,3.11-1.14A5.65,5.65,0,0,0,928.34,514Z" transform="translate(-136.9 -451.91)"/><path d="M951.07,518.05l.45,2.8a12.21,12.21,0,0,1-2.39.28,5.34,5.34,0,0,1-2.67-.55,3,3,0,0,1-1.33-1.43,11.26,11.26,0,0,1-.39-3.74V504.67h-2.32v-2.46h2.32v-4.62l3.15-1.9v6.52h3.18v2.46h-3.18v10.92a5.65,5.65,0,0,0,.16,1.74,1.37,1.37,0,0,0,.55.62,2.12,2.12,0,0,0,1.08.22A10.67,10.67,0,0,0,951.07,518.05Z" transform="translate(-136.9 -451.91)"/><path d="M954.16,520.88V495.11h3.17v9.25a7.07,7.07,0,0,1,5.59-2.57,7.47,7.47,0,0,1,3.6.82,4.79,4.79,0,0,1,2.19,2.26,10.37,10.37,0,0,1,.66,4.18v11.83H966.2V509.05a4.86,4.86,0,0,0-1-3.45,3.81,3.81,0,0,0-2.91-1.08,5.11,5.11,0,0,0-2.64.73,4.07,4.07,0,0,0-1.77,2,9.13,9.13,0,0,0-.52,3.45v10.21Z" transform="translate(-136.9 -451.91)"/><path d="M987,514.87l3.27.4a8,8,0,0,1-2.86,4.45,9.72,9.72,0,0,1-11.84-.94,9.85,9.85,0,0,1-2.4-7.07c0-3.15.81-5.58,2.42-7.32a8.24,8.24,0,0,1,6.3-2.6,8,8,0,0,1,6.11,2.55q2.38,2.55,2.38,7.17c0,.19,0,.47,0,.85H976.4a7.1,7.1,0,0,0,1.74,4.71,5.16,5.16,0,0,0,3.9,1.63,4.83,4.83,0,0,0,3-.91A6.06,6.06,0,0,0,987,514.87Zm-10.39-5.12H987a6.29,6.29,0,0,0-1.2-3.53,4.84,4.84,0,0,0-3.92-1.83,5,5,0,0,0-3.66,1.46A5.81,5.81,0,0,0,976.57,509.75Z" transform="translate(-136.9 -451.91)"/><path d="M993,511.55q0-5.19,2.88-7.68a8.64,8.64,0,0,1,5.87-2.08,8.37,8.37,0,0,1,6.29,2.52,9.62,9.62,0,0,1,2.45,7,12.32,12.32,0,0,1-1.08,5.67,7.67,7.67,0,0,1-3.15,3.21,9.19,9.19,0,0,1-4.51,1.14,8.42,8.42,0,0,1-6.34-2.51Q993,516.27,993,511.55Zm3.25,0a8,8,0,0,0,1.56,5.37,5.22,5.22,0,0,0,7.86,0q1.56-1.8,1.56-5.47a7.71,7.71,0,0,0-1.57-5.25,5.22,5.22,0,0,0-7.85,0A7.92,7.92,0,0,0,996.28,511.55Z" transform="translate(-136.9 -451.91)"/><path d="M1014.19,520.88V502.21H1017V505a7.84,7.84,0,0,1,2-2.62,3.53,3.53,0,0,1,2-.63,6.15,6.15,0,0,1,3.25,1l-1.09,2.94a4.48,4.48,0,0,0-2.32-.69,3,3,0,0,0-1.86.62,3.46,3.46,0,0,0-1.18,1.74,12.32,12.32,0,0,0-.53,3.69v9.77Z" transform="translate(-136.9 -451.91)"/><path d="M1026.07,528.07l-.35-3a7,7,0,0,0,1.81.28,3.51,3.51,0,0,0,1.69-.35,2.9,2.9,0,0,0,1-1,14.84,14.84,0,0,0,1-2.35c.06-.18.16-.43.28-.77l-7.08-18.71h3.41l3.89,10.81c.5,1.37,1,2.82,1.35,4.33a42.87,42.87,0,0,1,1.3-4.26l4-10.88h3.16l-7.1,19a37.09,37.09,0,0,1-1.77,4.23,6.29,6.29,0,0,1-1.94,2.3,4.59,4.59,0,0,1-2.6.73A6.29,6.29,0,0,1,1026.07,528.07Z" transform="translate(-136.9 -451.91)"/><path d="M873.34,561.78a11.83,11.83,0,0,1-3.39,2.11,9.74,9.74,0,0,1-3.49.61,6.77,6.77,0,0,1-4.72-1.5,4.93,4.93,0,0,1-1.66-3.84,5.11,5.11,0,0,1,.63-2.51,5.21,5.21,0,0,1,1.63-1.82,7.76,7.76,0,0,1,2.28-1,22.77,22.77,0,0,1,2.81-.48,27.76,27.76,0,0,0,5.64-1.09c0-.43,0-.71,0-.82a3.5,3.5,0,0,0-.9-2.73,5.3,5.3,0,0,0-3.6-1.07,5.61,5.61,0,0,0-3.3.78,4.84,4.84,0,0,0-1.57,2.77l-3.09-.42a7.65,7.65,0,0,1,1.39-3.21,6.08,6.08,0,0,1,2.79-1.88,12.46,12.46,0,0,1,4.24-.66,11.3,11.3,0,0,1,3.88.56,5.15,5.15,0,0,1,2.2,1.42,4.85,4.85,0,0,1,1,2.15,17.25,17.25,0,0,1,.16,2.92v4.22a46,46,0,0,0,.2,5.58,7.33,7.33,0,0,0,.8,2.24H874A6.59,6.59,0,0,1,873.34,561.78Zm-.27-7.07a23.23,23.23,0,0,1-5.16,1.2,11.59,11.59,0,0,0-2.76.63,2.72,2.72,0,0,0-1.25,1,2.64,2.64,0,0,0-.44,1.5,2.68,2.68,0,0,0,1,2.11,4.11,4.11,0,0,0,2.8.84,6.45,6.45,0,0,0,3.25-.8,4.88,4.88,0,0,0,2.09-2.18,7.67,7.67,0,0,0,.51-3.17Z" transform="translate(-136.9 -451.91)"/><path d="M881.14,564.08V545.41H884v2.83a8,8,0,0,1,2-2.62,3.53,3.53,0,0,1,2-.63,6.15,6.15,0,0,1,3.25,1L890.19,549a4.48,4.48,0,0,0-2.32-.69,3,3,0,0,0-1.86.62,3.46,3.46,0,0,0-1.18,1.74,12.33,12.33,0,0,0-.52,3.69v9.77Z" transform="translate(-136.9 -451.91)"/><path d="M900.07,561.25l.46,2.8a12.3,12.3,0,0,1-2.39.28,5.32,5.32,0,0,1-2.67-.55,3,3,0,0,1-1.34-1.43,11.35,11.35,0,0,1-.38-3.74V547.87h-2.33v-2.46h2.33v-4.62l3.14-1.9v6.52h3.18v2.46h-3.18v10.92a5.54,5.54,0,0,0,.17,1.74,1.35,1.35,0,0,0,.54.62,2.17,2.17,0,0,0,1.08.22A10.4,10.4,0,0,0,900.07,561.25Z" transform="translate(-136.9 -451.91)"/><path d="M906.61,564.08l-5.71-18.67h3.27l3,10.78,1.11,4c0-.2.37-1.49,1-3.85l3-10.94h3.26l2.79,10.83.93,3.57,1.08-3.6,3.19-10.8h3.08l-5.84,18.67h-3.28l-3-11.18-.72-3.18-3.78,14.36Z" transform="translate(-136.9 -451.91)"/><path d="M928,554.75q0-5.19,2.88-7.68a8.66,8.66,0,0,1,5.87-2.08,8.35,8.35,0,0,1,6.29,2.52,9.62,9.62,0,0,1,2.45,7,12.32,12.32,0,0,1-1.08,5.67,7.62,7.62,0,0,1-3.15,3.21,9.19,9.19,0,0,1-4.51,1.14A8.4,8.4,0,0,1,930.4,562Q928,559.47,928,554.75Zm3.25,0a8,8,0,0,0,1.56,5.37,5.22,5.22,0,0,0,7.86,0c1-1.2,1.57-3,1.57-5.47a7.71,7.71,0,0,0-1.58-5.25,5.22,5.22,0,0,0-7.85,0A7.92,7.92,0,0,0,931.24,554.75Z" transform="translate(-136.9 -451.91)"/><path d="M949.15,564.08V545.41H952v2.83a8,8,0,0,1,2-2.62,3.53,3.53,0,0,1,2-.63,6.15,6.15,0,0,1,3.25,1L958.2,549a4.48,4.48,0,0,0-2.32-.69,3,3,0,0,0-1.86.62,3.46,3.46,0,0,0-1.18,1.74,12.33,12.33,0,0,0-.52,3.69v9.77Z" transform="translate(-136.9 -451.91)"/><path d="M961.19,564.08V538.31h3.17V553l7.48-7.6h4.1l-7.14,6.93,7.86,11.74h-3.9l-6.17-9.54-2.23,2.14v7.4Z" transform="translate(-136.9 -451.91)"/><path class="cls-2" d="M178.45,512" transform="translate(-136.9 -451.91)"/><path class="cls-3" d="M256.27,512" transform="translate(-136.9 -451.91)"/><line class="cls-4" x1="206.04" y1="60.09" x2="265.86" y2="60.09"/><path d="M414.83,512c-5.68,2.11-12.73,5.7-17.09,9.51l3.44-9.51-3.44-9.51C402.1,506.3,409.15,509.89,414.83,512Z" transform="translate(-136.9 -451.91)"/><line class="cls-4" x1="552.21" y1="60.09" x2="612.03" y2="60.09"/><path d="M761,512c-5.68,2.11-12.73,5.7-17.09,9.51l3.44-9.51-3.44-9.51C748.27,506.3,755.32,509.89,761,512Z" transform="translate(-136.9 -451.91)"/><text class="cls-5" transform="translate(546.4 28.39)">produce</text><text class="cls-1" transform="translate(297.01 68.97)">consciousness</text></svg>