<svg id="Calque_1" data-name="Calque 1" xmlns="http://www.w3.org/2000/svg" viewBox="0 0 955.49 112.73"><defs><style>.cls-1{font-size:36px;}.cls-1,.cls-5{font-family:ArialMT, Arial;}.cls-2{fill:#fff;}.cls-2,.cls-3,.cls-4{stroke:#000;stroke-miterlimit:10;}.cls-2,.cls-4{stroke-width:2px;}.cls-3,.cls-4{fill:none;}.cls-3{stroke-width:4px;}.cls-5{font-size:24px;}</style></defs><title>information_conscience_idée_startup</title><text class="cls-1" transform="translate(0 69.11)">information</text><path d="M827.1,455.55v-3.64h3.16v3.64Zm0,22.13V459h3.16v18.67Z" transform="translate(-136.9 -451.77)"/><path d="M847.19,477.68v-2.35A5.79,5.79,0,0,1,842,478.1a7.29,7.29,0,0,1-4.1-1.23,8,8,0,0,1-2.9-3.43,11.88,11.88,0,0,1-1-5.08,13.31,13.31,0,0,1,.93-5.07,7.39,7.39,0,0,1,2.79-3.49,7.56,7.56,0,0,1,4.17-1.21,6.28,6.28,0,0,1,3,.71,6.44,6.44,0,0,1,2.14,1.86v-9.25h3.15v25.77Zm-10-9.32a8.13,8.13,0,0,0,1.51,5.37,4.57,4.57,0,0,0,3.57,1.77,4.44,4.44,0,0,0,3.52-1.7,7.78,7.78,0,0,0,1.45-5.17c0-2.56-.49-4.43-1.47-5.63a4.57,4.57,0,0,0-3.64-1.79,4.39,4.39,0,0,0-3.53,1.72Q837.19,464.66,837.19,468.36Z" transform="translate(-136.9 -451.77)"/><path d="M867.88,471.67l3.27.4a8,8,0,0,1-2.86,4.45,9.72,9.72,0,0,1-11.84-.94,9.86,9.86,0,0,1-2.4-7.08c0-3.14.81-5.57,2.42-7.31a8.24,8.24,0,0,1,6.3-2.6,8,8,0,0,1,6.11,2.55,10.14,10.14,0,0,1,2.38,7.17c0,.19,0,.47,0,.85H857.32a7.1,7.1,0,0,0,1.74,4.71,5.16,5.16,0,0,0,3.9,1.63,4.83,4.83,0,0,0,3-.91A6.1,6.1,0,0,0,867.88,471.67Zm-10.39-5.12h10.43a6.29,6.29,0,0,0-1.2-3.53,4.84,4.84,0,0,0-3.92-1.83,5,5,0,0,0-3.66,1.46A5.79,5.79,0,0,0,857.49,466.55Zm3.41-9.86,2.34-4.92h4.15l-3.87,4.92Z" transform="translate(-136.9 -451.77)"/><path d="M887.9,471.67l3.27.4a8,8,0,0,1-2.86,4.45,9.72,9.72,0,0,1-11.84-.94,9.86,9.86,0,0,1-2.4-7.08c0-3.14.81-5.57,2.42-7.31a8.24,8.24,0,0,1,6.3-2.6,8,8,0,0,1,6.11,2.55q2.39,2.55,2.38,7.17c0,.19,0,.47,0,.85H877.34a7.2,7.2,0,0,0,1.74,4.71,5.16,5.16,0,0,0,3.9,1.63,4.83,4.83,0,0,0,3-.91A6.1,6.1,0,0,0,887.9,471.67Zm-10.39-5.12h10.43a6.29,6.29,0,0,0-1.2-3.53,4.84,4.84,0,0,0-3.92-1.83,5,5,0,0,0-3.66,1.46A5.79,5.79,0,0,0,877.51,466.55Z" transform="translate(-136.9 -451.77)"/><path d="M917.26,477.68v-2.35A5.82,5.82,0,0,1,912,478.1a7.34,7.34,0,0,1-4.11-1.23,8.09,8.09,0,0,1-2.9-3.43,12,12,0,0,1-1-5.08,13.12,13.12,0,0,1,.94-5.07,7.39,7.39,0,0,1,2.79-3.49,7.54,7.54,0,0,1,4.17-1.21,6.27,6.27,0,0,1,3,.71,6.38,6.38,0,0,1,2.15,1.86v-9.25h3.14v25.77Zm-10-9.32a8.13,8.13,0,0,0,1.51,5.37,4.56,4.56,0,0,0,3.57,1.77,4.45,4.45,0,0,0,3.52-1.7,7.78,7.78,0,0,0,1.45-5.17c0-2.56-.49-4.43-1.48-5.63a4.53,4.53,0,0,0-3.63-1.79,4.38,4.38,0,0,0-3.53,1.72Q907.26,464.66,907.26,468.36Z" transform="translate(-136.9 -451.77)"/><path d="M938,471.67l3.27.4a8,8,0,0,1-2.87,4.45,9.72,9.72,0,0,1-11.84-.94,9.86,9.86,0,0,1-2.4-7.08c0-3.14.81-5.57,2.43-7.31a8.22,8.22,0,0,1,6.29-2.6,8,8,0,0,1,6.12,2.55q2.37,2.55,2.37,7.17c0,.19,0,.47,0,.85H927.38a7.2,7.2,0,0,0,1.74,4.71A5.2,5.2,0,0,0,933,475.5a4.83,4.83,0,0,0,3-.91A6.1,6.1,0,0,0,938,471.67Zm-10.39-5.12H938a6.37,6.37,0,0,0-1.19-3.53,4.86,4.86,0,0,0-3.92-1.83,5,5,0,0,0-3.67,1.46A5.73,5.73,0,0,0,927.56,466.55Z" transform="translate(-136.9 -451.77)"/><path d="M953.93,472.11l3.12-.49a4.41,4.41,0,0,0,1.47,2.88,5.13,5.13,0,0,0,3.37,1,4.89,4.89,0,0,0,3.23-.89,2.63,2.63,0,0,0,1.06-2.08,1.93,1.93,0,0,0-.93-1.69,13.89,13.89,0,0,0-3.24-1.07,29.39,29.39,0,0,1-4.82-1.52,4.63,4.63,0,0,1-2.74-4.28,4.82,4.82,0,0,1,.57-2.31,5.2,5.2,0,0,1,1.56-1.77,6.51,6.51,0,0,1,2-.92,9.65,9.65,0,0,1,2.74-.38,10.79,10.79,0,0,1,3.85.63,5.35,5.35,0,0,1,2.46,1.72,6.78,6.78,0,0,1,1.09,2.89l-3.1.42a3.4,3.4,0,0,0-1.22-2.25,4.45,4.45,0,0,0-2.86-.81,5.18,5.18,0,0,0-3.11.72,2.11,2.11,0,0,0-.93,1.69,1.75,1.75,0,0,0,.39,1.11,2.77,2.77,0,0,0,1.21.84c.32.12,1.25.39,2.8.81a39.48,39.48,0,0,1,4.68,1.47,4.66,4.66,0,0,1,2.08,1.66,4.61,4.61,0,0,1,.76,2.71,5.38,5.38,0,0,1-.92,3,6,6,0,0,1-2.67,2.16,9.67,9.67,0,0,1-3.93.76,8.76,8.76,0,0,1-5.55-1.51A7,7,0,0,1,953.93,472.11Z" transform="translate(-136.9 -451.77)"/><path d="M980.1,474.85l.46,2.8a12.3,12.3,0,0,1-2.39.28,5.38,5.38,0,0,1-2.68-.55,3.05,3.05,0,0,1-1.33-1.43,11.26,11.26,0,0,1-.39-3.74V461.47h-2.32V459h2.32v-4.62l3.15-1.9V459h3.18v2.46h-3.18v10.92a5.65,5.65,0,0,0,.16,1.74,1.43,1.43,0,0,0,.55.62,2.12,2.12,0,0,0,1.08.22A10.53,10.53,0,0,0,980.1,474.85Z" transform="translate(-136.9 -451.77)"/><path d="M995.38,475.38a12,12,0,0,1-3.39,2.11,9.78,9.78,0,0,1-3.49.61,6.82,6.82,0,0,1-4.73-1.5,5,5,0,0,1-1.65-3.84,5.08,5.08,0,0,1,.63-2.51,5.21,5.21,0,0,1,1.63-1.82,7.65,7.65,0,0,1,2.28-1,22.42,22.42,0,0,1,2.81-.48,28.79,28.79,0,0,0,5.64-1.09c0-.43,0-.71,0-.82a3.5,3.5,0,0,0-.9-2.73,5.32,5.32,0,0,0-3.6-1.07,5.61,5.61,0,0,0-3.3.78,4.79,4.79,0,0,0-1.57,2.77l-3.09-.42a7.71,7.71,0,0,1,1.38-3.21,6.16,6.16,0,0,1,2.8-1.88,12.46,12.46,0,0,1,4.24-.66,11.34,11.34,0,0,1,3.88.56,5.15,5.15,0,0,1,2.2,1.42,5,5,0,0,1,1,2.15,17.25,17.25,0,0,1,.16,2.92v4.22a46,46,0,0,0,.2,5.58,7.08,7.08,0,0,0,.8,2.24H996A6.59,6.59,0,0,1,995.38,475.38Zm-.27-7.07a23.21,23.21,0,0,1-5.17,1.2,11.85,11.85,0,0,0-2.76.63,2.69,2.69,0,0,0-1.24,1,2.64,2.64,0,0,0-.44,1.5,2.72,2.72,0,0,0,1,2.11,4.16,4.16,0,0,0,2.81.84,6.45,6.45,0,0,0,3.25-.8,4.88,4.88,0,0,0,2.09-2.18,7.67,7.67,0,0,0,.51-3.17Z" transform="translate(-136.9 -451.77)"/><path d="M1003.18,477.68V459H1006v2.83a7.71,7.71,0,0,1,2-2.62,3.53,3.53,0,0,1,2-.63,6.15,6.15,0,0,1,3.25,1l-1.09,2.94a4.48,4.48,0,0,0-2.32-.69,3,3,0,0,0-1.86.62,3.46,3.46,0,0,0-1.18,1.74,12.32,12.32,0,0,0-.53,3.69v9.77Z" transform="translate(-136.9 -451.77)"/><path d="M1022.11,474.85l.46,2.8a12.3,12.3,0,0,1-2.39.28,5.32,5.32,0,0,1-2.67-.55,3,3,0,0,1-1.34-1.43,11.26,11.26,0,0,1-.39-3.74V461.47h-2.32V459h2.32v-4.62l3.15-1.9V459h3.18v2.46h-3.18v10.92a5.54,5.54,0,0,0,.17,1.74,1.35,1.35,0,0,0,.54.62,2.12,2.12,0,0,0,1.08.22A10.53,10.53,0,0,0,1022.11,474.85Z" transform="translate(-136.9 -451.77)"/><path d="M1037.44,477.68v-2.74a6.82,6.82,0,0,1-5.92,3.16,7.59,7.59,0,0,1-3.09-.63,5.14,5.14,0,0,1-2.13-1.59,6,6,0,0,1-1-2.35,15.77,15.77,0,0,1-.2-2.95V459h3.17v10.36a18.51,18.51,0,0,0,.19,3.34,3.31,3.31,0,0,0,1.27,2,3.94,3.94,0,0,0,2.39.71,5.26,5.26,0,0,0,2.67-.73,4.11,4.11,0,0,0,1.77-2,10.09,10.09,0,0,0,.52-3.65V459h3.16v18.67Z" transform="translate(-136.9 -451.77)"/><path d="M1045.23,484.83V459h2.88v2.43a7.22,7.22,0,0,1,2.3-2.14,6.38,6.38,0,0,1,3.11-.71,7.37,7.37,0,0,1,4.22,1.23,7.55,7.55,0,0,1,2.76,3.47,12.72,12.72,0,0,1,.93,4.92,12.57,12.57,0,0,1-1,5.16,7.83,7.83,0,0,1-3,3.51,7.64,7.64,0,0,1-4.13,1.22,5.86,5.86,0,0,1-2.83-.67,6.38,6.38,0,0,1-2.07-1.68v9.08Zm2.86-16.38q0,3.6,1.46,5.33a4.46,4.46,0,0,0,3.53,1.72,4.59,4.59,0,0,0,3.62-1.78c1-1.19,1.5-3,1.5-5.53a8.27,8.27,0,0,0-1.47-5.35,4.43,4.43,0,0,0-3.51-1.77,4.54,4.54,0,0,0-3.57,1.89A8.43,8.43,0,0,0,1048.09,468.45Z" transform="translate(-136.9 -451.77)"/><path d="M803,518.05l.46,2.8a12.3,12.3,0,0,1-2.39.28,5.32,5.32,0,0,1-2.67-.55,3,3,0,0,1-1.34-1.43,11.26,11.26,0,0,1-.39-3.74V504.67h-2.32v-2.46h2.32v-4.62l3.15-1.9v6.52H803v2.46H799.8v10.92a5.54,5.54,0,0,0,.17,1.74,1.35,1.35,0,0,0,.54.62,2.15,2.15,0,0,0,1.08.22A10.4,10.4,0,0,0,803,518.05Z" transform="translate(-136.9 -451.77)"/><path d="M806.08,520.88V495.11h3.16v9.25a7.08,7.08,0,0,1,5.59-2.57,7.47,7.47,0,0,1,3.6.82,4.79,4.79,0,0,1,2.19,2.26,10.37,10.37,0,0,1,.66,4.18v11.83h-3.16V509.05a4.91,4.91,0,0,0-1-3.45,3.84,3.84,0,0,0-2.91-1.08,5.11,5.11,0,0,0-2.65.73,4.09,4.09,0,0,0-1.76,2,9.11,9.11,0,0,0-.53,3.45v10.21Z" transform="translate(-136.9 -451.77)"/><path d="M838.88,514.87l3.27.4a8,8,0,0,1-2.87,4.45,9.72,9.72,0,0,1-11.84-.94,9.85,9.85,0,0,1-2.4-7.07c0-3.15.81-5.58,2.43-7.32a8.22,8.22,0,0,1,6.29-2.6,8,8,0,0,1,6.12,2.55q2.37,2.55,2.37,7.17c0,.19,0,.47,0,.85H828.31a7.2,7.2,0,0,0,1.74,4.71A5.2,5.2,0,0,0,834,518.7a4.83,4.83,0,0,0,3-.91A6.06,6.06,0,0,0,838.88,514.87Zm-10.39-5.12h10.42a6.37,6.37,0,0,0-1.19-3.53,4.86,4.86,0,0,0-3.92-1.83,5,5,0,0,0-3.67,1.46A5.75,5.75,0,0,0,828.49,509.75Zm3.41-9.86,2.34-4.92h4.14l-3.86,4.92Z" transform="translate(-136.9 -451.77)"/><path d="M844.94,511.55q0-5.19,2.88-7.68a8.68,8.68,0,0,1,5.88-2.08,8.38,8.38,0,0,1,6.29,2.52,9.61,9.61,0,0,1,2.44,7,12.32,12.32,0,0,1-1.08,5.67,7.62,7.62,0,0,1-3.15,3.21,9.15,9.15,0,0,1-4.5,1.14,8.4,8.4,0,0,1-6.34-2.51Q844.95,516.27,844.94,511.55Zm3.25,0a7.92,7.92,0,0,0,1.57,5.37,5.22,5.22,0,0,0,7.86,0q1.56-1.8,1.56-5.47a7.71,7.71,0,0,0-1.57-5.25,5.22,5.22,0,0,0-7.85,0Q848.19,508,848.19,511.55Z" transform="translate(-136.9 -451.77)"/><path d="M866.11,520.88V502.21H869V505a7.84,7.84,0,0,1,2-2.62,3.51,3.51,0,0,1,2-.63,6.18,6.18,0,0,1,3.25,1l-1.09,2.94a4.53,4.53,0,0,0-2.32-.69,3.09,3.09,0,0,0-1.87.62,3.38,3.38,0,0,0-1.17,1.74,12.32,12.32,0,0,0-.53,3.69v9.77Z" transform="translate(-136.9 -451.77)"/><path d="M878.15,498.75v-3.64h3.16v3.64Zm0,22.13V502.21h3.16v18.67Z" transform="translate(-136.9 -451.77)"/><path d="M898.91,514.87l3.27.4a8,8,0,0,1-2.87,4.45,9.72,9.72,0,0,1-11.84-.94,9.85,9.85,0,0,1-2.4-7.07c0-3.15.81-5.58,2.43-7.32a8.22,8.22,0,0,1,6.29-2.6,8,8,0,0,1,6.12,2.55q2.37,2.55,2.37,7.17c0,.19,0,.47,0,.85H888.34a7.2,7.2,0,0,0,1.74,4.71,5.19,5.19,0,0,0,3.9,1.63,4.88,4.88,0,0,0,3-.91A6.06,6.06,0,0,0,898.91,514.87Zm-10.39-5.12h10.42a6.37,6.37,0,0,0-1.19-3.53,4.86,4.86,0,0,0-3.92-1.83,5,5,0,0,0-3.67,1.46A5.75,5.75,0,0,0,888.52,509.75Z" transform="translate(-136.9 -451.77)"/><path d="M914.88,515.31l3.13-.49a4.41,4.41,0,0,0,1.47,2.88,5.11,5.11,0,0,0,3.37,1,4.89,4.89,0,0,0,3.23-.89,2.63,2.63,0,0,0,1.06-2.08,1.93,1.93,0,0,0-.93-1.69A13.89,13.89,0,0,0,923,513a29.39,29.39,0,0,1-4.82-1.52,4.63,4.63,0,0,1-2.74-4.28,4.82,4.82,0,0,1,.57-2.31,5.1,5.1,0,0,1,1.56-1.77,6.51,6.51,0,0,1,2-.92,9.65,9.65,0,0,1,2.74-.38,10.79,10.79,0,0,1,3.85.63,5.35,5.35,0,0,1,2.46,1.72,6.78,6.78,0,0,1,1.09,2.89l-3.1.42a3.4,3.4,0,0,0-1.22-2.25,4.47,4.47,0,0,0-2.86-.81,5.18,5.18,0,0,0-3.11.72,2.11,2.11,0,0,0-.93,1.69,1.75,1.75,0,0,0,.39,1.11,2.77,2.77,0,0,0,1.21.84c.32.12,1.25.39,2.8.81a39.48,39.48,0,0,1,4.68,1.47,4.72,4.72,0,0,1,2.08,1.66,4.61,4.61,0,0,1,.76,2.71,5.38,5.38,0,0,1-.92,3,6,6,0,0,1-2.67,2.16,9.67,9.67,0,0,1-3.93.76,8.76,8.76,0,0,1-5.55-1.51A7.08,7.08,0,0,1,914.88,515.31Z" transform="translate(-136.9 -451.77)"/><path d="M946.33,514l3.11.41a8.06,8.06,0,0,1-2.61,5,7.57,7.57,0,0,1-5.16,1.82,8,8,0,0,1-6.16-2.5c-1.55-1.67-2.33-4.07-2.33-7.18a12.93,12.93,0,0,1,1-5.29,6.93,6.93,0,0,1,3-3.41,9.09,9.09,0,0,1,4.45-1.13,7.73,7.73,0,0,1,5,1.54,7,7,0,0,1,2.47,4.37l-3.07.47a5.06,5.06,0,0,0-1.56-2.83,4,4,0,0,0-2.7-.95,4.89,4.89,0,0,0-3.88,1.72c-1,1.14-1.49,2.95-1.49,5.42s.48,4.33,1.44,5.47a4.7,4.7,0,0,0,3.76,1.7,4.44,4.44,0,0,0,3.11-1.14A5.65,5.65,0,0,0,946.33,514Z" transform="translate(-136.9 -451.77)"/><path d="M952.17,498.75v-3.64h3.16v3.64Zm0,22.13V502.21h3.16v18.67Z" transform="translate(-136.9 -451.77)"/><path d="M972.93,514.87l3.27.4a8,8,0,0,1-2.87,4.45,9.72,9.72,0,0,1-11.84-.94,9.85,9.85,0,0,1-2.4-7.07c0-3.15.81-5.58,2.43-7.32a8.22,8.22,0,0,1,6.29-2.6,8,8,0,0,1,6.12,2.55q2.37,2.55,2.37,7.17c0,.19,0,.47,0,.85H962.36a7.2,7.2,0,0,0,1.74,4.71A5.2,5.2,0,0,0,968,518.7a4.83,4.83,0,0,0,3-.91A6.06,6.06,0,0,0,972.93,514.87Zm-10.39-5.12H973a6.37,6.37,0,0,0-1.19-3.53,4.86,4.86,0,0,0-3.92-1.83,5,5,0,0,0-3.67,1.46A5.75,5.75,0,0,0,962.54,509.75Z" transform="translate(-136.9 -451.77)"/><path d="M980.17,520.88V502.21H983v2.66a6.71,6.71,0,0,1,5.94-3.08,7.69,7.69,0,0,1,3.1.61,4.85,4.85,0,0,1,2.12,1.59,5.89,5.89,0,0,1,1,2.34,17.61,17.61,0,0,1,.18,3.07v11.48h-3.16V509.53a8.74,8.74,0,0,0-.37-2.9,3.17,3.17,0,0,0-1.31-1.53,4.2,4.2,0,0,0-2.21-.57,5.11,5.11,0,0,0-3.49,1.29q-1.47,1.28-1.47,4.87v10.19Z" transform="translate(-136.9 -451.77)"/><path d="M1007.1,518.05l.46,2.8a12.3,12.3,0,0,1-2.39.28,5.38,5.38,0,0,1-2.68-.55,3.05,3.05,0,0,1-1.33-1.43,11.26,11.26,0,0,1-.39-3.74V504.67h-2.32v-2.46h2.32v-4.62l3.15-1.9v6.52h3.18v2.46h-3.18v10.92a5.65,5.65,0,0,0,.16,1.74,1.43,1.43,0,0,0,.55.62,2.12,2.12,0,0,0,1.08.22A10.53,10.53,0,0,0,1007.1,518.05Z" transform="translate(-136.9 -451.77)"/><path d="M1010.21,498.75v-3.64h3.17v3.64Zm0,22.13V502.21h3.17v18.67Z" transform="translate(-136.9 -451.77)"/><path d="M1019,520.88V504.67h-2.8v-2.46h2.8v-2a8.81,8.81,0,0,1,.33-2.8,4.06,4.06,0,0,1,1.61-2,5.8,5.8,0,0,1,3.23-.77,15.58,15.58,0,0,1,3,.32l-.48,2.76a10.25,10.25,0,0,0-1.86-.18,2.78,2.78,0,0,0-2,.62,3.33,3.33,0,0,0-.6,2.3v1.72h3.64v2.46h-3.64v16.21Z" transform="translate(-136.9 -451.77)"/><path d="M1028.21,498.75v-3.64h3.17v3.64Zm0,22.13V502.21h3.17v18.67Z" transform="translate(-136.9 -451.77)"/><path d="M1048.09,528v-9.15a5.62,5.62,0,0,1-2.06,1.73,6.17,6.17,0,0,1-2.82.68,7.46,7.46,0,0,1-5.73-2.65,10.46,10.46,0,0,1-2.4-7.28,12.45,12.45,0,0,1,1-5,7.27,7.27,0,0,1,2.83-3.39,7.55,7.55,0,0,1,4.07-1.15,6.25,6.25,0,0,1,5.45,2.92v-2.5h2.85V528Zm-9.75-16.55a8.24,8.24,0,0,0,1.51,5.41,4.58,4.58,0,0,0,3.62,1.8A4.43,4.43,0,0,0,1047,517a7.92,7.92,0,0,0,1.46-5.21q0-3.73-1.54-5.61a4.55,4.55,0,0,0-3.61-1.88,4.35,4.35,0,0,0-3.49,1.75C1038.81,507.2,1038.34,509,1038.34,511.49Z" transform="translate(-136.9 -451.77)"/><path d="M1068.45,520.88v-2.74a6.84,6.84,0,0,1-5.93,3.16,7.54,7.54,0,0,1-3.08-.63,5,5,0,0,1-2.13-1.59,5.89,5.89,0,0,1-1-2.35,15.77,15.77,0,0,1-.2-3V502.21h3.17v10.36a18.51,18.51,0,0,0,.19,3.34,3.31,3.31,0,0,0,1.27,2,3.94,3.94,0,0,0,2.39.71,5.26,5.26,0,0,0,2.67-.73,4,4,0,0,0,1.76-2,9.87,9.87,0,0,0,.52-3.65v-10h3.17v18.67Z" transform="translate(-136.9 -451.77)"/><path d="M1089,514.87l3.27.4a8,8,0,0,1-2.86,4.45,9.72,9.72,0,0,1-11.84-.94,9.85,9.85,0,0,1-2.4-7.07c0-3.15.81-5.58,2.43-7.32a8.21,8.21,0,0,1,6.29-2.6,8,8,0,0,1,6.12,2.55q2.37,2.55,2.37,7.17c0,.19,0,.47,0,.85h-13.92a7.2,7.2,0,0,0,1.74,4.71,5.16,5.16,0,0,0,3.9,1.63,4.83,4.83,0,0,0,3-.91A6.06,6.06,0,0,0,1089,514.87Zm-10.38-5.12h10.42a6.29,6.29,0,0,0-1.2-3.53,4.83,4.83,0,0,0-3.92-1.83,5,5,0,0,0-3.66,1.46A5.75,5.75,0,0,0,1078.63,509.75Z" transform="translate(-136.9 -451.77)"/><path d="M849.93,554.75q0-5.19,2.89-7.68a8.64,8.64,0,0,1,5.87-2.08,8.38,8.38,0,0,1,6.29,2.52,9.61,9.61,0,0,1,2.44,7,12.32,12.32,0,0,1-1.08,5.67,7.65,7.65,0,0,1-3.14,3.21,9.19,9.19,0,0,1-4.51,1.14,8.37,8.37,0,0,1-6.34-2.51Q849.94,559.47,849.93,554.75Zm3.26,0a8,8,0,0,0,1.56,5.37,5.22,5.22,0,0,0,7.86,0q1.56-1.8,1.56-5.47a7.71,7.71,0,0,0-1.57-5.25,5.22,5.22,0,0,0-7.85,0A7.92,7.92,0,0,0,853.19,554.75Z" transform="translate(-136.9 -451.77)"/><path d="M883.91,558.07l3.27.4a8,8,0,0,1-2.86,4.45,9.72,9.72,0,0,1-11.84-.94,9.85,9.85,0,0,1-2.4-7.07c0-3.15.81-5.58,2.42-7.32a8.24,8.24,0,0,1,6.3-2.6,8,8,0,0,1,6.11,2.55q2.39,2.55,2.38,7.17c0,.19,0,.47,0,.85H873.35a7.1,7.1,0,0,0,1.74,4.71,5.16,5.16,0,0,0,3.9,1.63,4.83,4.83,0,0,0,3-.91A6.06,6.06,0,0,0,883.91,558.07ZM873.52,553H884a6.29,6.29,0,0,0-1.2-3.53,4.84,4.84,0,0,0-3.92-1.83,5,5,0,0,0-3.66,1.46A5.81,5.81,0,0,0,873.52,553Z" transform="translate(-136.9 -451.77)"/><path d="M903.39,564.08v-2.74a6.83,6.83,0,0,1-5.93,3.16,7.54,7.54,0,0,1-3.08-.63,5.08,5.08,0,0,1-2.13-1.59,5.89,5.89,0,0,1-1-2.35,15.77,15.77,0,0,1-.2-2.95V545.41h3.17v10.36a18.51,18.51,0,0,0,.19,3.34,3.31,3.31,0,0,0,1.27,2,3.94,3.94,0,0,0,2.39.71,5.16,5.16,0,0,0,2.67-.73,4.11,4.11,0,0,0,1.77-2,10.1,10.1,0,0,0,.51-3.64v-10h3.17v18.67Z" transform="translate(-136.9 -451.77)"/><path d="M916.36,564.08l-7.1-18.67h3.34l4,11.18c.43,1.21.83,2.46,1.19,3.76.28-1,.68-2.16,1.18-3.55l4.15-11.39h3.25l-7.07,18.67Z" transform="translate(-136.9 -451.77)"/><path d="M929.14,564.08V545.41H932v2.83a7.84,7.84,0,0,1,2-2.62,3.53,3.53,0,0,1,2-.63,6.15,6.15,0,0,1,3.25,1L938.19,549a4.48,4.48,0,0,0-2.32-.69,3,3,0,0,0-1.86.62,3.46,3.46,0,0,0-1.18,1.74,12.32,12.32,0,0,0-.53,3.69v9.77Z" transform="translate(-136.9 -451.77)"/><path d="M953.94,558.07l3.27.4a8,8,0,0,1-2.86,4.45,9.72,9.72,0,0,1-11.84-.94,9.85,9.85,0,0,1-2.4-7.07c0-3.15.81-5.58,2.43-7.32a8.21,8.21,0,0,1,6.29-2.6,8,8,0,0,1,6.12,2.55q2.37,2.55,2.37,7.17c0,.19,0,.47,0,.85H943.38a7.2,7.2,0,0,0,1.74,4.71,5.16,5.16,0,0,0,3.9,1.63,4.83,4.83,0,0,0,3-.91A6.06,6.06,0,0,0,953.94,558.07ZM943.55,553H954a6.29,6.29,0,0,0-1.2-3.53,4.83,4.83,0,0,0-3.92-1.83,5,5,0,0,0-3.66,1.46A5.81,5.81,0,0,0,943.55,553Z" transform="translate(-136.9 -451.77)"/><path d="M983.3,564.08v-2.35a5.79,5.79,0,0,1-5.22,2.77,7.34,7.34,0,0,1-4.11-1.23,8.16,8.16,0,0,1-2.9-3.43,12,12,0,0,1-1-5.08,13.31,13.31,0,0,1,.94-5.07,7.39,7.39,0,0,1,2.79-3.49,7.54,7.54,0,0,1,4.17-1.21,6.27,6.27,0,0,1,3,.71,6.38,6.38,0,0,1,2.15,1.86v-9.25h3.14v25.77Zm-10-9.32a8.12,8.12,0,0,0,1.51,5.37,4.57,4.57,0,0,0,3.57,1.77,4.47,4.47,0,0,0,3.52-1.69,7.83,7.83,0,0,0,1.45-5.18c0-2.56-.49-4.43-1.47-5.63a4.57,4.57,0,0,0-3.64-1.79,4.39,4.39,0,0,0-3.53,1.72Q973.3,551.06,973.3,554.76Z" transform="translate(-136.9 -451.77)"/><path d="M991,541.72v-3.67h3.39V541a7.63,7.63,0,0,1-.55,3.39,4.85,4.85,0,0,1-2.35,2.15l-.78-1.25a2.77,2.77,0,0,0,1.42-1.22,5.25,5.25,0,0,0,.52-2.3Z" transform="translate(-136.9 -451.77)"/><path d="M1011.39,561.78a11.83,11.83,0,0,1-3.39,2.11,9.72,9.72,0,0,1-3.48.61,6.78,6.78,0,0,1-4.73-1.5,5,5,0,0,1-1.66-3.84,5.11,5.11,0,0,1,.63-2.51,5.21,5.21,0,0,1,1.63-1.82,7.88,7.88,0,0,1,2.28-1,22.77,22.77,0,0,1,2.81-.48,28,28,0,0,0,5.65-1.09c0-.43,0-.71,0-.82a3.54,3.54,0,0,0-.89-2.73,5.33,5.33,0,0,0-3.61-1.07,5.58,5.58,0,0,0-3.29.78,4.79,4.79,0,0,0-1.58,2.77l-3.09-.42a7.65,7.65,0,0,1,1.39-3.21,6.08,6.08,0,0,1,2.79-1.88,12.46,12.46,0,0,1,4.24-.66,11.3,11.3,0,0,1,3.88.56,5.15,5.15,0,0,1,2.2,1.42,5,5,0,0,1,1,2.15,18.78,18.78,0,0,1,.15,2.92v4.22a43.12,43.12,0,0,0,.21,5.58,6.84,6.84,0,0,0,.8,2.24H1012A6.59,6.59,0,0,1,1011.39,561.78Zm-.26-7.07a23.35,23.35,0,0,1-5.17,1.2,11.85,11.85,0,0,0-2.76.63,2.71,2.71,0,0,0-1.69,2.53,2.68,2.68,0,0,0,1,2.11,4.13,4.13,0,0,0,2.8.84,6.45,6.45,0,0,0,3.25-.8,5,5,0,0,0,2.1-2.18,7.67,7.67,0,0,0,.51-3.17Z" transform="translate(-136.9 -451.77)"/><path d="M1019.19,564.08V545.41H1022v2.83a8,8,0,0,1,2-2.62,3.55,3.55,0,0,1,2-.63,6.21,6.21,0,0,1,3.26,1l-1.09,2.94a4.53,4.53,0,0,0-2.32-.69,3,3,0,0,0-1.87.62,3.46,3.46,0,0,0-1.18,1.74,12.33,12.33,0,0,0-.52,3.69v9.77Z" transform="translate(-136.9 -451.77)"/><path d="M1038.13,561.25l.45,2.8a12.3,12.3,0,0,1-2.39.28,5.32,5.32,0,0,1-2.67-.55,3.07,3.07,0,0,1-1.34-1.43,11.64,11.64,0,0,1-.38-3.74V547.87h-2.32v-2.46h2.32v-4.62l3.14-1.9v6.52h3.19v2.46h-3.19v10.92a5.54,5.54,0,0,0,.17,1.74,1.32,1.32,0,0,0,.55.62,2.12,2.12,0,0,0,1.08.22A10.67,10.67,0,0,0,1038.13,561.25Z" transform="translate(-136.9 -451.77)"/><path class="cls-2" d="M178.45,512" transform="translate(-136.9 -451.77)"/><path class="cls-3" d="M256.27,512" transform="translate(-136.9 -451.77)"/><line class="cls-4" x1="206.04" y1="60.23" x2="265.86" y2="60.23"/><path d="M414.83,512c-5.68,2.11-12.73,5.7-17.09,9.51l3.44-9.51-3.44-9.51C402.1,506.3,409.15,509.89,414.83,512Z" transform="translate(-136.9 -451.77)"/><line class="cls-4" x1="552.21" y1="60.23" x2="612.03" y2="60.23"/><path d="M761,512c-5.68,2.11-12.73,5.7-17.09,9.51l3.44-9.51-3.44-9.51C748.27,506.3,755.32,509.89,761,512Z" transform="translate(-136.9 -451.77)"/><text class="cls-5" transform="translate(550.07 28.53)">produit</text><text class="cls-1" transform="translate(325.02 69.11)">conscience</text></svg>