<svg id="Calque_1" data-name="Calque 1" xmlns="http://www.w3.org/2000/svg" viewBox="0 0 988.06 188.76"><defs><style>.cls-1{font-size:36px;}.cls-1,.cls-5{font-family:ArialMT, Arial;}.cls-2{fill:#fff;}.cls-2,.cls-3,.cls-4{stroke:#000;stroke-miterlimit:10;}.cls-2,.cls-4{stroke-width:2px;}.cls-3,.cls-4{fill:none;}.cls-3{stroke-width:4px;}.cls-5{font-size:24px;}</style></defs><title>information_cerveau_solution</title><text class="cls-1" transform="translate(0 103.98)">information</text><text class="cls-1" transform="translate(653.85 103.98)">idée/solution/progrès</text><path class="cls-2" d="M178.45,512" transform="translate(-136.9 -417.62)"/><path class="cls-3" d="M256.27,512" transform="translate(-136.9 -417.62)"/><g id="path5312"><path d="M583.24,606.38c-.59,0-1.14,0-1.62,0h-.07l-.06,0c-4.64-1.31-6.47-5.25-8.23-9.06a29.18,29.18,0,0,0-3.12-5.61l0-.08a39.05,39.05,0,0,0-4.71-6.41c-2.3-2.7-4.65-5.49-5.93-9.07a46.14,46.14,0,0,0-6.35-6.53c-3.21-2.89-6.53-5.88-8.53-10-1.88-3.08-5.25-2.12-9.14-1-3.38,1-6.87,2-9.86.41-1,.13-2.06.29-3.06.43-5,.74-9.68,1.43-14.74-.43-3.17-.06-11.17-4.51-11.26-4.55a53.61,53.61,0,0,1-7.63-4.59c-3.6-1.36-4.49-5.05-5.22-8-.41-1.75-.83-3.41-1.67-4.13l-.06-.06c-2-2.32-5.23-2.54-8.67-2.79s-7.09-.5-9.83-2.92c-7.28-3.92-15-8.8-15.25-17.11-.51-.53-1.05-1.06-1.57-1.57-2.86-2.78-5.8-5.69-5.6-10.8v-.09l0-.09c1.14-3.11.34-6.2-.44-9.18-.83-3.22-1.69-6.55-.06-9.83.39-1.19.79-2.53,1.21-4,1.1-3.78,2.36-8.06,4.17-11.06v0a56.37,56.37,0,0,1,4.93-6.08c2.53-2.85,4.92-5.55,6.52-8.93l.06-.1c4.19-5.63,10.19-9.52,16.05-12.88l.09-.05.12,0c2.39-.35,4-2.09,5.76-3.92s3.29-3.47,5.72-4.34c4.21-2.6,9-3.93,13.55-5.21,2.12-.6,4.31-1.21,6.4-1.94l.09,0h.09a49.35,49.35,0,0,0,10.58-2.1,74.93,74.93,0,0,1,8.74-2h.15c4.31.44,8.58-.5,12.71-1.41,4.9-1.08,10-2.2,15.25-1.06l.09,0c3.95,1.54,7.68,1.53,11.62,1.52a45.43,45.43,0,0,1,9.16.62,121.74,121.74,0,0,1,36.44,11l.05,0a55.8,55.8,0,0,1,14.78,14l.09.11,0,.14c.51,2.88,3.16,4.24,6.23,5.82,3.34,1.71,7.12,3.65,8.13,8.1v.06c.68,6.29,4.11,9.9,8.07,14.07,1.21,1.28,2.47,2.6,3.69,4.05l.09.11,0,.14c.49,2.22,2,4.22,3.5,6.34,2.06,2.84,4.2,5.77,4.28,9.57a25.35,25.35,0,0,0,1.69,4.42c1.23,2.69,2.5,5.48,1.84,8.88a40.42,40.42,0,0,0,.51,10.31c.58,4.18,1.17,8.51.07,12.85-1,5.33-4.18,9.53-7.3,13.59a67.22,67.22,0,0,0-4,5.63c-3,5.16-11.27,4.25-14.08,3.76a39.21,39.21,0,0,1-5.47,16.25c-4.54,7.37-9.81,9.73-13.42,10.42h0c-2.25.28-4.59.55-6.95.83-8.24,1-16.75,2-24.84,3.3-.22,3.18,1,6.35,2.3,9.69s2.55,6.6,2.43,10V604l-.14.15C589.93,606,586.12,606.38,583.24,606.38Zm-1.5-1.2c4.34.2,7.52-.42,8.82-1.65.05-3.13-1.18-6.3-2.36-9.36-1.34-3.47-2.73-7.06-2.32-10.67l0-.44.44-.07c8.24-1.37,16.93-2.39,25.34-3.38,2.36-.28,4.67-.55,6.92-.83,6.12-1.17,10.25-6,12.63-9.89a37.8,37.8,0,0,0,5.35-16.38l.06-.65.64.13a23.73,23.73,0,0,0,7.17.35c3.08-.39,5.2-1.56,6.33-3.46a69.25,69.25,0,0,1,4.11-5.73c3-4,6.18-8,7.09-13.11v0c1-4.12.5-8.16-.09-12.43A40.86,40.86,0,0,1,661.4,507v0c.59-3.05-.55-5.55-1.76-8.2a26.26,26.26,0,0,1-1.77-4.69l0-.07v-.06c-.05-3.46-2.09-6.26-4.06-9-1.59-2.18-3.09-4.24-3.66-6.63-1.17-1.38-2.38-2.66-3.55-3.89-3.93-4.15-7.64-8.06-8.38-14.72-.89-3.89-4.26-5.61-7.51-7.3-3-1.52-6.14-3.13-6.82-6.48a54.62,54.62,0,0,0-14.36-13.61,120.38,120.38,0,0,0-36.08-10.86h0a43.77,43.77,0,0,0-8.94-.63c-3.87,0-7.86,0-12-1.57-5-1.07-9.73,0-14.71,1.07-4.2.93-8.54,1.88-13,1.44a74.38,74.38,0,0,0-8.53,2,52.48,52.48,0,0,1-10.76,2.14c-2.1.72-4.28,1.33-6.39,1.92-4.54,1.27-9.23,2.58-13.3,5.12l-.06,0-.06,0c-2.2.76-3.78,2.44-5.31,4.06-1.77,1.88-3.6,3.81-6.33,4.25-5.7,3.28-11.53,7.06-15.56,12.47a40.24,40.24,0,0,1-6.68,9.15,57.59,57.59,0,0,0-4.82,5.94c-1.73,2.88-3,7.08-4.05,10.78-.42,1.45-.84,2.82-1.24,4l0,.08c-1.46,2.9-.68,5.88.14,9.05s1.64,6.35.43,9.78c-.16,4.55,2.47,7.13,5.24,9.86.58.57,1.18,1.17,1.75,1.78l.16.16v.23c.08,7.83,7.63,12.54,14.7,16.35l.06,0,.05,0c2.45,2.19,5.88,2.43,9.2,2.66,3.51.25,7.13.51,9.44,3.16,1.1,1,1.54,2.79,2,4.71.69,2.86,1.48,6.11,4.56,7.23l.07,0,.07.05a52.28,52.28,0,0,0,7.56,4.55c3.08,1.72,8.69,4.41,10.76,4.41H508l.11,0c4.82,1.8,9.41,1.13,14.26.42,1.06-.16,2.16-.32,3.27-.46l.19,0,.17.09c2.6,1.45,5.92.49,9.13-.44,4-1.15,8.14-2.34,10.47,1.53l0,0c1.9,4,5,6.74,8.28,9.7a47.11,47.11,0,0,1,6.55,6.76l.06.07,0,.08c1.2,3.43,3.41,6,5.74,8.8a39.62,39.62,0,0,1,4.83,6.57,29.06,29.06,0,0,1,3.22,5.79c1.73,3.7,3.36,7.21,7.44,8.4Z" transform="translate(-136.9 -417.62)"/></g><g id="path5324"><path d="M584.75,465.86c-1.22,0-2.36-.85-3.47-1.67a6.73,6.73,0,0,0-2.92-1.55,43.82,43.82,0,0,0-6.62,0c-3.21.18-5.54.32-6.67-1.2s-.75-3.92.92-8.48a.58.58,0,0,1,.74-.33.58.58,0,0,1,.35.73c-1.48,4-1.82,6.39-1.08,7.39s2.92.88,5.67.73a45.92,45.92,0,0,1,6.78,0,7.35,7.35,0,0,1,3.51,1.78c1.14.85,2.22,1.65,3.16,1.39s1.69-1.35,2.5-3.3c.9-2.16-1.85-6.87-12.59-13.06a.58.58,0,0,1,.58-1c9.66,5.57,14.55,11,13.08,14.51-1,2.38-2,3.64-3.28,4A2.39,2.39,0,0,1,584.75,465.86Z" transform="translate(-136.9 -417.62)"/></g><g id="path5070"><path d="M479.55,535a.57.57,0,0,1-.58-.57c0-.33-.13-8,2.64-11.06.43-.46,1.1-1.37,1.95-2.51,4.22-5.71,13-17.57,23-17.21l3.46.15c8.84.38,12.14.53,18.6-4a21.29,21.29,0,0,1,11.61-3.47,5.83,5.83,0,0,0,3.2-1.38,13,13,0,0,1,4.15-2.1,19.8,19.8,0,0,1,7.94-.34c3.27.4,4.18,1,5.33,1.79a16.17,16.17,0,0,0,4.74,2.24.58.58,0,0,1-.36,1.1,17.33,17.33,0,0,1-5-2.37c-1.06-.72-1.82-1.24-4.82-1.6-6.81-.84-9.3.87-11.29,2.23a6.86,6.86,0,0,1-3.82,1.59,20.15,20.15,0,0,0-11,3.26c-6.78,4.8-10.19,4.65-19.32,4.25l-3.45-.15c-9.35-.34-17.91,11.2-22,16.74-.87,1.17-1.56,2.1-2,2.61-2.45,2.67-2.33,10.17-2.33,10.24a.63.63,0,0,1-.16.42.64.64,0,0,1-.41.18Z" transform="translate(-136.9 -417.62)"/></g><g id="path5072"><path d="M493,511.26a.64.64,0,0,1-.2,0c-2.81-1-5.18-3.71-7.09-5.88a21.19,21.19,0,0,0-2.22-2.31c-2-1.59-12.13-7-12.23-7a.57.57,0,0,1-.25-.78.58.58,0,0,1,.79-.24c.42.22,10.37,5.5,12.42,7.15a23,23,0,0,1,2.36,2.46c1.82,2.06,4.08,4.63,6.61,5.55a.58.58,0,0,1-.2,1.12Z" transform="translate(-136.9 -417.62)"/></g><g id="path5074"><path d="M482.17,522c-2.61,0-10.23-.23-13.33-2.86-4.74-4-6.76-7.18-6-9.41.17-.51.42-1.11.68-1.81.95-2.4,2.24-5.69,1.79-7.66-.61-2.68-3.38-11.23-3.4-11.32a.58.58,0,0,1,1.1-.36c.12.36,2.82,8.69,3.43,11.42.53,2.32-.83,5.8-1.83,8.34-.27.69-.5,1.28-.67,1.76-.56,1.67,1.5,4.64,5.66,8.15,3.36,2.84,13.32,2.58,13.42,2.58a.58.58,0,0,1,.54.27.59.59,0,0,1,0,.6.57.57,0,0,1-.52.29Z" transform="translate(-136.9 -417.62)"/></g><g id="path5076"><path d="M481.13,525.73H481c-4.31-.9-4.49-1-6.44-3.93l-.45-.66a.59.59,0,0,1-.06-.6.58.58,0,0,1,.5-.33.57.57,0,0,1,.52.27l.46.68c1.74,2.6,1.74,2.6,5.72,3.43a.58.58,0,0,1-.12,1.15Z" transform="translate(-136.9 -417.62)"/></g><g id="path5078"><path d="M457.88,522.61a.58.58,0,0,1-.22-1.12l1.42-.58c3-1.21,3-1.21,7.11-4.36l.42-.32a.58.58,0,0,1,.59-.1.58.58,0,0,1,.12,1l-.42.32c-4.2,3.22-4.27,3.26-7.39,4.52l-1.41.58A.57.57,0,0,1,457.88,522.61Z" transform="translate(-136.9 -417.62)"/></g><g id="path5080"><path d="M465.58,517.56A15.52,15.52,0,0,1,455.29,513a15,15,0,0,1-4.4-12.86,18.69,18.69,0,0,1,2.41-6.72c.41-.83.86-1.69,1.29-2.65a.59.59,0,0,1,.77-.29.57.57,0,0,1,.29.77c-.44,1-.89,1.86-1.32,2.7a18.09,18.09,0,0,0-2.29,6.33,13.77,13.77,0,0,0,4.06,11.9c3,3,7.25,4.62,10.59,4.17a.58.58,0,0,1,.16,1.15A8.93,8.93,0,0,1,465.58,517.56Z" transform="translate(-136.9 -417.62)"/></g><g id="path5082"><path d="M443.32,495.17a.58.58,0,0,1-.26-1.1,8.33,8.33,0,0,0,2.67-2.7c-4.85-6.49.5-13.64,1.14-14.45,3.4-4.31,13.81-6.68,14.26-6.77a.58.58,0,0,1,.25,1.13c-.1,0-10.45,2.37-13.6,6.36-.59.74-5.61,7.46-.88,13.34a.59.59,0,0,1,0,.67,9.55,9.55,0,0,1-3.36,3.46A.58.58,0,0,1,443.32,495.17Z" transform="translate(-136.9 -417.62)"/></g><g id="path5084"><path d="M460,480.53h-.11a.58.58,0,0,1-.46-.68c0-.06,1.21-6.1,2.61-10.66a77.07,77.07,0,0,1,3.9-10.06c2.21-4.57,4.38-7.19,6.44-7.79a13.35,13.35,0,0,1,5-.5c1.06.07,1.17,0,1.31-.24a4.63,4.63,0,0,0,.25-.8c.42-1.54,1.09-4.11,5.66-5.84,3.15-1.19,10.45-2.7,17.78-3.15,6.32-.38,14.61-.1,18.24,3.45a.58.58,0,0,1,0,.82.57.57,0,0,1-.82,0c-2.6-2.53-8.77-3.64-17.36-3.11-7.21.44-14.37,1.9-17.43,3.07-4,1.52-4.57,3.64-4.94,5a5.35,5.35,0,0,1-.35,1c-.5,1-1.39.95-2.42.88a11.86,11.86,0,0,0-4.59.46c-2.17.62-6,5.47-9.55,17.07-1.39,4.51-2.57,10.48-2.58,10.54A.57.57,0,0,1,460,480.53Z" transform="translate(-136.9 -417.62)"/></g><g id="path5086"><path d="M478.89,441.85a.58.58,0,0,1-.49-.89c.13-.2,3.13-4.79,10.85-7.86a36.52,36.52,0,0,1,10.52-2.21c5.23-.53,9.76-1,14.44-6.48a.59.59,0,0,1,.8,0,.57.57,0,0,1,.08.8c-5,5.84-10,6.35-15.21,6.89a35.19,35.19,0,0,0-10.2,2.13,26.59,26.59,0,0,0-7.93,4.8,15.15,15.15,0,0,0-2.36,2.59A.6.6,0,0,1,478.89,441.85Z" transform="translate(-136.9 -417.62)"/></g><g id="path5088"><path d="M504.29,431.21a.58.58,0,0,1-.53-.35l-.24-.53c-.86-1.91-1.39-3.06.7-4.89a.6.6,0,0,1,.59-.14.6.6,0,0,1,.39.45.59.59,0,0,1-.21.57c-1.44,1.25-1.26,1.65-.41,3.53q.12.25.24.54a.59.59,0,0,1-.29.77A.69.69,0,0,1,504.29,431.21Z" transform="translate(-136.9 -417.62)"/></g><g id="path5090"><path d="M468.86,486.87a.58.58,0,0,1-.59-.55.59.59,0,0,1,.53-.61c.09,0,8.63-.83,11.81-4.35a27.91,27.91,0,0,0,3.54-5.65,43.17,43.17,0,0,1,3-5.06c1.76-2.43,8.8-3.8,14.23-2.76,4.94.95,8.21,3.68,9.21,7.69a.58.58,0,0,1-.42.7.59.59,0,0,1-.71-.42c-1.13-4.54-5.14-6.22-8.3-6.83a21.85,21.85,0,0,0-8.18.1c-2.39.49-4.26,1.33-4.88,2.2a41.16,41.16,0,0,0-2.88,4.92,28.64,28.64,0,0,1-3.71,5.89c-3.48,3.86-12.19,4.7-12.56,4.73Z" transform="translate(-136.9 -417.62)"/></g><g id="path5092"><path d="M491.2,469.55a.57.57,0,0,1-.43-.2c-2.26-2.51-1.85-6-1.27-10.73.06-.53.13-1.09.19-1.67a.58.58,0,0,1,.34-.48.57.57,0,0,1,.59.06.59.59,0,0,1,.23.55c-.07.58-.14,1.14-.2,1.67-.54,4.47-.93,7.7,1,9.81a.57.57,0,0,1,0,.82A.61.61,0,0,1,491.2,469.55Z" transform="translate(-136.9 -417.62)"/></g><g id="path5094"><path d="M510.46,487.35a.58.58,0,0,1-.58-.55c-.61-10.87-.91-24.17-.24-27.42,1.35-6.62,5.05-10.17,10.64-15.54l2.64-2.54a.58.58,0,0,1,.81.83c-.93.91-1.8,1.75-2.65,2.56-5.42,5.21-9,8.66-10.3,14.93-.63,3-.36,16.17.26,27.12a.58.58,0,0,1-.55.61Z" transform="translate(-136.9 -417.62)"/></g><g id="path5096"><path d="M510.82,457.51a.63.63,0,0,1-.19,0c-3-1.07-6.73-3.49-10.38-5.85-2.34-1.5-4.56-2.92-6.32-3.83a.57.57,0,0,1-.26-.78.58.58,0,0,1,.78-.26c1.82.93,4.06,2.37,6.43,3.9,3.59,2.31,7.3,4.7,10.14,5.71a.58.58,0,0,1-.2,1.13Z" transform="translate(-136.9 -417.62)"/></g><g id="path5098"><path d="M518,443.42a.6.6,0,0,1-.58-.57,15.45,15.45,0,0,1,3.21-9,23.83,23.83,0,0,1,7.29-6.26.58.58,0,0,1,.53,1,23.08,23.08,0,0,0-6.89,5.93,14.52,14.52,0,0,0-3,8.29.57.57,0,0,1-.57.59Z" transform="translate(-136.9 -417.62)"/></g><g id="path5100"><path d="M521.4,434.49a.59.59,0,0,1-.55-.38,6.19,6.19,0,0,1,.78-5.09,14.14,14.14,0,0,1,9.18-6.56.58.58,0,1,1,.21,1.14,13.13,13.13,0,0,0-8.38,6,5,5,0,0,0-.69,4.11.61.61,0,0,1,0,.44.57.57,0,0,1-.33.3A.45.45,0,0,1,521.4,434.49Z" transform="translate(-136.9 -417.62)"/></g><g id="path5102"><path d="M556.83,445.9a.59.59,0,0,1-.52-.31c-1.19-2.32-1.93-2.59-3.16-3a11.93,11.93,0,0,1-3.89-2.17.59.59,0,0,1-.07-.8.58.58,0,0,1,.79-.11,10.81,10.81,0,0,0,3.57,2c1.34.49,2.4.87,3.8,3.6a.58.58,0,0,1-.25.78A.66.66,0,0,1,556.83,445.9Z" transform="translate(-136.9 -417.62)"/></g><g id="path5104"><path d="M547,463.53a.59.59,0,0,1-.56-.47c-.57-2.64-2.81-3.52-5.41-4.53a15.69,15.69,0,0,1-4.65-2.44.59.59,0,0,1-.07-.82.58.58,0,0,1,.82-.06,15.27,15.27,0,0,0,4.32,2.24c2.67,1,5.42,2.11,6.12,5.37a.58.58,0,0,1-.44.69Z" transform="translate(-136.9 -417.62)"/></g><g id="path5106"><path d="M547.55,493.85a.58.58,0,0,1-.58-.58c0-2.58-.57-5.59-4.74-8.35a.57.57,0,0,1-.14-.78.59.59,0,0,1,.78-.19c4.66,3.09,5.26,6.61,5.26,9.33A.58.58,0,0,1,547.55,493.85Z" transform="translate(-136.9 -417.62)"/></g><g id="path5108"><path d="M529.24,500.9a.39.39,0,0,1-.15,0,.58.58,0,0,1-.36-.27.56.56,0,0,1-.06-.44c1.64-6.09-.73-8.25-5.92-13a.58.58,0,0,1,.78-.86c5.39,4.9,8.09,7.36,6.26,14.13A.58.58,0,0,1,529.24,500.9Z" transform="translate(-136.9 -417.62)"/></g><g id="path5110"><path d="M559.63,494.78a.58.58,0,0,1-.31-1.07,24,24,0,0,0,5.24-4.86c2.4-3.08,5.69-11.09,5.72-11.18a.59.59,0,0,1,.76-.32.59.59,0,0,1,.32.76c-.14.34-3.38,8.24-5.89,11.43a24.29,24.29,0,0,1-5.53,5.13A.51.51,0,0,1,559.63,494.78Z" transform="translate(-136.9 -417.62)"/></g><g id="path5112"><path d="M503.63,505.34a.57.57,0,0,1-.55-.43c0-.06-1.61-5.84-2.76-8.9s-2.1-8.46-2.75-12.35c-.46-2.76-4.48-9.1-4.52-9.16a.6.6,0,0,1,.19-.79.61.61,0,0,1,.8.16c.17.27,4.17,6.6,4.68,9.6.42,2.45,1.5,8.95,2.69,12.13s2.71,8.76,2.79,9a.56.56,0,0,1-.06.44.57.57,0,0,1-.35.28Z" transform="translate(-136.9 -417.62)"/></g><g id="path5114"><path d="M527.72,476.51a.57.57,0,0,1-.57-.47c-1.67-8.57-1.73-14.13,2.77-19,1.84-2,3.68-3.67,5.16-5,1.9-1.75,3.55-3.27,3.79-4.13a42.89,42.89,0,0,1,3.72-8.42c1.57-2.71,4-6.27,6.89-7.72a.59.59,0,0,1,.52,1.05c-4.54,2.29-8.83,11.32-10,15.41-.34,1.18-1.84,2.56-4.12,4.66-1.54,1.43-3.29,3-5.09,5-4.18,4.47-4.09,9.76-2.49,17.95a.62.62,0,0,1-.08.44.54.54,0,0,1-.37.24Z" transform="translate(-136.9 -417.62)"/></g><g id="path5118"><path d="M613.65,474a.58.58,0,0,1-.55-.4,45.36,45.36,0,0,0-2.44-5.74c-1.94-3.78-3.93-6.07-5.75-6.64-5.53-1.71-9.07-.84-14.45,1.6a.58.58,0,0,1-.48-1.06c4.73-2.15,8.85-3.63,15.28-1.65,5.06,1.57,8.79,12.65,8.94,13.12a.58.58,0,0,1-.37.74Z" transform="translate(-136.9 -417.62)"/></g><g id="path5122"><path d="M649,552l-.18,0a.59.59,0,0,1-.38-.73c.17-.54,4.2-13.22,7.35-16.73,2.79-3.09,3-13.39,2.33-19.71a66.79,66.79,0,0,0-4.86-17.47,15.68,15.68,0,0,1-.62-2.23,28.75,28.75,0,0,0-2.83-7.73l-1.06-1.91c-1.84-3.27-2.85-5.08-3.25-7-.52-2.49-3.73-4.24-6.83-5.93a23.28,23.28,0,0,1-5.36-3.54.59.59,0,0,1,.84-.82,22.77,22.77,0,0,0,5.09,3.34c3.33,1.82,6.77,3.69,7.4,6.71.37,1.76,1.35,3.51,3.13,6.7l1.07,1.9a29.42,29.42,0,0,1,2.94,8,15,15,0,0,0,.57,2.06,68,68,0,0,1,4.94,17.77c.68,6.09.58,17.08-2.62,20.63-3,3.32-7.06,16.17-7.11,16.3A.57.57,0,0,1,649,552Z" transform="translate(-136.9 -417.62)"/></g><g id="path5124"><path d="M505.18,529.89a21.2,21.2,0,0,1-9.93-3,.58.58,0,0,1-.18-.8.57.57,0,0,1,.81-.18c.06,0,6.23,3.82,11.79,2.52A49.15,49.15,0,0,0,518,524.09c1.69-.9,4.1-.81,6.43-.73a14.49,14.49,0,0,0,4.83-.29,19.78,19.78,0,0,0,4.14-2.43c2.32-1.6,4.72-3.25,7.11-3.34.84,0,1.82,0,3,.05a46.18,46.18,0,0,0,7-.1,35.26,35.26,0,0,0,5.64-1.32c.58-.18,1.07-.33,1.47-.42a4.5,4.5,0,0,1,4.36.92,5.48,5.48,0,0,0,4,1.25c3.57-.16,10-2.78,16.42-8.27a47.53,47.53,0,0,0,15.21-24.72.58.58,0,0,1,.69-.4.59.59,0,0,1,.44.68,48.74,48.74,0,0,1-15.58,25.32c-6.61,5.67-13.36,8.38-17.11,8.56a6.71,6.71,0,0,1-4.72-1.46,3.36,3.36,0,0,0-3.39-.75c-.38.1-.87.24-1.44.42a35,35,0,0,1-5.84,1.37,46,46,0,0,1-7.17.1c-1.11,0-2.07-.08-2.85,0-2.06.08-4.32,1.64-6.5,3.13a20.52,20.52,0,0,1-4.42,2.57,15.45,15.45,0,0,1-5.25.36c-2.18-.08-4.43-.16-5.85.59a49.93,49.93,0,0,1-10.63,4.47A12.15,12.15,0,0,1,505.18,529.89Zm83.8-1.07a.6.6,0,0,1-.57-.42.59.59,0,0,1,.25-.66,20,20,0,0,0,4.22-3.33,25.81,25.81,0,0,1,3.31-2.87c3.61-2.67,5.35-7.34,7.42-13.65.36-1.11,1.7-1.67,3.24-2.33,1.92-.81,4.31-1.82,5.53-4.11l1-1.8c2.82-5.26,4-7.46,4.29-8.81.16-1.51-1.21-4-2.42-6.26a29.64,29.64,0,0,1-1.93-4,.57.57,0,0,1,.09-.59.58.58,0,0,1,1,.21,28.83,28.83,0,0,0,1.85,3.82c1.37,2.5,2.78,5.11,2.55,7v.06c-.32,1.5-1.52,3.74-4.4,9.14l-1,1.79c-1.42,2.66-4,3.75-6.11,4.64-1.23.52-2.39,1-2.59,1.61-1.79,5.48-3.65,11.14-7.83,14.23a24.68,24.68,0,0,0-3.19,2.76,21.35,21.35,0,0,1-4.41,3.49A.59.59,0,0,1,589,528.82Z" transform="translate(-136.9 -417.62)"/></g><g id="path5126"><path d="M583.2,482.47h0a.58.58,0,0,1-.41-.18.6.6,0,0,1-.15-.42c0-.8.1-1.61.16-2.4.42-5.24.83-10.18-7.11-13.61-1.88-.81-4.73-.42-8,1.13a20.35,20.35,0,0,0-6.21,4.23.58.58,0,0,1-.9-.73c1.82-2.22,10.5-7.91,15.62-5.7,8.7,3.76,8.23,9.61,7.81,14.77-.06.78-.13,1.58-.16,2.35A.58.58,0,0,1,583.2,482.47Z" transform="translate(-136.9 -417.62)"/></g><g id="path5128"><path d="M500.18,552.82a37.71,37.71,0,0,1-6.45-.65.6.6,0,0,1-.47-.68.58.58,0,0,1,.68-.47c5.62,1,10.36,1.09,15.25-1.67a.58.58,0,0,1,.77.24.58.58,0,0,1-.2.78A18.8,18.8,0,0,1,500.18,552.82Z" transform="translate(-136.9 -417.62)"/></g><g id="path5130"><path d="M518.83,555.74a.59.59,0,0,1-.36-.13c-4.05-3.24-7.27-4.34-12.14-6a9.39,9.39,0,0,1-5.56-5.45,10.35,10.35,0,0,1,.29-8.59,44.21,44.21,0,0,0,2.92-6.5.58.58,0,0,1,1.12.3,43.47,43.47,0,0,1-3,6.73,9.21,9.21,0,0,0-.25,7.62,8.29,8.29,0,0,0,4.87,4.8c5,1.7,8.27,2.83,12.48,6.2a.58.58,0,0,1,.2.65.57.57,0,0,1-.56.39Z" transform="translate(-136.9 -417.62)"/></g><g id="path5132"><path d="M523.2,512.65a.6.6,0,0,1-.32-.1.58.58,0,0,1-.16-.81c1.21-1.77.92-4.16-.94-7.77a.58.58,0,1,1,1-.53c1.4,2.71,2.77,6.18.87,8.95A.56.56,0,0,1,523.2,512.65Z" transform="translate(-136.9 -417.62)"/></g><g id="path5134"><path d="M519.49,524.74a.56.56,0,0,1-.46-.23c-.12-.15-2.9-3.81-3.47-7.09a.58.58,0,0,1,1.15-.2c.51,3,3.22,6.54,3.24,6.58a.58.58,0,0,1-.1.81A.59.59,0,0,1,519.49,524.74Z" transform="translate(-136.9 -417.62)"/></g><g id="path5136"><path d="M519.5,536.7a.57.57,0,0,1-.57-.49,19.74,19.74,0,0,0-4.46-9.46.58.58,0,0,1,0-.82.59.59,0,0,1,.83,0A20.81,20.81,0,0,1,520.08,536a.59.59,0,0,1-.49.66Z" transform="translate(-136.9 -417.62)"/></g><g id="path5138"><path d="M573.21,519a.59.59,0,0,1-.54-.37.57.57,0,0,1,.13-.63c2.49-2.38,8.56-7.69,8.63-7.74a.58.58,0,0,1,.77.87c-.07.06-6.13,5.35-8.59,7.71A.59.59,0,0,1,573.21,519Z" transform="translate(-136.9 -417.62)"/></g><g id="path5140"><path d="M539.78,518.5a.56.56,0,0,1-.37-.13c-1.88-1.6-3.4-5.13-2.53-9.41a.58.58,0,0,1,.38-.46.58.58,0,0,1,.76.69c-.77,3.79.57,7,2.14,8.29a.59.59,0,0,1,.17.64A.58.58,0,0,1,539.78,518.5Z" transform="translate(-136.9 -417.62)"/></g><g id="path5142"><path d="M606.38,494.31h-.06c-.32,0-8-.85-10-3.76a.59.59,0,0,1,.41-.94.58.58,0,0,1,.54.27c1.46,2.07,7.15,3.07,9.21,3.28a.57.57,0,0,1,.51.6.58.58,0,0,1-.57.56Z" transform="translate(-136.9 -417.62)"/></g><g id="path5144"><path d="M519.6,547.31a.58.58,0,0,1-.35-1c1.26-1,7.66-5.82,9.62-5.88.79,0,2,.07,3.43.18a33.49,33.49,0,0,0,6.73.1,15.91,15.91,0,0,0,6.05-2.69,18.58,18.58,0,0,1,6.08-2.82,11.85,11.85,0,0,1,3.41.2c2.79.37,7,.92,10.75-.12,2.12-.59,6.24-1,12.24-1.33,1.32-.06,3.84.63,6.75,1.45,3.6,1,7.67,2.15,9.75,1.86,1.82-.25,4.15-1.58,6.85-3.13a64.88,64.88,0,0,1,9.22-4.59.6.6,0,0,1,.76.34.59.59,0,0,1-.34.75,62.52,62.52,0,0,0-9,4.51c-2.92,1.67-5.23,3-7.28,3.27-2.31.32-6.51-.85-10.22-1.89-2.7-.75-5.24-1.46-6.38-1.41-7.37.37-10.59.9-12,1.29-4,1.1-8.33.53-11.2.15a12.11,12.11,0,0,0-3-.21A17.5,17.5,0,0,0,545.7,539a17.11,17.11,0,0,1-6.46,2.85,32.92,32.92,0,0,1-7-.09c-1.32-.1-2.57-.19-3.3-.17-1.22,0-6.14,3.48-8.95,5.63A.55.55,0,0,1,519.6,547.31Z" transform="translate(-136.9 -417.62)"/></g><g id="path5146"><path d="M620.47,547.46a.63.63,0,0,1-.42-.17,77.4,77.4,0,0,0-7-5.9,96.84,96.84,0,0,1-9.3-8,.59.59,0,0,1,0-.8.58.58,0,0,1,.8,0,92.57,92.57,0,0,0,9.2,7.88,80.62,80.62,0,0,1,7.07,6,.58.58,0,0,1-.42,1Z" transform="translate(-136.9 -417.62)"/></g><g id="path5148"><path d="M637.18,553.15a.58.58,0,0,1-.56-.41.59.59,0,0,1,.23-.65,20.68,20.68,0,0,1,4.14-2,22.24,22.24,0,0,0,5.36-2.76,18.87,18.87,0,0,0,3.79-4.45,16.52,16.52,0,0,1,2.76-3.36.58.58,0,1,1,.72.91,15.15,15.15,0,0,0-2.52,3.13,19.94,19.94,0,0,1-4.06,4.72,23.94,23.94,0,0,1-5.62,2.9,19.46,19.46,0,0,0-3.91,1.91A.63.63,0,0,1,637.18,553.15Z" transform="translate(-136.9 -417.62)"/></g><g id="path5150"><path d="M621.06,534.81H621a.59.59,0,0,1-.53-.63c.69-7.79-.05-13.47-2.42-18.42-2.44-5.12-8.76-10.64-8.82-10.7a.58.58,0,1,1,.76-.87c.27.23,6.56,5.73,9.11,11.07,2.46,5.15,3.24,11,2.53,19A.59.59,0,0,1,621.06,534.81Z" transform="translate(-136.9 -417.62)"/></g><g id="path5152"><path d="M658.86,522.64a.6.6,0,0,1-.54-.36c-2.64-6.27-9.25-15-14.78-15.11a.59.59,0,0,1-.54-.59.58.58,0,0,1,.56-.57c6.3.11,13.17,9.51,15.84,15.82a.59.59,0,0,1-.31.76A.64.64,0,0,1,658.86,522.64Z" transform="translate(-136.9 -417.62)"/></g><g id="path5154"><path d="M639.55,545.49a.58.58,0,0,1-.56-.41,8,8,0,0,0-2-2.18c-1.74-1.56-3.72-3.32-3-5.27.7-1.75,2.77-2.87,5-4A25.69,25.69,0,0,0,643.1,531c2.11-1.75,3.31-4.32,4.27-6.38.28-.58.54-1.14.78-1.6a.58.58,0,0,1,1,.55c-.23.44-.49,1-.75,1.55-1,2.05-2.28,4.85-4.59,6.77a25.68,25.68,0,0,1-4.27,2.68c-2,1.08-3.9,2.09-4.43,3.46-.48,1.19,1.18,2.67,2.63,4a7.62,7.62,0,0,1,2.32,2.69.57.57,0,0,1-.08.52.58.58,0,0,1-.47.24Z" transform="translate(-136.9 -417.62)"/></g><g id="path5156"><path d="M643.86,512.06a.59.59,0,0,1-.58-.53c-.16-1.89,0-9.09.16-12.37s-3.62-8.88-6.05-9.79a.57.57,0,0,1-.33-.75.58.58,0,0,1,.75-.34c3.09,1.16,7,7.39,6.81,10.93s-.31,10.52-.17,12.22a.57.57,0,0,1-.53.62Z" transform="translate(-136.9 -417.62)"/></g><g id="path5158"><path d="M624.69,517.52a13.7,13.7,0,0,1-6.09-1.17.58.58,0,1,1,.52-1c4.2,2.13,13,1,18.87-2.51a.59.59,0,0,1,.8.21.58.58,0,0,1-.21.79A28.87,28.87,0,0,1,624.69,517.52Z" transform="translate(-136.9 -417.62)"/></g><g id="path5160"><path d="M633.23,503.51a.59.59,0,0,1-.45-.21c-2.54-3-1-5.61.42-7.91a9.5,9.5,0,0,0,1.67-4c.25-3.63-2.56-5.72-13.07-11.56a.58.58,0,1,1,.56-1c10.37,5.76,14,8.18,13.66,12.66a10.38,10.38,0,0,1-1.84,4.52c-1.35,2.25-2.52,4.19-.52,6.56a.58.58,0,0,1,.09.62.59.59,0,0,1-.53.33Z" transform="translate(-136.9 -417.62)"/></g><g id="path5162"><path d="M635.47,490.28a.58.58,0,0,1-.58-.55,8.34,8.34,0,0,1,.28-2.22,5.85,5.85,0,0,0-.27-4.32,32.49,32.49,0,0,0-8.71-10.07.59.59,0,0,1,0-1.05.63.63,0,0,1,.62.07c2.41,1.58,7.31,6.7,9.12,10.56a7,7,0,0,1,.36,5.07,6.79,6.79,0,0,0-.25,1.9.59.59,0,0,1-.55.61Z" transform="translate(-136.9 -417.62)"/></g><g id="path5164"><path d="M637.48,531.44a.58.58,0,0,1-.56-.45c-.18-.74-.35-1.59-.53-2.48-.87-4.23-2.07-10-4.58-12.42a.58.58,0,0,1,0-.78.57.57,0,0,1,.78,0c2.77,2.65,4,8.64,4.91,13,.18.89.35,1.73.52,2.45a.58.58,0,0,1-.44.7Z" transform="translate(-136.9 -417.62)"/></g><g id="path5166"><path d="M463.47,518.39c-2.33,0-4.84-1-7.16-1.9-2.82-1.1-5.48-2.14-7.34-1.38a.58.58,0,0,1-.44-1.07c2.3-.95,5.16.18,8.2,1.37,3.56,1.4,7.24,2.84,9.87.82a.6.6,0,0,1,.6-.1.57.57,0,0,1,.36.48.56.56,0,0,1-.25.54A6.11,6.11,0,0,1,463.47,518.39Z" transform="translate(-136.9 -417.62)"/></g><g id="path5168"><path d="M453.32,495.41h-.06a11.65,11.65,0,0,1-4.69-2,24.9,24.9,0,0,0-2.41-1.37.59.59,0,0,1-.23-.76.58.58,0,0,1,.73-.29,26.12,26.12,0,0,1,2.53,1.43,10.79,10.79,0,0,0,4.2,1.84.58.58,0,0,1,.53.61.59.59,0,0,1-.59.55Z" transform="translate(-136.9 -417.62)"/></g><g id="path5170"><path d="M634.32,477.57a.52.52,0,0,1-.27-.07,8.11,8.11,0,0,1-2.07-2.23,11.44,11.44,0,0,0-1.83-2.1c-1.11-.82-1.06-2.74-1-4.59,0-.55,0-1.07,0-1.51a.59.59,0,0,1,.55-.59.58.58,0,0,1,.61.54c0,.47,0,1,0,1.59,0,1.34-.08,3.17.54,3.63a12.21,12.21,0,0,1,2.07,2.35,8.07,8.07,0,0,0,1.69,1.89.59.59,0,0,1,.28.66.58.58,0,0,1-.56.44Z" transform="translate(-136.9 -417.62)"/></g><g id="path5172"><path d="M627,482.61a.58.58,0,0,1-.57-.49,17.47,17.47,0,0,1,0-3.4c.11-1.68.22-3.42-.26-4.38a.59.59,0,0,1,.26-.78.6.6,0,0,1,.79.26c.62,1.24.49,3.14.37,5a15.76,15.76,0,0,0,0,3.15.61.61,0,0,1-.11.43.59.59,0,0,1-.38.23Z" transform="translate(-136.9 -417.62)"/></g><g id="path5174"><path d="M649.46,535.77a.58.58,0,0,1-.41-.17l-.21-.21a15.48,15.48,0,0,0-5-3.76.58.58,0,0,1-.34-.75.58.58,0,0,1,.75-.33,16.5,16.5,0,0,1,5.41,4l.21.21a.58.58,0,0,1-.42,1Z" transform="translate(-136.9 -417.62)"/></g><g id="path5176"><path d="M649.25,486.3a.59.59,0,0,1-.29-1.09c1.16-.66,1.91-3.39,1.91-5a.59.59,0,0,1,.28-.54.59.59,0,0,1,.6,0,.59.59,0,0,1,.28.54c0,1.59-.73,5-2.5,6A.6.6,0,0,1,649.25,486.3Z" transform="translate(-136.9 -417.62)"/></g><g id="path5178"><path d="M640.15,473a.58.58,0,0,1-.49-.27.59.59,0,0,1,0-.56,16.11,16.11,0,0,0,1-5.26.58.58,0,0,1,1.16,0,16.64,16.64,0,0,1-1.1,5.77A.57.57,0,0,1,640.15,473Z" transform="translate(-136.9 -417.62)"/></g><g id="path5180"><path d="M655.09,501.13a.54.54,0,0,1-.25-.06.6.6,0,0,1-.3-.33.56.56,0,0,1,0-.44A16.71,16.71,0,0,1,656,498c1-1.37,1.86-2.66,1.86-4.13a.59.59,0,0,1,1.17,0c0,1.83-1.06,3.34-2.09,4.8a14.9,14.9,0,0,0-1.32,2.11A.6.6,0,0,1,655.09,501.13Z" transform="translate(-136.9 -417.62)"/></g><g id="path5182"><path d="M483.52,478.21a.59.59,0,0,1-.36-.13l-1.2-.93c-2.71-2.09-5.53-4.27-5.75-8.37a.57.57,0,0,1,.54-.6.59.59,0,0,1,.62.54c.19,3.57,2.56,5.39,5.3,7.51.4.31.81.62,1.22.95a.56.56,0,0,1,.19.65.57.57,0,0,1-.56.39Z" transform="translate(-136.9 -417.62)"/></g><g id="path5184"><path d="M495.77,442.51a.64.64,0,0,1-.3-.08.58.58,0,0,1-.19-.8c1.46-2.4,1-4.08.53-5.86-.1-.4-.21-.81-.3-1.22a.58.58,0,0,1,1.14-.24c.08.38.18.76.29,1.16.49,1.84,1.05,3.94-.67,6.76A.57.57,0,0,1,495.77,442.51Z" transform="translate(-136.9 -417.62)"/></g><g id="path5186"><path d="M455.51,466.24a.58.58,0,0,1-.36-1c7.56-5.94,12.26-12.55,14.34-20.21a.61.61,0,0,1,.41-.44.62.62,0,0,1,.58.16.59.59,0,0,1,.14.58c-2.16,7.91-7,14.72-14.75,20.82A.59.59,0,0,1,455.51,466.24Z" transform="translate(-136.9 -417.62)"/></g><g id="path5188"><path d="M454,459.35a.58.58,0,0,1-.26-1.1c3-1.52,6.36-2.94,10.62-2.2a.59.59,0,0,1,.44.67.58.58,0,0,1-.64.48c-3.91-.68-7,.66-9.9,2.09A.58.58,0,0,1,454,459.35Z" transform="translate(-136.9 -417.62)"/></g><g id="path5190"><path d="M545.38,477.42a.63.63,0,0,1-.42-.17.63.63,0,0,1-.16-.42,58.88,58.88,0,0,1,2.28-16.52,10.78,10.78,0,0,1,2.63-4.36,14.72,14.72,0,0,0,1.8-2.36,26.75,26.75,0,0,0,1.44-3.13c.86-2.08,1.75-4.22,3.13-5.36,8.73-7.23,21.6-5.51,33.59,4.49a.6.6,0,0,1,.23.56.58.58,0,0,1-.39.45.54.54,0,0,1-.58-.12c-11.54-9.61-23.85-11.34-32.12-4.49-1.16,1-2,3-2.79,4.91a27.59,27.59,0,0,1-1.52,3.26,15,15,0,0,1-1.93,2.55,9.82,9.82,0,0,0-2.39,3.92,58.07,58.07,0,0,0-2.23,16.2A.59.59,0,0,1,545.38,477.42Z" transform="translate(-136.9 -417.62)"/></g><g id="path5192"><path d="M599.11,448.18a.59.59,0,0,1-.5-.29.6.6,0,0,1,0-.58c2.61-4.74,2.77-7.57.51-9.18-1.93-1.36-5.8-2-9.54-2.71A56,56,0,0,1,583,434a42.57,42.57,0,0,1-4.73-1.86c-3.3-1.48-5.91-2.64-9.18-1.45-4.46,1.62-9,6.79-8.81,12.64a.62.62,0,0,1-.16.41.58.58,0,0,1-1-.38c-.18-6.37,4.74-12,9.59-13.77,3.71-1.35,6.65,0,10,1.48a40.12,40.12,0,0,0,4.59,1.81,54.41,54.41,0,0,0,6.4,1.37c3.87.69,7.87,1.39,10,2.91,3.68,2.6,1.66,7.34-.16,10.68A.62.62,0,0,1,599.11,448.18Z" transform="translate(-136.9 -417.62)"/></g><g id="path5194"><path d="M543.54,438.84a.58.58,0,0,1-.55-.4c-1.37-4.08-.84-7.9,1.48-10.75,2.63-3.23,7.17-4.72,12.46-4.1a60.41,60.41,0,0,0,9.14.23c4.8-.13,9.32-.25,13.84,1.81,1.88.94,2,3.53,2,5.89a.56.56,0,0,1-.28.53.59.59,0,0,1-.6,0,.6.6,0,0,1-.28-.53c0-2-.1-4.21-1.36-4.84-4.26-1.94-8.65-1.82-13.3-1.7a62.91,62.91,0,0,1-9.32-.23c-4.88-.58-9,.76-11.41,3.67-2.07,2.53-2.52,6-1.29,9.65a.59.59,0,0,1-.37.74Z" transform="translate(-136.9 -417.62)"/></g><g id="path5196"><path d="M542.31,431.18a.57.57,0,0,1-.57-.53c-.21-2.5-2.39-4.53-4.18-5.78a24.12,24.12,0,0,0-6.74-3.2.58.58,0,1,1,.32-1.12c4.49,1.28,11.33,5,11.75,10a.59.59,0,0,1-.53.63Z" transform="translate(-136.9 -417.62)"/></g><g id="path5198"><path d="M598.35,433.33c-2.74,0-5.49-.25-8.14-.49A76.63,76.63,0,0,0,580,432.4a.58.58,0,1,1,0-1.16,75.24,75.24,0,0,1,10.35.44c2.64.23,5.37.48,8.05.48a.58.58,0,0,1,0,1.16Z" transform="translate(-136.9 -417.62)"/></g><g id="path5200"><path d="M621.31,466.7a.57.57,0,0,1-.29-.08c-4.08-2.38-7.31-6-10.44-9.43-6.49-7.2-12.62-14-25.71-10.41a.58.58,0,1,1-.3-1.12c13.78-3.78,20.44,3.61,26.88,10.75,3.06,3.4,6.23,6.92,10.15,9.21a.57.57,0,0,1,.27.65A.59.59,0,0,1,621.31,466.7Z" transform="translate(-136.9 -417.62)"/></g><g id="path5202"><path d="M633.86,471.9a.58.58,0,0,1-.57-.46,13.18,13.18,0,0,0-5.59-8.67c-3.44-2.27-8.11-2.95-13.16-1.9a.58.58,0,1,1-.24-1.14c5.36-1.11,10.34-.38,14,2.07a14.34,14.34,0,0,1,6.09,9.41.57.57,0,0,1-.45.68Z" transform="translate(-136.9 -417.62)"/></g><g id="path5204"><path d="M628.4,458.74a6.35,6.35,0,0,1-3.13-.78c-1.88-1-3.17-3-3.76-5.81a.58.58,0,0,1,1.13-.24,7.16,7.16,0,0,0,3.2,5c1.49.84,3.35.85,5.53.06a.58.58,0,0,1,.74.35.57.57,0,0,1-.35.74A9.88,9.88,0,0,1,628.4,458.74Z" transform="translate(-136.9 -417.62)"/></g><g id="path5206"><path d="M638,472.1H638a.57.57,0,0,1-.51-.64c1.29-12.07-6.83-15.65-15.42-19.43-6.43-2.84-13.09-5.78-16-12.47a.57.57,0,0,1,.3-.76.59.59,0,0,1,.77.3c2.69,6.27,9.13,9.12,15.36,11.86,8.6,3.79,17.48,7.71,16.1,20.62A.58.58,0,0,1,638,472.1Z" transform="translate(-136.9 -417.62)"/></g><g id="path5208"><path d="M620.54,451.54h0a.57.57,0,0,1-.4-.2.6.6,0,0,1-.14-.42c.24-3.09-1.25-9.49-13.84-17.68-7.6-4.93-17.19-9-23.32-9.87a.58.58,0,1,1,.17-1.15c6.28.9,16.06,5,23.78,10,5.62,3.66,15,11,14.37,18.74A.57.57,0,0,1,620.54,451.54Z" transform="translate(-136.9 -417.62)"/></g><g id="path5210"><path d="M555.94,424.45a.59.59,0,0,1-.56-.43.58.58,0,0,1,.26-.65c.55-.33,1.09-.68,1.61-1a15,15,0,0,1,5.88-2.7.58.58,0,1,1,.16,1.15,13.85,13.85,0,0,0-5.4,2.52c-.54.35-1.09.7-1.65,1A.55.55,0,0,1,555.94,424.45Z" transform="translate(-136.9 -417.62)"/></g><g id="path5212"><path d="M586.45,584.15l-.12,0c-12.47-2.5-20.77-6.53-27.74-13.5-.84-.83-.39-2.4,0-3.92a6.76,6.76,0,0,0,.37-1.78c-.77-.77-1.52-1.42-2.24-2-3.36-2.92-5.78-5-4.32-13.17a.58.58,0,0,1,.68-.46.57.57,0,0,1,.46.67c-1.34,7.48.76,9.32,3.94,12.09.75.65,1.53,1.33,2.34,2.14.55.55.26,1.58-.12,2.88-.26.91-.7,2.43-.34,2.78,6.79,6.8,14.91,10.74,27.15,13.19a.58.58,0,0,1-.11,1.15Z" transform="translate(-136.9 -417.62)"/></g><g id="path5214"><path d="M597.47,582.71c-7.56,0-16-1.28-24.63-2.73a.58.58,0,0,1,.19-1.15c27.11,4.56,44.35,5.77,55.11-15.76,1.21-2.43,1-8.52-.08-10.36a.59.59,0,0,1,.23-.77.6.6,0,0,1,.78.18c1.25,2.13,1.52,8.66.11,11.48C624,574.06,616.89,579.87,607,581.86A48,48,0,0,1,597.47,582.71Z" transform="translate(-136.9 -417.62)"/></g><g id="path5216"><path d="M519.06,559.87a.57.57,0,0,1-.58-.47.59.59,0,0,1,.37-.65c7.19-2.76,14.3-5.32,21.14-7.6a15.7,15.7,0,0,1,5.18-.19c2.36.14,5,.29,5.92-.59,2.87-2.87,9.42-1.38,15.76,0,4.35,1,8.85,2,10.72,1.07,11.84-5.92,25.17-3.68,38.06-1.51,7.64,1.29,14.86,2.51,21.51,2a.58.58,0,0,1,.08,1.16c-6.79.51-14.07-.72-21.78-2-12.71-2.14-25.85-4.35-37.35,1.4-2.24,1.12-6.53.15-11.49-1-5.75-1.3-12.27-2.77-14.69-.36-1.25,1.26-3.95,1.09-6.81.93a15.79,15.79,0,0,0-4.74.13c-6.82,2.28-13.92,4.83-21.09,7.59Z" transform="translate(-136.9 -417.62)"/></g><g id="path5218"><path d="M530.74,560a10.47,10.47,0,0,1-6.54-2.29.59.59,0,0,1-.08-.8.58.58,0,0,1,.79-.12c5,3.81,10,1.55,14.88-.64a37.76,37.76,0,0,1,4.81-1.91.58.58,0,0,1,.32,1.12,34.75,34.75,0,0,0-4.65,1.85C537.28,558.51,534.05,560,530.74,560Z" transform="translate(-136.9 -417.62)"/></g><g id="path5220"><path d="M530.22,559.93a.57.57,0,0,1-.58-.54.58.58,0,0,1,.5-.61c2.46-.36,3.88-1.95,5.39-3.63,1.88-2.08,3.82-4.25,7.76-3.88a.58.58,0,0,1,.5.63.58.58,0,0,1-.61.53c-3.36-.32-5,1.54-6.78,3.5-1.59,1.76-3.22,3.59-6.1,4Z" transform="translate(-136.9 -417.62)"/></g><g id="path5222"><path d="M560.87,564.81a13.71,13.71,0,0,1-1.43-.08.18.18,0,0,1-.15-.19.17.17,0,0,1,.19-.16c4.2.47,7.45-1.26,10.6-2.93.9-.48,1.75-.93,2.63-1.34a.17.17,0,1,1,.14.32c-.86.4-1.71.85-2.61,1.33C567.41,563.26,564.5,564.81,560.87,564.81Z" transform="translate(-136.9 -417.62)"/></g><g id="path5224"><path d="M594.07,566.61c-.92,0-1.86,0-2.82-.07a210.1,210.1,0,0,1-24.47-2.88.18.18,0,0,1,.06-.35,205.07,205.07,0,0,0,24.43,2.88,92.69,92.69,0,0,0,12.46-.46c1.46-.13,3-.25,4.48-.35a.17.17,0,0,1,.13,0,.17.17,0,0,1,0,.12.16.16,0,0,1,0,.13.17.17,0,0,1-.12.05c-1.51.1-3,.23-4.47.36C600.66,566.34,597.47,566.61,594.07,566.61Z" transform="translate(-136.9 -417.62)"/></g><g id="path5226"><path d="M605.77,564.35h0c-2.89-.12-5.87-.1-9-.08-7.17,0-14.57.08-21.4-1.54a.12.12,0,0,1-.11-.07.15.15,0,0,1,0-.13.15.15,0,0,1,.08-.11.15.15,0,0,1,.13,0c6.79,1.61,14.18,1.56,21.32,1.52,3.15,0,6.14,0,9,.08a.17.17,0,0,1,.16.17.18.18,0,0,1-.16.18Z" transform="translate(-136.9 -417.62)"/></g><g id="path5228"><path d="M594.44,562.75c-6.59,0-13.27-1.18-19.71-2.46a.2.2,0,0,1-.12-.2.18.18,0,0,1,.19-.14c10,2,20.55,3.73,30.43,1.18a.2.2,0,0,1,.18,0,.17.17,0,0,1,0,.18.16.16,0,0,1-.13.12A42.89,42.89,0,0,1,594.44,562.75Z" transform="translate(-136.9 -417.62)"/></g><g id="path5230"><path d="M634.94,556.33a8.63,8.63,0,0,1-4.65-1.27,12.88,12.88,0,0,0-1.29-.62.19.19,0,0,1-.12-.14.2.2,0,0,1,.07-.18.21.21,0,0,1,.19,0c.48.21.9.43,1.31.65a9,9,0,0,0,6.26,1.12.17.17,0,0,1,.19.15.18.18,0,0,1-.15.2C636.15,556.29,635.54,556.33,634.94,556.33Z" transform="translate(-136.9 -417.62)"/></g><g id="path5232"><path d="M634.69,558.65a16.23,16.23,0,0,1-5.32-.78.22.22,0,0,1-.1-.09.15.15,0,0,1,0-.13.18.18,0,0,1,.22-.11,18.28,18.28,0,0,0,6.71.73.19.19,0,0,1,.17.07.19.19,0,0,1,0,.19.17.17,0,0,1-.16.09C635.72,558.63,635.22,558.65,634.69,558.65Z" transform="translate(-136.9 -417.62)"/></g><g id="path5234"><path d="M634.77,563.18a.17.17,0,0,1-.17-.12c-.54-2-2.85-2.14-4.54-2.26l-.58,0a.17.17,0,0,1-.15-.19.18.18,0,0,1,.18-.16l.58.05c1.79.13,4.24.32,4.85,2.5a.2.2,0,0,1,0,.15.16.16,0,0,1-.14.07Z" transform="translate(-136.9 -417.62)"/></g><g id="path5236"><path d="M633.42,566.32a.18.18,0,0,1-.16-.1c-.58-1.25-2.14-2.05-4.51-2.28a.18.18,0,0,1-.16-.19.18.18,0,0,1,.2-.16c2.53.25,4.14,1.09,4.79,2.49a.18.18,0,0,1-.08.23Z" transform="translate(-136.9 -417.62)"/></g><g id="path5238"><path d="M631.6,569.61h0a.19.19,0,0,1-.12-.07.13.13,0,0,1,0-.12c.13-1.07-.87-1.32-2.67-1.65a19,19,0,0,1-2.23-.53.18.18,0,0,1-.1-.22.16.16,0,0,1,.21-.11,16.55,16.55,0,0,0,2.19.51c1.68.32,3.13.59,2.94,2A.17.17,0,0,1,631.6,569.61Z" transform="translate(-136.9 -417.62)"/></g><g id="path5240"><path d="M629.34,572.75h0a.19.19,0,0,1-.12-.07.17.17,0,0,1,0-.12c.18-1.81-1.13-2.37-3.13-3.21l-.53-.23a.17.17,0,0,1-.09-.23.19.19,0,0,1,.23-.09l.53.23c2,.83,3.54,1.5,3.34,3.56A.19.19,0,0,1,629.34,572.75Z" transform="translate(-136.9 -417.62)"/></g><g id="path5242"><path d="M627,575.63a.17.17,0,0,1-.16-.11l-.15-.43c-.56-1.56-1-2.8-3-3.58a.17.17,0,0,1-.09-.22.18.18,0,0,1,.21-.11c2.15.84,2.64,2.21,3.21,3.8,0,.14.1.28.15.41a.19.19,0,0,1-.11.23Z" transform="translate(-136.9 -417.62)"/></g><g id="path5244"><path d="M625.41,576.82a.18.18,0,0,1-.17-.11,5.92,5.92,0,0,0-3.11-3.48.18.18,0,0,1-.11-.15.18.18,0,0,1,.09-.16.15.15,0,0,1,.18,0,6.23,6.23,0,0,1,3.28,3.67.17.17,0,0,1-.1.22Z" transform="translate(-136.9 -417.62)"/></g><g id="path5246"><path d="M623.36,578.18h0a.17.17,0,0,1-.14-.21c.13-.76-.63-1.34-1.56-2.09a14.2,14.2,0,0,1-1.39-1.18.16.16,0,0,1,0-.24.18.18,0,0,1,.25,0,13.63,13.63,0,0,0,1.35,1.15c1,.77,1.85,1.44,1.69,2.41A.18.18,0,0,1,623.36,578.18Z" transform="translate(-136.9 -417.62)"/></g><g id="path5248"><path d="M620.25,579.26a.16.16,0,0,1-.16-.12,6.21,6.21,0,0,0-.9-1.46c-.26-.37-.57-.78-.91-1.31a.17.17,0,0,1,.05-.24.14.14,0,0,1,.13,0,.21.21,0,0,1,.11.08c.34.52.64.93.9,1.29a6.31,6.31,0,0,1,.95,1.56.18.18,0,0,1-.11.22Z" transform="translate(-136.9 -417.62)"/></g><g id="path5250"><path d="M617,565.72c-3.79,0-7.28-.7-8.88-2.41a.18.18,0,0,1,0-.25.18.18,0,0,1,.25,0c1.46,1.57,4.86,2.41,9.3,2.29a29.66,29.66,0,0,0,10.7-2.11.19.19,0,0,1,.19,0,.18.18,0,0,1,.07.17.16.16,0,0,1-.11.14A30.32,30.32,0,0,1,617,565.72Z" transform="translate(-136.9 -417.62)"/></g><g id="path5252"><path d="M627,564.19a.17.17,0,0,1-.16-.12A33.41,33.41,0,0,0,623,556.4c-1.47-2.16-3.8-4.89-6.51-5.64a.19.19,0,0,1-.13-.21.18.18,0,0,1,.21-.12c4.89,1.35,9.1,9,10.6,13.53a.16.16,0,0,1-.11.21Z" transform="translate(-136.9 -417.62)"/></g><g id="path5254"><path d="M623.92,565a.16.16,0,0,1-.15-.09c-2.57-4.76-10.62-12.25-15.84-15.52a.17.17,0,0,1,0-.23.18.18,0,0,1,.23-.07c5.26,3.29,13.37,10.85,16,15.65a.17.17,0,0,1-.07.24Z" transform="translate(-136.9 -417.62)"/></g><g id="path5256"><path d="M620.31,565.57a.18.18,0,0,1-.15-.1c-2.2-4.76-11.11-13.31-15.82-16.56a.16.16,0,0,1,0-.24.12.12,0,0,1,.11-.07.16.16,0,0,1,.13,0c4.74,3.25,13.71,11.89,15.93,16.69a.18.18,0,0,1-.08.23Z" transform="translate(-136.9 -417.62)"/></g><g id="path5258"><path d="M617.86,565.72a.17.17,0,0,1-.16-.11c-1.24-2.69-7.55-9.7-13.73-13.89a21.68,21.68,0,0,0-6.24-2.56,17.44,17.44,0,0,1-2.44-.81.19.19,0,0,1-.09-.24.22.22,0,0,1,.1-.09.23.23,0,0,1,.14,0,18.25,18.25,0,0,0,2.4.8,22,22,0,0,1,6.33,2.6c6.46,4.38,12.61,11.34,13.85,14a.15.15,0,0,1,0,.13.18.18,0,0,1-.09.1Z" transform="translate(-136.9 -417.62)"/></g><g id="path5260"><path d="M614.63,565.62a.16.16,0,0,1-.15-.09c-1.37-2.4-6.69-8.58-13.35-12.62a31.85,31.85,0,0,0-7.4-2.83,14.81,14.81,0,0,1-3.92-1.45.17.17,0,0,1-.09-.16.17.17,0,0,1,.12-.15.16.16,0,0,1,.18,0,15.17,15.17,0,0,0,3.8,1.38,32.13,32.13,0,0,1,7.49,2.88c6.7,4.07,12.08,10.3,13.46,12.74a.18.18,0,0,1-.06.24Z" transform="translate(-136.9 -417.62)"/></g><g id="path5262"><path d="M611.4,565.05a.17.17,0,0,1-.16-.12c-.46-1.38-7.33-8.65-15-12.82-2-1.09-6.16-1.79-8.64-2.21a16.78,16.78,0,0,1-2.3-.46.18.18,0,0,1-.08-.23.16.16,0,0,1,.23-.08,20.06,20.06,0,0,0,2.2.43c2.66.45,6.69,1.13,8.74,2.24,7.53,4.08,14.63,11.33,15.18,13a.16.16,0,0,1-.11.21Z" transform="translate(-136.9 -417.62)"/></g><g id="path5264"><path d="M594.78,580.6c-.62,0-1.27,0-1.94,0-2.6-.06-5.71-.37-9-.69a92.57,92.57,0,0,0-12.2-.72.17.17,0,0,1-.17-.16.19.19,0,0,1,.15-.19,95,95,0,0,1,12.26.72c3.29.33,6.39.63,9,.69,3.84.09,6.92-.1,9.91-.28,2.8-.17,5.69-.35,9.18-.29a.17.17,0,0,1,.17.17.18.18,0,0,1-.17.18h0c-3.47-.06-6.36.12-9.15.29C600.31,580.45,597.77,580.6,594.78,580.6Z" transform="translate(-136.9 -417.62)"/></g><g id="path5266"><path d="M594.78,578.15c-.76,0-1.49,0-2.17,0H590.9c-6.84,0-13.29,0-18.7-1.71-5.89-1.88-10-5.61-12.9-11.78a.17.17,0,0,1,0-.18.15.15,0,0,1,.16-.08.19.19,0,0,1,.15.11c6.27,13.29,17.31,13.29,31.28,13.29h1.71c3.44,0,8.14.09,10.92-.84s6.83-.31,10.29.27c.83.14,1.64.27,2.41.38a.18.18,0,0,1,.15.2.18.18,0,0,1-.2.14c-.78-.11-1.58-.24-2.42-.38-3.42-.57-7.29-1.22-10.11-.28C601.37,578,597.87,578.15,594.78,578.15Z" transform="translate(-136.9 -417.62)"/></g><g id="path5268"><path d="M582.22,576c-8.65,0-16.63-2.35-20.73-11.3a.18.18,0,0,1,.08-.23.19.19,0,0,1,.24.09c6.46,14.09,22.84,11.52,36,9.47,1.43-.23,2.77-.44,4.09-.63a.18.18,0,0,1,.19.15.19.19,0,0,1-.14.2c-1.32.18-2.66.39-4.08.62A103.48,103.48,0,0,1,582.22,576Z" transform="translate(-136.9 -417.62)"/></g><g id="path5270"><path d="M624.1,566.92a14.48,14.48,0,0,1-6.32-1.23.18.18,0,0,1-.07-.23.18.18,0,0,1,.23-.08c2.68,1.39,6.9,1.34,8.94,1a.17.17,0,0,1,.2.14.18.18,0,0,1-.14.2A16.89,16.89,0,0,1,624.1,566.92Z" transform="translate(-136.9 -417.62)"/></g><g id="path5272"><path d="M625.57,569.14h0c-.42-.06-.82-.1-1.2-.14a15.68,15.68,0,0,1-4.07-.85.18.18,0,0,1-.09-.22.18.18,0,0,1,.21-.11,14.91,14.91,0,0,0,4,.83c.39,0,.79.08,1.22.14a.18.18,0,0,1,.16.18A.19.19,0,0,1,625.57,569.14Z" transform="translate(-136.9 -417.62)"/></g><g id="path5274"><path d="M622.15,571.64a16.88,16.88,0,0,1-6.13-1.46c-.56-.21-1.09-.42-1.63-.6a50.44,50.44,0,0,0-7-1.63c-.82-.15-1.69-.31-2.62-.5a.12.12,0,0,1-.11-.07.16.16,0,0,1,0-.13.17.17,0,0,1,.21-.14l2.62.49a51.65,51.65,0,0,1,7.07,1.65c.55.18,1.1.39,1.64.6,2.3.86,4.66,1.76,7.59,1.31a.18.18,0,0,1,.18.15.17.17,0,0,1-.13.19A9.87,9.87,0,0,1,622.15,571.64Z" transform="translate(-136.9 -417.62)"/></g><g id="path5276"><path d="M622.21,573.25h0c-6.91-.49-12.42-1.44-18.5-4.68a.16.16,0,0,1-.07-.23.22.22,0,0,1,.1-.09.2.2,0,0,1,.13,0c6,3.21,11.5,4.15,18.36,4.63a.17.17,0,0,1,.12.06.16.16,0,0,1,0,.13A.17.17,0,0,1,622.21,573.25Z" transform="translate(-136.9 -417.62)"/></g><g id="path5278"><path d="M619,576h0a41.67,41.67,0,0,1-12.56-3.75,42.69,42.69,0,0,0-11.58-3.63.17.17,0,0,1-.15-.2.17.17,0,0,1,.2-.14,43,43,0,0,1,11.67,3.64,41.28,41.28,0,0,0,12.45,3.74.18.18,0,0,1,0,.35Z" transform="translate(-136.9 -417.62)"/></g><g id="path5280"><path d="M610.38,577.05l-.06,0c-1.66-.68-3.42-1.36-5.13-2-2.54-1-5.16-2-7.46-3-.87-.4-1.65-.84-2.41-1.26a13.75,13.75,0,0,0-4.88-1.93.17.17,0,0,1-.14-.19.18.18,0,0,1,.19-.15,14.24,14.24,0,0,1,5,2c.74.42,1.52.83,2.38,1.23,2.29,1.05,4.91,2.05,7.44,3,1.71.66,3.47,1.34,5.13,2a.16.16,0,0,1,.1.19.16.16,0,0,1-.16.14Z" transform="translate(-136.9 -417.62)"/></g><g id="path5282"><path d="M597.56,574.28l-.09,0c-4.78-2.88-15.52-3.34-24.15-3.72-3-.13-5.85-.25-8.14-.46a.16.16,0,0,1-.15-.1.17.17,0,0,1,0-.18.19.19,0,0,1,.17-.07c2.27.21,5.11.33,8.12.46,8.67.38,19.46.84,24.31,3.76a.17.17,0,0,1-.09.32Z" transform="translate(-136.9 -417.62)"/></g><g id="path5284"><path d="M579.54,568.36c-2.46,0-4.87-.06-7.12-.1-1.86,0-3.62-.08-5.15-.08a.18.18,0,0,1-.18-.18.17.17,0,0,1,.18-.17c1.53,0,3.29,0,5.16.08,7.89.17,17.7.38,24.65-1.78a.16.16,0,0,1,.2.12.17.17,0,0,1-.1.22C592.18,568,585.71,568.36,579.54,568.36Z" transform="translate(-136.9 -417.62)"/></g><g id="path5286"><path d="M567.44,552.46a72.9,72.9,0,0,1-7.54-.67,59,59,0,0,0-7.06-.6.19.19,0,0,1-.13-.05.18.18,0,0,1-.05-.12.17.17,0,0,1,.17-.18,57.79,57.79,0,0,1,7.11.61,49.23,49.23,0,0,0,8.69.61.18.18,0,0,1,.19.15.15.15,0,0,1,0,.13.19.19,0,0,1-.11.07A10.12,10.12,0,0,1,567.44,552.46Z" transform="translate(-136.9 -417.62)"/></g><g id="path5288"><path d="M563.11,555.28a21.23,21.23,0,0,1-10.6-2.54.18.18,0,0,1,0-.24.17.17,0,0,1,.23-.06c3.63,2.24,9.77,3.09,14.93,2.07a21.87,21.87,0,0,0,3.52-1.1,36.21,36.21,0,0,1,3.47-1.16.18.18,0,0,1,.23.22.19.19,0,0,1-.14.12,34.63,34.63,0,0,0-3.44,1.14,19.43,19.43,0,0,1-8.15,1.55Z" transform="translate(-136.9 -417.62)"/></g><g id="path5290"><path d="M563.6,559a29.89,29.89,0,0,1-8.09-1.38c-1-.25-1.84-.5-2.71-.68a.17.17,0,0,1-.14-.21.18.18,0,0,1,.21-.13c.87.18,1.77.43,2.71.69,3.15.85,6.73,1.82,10.95,1.12,3.28-.55,8.05-2.57,9.64-4.59a.19.19,0,0,1,.12-.07.22.22,0,0,1,.13,0,.17.17,0,0,1,.06.12.17.17,0,0,1,0,.12c-1.8,2.29-7,4.24-9.86,4.73A18.74,18.74,0,0,1,563.6,559Z" transform="translate(-136.9 -417.62)"/></g><g id="path5292"><path d="M562.1,557.49a18.47,18.47,0,0,1-9.6-2.57.19.19,0,0,1,0-.32.19.19,0,0,1,.19,0,18.73,18.73,0,0,0,16.69,1,50.47,50.47,0,0,1,5.57-2,.18.18,0,0,1,.2.13.17.17,0,0,1-.1.21,49,49,0,0,0-5.53,2A18,18,0,0,1,562.1,557.49Z" transform="translate(-136.9 -417.62)"/></g><g id="path5294"><path d="M559.6,560.44a47.51,47.51,0,0,1-5.34-.27.18.18,0,0,1-.14-.19.18.18,0,0,1,.18-.16,56.1,56.1,0,0,0,12.06-.11c3.83-.45,9.07-1.51,12.27-4a.17.17,0,0,1,.13,0,.17.17,0,0,1,.12.06.19.19,0,0,1,0,.25C574.38,559.46,565.88,560.44,559.6,560.44Z" transform="translate(-136.9 -417.62)"/></g><g id="path5296"><path d="M601.56,560.57a125.55,125.55,0,0,1-13.93-1,125.13,125.13,0,0,0-14-1h0a.15.15,0,0,1-.16-.08.15.15,0,0,1,0-.18.15.15,0,0,1,.16-.08,123.37,123.37,0,0,1,14,1,125,125,0,0,0,13.89,1,.17.17,0,0,1,.17.08.19.19,0,0,1,0,.18.17.17,0,0,1-.17.08Z" transform="translate(-136.9 -417.62)"/></g><g id="path5298"><path d="M601.56,560.57a.16.16,0,0,1-.12,0c-5.42-4.8-10.85-9.23-17.69-10.66a.18.18,0,0,1-.12-.21.18.18,0,0,1,.19-.14c6.92,1.46,12.39,5.92,17.85,10.75a.18.18,0,0,1,0,.25A.21.21,0,0,1,601.56,560.57Z" transform="translate(-136.9 -417.62)"/></g><g id="path5300"><path d="M598.5,560.5a.18.18,0,0,1-.15-.08c-3.77-5.63-13.43-8.07-21.31-8h0a.18.18,0,0,1-.17-.17.21.21,0,0,1,0-.13.17.17,0,0,1,.12,0c8-.09,17.76,2.39,21.6,8.14a.16.16,0,0,1,0,.13.15.15,0,0,1-.08.11A.15.15,0,0,1,598.5,560.5Z" transform="translate(-136.9 -417.62)"/></g><g id="path5302"><path d="M595.15,560.29a.18.18,0,0,1-.16-.1c-2.28-4.69-11.52-5.84-17.63-6.58l-1.62-.21a.18.18,0,0,1-.15-.2.19.19,0,0,1,.2-.15l1.61.21c6.19.76,15.55,1.91,17.9,6.78a.17.17,0,0,1-.08.23Z" transform="translate(-136.9 -417.62)"/></g><g id="path5304"><path d="M587.62,575.46c-7.78,0-15.7-1.88-21.49-5.32a.18.18,0,0,1-.1-.15.17.17,0,0,1,.09-.16.19.19,0,0,1,.19,0c8.05,4.78,20.29,6.52,30.43,4.33a.17.17,0,0,1,.21.14.17.17,0,0,1-.14.2A43.64,43.64,0,0,1,587.62,575.46Z" transform="translate(-136.9 -417.62)"/></g><g id="path5306"><path d="M522,430.23a.59.59,0,0,1-.42-.17c-1-1-1-2.34-1-3.64a10,10,0,0,0-.14-2,.58.58,0,0,1,1.14-.23,10.77,10.77,0,0,1,.16,2.2c0,1.16,0,2.17.67,2.82a.6.6,0,0,1,.12.64.59.59,0,0,1-.54.35Z" transform="translate(-136.9 -417.62)"/></g><g id="path5308"><path d="M520.21,433.47a.58.58,0,0,1-.58-.58,12.83,12.83,0,0,0-.52-3.53.58.58,0,1,1,1.12-.3,13.52,13.52,0,0,1,.56,3.84A.57.57,0,0,1,520.21,433.47Z" transform="translate(-136.9 -417.62)"/></g><g id="path5310"><path d="M618.21,491.53a.58.58,0,0,1-.35-1,13.42,13.42,0,0,1,3-1.37.59.59,0,0,1,.72.35.58.58,0,0,1-.31.74,13.69,13.69,0,0,0-2.69,1.2A.55.55,0,0,1,618.21,491.53Z" transform="translate(-136.9 -417.62)"/></g><g id="path5314"><path d="M545.11,559.58a.49.49,0,0,1-.21,0,.58.58,0,0,1-.34-.75c.9-2.32,0-3.54-1.39-5.55-.26-.37-.54-.75-.82-1.17a.57.57,0,0,1,.16-.8.59.59,0,0,1,.81.15c.27.42.54.79.79,1.15,1.49,2.09,2.66,3.73,1.54,6.64A.57.57,0,0,1,545.11,559.58Z" transform="translate(-136.9 -417.62)"/></g><g id="path5316"><path d="M553.55,559.58h-.06c-3.42-.35-5.43-2.86-5.39-5.08,0-1.67,1.24-3.52,4.54-3.76a.6.6,0,0,1,.55.25.57.57,0,0,1,0,.59.58.58,0,0,1-.5.32c-2.14.15-3.44,1.13-3.46,2.62,0,1.7,1.58,3.62,4.34,3.91a.57.57,0,0,1,.51.61.57.57,0,0,1-.57.55Z" transform="translate(-136.9 -417.62)"/></g><g id="path5318"><path d="M561.24,579.28a.57.57,0,0,1-.55-.76c.89-2.72-.39-5-1.63-7.11-.21-.38-.42-.74-.63-1.1a.58.58,0,0,1,1-.55c.19.35.39.7.61,1.07,1.3,2.26,2.78,4.83,1.72,8A.6.6,0,0,1,561.24,579.28Z" transform="translate(-136.9 -417.62)"/></g><g id="path5320"><path d="M579.94,593.16a.6.6,0,0,1-.45-.21,87.72,87.72,0,0,1-9.41-13.81.59.59,0,0,1,1-.52,85.25,85.25,0,0,0,9.27,13.59.66.66,0,0,1,.13.43.61.61,0,0,1-.21.39A.58.58,0,0,1,579.94,593.16Z" transform="translate(-136.9 -417.62)"/></g><g id="path5322"><path d="M538.77,526.09a.58.58,0,0,1-.57-.47,8.9,8.9,0,0,0-2.89-4.66.59.59,0,0,1-.09-.82.58.58,0,0,1,.82-.08,9.88,9.88,0,0,1,3.3,5.34.58.58,0,0,1-.46.68Z" transform="translate(-136.9 -417.62)"/></g><line class="cls-4" x1="206.04" y1="94.38" x2="265.86" y2="94.38"/><path d="M414.83,512c-5.68,2.11-12.73,5.7-17.09,9.51l3.44-9.51-3.44-9.51C402.1,506.3,409.15,509.89,414.83,512Z" transform="translate(-136.9 -417.62)"/><line class="cls-4" x1="552.21" y1="94.38" x2="612.03" y2="94.38"/><path d="M761,512c-5.68,2.11-12.73,5.7-17.09,9.51l3.44-9.51-3.44-9.51C748.27,506.3,755.32,509.89,761,512Z" transform="translate(-136.9 -417.62)"/><text class="cls-5" transform="translate(550.07 62.68)">produit</text></svg>