<svg id="Calque_1" data-name="Calque 1" xmlns="http://www.w3.org/2000/svg" viewBox="0 0 955.49 188.76"><defs><style>.cls-1{font-size:36px;}.cls-1,.cls-5{font-family:ArialMT, Arial;}.cls-2{fill:#fff;}.cls-2,.cls-3,.cls-4{stroke:#000;stroke-miterlimit:10;}.cls-2,.cls-4{stroke-width:2px;}.cls-3,.cls-4{fill:none;}.cls-3{stroke-width:4px;}.cls-5{font-size:24px;}</style></defs><title>information_cerveau_idée_startup</title><text class="cls-1" transform="translate(0 103.98)">information</text><path d="M827.1,457v-3.64h3.16V457Zm0,22.13V460.43h3.16V479.1Z" transform="translate(-136.9 -417.32)"/><path d="M847.19,479.1v-2.36a5.78,5.78,0,0,1-5.22,2.78,7.29,7.29,0,0,1-4.1-1.23,8.05,8.05,0,0,1-2.9-3.44,11.8,11.8,0,0,1-1-5.07,13.31,13.31,0,0,1,.93-5.07,7.34,7.34,0,0,1,2.79-3.49,7.48,7.48,0,0,1,4.17-1.21,6.19,6.19,0,0,1,5.15,2.57v-9.25h3.15V479.1Zm-10-9.32a8.09,8.09,0,0,0,1.51,5.36,4.55,4.55,0,0,0,3.57,1.78,4.47,4.47,0,0,0,3.52-1.7,7.78,7.78,0,0,0,1.45-5.17c0-2.56-.49-4.43-1.47-5.63a4.57,4.57,0,0,0-3.64-1.79,4.39,4.39,0,0,0-3.53,1.72Q837.19,466.08,837.19,469.78Z" transform="translate(-136.9 -417.32)"/><path d="M867.88,473.09l3.27.4a8,8,0,0,1-2.86,4.45,8.67,8.67,0,0,1-5.35,1.58,8.53,8.53,0,0,1-6.49-2.52,9.86,9.86,0,0,1-2.4-7.08c0-3.14.81-5.57,2.42-7.31a8.24,8.24,0,0,1,6.3-2.6,8,8,0,0,1,6.11,2.55,10.14,10.14,0,0,1,2.38,7.17c0,.19,0,.47,0,.84H857.32a7.1,7.1,0,0,0,1.74,4.71,5.17,5.17,0,0,0,3.9,1.64,4.9,4.9,0,0,0,3-.91A6.1,6.1,0,0,0,867.88,473.09ZM857.49,468h10.43a6.27,6.27,0,0,0-1.2-3.53,4.84,4.84,0,0,0-3.92-1.83,5,5,0,0,0-3.66,1.46A5.79,5.79,0,0,0,857.49,468Zm3.41-9.86,2.34-4.92h4.15l-3.87,4.92Z" transform="translate(-136.9 -417.32)"/><path d="M887.9,473.09l3.27.4a8,8,0,0,1-2.86,4.45,8.67,8.67,0,0,1-5.35,1.58,8.53,8.53,0,0,1-6.49-2.52,9.86,9.86,0,0,1-2.4-7.08c0-3.14.81-5.57,2.42-7.31a8.24,8.24,0,0,1,6.3-2.6,8,8,0,0,1,6.11,2.55q2.39,2.55,2.38,7.17c0,.19,0,.47,0,.84H877.34a7.2,7.2,0,0,0,1.74,4.71,5.17,5.17,0,0,0,3.9,1.64,4.9,4.9,0,0,0,3-.91A6.1,6.1,0,0,0,887.9,473.09ZM877.51,468h10.43a6.27,6.27,0,0,0-1.2-3.53,4.84,4.84,0,0,0-3.92-1.83,5,5,0,0,0-3.66,1.46A5.79,5.79,0,0,0,877.51,468Z" transform="translate(-136.9 -417.32)"/><path d="M917.26,479.1v-2.36a5.8,5.8,0,0,1-5.22,2.78,7.34,7.34,0,0,1-4.11-1.23,8.12,8.12,0,0,1-2.9-3.44,12,12,0,0,1-1-5.07,13.12,13.12,0,0,1,.94-5.07,7.34,7.34,0,0,1,2.79-3.49A7.46,7.46,0,0,1,911.9,460a6.22,6.22,0,0,1,5.15,2.57v-9.25h3.14V479.1Zm-10-9.32a8.09,8.09,0,0,0,1.51,5.36,4.54,4.54,0,0,0,3.57,1.78,4.48,4.48,0,0,0,3.52-1.7,7.78,7.78,0,0,0,1.45-5.17c0-2.56-.49-4.43-1.48-5.63a4.53,4.53,0,0,0-3.63-1.79,4.38,4.38,0,0,0-3.53,1.72Q907.26,466.08,907.26,469.78Z" transform="translate(-136.9 -417.32)"/><path d="M938,473.09l3.27.4a8,8,0,0,1-2.87,4.45,9.72,9.72,0,0,1-11.84-.94,9.86,9.86,0,0,1-2.4-7.08c0-3.14.81-5.57,2.43-7.31a8.22,8.22,0,0,1,6.29-2.6,8,8,0,0,1,6.12,2.55q2.37,2.55,2.37,7.17c0,.19,0,.47,0,.84H927.38a7.2,7.2,0,0,0,1.74,4.71,5.21,5.21,0,0,0,3.91,1.64,4.9,4.9,0,0,0,3-.91A6.1,6.1,0,0,0,938,473.09ZM927.56,468H938a6.34,6.34,0,0,0-1.19-3.53,4.86,4.86,0,0,0-3.92-1.83,5,5,0,0,0-3.67,1.46A5.73,5.73,0,0,0,927.56,468Z" transform="translate(-136.9 -417.32)"/><path d="M953.93,473.53l3.12-.5a4.41,4.41,0,0,0,1.47,2.89,5.13,5.13,0,0,0,3.37,1,4.94,4.94,0,0,0,3.23-.89,2.63,2.63,0,0,0,1.06-2.08,1.92,1.92,0,0,0-.93-1.69,13.89,13.89,0,0,0-3.24-1.07,29.39,29.39,0,0,1-4.82-1.52,4.63,4.63,0,0,1-2.74-4.28,4.82,4.82,0,0,1,.57-2.31,5.2,5.2,0,0,1,1.56-1.77,6.51,6.51,0,0,1,2-.92,9.65,9.65,0,0,1,2.74-.38,10.79,10.79,0,0,1,3.85.63,5.27,5.27,0,0,1,2.46,1.72,6.78,6.78,0,0,1,1.09,2.89l-3.1.42a3.4,3.4,0,0,0-1.22-2.25,4.45,4.45,0,0,0-2.86-.81,5.18,5.18,0,0,0-3.11.72,2.1,2.1,0,0,0-.93,1.69,1.75,1.75,0,0,0,.39,1.11,2.77,2.77,0,0,0,1.21.84c.32.12,1.25.39,2.8.81a39.48,39.48,0,0,1,4.68,1.47,4.66,4.66,0,0,1,2.08,1.66,4.57,4.57,0,0,1,.76,2.7,5.33,5.33,0,0,1-.92,3,6,6,0,0,1-2.67,2.17,9.67,9.67,0,0,1-3.93.76,8.76,8.76,0,0,1-5.55-1.51A7,7,0,0,1,953.93,473.53Z" transform="translate(-136.9 -417.32)"/><path d="M980.1,476.27l.46,2.79a11.64,11.64,0,0,1-2.39.29,5.49,5.49,0,0,1-2.68-.55,3.05,3.05,0,0,1-1.33-1.43,11.26,11.26,0,0,1-.39-3.74V462.89h-2.32v-2.46h2.32v-4.62l3.15-1.9v6.52h3.18v2.46h-3.18v10.92a5.65,5.65,0,0,0,.16,1.74,1.35,1.35,0,0,0,.55.61,2,2,0,0,0,1.08.23A10.53,10.53,0,0,0,980.1,476.27Z" transform="translate(-136.9 -417.32)"/><path d="M995.38,476.8a12,12,0,0,1-3.39,2.11,9.78,9.78,0,0,1-3.49.61,6.82,6.82,0,0,1-4.73-1.5,5,5,0,0,1-1.65-3.84,5.08,5.08,0,0,1,.63-2.51,5.21,5.21,0,0,1,1.63-1.82,7.65,7.65,0,0,1,2.28-1,20.7,20.7,0,0,1,2.81-.48,28.79,28.79,0,0,0,5.64-1.09c0-.43,0-.71,0-.82a3.5,3.5,0,0,0-.9-2.73,5.32,5.32,0,0,0-3.6-1.07,5.61,5.61,0,0,0-3.3.78,4.75,4.75,0,0,0-1.57,2.77l-3.09-.42a7.65,7.65,0,0,1,1.38-3.21,6.09,6.09,0,0,1,2.8-1.88,12.46,12.46,0,0,1,4.24-.66,11.34,11.34,0,0,1,3.88.56,5.15,5.15,0,0,1,2.2,1.42,5,5,0,0,1,1,2.15,17.25,17.25,0,0,1,.16,2.92v4.22a46,46,0,0,0,.2,5.58,7.16,7.16,0,0,0,.8,2.24H996A6.59,6.59,0,0,1,995.38,476.8Zm-.27-7.07a23.21,23.21,0,0,1-5.17,1.2,11.35,11.35,0,0,0-2.76.63,2.69,2.69,0,0,0-1.24,1,2.64,2.64,0,0,0-.44,1.5,2.72,2.72,0,0,0,1,2.11,4.16,4.16,0,0,0,2.81.84,6.45,6.45,0,0,0,3.25-.8,4.86,4.86,0,0,0,2.09-2.19,7.62,7.62,0,0,0,.51-3.16Z" transform="translate(-136.9 -417.32)"/><path d="M1003.18,479.1V460.43H1006v2.83a7.61,7.61,0,0,1,2-2.62,3.53,3.53,0,0,1,2-.63,6.15,6.15,0,0,1,3.25,1l-1.09,2.93a4.56,4.56,0,0,0-2.32-.68,3,3,0,0,0-1.86.62,3.47,3.47,0,0,0-1.18,1.73,12.44,12.44,0,0,0-.53,3.7v9.77Z" transform="translate(-136.9 -417.32)"/><path d="M1022.11,476.27l.46,2.79a11.64,11.64,0,0,1-2.39.29,5.42,5.42,0,0,1-2.67-.55,3,3,0,0,1-1.34-1.43,11.26,11.26,0,0,1-.39-3.74V462.89h-2.32v-2.46h2.32v-4.62l3.15-1.9v6.52h3.18v2.46h-3.18v10.92a5.54,5.54,0,0,0,.17,1.74,1.28,1.28,0,0,0,.54.61,2,2,0,0,0,1.08.23A10.53,10.53,0,0,0,1022.11,476.27Z" transform="translate(-136.9 -417.32)"/><path d="M1037.44,479.1v-2.74a6.82,6.82,0,0,1-5.92,3.16,7.59,7.59,0,0,1-3.09-.63,5.14,5.14,0,0,1-2.13-1.59,6,6,0,0,1-1-2.35,15.77,15.77,0,0,1-.2-2.95V460.43h3.17v10.35a18.36,18.36,0,0,0,.19,3.34,3.25,3.25,0,0,0,1.27,2,3.88,3.88,0,0,0,2.39.72,5.26,5.26,0,0,0,2.67-.73,4.11,4.11,0,0,0,1.77-2,10.09,10.09,0,0,0,.52-3.65v-10h3.16V479.1Z" transform="translate(-136.9 -417.32)"/><path d="M1045.23,486.25V460.43h2.88v2.43a7.22,7.22,0,0,1,2.3-2.14,6.38,6.38,0,0,1,3.11-.71,7.37,7.37,0,0,1,4.22,1.23,7.55,7.55,0,0,1,2.76,3.47,12.71,12.71,0,0,1,.93,4.91,12.57,12.57,0,0,1-1,5.16,7.86,7.86,0,0,1-3,3.52,7.72,7.72,0,0,1-4.13,1.22,5.86,5.86,0,0,1-2.83-.67,6.38,6.38,0,0,1-2.07-1.68v9.08Zm2.86-16.38q0,3.6,1.46,5.33a4.46,4.46,0,0,0,3.53,1.72,4.62,4.62,0,0,0,3.62-1.78c1-1.19,1.5-3,1.5-5.53a8.27,8.27,0,0,0-1.47-5.35,4.43,4.43,0,0,0-3.51-1.77,4.54,4.54,0,0,0-3.57,1.89A8.43,8.43,0,0,0,1048.09,469.87Z" transform="translate(-136.9 -417.32)"/><path d="M803,519.47l.46,2.79a11.57,11.57,0,0,1-2.39.28,5.43,5.43,0,0,1-2.67-.54,3,3,0,0,1-1.34-1.43,11.26,11.26,0,0,1-.39-3.74V506.09h-2.32v-2.46h2.32V499l3.15-1.9v6.52H803v2.46H799.8V517a5.54,5.54,0,0,0,.17,1.74,1.28,1.28,0,0,0,.54.61,2,2,0,0,0,1.08.23A10.4,10.4,0,0,0,803,519.47Z" transform="translate(-136.9 -417.32)"/><path d="M806.08,522.3V496.53h3.16v9.25a7,7,0,0,1,5.59-2.57,7.47,7.47,0,0,1,3.6.82,4.74,4.74,0,0,1,2.19,2.26,10.37,10.37,0,0,1,.66,4.18V522.3h-3.16V510.47a4.91,4.91,0,0,0-1-3.45,3.81,3.81,0,0,0-2.91-1.09,5.21,5.21,0,0,0-2.65.73,4.16,4.16,0,0,0-1.76,2,9.11,9.11,0,0,0-.53,3.45V522.3Z" transform="translate(-136.9 -417.32)"/><path d="M838.88,516.29l3.27.4a8,8,0,0,1-2.87,4.45,9.72,9.72,0,0,1-11.84-.94,9.86,9.86,0,0,1-2.4-7.08c0-3.14.81-5.57,2.43-7.31a8.22,8.22,0,0,1,6.29-2.6,8,8,0,0,1,6.12,2.55q2.37,2.55,2.37,7.17c0,.19,0,.47,0,.84H828.31a7.2,7.2,0,0,0,1.74,4.71,5.21,5.21,0,0,0,3.91,1.64,4.9,4.9,0,0,0,3-.91A6.1,6.1,0,0,0,838.88,516.29Zm-10.39-5.12h10.42a6.34,6.34,0,0,0-1.19-3.53,4.86,4.86,0,0,0-3.92-1.83,5,5,0,0,0-3.67,1.46A5.73,5.73,0,0,0,828.49,511.17Zm3.41-9.86,2.34-4.92h4.14l-3.86,4.92Z" transform="translate(-136.9 -417.32)"/><path d="M844.94,513q0-5.19,2.88-7.69a8.73,8.73,0,0,1,5.88-2.07,8.38,8.38,0,0,1,6.29,2.52,9.6,9.6,0,0,1,2.44,7,12.38,12.38,0,0,1-1.08,5.67,7.62,7.62,0,0,1-3.15,3.21,9.15,9.15,0,0,1-4.5,1.14,8.4,8.4,0,0,1-6.34-2.51Q844.95,517.69,844.94,513Zm3.25,0q0,3.59,1.57,5.36a5.21,5.21,0,0,0,7.86,0q1.56-1.8,1.56-5.47a7.71,7.71,0,0,0-1.57-5.25,5.23,5.23,0,0,0-7.85,0A7.9,7.9,0,0,0,848.19,513Z" transform="translate(-136.9 -417.32)"/><path d="M866.11,522.3V503.63H869v2.83a7.74,7.74,0,0,1,2-2.62,3.51,3.51,0,0,1,2-.63,6.18,6.18,0,0,1,3.25,1l-1.09,2.93a4.61,4.61,0,0,0-2.32-.68,3.09,3.09,0,0,0-1.87.62,3.39,3.39,0,0,0-1.17,1.73,12.44,12.44,0,0,0-.53,3.7v9.77Z" transform="translate(-136.9 -417.32)"/><path d="M878.15,500.17v-3.64h3.16v3.64Zm0,22.13V503.63h3.16V522.3Z" transform="translate(-136.9 -417.32)"/><path d="M898.91,516.29l3.27.4a8,8,0,0,1-2.87,4.45,9.72,9.72,0,0,1-11.84-.94,9.86,9.86,0,0,1-2.4-7.08c0-3.14.81-5.57,2.43-7.31a8.22,8.22,0,0,1,6.29-2.6,8,8,0,0,1,6.12,2.55q2.37,2.55,2.37,7.17c0,.19,0,.47,0,.84H888.34a7.2,7.2,0,0,0,1.74,4.71,5.2,5.2,0,0,0,3.9,1.64,5,5,0,0,0,3-.91A6.1,6.1,0,0,0,898.91,516.29Zm-10.39-5.12h10.42a6.34,6.34,0,0,0-1.19-3.53,4.86,4.86,0,0,0-3.92-1.83,5,5,0,0,0-3.67,1.46A5.73,5.73,0,0,0,888.52,511.17Z" transform="translate(-136.9 -417.32)"/><path d="M914.88,516.73l3.13-.5a4.41,4.41,0,0,0,1.47,2.89,5.11,5.11,0,0,0,3.37,1,4.94,4.94,0,0,0,3.23-.89,2.63,2.63,0,0,0,1.06-2.08,1.92,1.92,0,0,0-.93-1.69,13.89,13.89,0,0,0-3.24-1.07,29.39,29.39,0,0,1-4.82-1.52,4.63,4.63,0,0,1-2.74-4.28,4.82,4.82,0,0,1,.57-2.31,5.1,5.1,0,0,1,1.56-1.77,6.51,6.51,0,0,1,2-.92,9.65,9.65,0,0,1,2.74-.38,10.79,10.79,0,0,1,3.85.63,5.27,5.27,0,0,1,2.46,1.72,6.78,6.78,0,0,1,1.09,2.89l-3.1.42a3.4,3.4,0,0,0-1.22-2.25,4.47,4.47,0,0,0-2.86-.81,5.18,5.18,0,0,0-3.11.72,2.1,2.1,0,0,0-.93,1.69,1.75,1.75,0,0,0,.39,1.11,2.77,2.77,0,0,0,1.21.84c.32.12,1.25.39,2.8.81a39.48,39.48,0,0,1,4.68,1.47,4.72,4.72,0,0,1,2.08,1.66,4.57,4.57,0,0,1,.76,2.7,5.33,5.33,0,0,1-.92,3A6,6,0,0,1,926.8,522a9.67,9.67,0,0,1-3.93.76,8.76,8.76,0,0,1-5.55-1.51A7.08,7.08,0,0,1,914.88,516.73Z" transform="translate(-136.9 -417.32)"/><path d="M946.33,515.46l3.11.41a8.06,8.06,0,0,1-2.61,5,7.62,7.62,0,0,1-5.16,1.82,8,8,0,0,1-6.16-2.5c-1.55-1.67-2.33-4.07-2.33-7.18a13,13,0,0,1,1-5.3,7,7,0,0,1,3-3.4,9.09,9.09,0,0,1,4.45-1.13,7.73,7.73,0,0,1,5,1.54,7,7,0,0,1,2.47,4.37l-3.07.47a5.06,5.06,0,0,0-1.56-2.83,4,4,0,0,0-2.7-.95,4.92,4.92,0,0,0-3.88,1.71c-1,1.15-1.49,3-1.49,5.43s.48,4.33,1.44,5.46a4.68,4.68,0,0,0,3.76,1.71,4.44,4.44,0,0,0,3.11-1.14A5.71,5.71,0,0,0,946.33,515.46Z" transform="translate(-136.9 -417.32)"/><path d="M952.17,500.17v-3.64h3.16v3.64Zm0,22.13V503.63h3.16V522.3Z" transform="translate(-136.9 -417.32)"/><path d="M972.93,516.29l3.27.4a8,8,0,0,1-2.87,4.45,9.72,9.72,0,0,1-11.84-.94,9.86,9.86,0,0,1-2.4-7.08c0-3.14.81-5.57,2.43-7.31a8.22,8.22,0,0,1,6.29-2.6,8,8,0,0,1,6.12,2.55q2.37,2.55,2.37,7.17c0,.19,0,.47,0,.84H962.36a7.2,7.2,0,0,0,1.74,4.71,5.21,5.21,0,0,0,3.91,1.64,4.9,4.9,0,0,0,3-.91A6.1,6.1,0,0,0,972.93,516.29Zm-10.39-5.12H973a6.34,6.34,0,0,0-1.19-3.53,4.86,4.86,0,0,0-3.92-1.83,5,5,0,0,0-3.67,1.46A5.73,5.73,0,0,0,962.54,511.17Z" transform="translate(-136.9 -417.32)"/><path d="M980.17,522.3V503.63H983v2.66a6.69,6.69,0,0,1,5.94-3.08,7.69,7.69,0,0,1,3.1.61,4.85,4.85,0,0,1,2.12,1.59,5.91,5.91,0,0,1,1,2.33,17.82,17.82,0,0,1,.18,3.08V522.3h-3.16V510.94a8.67,8.67,0,0,0-.37-2.89,3.09,3.09,0,0,0-1.31-1.53,4.2,4.2,0,0,0-2.21-.57,5.15,5.15,0,0,0-3.49,1.28q-1.47,1.29-1.47,4.87v10.2Z" transform="translate(-136.9 -417.32)"/><path d="M1007.1,519.47l.46,2.79a11.57,11.57,0,0,1-2.39.28,5.5,5.5,0,0,1-2.68-.54,3.05,3.05,0,0,1-1.33-1.43,11.26,11.26,0,0,1-.39-3.74V506.09h-2.32v-2.46h2.32V499l3.15-1.9v6.52h3.18v2.46h-3.18V517a5.65,5.65,0,0,0,.16,1.74,1.35,1.35,0,0,0,.55.61,2,2,0,0,0,1.08.23A10.53,10.53,0,0,0,1007.1,519.47Z" transform="translate(-136.9 -417.32)"/><path d="M1010.21,500.17v-3.64h3.17v3.64Zm0,22.13V503.63h3.17V522.3Z" transform="translate(-136.9 -417.32)"/><path d="M1019,522.3V506.09h-2.8v-2.46h2.8v-2a8.81,8.81,0,0,1,.33-2.8,4.08,4.08,0,0,1,1.61-2,5.89,5.89,0,0,1,3.23-.76,15.58,15.58,0,0,1,3,.32l-.48,2.76a10.25,10.25,0,0,0-1.86-.18,2.78,2.78,0,0,0-2,.62,3.31,3.31,0,0,0-.6,2.3v1.72h3.64v2.46h-3.64V522.3Z" transform="translate(-136.9 -417.32)"/><path d="M1028.21,500.17v-3.64h3.17v3.64Zm0,22.13V503.63h3.17V522.3Z" transform="translate(-136.9 -417.32)"/><path d="M1048.09,529.45v-9.14A5.72,5.72,0,0,1,1046,522a6.17,6.17,0,0,1-2.82.68,7.46,7.46,0,0,1-5.73-2.65,10.46,10.46,0,0,1-2.4-7.28,12.5,12.5,0,0,1,1-5,7.3,7.3,0,0,1,2.83-3.38,7.55,7.55,0,0,1,4.07-1.15,6.25,6.25,0,0,1,5.45,2.92v-2.5h2.85v25.82Zm-9.75-16.54a8.25,8.25,0,0,0,1.51,5.41,4.58,4.58,0,0,0,3.62,1.8,4.43,4.43,0,0,0,3.48-1.71,7.93,7.93,0,0,0,1.46-5.22,8.66,8.66,0,0,0-1.54-5.6,4.55,4.55,0,0,0-3.61-1.88,4.36,4.36,0,0,0-3.49,1.74C1038.81,508.62,1038.34,510.44,1038.34,512.91Z" transform="translate(-136.9 -417.32)"/><path d="M1068.45,522.3v-2.74a6.84,6.84,0,0,1-5.93,3.16,7.54,7.54,0,0,1-3.08-.63,5,5,0,0,1-2.13-1.59,5.89,5.89,0,0,1-1-2.35,15.84,15.84,0,0,1-.2-2.95V503.63h3.17V514a18.36,18.36,0,0,0,.19,3.34,3.25,3.25,0,0,0,1.27,2,3.88,3.88,0,0,0,2.39.72,5.26,5.26,0,0,0,2.67-.73,4,4,0,0,0,1.76-2,9.87,9.87,0,0,0,.52-3.65v-10h3.17V522.3Z" transform="translate(-136.9 -417.32)"/><path d="M1089,516.29l3.27.4a8,8,0,0,1-2.86,4.45,8.67,8.67,0,0,1-5.35,1.58,8.53,8.53,0,0,1-6.49-2.52,9.86,9.86,0,0,1-2.4-7.08c0-3.14.81-5.57,2.43-7.31a8.21,8.21,0,0,1,6.29-2.6,8,8,0,0,1,6.12,2.55q2.37,2.55,2.37,7.17c0,.19,0,.47,0,.84h-13.92a7.2,7.2,0,0,0,1.74,4.71,5.17,5.17,0,0,0,3.9,1.64,4.9,4.9,0,0,0,3-.91A6.1,6.1,0,0,0,1089,516.29Zm-10.38-5.12h10.42a6.27,6.27,0,0,0-1.2-3.53,4.83,4.83,0,0,0-3.92-1.83,5,5,0,0,0-3.66,1.46A5.73,5.73,0,0,0,1078.63,511.17Z" transform="translate(-136.9 -417.32)"/><path d="M849.93,556.17q0-5.19,2.89-7.69a8.68,8.68,0,0,1,5.87-2.07,8.38,8.38,0,0,1,6.29,2.52,9.6,9.6,0,0,1,2.44,7,12.38,12.38,0,0,1-1.08,5.67,7.65,7.65,0,0,1-3.14,3.21,9.19,9.19,0,0,1-4.51,1.14,8.4,8.4,0,0,1-6.34-2.51Q849.94,560.89,849.93,556.17Zm3.26,0a8,8,0,0,0,1.56,5.37,5.22,5.22,0,0,0,7.86,0q1.56-1.8,1.56-5.47a7.71,7.71,0,0,0-1.57-5.25,5.23,5.23,0,0,0-7.85,0A8,8,0,0,0,853.19,556.17Z" transform="translate(-136.9 -417.32)"/><path d="M883.91,559.49l3.27.4a8,8,0,0,1-2.86,4.45,8.67,8.67,0,0,1-5.35,1.58,8.53,8.53,0,0,1-6.49-2.52,9.86,9.86,0,0,1-2.4-7.08c0-3.14.81-5.57,2.42-7.31a8.24,8.24,0,0,1,6.3-2.6,8,8,0,0,1,6.11,2.55q2.39,2.55,2.38,7.17c0,.19,0,.47,0,.84H873.35a7.1,7.1,0,0,0,1.74,4.71,5.17,5.17,0,0,0,3.9,1.64,4.9,4.9,0,0,0,3-.91A6.1,6.1,0,0,0,883.91,559.49Zm-10.39-5.12H884a6.27,6.27,0,0,0-1.2-3.53,4.84,4.84,0,0,0-3.92-1.83,5,5,0,0,0-3.66,1.46A5.79,5.79,0,0,0,873.52,554.37Z" transform="translate(-136.9 -417.32)"/><path d="M903.39,565.5v-2.74a6.83,6.83,0,0,1-5.93,3.16,7.54,7.54,0,0,1-3.08-.63,5.08,5.08,0,0,1-2.13-1.59,5.89,5.89,0,0,1-1-2.35,15.77,15.77,0,0,1-.2-3V546.83h3.17v10.35a18.36,18.36,0,0,0,.19,3.34,3.25,3.25,0,0,0,1.27,2,3.88,3.88,0,0,0,2.39.72,5.26,5.26,0,0,0,2.67-.73,4.11,4.11,0,0,0,1.77-2,10.12,10.12,0,0,0,.51-3.65v-10h3.17V565.5Z" transform="translate(-136.9 -417.32)"/><path d="M916.36,565.5l-7.1-18.67h3.34l4,11.18c.43,1.21.83,2.46,1.19,3.76.28-1,.68-2.17,1.18-3.55l4.15-11.39h3.25l-7.07,18.67Z" transform="translate(-136.9 -417.32)"/><path d="M929.14,565.5V546.83H932v2.83a7.74,7.74,0,0,1,2-2.62,3.53,3.53,0,0,1,2-.63,6.15,6.15,0,0,1,3.25,1l-1.09,2.93a4.56,4.56,0,0,0-2.32-.68,3,3,0,0,0-1.86.62,3.47,3.47,0,0,0-1.18,1.73,12.44,12.44,0,0,0-.53,3.7v9.77Z" transform="translate(-136.9 -417.32)"/><path d="M953.94,559.49l3.27.4a8,8,0,0,1-2.86,4.45,8.67,8.67,0,0,1-5.35,1.58,8.53,8.53,0,0,1-6.49-2.52,9.86,9.86,0,0,1-2.4-7.08c0-3.14.81-5.57,2.43-7.31a8.21,8.21,0,0,1,6.29-2.6A8,8,0,0,1,955,549q2.37,2.55,2.37,7.17c0,.19,0,.47,0,.84H943.38a7.2,7.2,0,0,0,1.74,4.71,5.17,5.17,0,0,0,3.9,1.64,4.9,4.9,0,0,0,3-.91A6.1,6.1,0,0,0,953.94,559.49Zm-10.39-5.12H954a6.27,6.27,0,0,0-1.2-3.53,4.83,4.83,0,0,0-3.92-1.83,5,5,0,0,0-3.66,1.46A5.79,5.79,0,0,0,943.55,554.37Z" transform="translate(-136.9 -417.32)"/><path d="M983.3,565.5v-2.36a5.78,5.78,0,0,1-5.22,2.78,7.34,7.34,0,0,1-4.11-1.23,8.19,8.19,0,0,1-2.9-3.44,12,12,0,0,1-1-5.07,13.31,13.31,0,0,1,.94-5.07,7.34,7.34,0,0,1,2.79-3.49,7.46,7.46,0,0,1,4.17-1.21,6.22,6.22,0,0,1,5.15,2.57v-9.25h3.14V565.5Zm-10-9.32a8.09,8.09,0,0,0,1.51,5.36,4.55,4.55,0,0,0,3.57,1.78,4.48,4.48,0,0,0,3.52-1.7,7.78,7.78,0,0,0,1.45-5.17c0-2.56-.49-4.43-1.47-5.63a4.57,4.57,0,0,0-3.64-1.79,4.39,4.39,0,0,0-3.53,1.72Q973.3,552.47,973.3,556.18Z" transform="translate(-136.9 -417.32)"/><path d="M991,543.14v-3.67h3.39v2.9a7.63,7.63,0,0,1-.55,3.39,4.78,4.78,0,0,1-2.35,2.14l-.78-1.24a2.74,2.74,0,0,0,1.42-1.23,5.16,5.16,0,0,0,.52-2.29Z" transform="translate(-136.9 -417.32)"/><path d="M1011.39,563.2a11.83,11.83,0,0,1-3.39,2.11,9.72,9.72,0,0,1-3.48.61,6.78,6.78,0,0,1-4.73-1.5,5,5,0,0,1-1.66-3.84,5.08,5.08,0,0,1,.63-2.51,5.21,5.21,0,0,1,1.63-1.82,7.88,7.88,0,0,1,2.28-1,21,21,0,0,1,2.81-.48,28.77,28.77,0,0,0,5.65-1.09c0-.43,0-.71,0-.82a3.54,3.54,0,0,0-.89-2.73,5.33,5.33,0,0,0-3.61-1.07,5.58,5.58,0,0,0-3.29.78,4.76,4.76,0,0,0-1.58,2.77l-3.09-.42a7.53,7.53,0,0,1,1.39-3.21,6,6,0,0,1,2.79-1.88,12.46,12.46,0,0,1,4.24-.66,11.3,11.3,0,0,1,3.88.56,5.15,5.15,0,0,1,2.2,1.42,5,5,0,0,1,1,2.15,18.78,18.78,0,0,1,.15,2.92v4.22a43.12,43.12,0,0,0,.21,5.58,6.92,6.92,0,0,0,.8,2.24H1012A6.59,6.59,0,0,1,1011.39,563.2Zm-.26-7.07a23.35,23.35,0,0,1-5.17,1.2,11.35,11.35,0,0,0-2.76.63,2.76,2.76,0,0,0-.73,4.64,4.13,4.13,0,0,0,2.8.84,6.45,6.45,0,0,0,3.25-.8,4.93,4.93,0,0,0,2.1-2.19,7.62,7.62,0,0,0,.51-3.16Z" transform="translate(-136.9 -417.32)"/><path d="M1019.19,565.5V546.83H1022v2.83a7.86,7.86,0,0,1,2-2.62,3.55,3.55,0,0,1,2-.63,6.21,6.21,0,0,1,3.26,1l-1.09,2.93a4.61,4.61,0,0,0-2.32-.68,3,3,0,0,0-1.87.62,3.47,3.47,0,0,0-1.18,1.73,12.44,12.44,0,0,0-.52,3.7v9.77Z" transform="translate(-136.9 -417.32)"/><path d="M1038.13,562.67l.45,2.79a11.64,11.64,0,0,1-2.39.29,5.42,5.42,0,0,1-2.67-.55,3.07,3.07,0,0,1-1.34-1.43,11.64,11.64,0,0,1-.38-3.74V549.29h-2.32v-2.46h2.32v-4.62l3.14-1.9v6.52h3.19v2.46h-3.19v10.92a5.54,5.54,0,0,0,.17,1.74,1.25,1.25,0,0,0,.55.61,2,2,0,0,0,1.08.23A10.67,10.67,0,0,0,1038.13,562.67Z" transform="translate(-136.9 -417.32)"/><path class="cls-2" d="M178.45,512" transform="translate(-136.9 -417.32)"/><path class="cls-3" d="M256.27,512" transform="translate(-136.9 -417.32)"/><g id="path5312"><path d="M583.24,606.07c-.59,0-1.14,0-1.62,0h-.07l-.06,0c-4.64-1.32-6.47-5.25-8.23-9.06a29.18,29.18,0,0,0-3.12-5.61l0-.08a39.05,39.05,0,0,0-4.71-6.41c-2.3-2.7-4.65-5.49-5.93-9.08a46.6,46.6,0,0,0-6.35-6.52c-3.21-2.89-6.53-5.89-8.53-10-1.88-3.08-5.25-2.11-9.14-1-3.38,1-6.87,2-9.86.42-1,.13-2.06.28-3.06.43-5,.74-9.68,1.43-14.74-.43-3.17-.06-11.17-4.51-11.26-4.56a53.61,53.61,0,0,1-7.63-4.59c-3.6-1.36-4.49-5-5.22-8-.41-1.75-.83-3.41-1.67-4.13l-.06-.06c-2-2.32-5.23-2.55-8.67-2.79s-7.09-.5-9.83-2.92c-7.28-3.92-15-8.8-15.25-17.11-.51-.53-1.05-1.06-1.57-1.58-2.86-2.77-5.8-5.68-5.6-10.8V502l0-.08c1.14-3.12.34-6.2-.44-9.18-.83-3.22-1.69-6.55-.06-9.83.39-1.19.79-2.53,1.21-4,1.1-3.78,2.36-8.06,4.17-11.06v0a55.41,55.41,0,0,1,4.93-6.08c2.53-2.86,4.92-5.55,6.52-8.93l.06-.1c4.19-5.63,10.19-9.52,16.05-12.88l.09-.06h.12c2.39-.35,4-2.09,5.76-3.92s3.29-3.48,5.72-4.34c4.21-2.6,9-3.93,13.55-5.21,2.12-.6,4.31-1.21,6.4-1.94l.09,0h.09a48.81,48.81,0,0,0,10.58-2.11,76.94,76.94,0,0,1,8.74-2h.15c4.31.44,8.58-.5,12.71-1.41,4.9-1.08,10-2.2,15.25-1.07l.09,0c3.95,1.53,7.68,1.53,11.62,1.52a45.43,45.43,0,0,1,9.16.62,121.74,121.74,0,0,1,36.44,11l.05,0a55.8,55.8,0,0,1,14.78,14l.09.11,0,.14c.51,2.87,3.16,4.24,6.23,5.81,3.34,1.72,7.12,3.66,8.13,8.11v.06c.68,6.28,4.11,9.89,8.07,14.07,1.21,1.28,2.47,2.6,3.69,4l.09.11,0,.14c.49,2.22,2,4.22,3.5,6.34,2.06,2.83,4.2,5.77,4.28,9.56a25.15,25.15,0,0,0,1.69,4.43c1.23,2.69,2.5,5.48,1.84,8.88a40.32,40.32,0,0,0,.51,10.3c.58,4.19,1.17,8.52.07,12.85-1,5.34-4.18,9.54-7.3,13.6a67.22,67.22,0,0,0-4,5.63c-3,5.15-11.27,4.25-14.08,3.75a39.2,39.2,0,0,1-5.47,16.26c-4.54,7.37-9.81,9.73-13.42,10.42h0l-6.95.83c-8.24,1-16.75,2-24.84,3.3-.22,3.18,1,6.35,2.3,9.69s2.55,6.6,2.43,10v.21l-.14.16C589.93,605.69,586.12,606.07,583.24,606.07Zm-1.5-1.19c4.34.19,7.52-.42,8.82-1.65.05-3.13-1.18-6.3-2.36-9.36-1.34-3.47-2.73-7.06-2.32-10.67l0-.44.44-.07c8.24-1.37,16.93-2.39,25.34-3.38,2.36-.28,4.67-.55,6.92-.84,6.12-1.16,10.25-6,12.63-9.88a37.85,37.85,0,0,0,5.35-16.38l.06-.65.64.13a23.48,23.48,0,0,0,7.17.34c3.08-.39,5.2-1.55,6.33-3.45a67.6,67.6,0,0,1,4.11-5.73c3-4,6.18-8.05,7.09-13.11v0c1-4.13.5-8.16-.09-12.43a40.86,40.86,0,0,1-.51-10.62v0c.59-3.05-.55-5.55-1.76-8.2a26.55,26.55,0,0,1-1.77-4.69l0-.07v-.06c-.05-3.47-2.09-6.26-4.06-9-1.59-2.17-3.09-4.23-3.66-6.62-1.17-1.39-2.38-2.66-3.55-3.89-3.93-4.15-7.64-8.06-8.38-14.72-.89-3.89-4.26-5.62-7.51-7.3-3-1.53-6.14-3.13-6.82-6.48A54.62,54.62,0,0,0,609.51,432a120.38,120.38,0,0,0-36.08-10.86h0a43.77,43.77,0,0,0-8.94-.63c-3.87,0-7.86,0-12-1.58-5-1.06-9.73,0-14.71,1.08-4.2.93-8.54,1.88-13,1.44a74.3,74.3,0,0,0-8.53,1.95,51.17,51.17,0,0,1-10.76,2.14c-2.1.73-4.28,1.34-6.39,1.93-4.54,1.27-9.23,2.58-13.3,5.12l-.06,0-.06,0c-2.2.77-3.78,2.44-5.31,4.07-1.77,1.88-3.6,3.81-6.33,4.25-5.7,3.28-11.53,7.06-15.56,12.47-1.67,3.5-4.22,6.37-6.68,9.15a56.54,56.54,0,0,0-4.82,5.94c-1.73,2.88-3,7.08-4.05,10.78-.42,1.45-.84,2.81-1.24,4l0,.07c-1.46,2.9-.68,5.89.14,9.06s1.64,6.35.43,9.78c-.16,4.55,2.47,7.13,5.24,9.86.58.57,1.18,1.16,1.75,1.77l.16.17v.23c.08,7.83,7.63,12.54,14.7,16.35l.06,0,.05.05c2.45,2.19,5.88,2.43,9.2,2.66,3.51.25,7.13.51,9.44,3.16,1.1,1,1.54,2.79,2,4.71.69,2.86,1.48,6.11,4.56,7.23l.07,0,.07,0a53.19,53.19,0,0,0,7.56,4.55c3.08,1.72,8.69,4.41,10.76,4.41H508l.11,0c4.82,1.8,9.41,1.13,14.26.42,1.06-.16,2.16-.32,3.27-.46l.19,0,.17.09c2.6,1.44,5.92.49,9.13-.44,4-1.15,8.14-2.34,10.47,1.53l0,.05c1.9,3.95,5,6.74,8.28,9.69a46.67,46.67,0,0,1,6.55,6.77l.06.07,0,.08c1.2,3.43,3.41,6,5.74,8.79a40.47,40.47,0,0,1,4.83,6.57,29.14,29.14,0,0,1,3.22,5.8c1.73,3.7,3.36,7.21,7.44,8.4Z" transform="translate(-136.9 -417.32)"/></g><g id="path5324"><path d="M584.75,465.56c-1.22,0-2.36-.85-3.47-1.67a6.62,6.62,0,0,0-2.92-1.55,45.27,45.27,0,0,0-6.62,0c-3.21.19-5.54.32-6.67-1.19s-.75-3.92.92-8.48a.58.58,0,0,1,.74-.33.58.58,0,0,1,.35.73c-1.48,4-1.82,6.38-1.08,7.39s2.92.88,5.67.72a47.45,47.45,0,0,1,6.78,0A7.42,7.42,0,0,1,582,463c1.14.85,2.22,1.66,3.16,1.4s1.69-1.35,2.5-3.3c.9-2.16-1.85-6.88-12.59-13.06a.59.59,0,0,1-.21-.8.59.59,0,0,1,.79-.21c9.66,5.57,14.55,11,13.08,14.51-1,2.37-2,3.64-3.28,4A2.39,2.39,0,0,1,584.75,465.56Z" transform="translate(-136.9 -417.32)"/></g><g id="path5070"><path d="M479.55,534.72a.57.57,0,0,1-.58-.57c0-.33-.13-8,2.64-11.06.43-.47,1.1-1.37,1.95-2.51,4.22-5.71,13-17.57,23-17.21l3.46.14c8.84.39,12.14.54,18.6-4A21.38,21.38,0,0,1,540.22,496a5.69,5.69,0,0,0,3.2-1.38,13.23,13.23,0,0,1,4.15-2.09,19.8,19.8,0,0,1,7.94-.34c3.27.4,4.18,1,5.33,1.79a16.17,16.17,0,0,0,4.74,2.24.57.57,0,0,1,.36.72.58.58,0,0,1-.72.38,17.27,17.27,0,0,1-5-2.38c-1.06-.71-1.82-1.23-4.82-1.6-6.81-.83-9.3.87-11.29,2.24a6.86,6.86,0,0,1-3.82,1.59,20.15,20.15,0,0,0-11,3.26c-6.78,4.8-10.19,4.65-19.32,4.25l-3.45-.15c-9.35-.34-17.91,11.19-22,16.74-.87,1.17-1.56,2.1-2,2.61-2.45,2.67-2.33,10.17-2.33,10.24a.65.65,0,0,1-.16.42.58.58,0,0,1-.41.17Z" transform="translate(-136.9 -417.32)"/></g><g id="path5072"><path d="M493,511a.64.64,0,0,1-.2,0c-2.81-1-5.18-3.71-7.09-5.88a22.42,22.42,0,0,0-2.22-2.32c-2-1.58-12.13-7-12.23-7a.57.57,0,0,1-.25-.78.58.58,0,0,1,.79-.25c.42.23,10.37,5.51,12.42,7.16a21.85,21.85,0,0,1,2.36,2.45c1.82,2.07,4.08,4.64,6.61,5.55a.59.59,0,0,1,.38.65.58.58,0,0,1-.58.48Z" transform="translate(-136.9 -417.32)"/></g><g id="path5074"><path d="M482.17,521.72c-2.61,0-10.23-.24-13.33-2.86-4.74-4-6.76-7.18-6-9.42.17-.5.42-1.11.68-1.8.95-2.41,2.24-5.69,1.79-7.66-.61-2.68-3.38-11.23-3.4-11.32a.58.58,0,0,1,1.1-.36c.12.36,2.82,8.69,3.43,11.42.53,2.32-.83,5.8-1.83,8.34-.27.69-.5,1.28-.67,1.76-.56,1.67,1.5,4.64,5.66,8.15,3.36,2.84,13.32,2.58,13.42,2.58a.57.57,0,0,1,.55.86.58.58,0,0,1-.52.3Z" transform="translate(-136.9 -417.32)"/></g><g id="path5076"><path d="M481.13,525.43H481c-4.31-.9-4.49-1-6.44-3.93l-.45-.67a.57.57,0,0,1-.06-.59.58.58,0,0,1,.5-.33.55.55,0,0,1,.52.27l.46.68c1.74,2.6,1.74,2.6,5.72,3.43a.58.58,0,0,1-.12,1.15Z" transform="translate(-136.9 -417.32)"/></g><g id="path5078"><path d="M457.88,522.31a.58.58,0,0,1-.22-1.12l1.42-.58c3-1.21,3-1.21,7.11-4.36l.42-.32a.58.58,0,0,1,.59-.1.6.6,0,0,1,.37.47.61.61,0,0,1-.25.55l-.42.32c-4.2,3.22-4.27,3.26-7.39,4.52l-1.41.58A.57.57,0,0,1,457.88,522.31Z" transform="translate(-136.9 -417.32)"/></g><g id="path5080"><path d="M465.58,517.26a15.52,15.52,0,0,1-10.29-4.57,15.05,15.05,0,0,1-4.4-12.86,18.69,18.69,0,0,1,2.41-6.72c.41-.84.86-1.69,1.29-2.65a.59.59,0,0,1,.77-.29.57.57,0,0,1,.29.77c-.44,1-.89,1.85-1.32,2.7A18,18,0,0,0,452,500a13.75,13.75,0,0,0,4.06,11.89c3,2.95,7.25,4.63,10.59,4.18a.57.57,0,0,1,.62.5.59.59,0,0,1-.46.65A10.69,10.69,0,0,1,465.58,517.26Z" transform="translate(-136.9 -417.32)"/></g><g id="path5082"><path d="M443.32,494.87a.58.58,0,0,1-.56-.45.57.57,0,0,1,.3-.65,8.33,8.33,0,0,0,2.67-2.7c-4.85-6.5.5-13.65,1.14-14.45,3.4-4.31,13.81-6.68,14.26-6.77a.57.57,0,0,1,.66.44.57.57,0,0,1-.41.69c-.1,0-10.45,2.37-13.6,6.36-.59.74-5.61,7.46-.88,13.34a.59.59,0,0,1,0,.67,9.46,9.46,0,0,1-3.36,3.45A.48.48,0,0,1,443.32,494.87Z" transform="translate(-136.9 -417.32)"/></g><g id="path5084"><path d="M460,480.23h-.11a.58.58,0,0,1-.46-.68c0-.06,1.21-6.1,2.61-10.66a77.07,77.07,0,0,1,3.9-10.06c2.21-4.58,4.38-7.2,6.44-7.79a13,13,0,0,1,5-.5c1.06.07,1.17,0,1.31-.25a4.27,4.27,0,0,0,.25-.79c.42-1.54,1.09-4.11,5.66-5.84,3.15-1.2,10.45-2.7,17.78-3.15,6.32-.39,14.61-.1,18.24,3.45a.58.58,0,0,1,0,.82.57.57,0,0,1-.82,0c-2.6-2.53-8.77-3.64-17.36-3.12-7.21.45-14.37,1.91-17.43,3.08-4,1.52-4.57,3.64-4.94,5a5.21,5.21,0,0,1-.35,1c-.5,1-1.39.94-2.42.88a12,12,0,0,0-4.59.45c-2.17.63-6,5.48-9.55,17.08-1.39,4.51-2.57,10.48-2.58,10.54A.57.57,0,0,1,460,480.23Z" transform="translate(-136.9 -417.32)"/></g><g id="path5086"><path d="M478.89,441.55a.59.59,0,0,1-.51-.3.61.61,0,0,1,0-.6c.13-.19,3.13-4.78,10.85-7.85a36.52,36.52,0,0,1,10.52-2.21c5.23-.53,9.76-1,14.44-6.48a.58.58,0,0,1,.88.76c-5,5.84-10,6.34-15.21,6.88a35.56,35.56,0,0,0-10.2,2.14,26.38,26.38,0,0,0-7.93,4.8,15.15,15.15,0,0,0-2.36,2.59A.6.6,0,0,1,478.89,441.55Z" transform="translate(-136.9 -417.32)"/></g><g id="path5088"><path d="M504.29,430.91a.58.58,0,0,1-.53-.35c-.08-.19-.16-.36-.24-.53-.86-1.91-1.39-3.06.7-4.89a.58.58,0,0,1,1,.31.57.57,0,0,1-.21.56c-1.44,1.26-1.26,1.66-.41,3.54q.12.26.24.54a.59.59,0,0,1-.29.77A.69.69,0,0,1,504.29,430.91Z" transform="translate(-136.9 -417.32)"/></g><g id="path5090"><path d="M468.86,486.57a.58.58,0,0,1-.06-1.16c.09,0,8.63-.83,11.81-4.35a28,28,0,0,0,3.54-5.66,43.88,43.88,0,0,1,3-5c1.76-2.44,8.8-3.8,14.23-2.76,4.94,1,8.21,3.68,9.21,7.69a.58.58,0,0,1-.42.7.59.59,0,0,1-.71-.42c-1.13-4.55-5.14-6.22-8.3-6.83a21.85,21.85,0,0,0-8.18.1c-2.39.49-4.26,1.33-4.88,2.2a41,41,0,0,0-2.88,4.91,28.46,28.46,0,0,1-3.71,5.9c-3.48,3.85-12.19,4.69-12.56,4.73Z" transform="translate(-136.9 -417.32)"/></g><g id="path5092"><path d="M491.2,469.24a.56.56,0,0,1-.43-.19c-2.26-2.51-1.85-6-1.27-10.73.06-.54.13-1.09.19-1.67a.61.61,0,0,1,.34-.49.59.59,0,0,1,.82.62c-.07.58-.14,1.13-.2,1.67-.54,4.47-.93,7.69,1,9.81a.57.57,0,0,1,0,.82A.55.55,0,0,1,491.2,469.24Z" transform="translate(-136.9 -417.32)"/></g><g id="path5094"><path d="M510.46,487a.58.58,0,0,1-.58-.54c-.61-10.87-.91-24.18-.24-27.42,1.35-6.62,5.05-10.17,10.64-15.54.83-.81,1.71-1.64,2.64-2.55a.58.58,0,0,1,.81.84l-2.65,2.56c-5.42,5.21-9,8.66-10.3,14.92-.63,3-.36,16.18.26,27.13a.58.58,0,0,1-.55.61Z" transform="translate(-136.9 -417.32)"/></g><g id="path5096"><path d="M510.82,457.21a.43.43,0,0,1-.19,0c-3-1.06-6.73-3.49-10.38-5.84-2.34-1.5-4.56-2.92-6.32-3.83a.58.58,0,1,1,.52-1c1.82.93,4.06,2.37,6.43,3.89,3.59,2.31,7.3,4.7,10.14,5.72a.58.58,0,0,1-.2,1.13Z" transform="translate(-136.9 -417.32)"/></g><g id="path5098"><path d="M518,443.11a.58.58,0,0,1-.58-.56,15.43,15.43,0,0,1,3.21-9,23.83,23.83,0,0,1,7.29-6.26.57.57,0,0,1,.78.26.58.58,0,0,1-.25.78,23.08,23.08,0,0,0-6.89,5.93,14.52,14.52,0,0,0-3,8.29.58.58,0,0,1-.57.59Z" transform="translate(-136.9 -417.32)"/></g><g id="path5100"><path d="M521.4,434.18a.6.6,0,0,1-.55-.37,6.19,6.19,0,0,1,.78-5.09,14.14,14.14,0,0,1,9.18-6.56.58.58,0,0,1,.68.47.59.59,0,0,1-.47.67,13.15,13.15,0,0,0-8.38,6,5,5,0,0,0-.69,4.12.61.61,0,0,1,0,.44.57.57,0,0,1-.33.3A.34.34,0,0,1,521.4,434.18Z" transform="translate(-136.9 -417.32)"/></g><g id="path5102"><path d="M556.83,445.6a.59.59,0,0,1-.52-.31c-1.19-2.32-1.93-2.59-3.16-3a11.93,11.93,0,0,1-3.89-2.17.59.59,0,0,1-.07-.8.58.58,0,0,1,.79-.11,10.81,10.81,0,0,0,3.57,2c1.34.48,2.4.87,3.8,3.59a.59.59,0,0,1-.25.79A.66.66,0,0,1,556.83,445.6Z" transform="translate(-136.9 -417.32)"/></g><g id="path5104"><path d="M547,463.22a.57.57,0,0,1-.56-.46c-.57-2.64-2.81-3.52-5.41-4.53a15.92,15.92,0,0,1-4.65-2.44.59.59,0,0,1-.07-.82.58.58,0,0,1,.82-.06,15.27,15.27,0,0,0,4.32,2.24c2.67,1,5.42,2.11,6.12,5.37a.58.58,0,0,1-.44.69Z" transform="translate(-136.9 -417.32)"/></g><g id="path5106"><path d="M547.55,493.55A.58.58,0,0,1,547,493c0-2.58-.57-5.59-4.74-8.35a.58.58,0,0,1-.14-.79.6.6,0,0,1,.78-.18c4.66,3.09,5.26,6.61,5.26,9.33A.59.59,0,0,1,547.55,493.55Z" transform="translate(-136.9 -417.32)"/></g><g id="path5108"><path d="M529.24,500.6l-.15,0a.61.61,0,0,1-.36-.27.56.56,0,0,1-.06-.44c1.64-6.09-.73-8.25-5.92-13a.56.56,0,0,1,0-.81.57.57,0,0,1,.82,0c5.39,4.89,8.09,7.35,6.26,14.13A.59.59,0,0,1,529.24,500.6Z" transform="translate(-136.9 -417.32)"/></g><g id="path5110"><path d="M559.63,494.48a.58.58,0,0,1-.31-1.07,23.77,23.77,0,0,0,5.24-4.87c2.4-3.07,5.69-11.08,5.72-11.17a.58.58,0,1,1,1.08.44c-.14.33-3.38,8.24-5.89,11.43a24.29,24.29,0,0,1-5.53,5.13A.58.58,0,0,1,559.63,494.48Z" transform="translate(-136.9 -417.32)"/></g><g id="path5112"><path d="M503.63,505a.57.57,0,0,1-.55-.43c0-.06-1.61-5.84-2.76-8.9s-2.1-8.46-2.75-12.35c-.46-2.76-4.48-9.1-4.52-9.16a.6.6,0,0,1,.19-.79.59.59,0,0,1,.8.16c.17.27,4.17,6.6,4.68,9.6.42,2.45,1.5,8.95,2.69,12.12s2.71,8.77,2.79,9a.56.56,0,0,1-.06.44.56.56,0,0,1-.35.27A.41.41,0,0,1,503.63,505Z" transform="translate(-136.9 -417.32)"/></g><g id="path5114"><path d="M527.72,476.21a.58.58,0,0,1-.57-.47c-1.67-8.57-1.73-14.13,2.77-19,1.84-2,3.68-3.67,5.16-5,1.9-1.76,3.55-3.27,3.79-4.13a42.89,42.89,0,0,1,3.72-8.42c1.57-2.71,4-6.27,6.89-7.72a.58.58,0,0,1,.78.26.57.57,0,0,1-.26.78c-4.54,2.3-8.83,11.33-10,15.42-.34,1.18-1.84,2.56-4.12,4.66-1.54,1.42-3.29,3-5.09,5-4.18,4.47-4.09,9.76-2.49,17.95a.56.56,0,0,1-.45.68Z" transform="translate(-136.9 -417.32)"/></g><g id="path5118"><path d="M613.65,473.67a.61.61,0,0,1-.55-.4,46.12,46.12,0,0,0-2.44-5.75c-1.94-3.77-3.93-6.07-5.75-6.63-5.53-1.71-9.07-.85-14.45,1.6a.58.58,0,0,1-.48-1.06c4.73-2.15,8.85-3.63,15.28-1.65,5.06,1.56,8.79,12.65,8.94,13.12a.58.58,0,0,1-.37.74A.57.57,0,0,1,613.65,473.67Z" transform="translate(-136.9 -417.32)"/></g><g id="path5122"><path d="M649,551.69l-.18,0a.59.59,0,0,1-.38-.73c.17-.54,4.2-13.22,7.35-16.73,2.79-3.09,3-13.39,2.33-19.72A66.81,66.81,0,0,0,653.22,497a15.68,15.68,0,0,1-.62-2.23,28.75,28.75,0,0,0-2.83-7.73l-1.06-1.91c-1.84-3.28-2.85-5.08-3.25-7-.52-2.49-3.73-4.24-6.83-5.93a23,23,0,0,1-5.36-3.55.58.58,0,0,1,.84-.81,22.77,22.77,0,0,0,5.09,3.34c3.33,1.81,6.77,3.69,7.4,6.7.37,1.77,1.35,3.52,3.13,6.7l1.07,1.91a29.42,29.42,0,0,1,2.94,8,15.39,15.39,0,0,0,.57,2.06,68,68,0,0,1,4.94,17.77c.68,6.09.58,17.07-2.62,20.63-3,3.32-7.06,16.17-7.11,16.3A.58.58,0,0,1,649,551.69Z" transform="translate(-136.9 -417.32)"/></g><g id="path5124"><path d="M505.18,529.59a21.2,21.2,0,0,1-9.93-3,.59.59,0,0,1,.63-1c.06,0,6.23,3.83,11.79,2.53A50.34,50.34,0,0,0,518,523.79c1.69-.9,4.1-.81,6.43-.73a14.76,14.76,0,0,0,4.83-.29,20.23,20.23,0,0,0,4.14-2.43c2.32-1.6,4.72-3.26,7.11-3.34.84,0,1.82,0,3,0a46.18,46.18,0,0,0,7-.1,35.25,35.25,0,0,0,5.64-1.33c.58-.17,1.07-.32,1.47-.41a4.5,4.5,0,0,1,4.36.92,5.48,5.48,0,0,0,4,1.25c3.57-.16,10-2.78,16.42-8.27a47.57,47.57,0,0,0,15.21-24.72.58.58,0,0,1,1.13.28A48.74,48.74,0,0,1,583.11,510c-6.61,5.67-13.36,8.38-17.11,8.55a6.66,6.66,0,0,1-4.72-1.46,3.38,3.38,0,0,0-3.39-.74l-1.44.41a36,36,0,0,1-5.84,1.38,48.63,48.63,0,0,1-7.17.1c-1.11,0-2.07-.08-2.85-.05-2.06.08-4.32,1.64-6.5,3.13a20.52,20.52,0,0,1-4.42,2.57,15.71,15.71,0,0,1-5.25.36c-2.18-.08-4.43-.17-5.85.59a51.09,51.09,0,0,1-10.63,4.47A12.15,12.15,0,0,1,505.18,529.59Zm83.8-1.07a.6.6,0,0,1-.57-.42.59.59,0,0,1,.25-.66,19.59,19.59,0,0,0,4.22-3.34,25,25,0,0,1,3.31-2.86c3.61-2.67,5.35-7.35,7.42-13.65.36-1.11,1.7-1.67,3.24-2.33,1.92-.81,4.31-1.82,5.53-4.12l1-1.79c2.82-5.26,4-7.46,4.29-8.81.16-1.51-1.21-4-2.42-6.26a29.64,29.64,0,0,1-1.93-4,.59.59,0,0,1,.09-.6.59.59,0,0,1,.57-.19.57.57,0,0,1,.44.41,28.83,28.83,0,0,0,1.85,3.82c1.37,2.5,2.78,5.11,2.55,7v.06c-.32,1.5-1.52,3.73-4.4,9.14l-1,1.79c-1.42,2.66-4,3.75-6.11,4.64-1.23.52-2.39,1-2.59,1.61-1.79,5.47-3.65,11.13-7.83,14.23a23.93,23.93,0,0,0-3.19,2.76,21.7,21.7,0,0,1-4.41,3.49A.59.59,0,0,1,589,528.52Z" transform="translate(-136.9 -417.32)"/></g><g id="path5126"><path d="M583.2,482.17h0a.59.59,0,0,1-.41-.19.56.56,0,0,1-.15-.41c0-.8.1-1.61.16-2.4.42-5.24.83-10.18-7.11-13.61-1.88-.81-4.73-.42-8,1.13a20.35,20.35,0,0,0-6.21,4.23.59.59,0,0,1-.8.06.58.58,0,0,1-.1-.79c1.82-2.22,10.5-7.92,15.62-5.7,8.7,3.76,8.23,9.61,7.81,14.77-.06.78-.13,1.58-.16,2.35A.58.58,0,0,1,583.2,482.17Z" transform="translate(-136.9 -417.32)"/></g><g id="path5128"><path d="M500.18,552.52a36.74,36.74,0,0,1-6.45-.66.58.58,0,1,1,.21-1.14c5.62,1,10.36,1.09,15.25-1.67a.58.58,0,0,1,.57,1A18.81,18.81,0,0,1,500.18,552.52Z" transform="translate(-136.9 -417.32)"/></g><g id="path5130"><path d="M518.83,555.43a.58.58,0,0,1-.36-.12c-4.05-3.25-7.27-4.35-12.14-6a9.39,9.39,0,0,1-5.56-5.45,10.35,10.35,0,0,1,.29-8.59,44.21,44.21,0,0,0,2.92-6.5.58.58,0,0,1,1.12.3,44,44,0,0,1-3,6.73,9.21,9.21,0,0,0-.25,7.62,8.31,8.31,0,0,0,4.87,4.8c5,1.7,8.27,2.83,12.48,6.2a.58.58,0,0,1,.2.65.57.57,0,0,1-.56.39Z" transform="translate(-136.9 -417.32)"/></g><g id="path5132"><path d="M523.2,512.34a.53.53,0,0,1-.32-.1.57.57,0,0,1-.16-.8c1.21-1.77.92-4.16-.94-7.77a.58.58,0,1,1,1-.53c1.4,2.71,2.77,6.18.87,9A.55.55,0,0,1,523.2,512.34Z" transform="translate(-136.9 -417.32)"/></g><g id="path5134"><path d="M519.49,524.44a.59.59,0,0,1-.46-.23c-.12-.15-2.9-3.81-3.47-7.09a.58.58,0,0,1,1.15-.2c.51,3,3.22,6.54,3.24,6.57a.59.59,0,0,1-.46,1Z" transform="translate(-136.9 -417.32)"/></g><g id="path5136"><path d="M519.5,536.4a.57.57,0,0,1-.57-.5,19.76,19.76,0,0,0-4.46-9.45.59.59,0,0,1,0-.83.6.6,0,0,1,.83,0,20.81,20.81,0,0,1,4.76,10.09.58.58,0,0,1-.49.65Z" transform="translate(-136.9 -417.32)"/></g><g id="path5138"><path d="M573.21,518.72a.59.59,0,0,1-.54-.37.57.57,0,0,1,.13-.63c2.49-2.38,8.56-7.69,8.63-7.74a.58.58,0,0,1,.77.87c-.07.06-6.13,5.35-8.59,7.71A.59.59,0,0,1,573.21,518.72Z" transform="translate(-136.9 -417.32)"/></g><g id="path5140"><path d="M539.78,518.2a.57.57,0,0,1-.37-.14c-1.88-1.6-3.4-5.13-2.53-9.4a.59.59,0,0,1,.38-.47.6.6,0,0,1,.59.12.58.58,0,0,1,.17.58c-.77,3.79.57,7,2.14,8.29a.59.59,0,0,1,.17.64A.58.58,0,0,1,539.78,518.2Z" transform="translate(-136.9 -417.32)"/></g><g id="path5142"><path d="M606.38,494h-.06c-.32,0-8-.85-10-3.76a.58.58,0,1,1,1-.67c1.46,2.06,7.15,3.06,9.21,3.28a.57.57,0,0,1,.51.6.58.58,0,0,1-.57.56Z" transform="translate(-136.9 -417.32)"/></g><g id="path5144"><path d="M519.6,547a.58.58,0,0,1-.55-.4.57.57,0,0,1,.2-.64c1.26-1,7.66-5.82,9.62-5.88.79,0,2,.07,3.43.18a32.69,32.69,0,0,0,6.73.09,15.76,15.76,0,0,0,6.05-2.68,18.58,18.58,0,0,1,6.08-2.82,11.85,11.85,0,0,1,3.41.2c2.79.36,7,.91,10.75-.12,2.12-.59,6.24-1,12.24-1.33,1.32-.06,3.84.63,6.75,1.45,3.6,1,7.67,2.14,9.75,1.86,1.82-.25,4.15-1.58,6.85-3.13a63.84,63.84,0,0,1,9.22-4.59.59.59,0,0,1,.76.33.6.6,0,0,1-.34.76,62.52,62.52,0,0,0-9,4.51c-2.92,1.67-5.23,3-7.28,3.27-2.31.32-6.51-.85-10.22-1.89-2.7-.75-5.24-1.46-6.38-1.41-7.37.36-10.59.9-12,1.29-4,1.1-8.33.53-11.2.15a12.11,12.11,0,0,0-3-.21,17.5,17.5,0,0,0-5.73,2.67,17.11,17.11,0,0,1-6.46,2.84,32.84,32.84,0,0,1-7-.08c-1.32-.1-2.57-.19-3.3-.17-1.22,0-6.14,3.48-8.95,5.63A.55.55,0,0,1,519.6,547Z" transform="translate(-136.9 -417.32)"/></g><g id="path5146"><path d="M620.47,547.15a.57.57,0,0,1-.42-.16,75.8,75.8,0,0,0-7-5.9,96.84,96.84,0,0,1-9.3-8,.58.58,0,0,1,.82-.83,92.76,92.76,0,0,0,9.2,7.89,78.92,78.92,0,0,1,7.07,6,.59.59,0,0,1,.13.64.57.57,0,0,1-.55.35Z" transform="translate(-136.9 -417.32)"/></g><g id="path5148"><path d="M637.18,552.85a.58.58,0,0,1-.33-1.06,20.68,20.68,0,0,1,4.14-2,22.24,22.24,0,0,0,5.36-2.76,18.87,18.87,0,0,0,3.79-4.45,16.6,16.6,0,0,1,2.76-3.37.6.6,0,0,1,.82.1.57.57,0,0,1-.1.81,15.71,15.71,0,0,0-2.52,3.13A19.8,19.8,0,0,1,647,548a23.94,23.94,0,0,1-5.62,2.9,19.46,19.46,0,0,0-3.91,1.91A.63.63,0,0,1,637.18,552.85Z" transform="translate(-136.9 -417.32)"/></g><g id="path5150"><path d="M621.06,534.5H621a.59.59,0,0,1-.53-.62c.69-7.79-.05-13.47-2.42-18.42-2.44-5.12-8.76-10.64-8.82-10.7a.58.58,0,0,1,.76-.88c.27.24,6.56,5.74,9.11,11.08,2.46,5.15,3.24,11,2.53,19A.57.57,0,0,1,621.06,534.5Z" transform="translate(-136.9 -417.32)"/></g><g id="path5152"><path d="M658.86,522.34a.6.6,0,0,1-.54-.36c-2.64-6.27-9.25-15-14.78-15.11a.59.59,0,0,1-.54-.59.58.58,0,0,1,.56-.57c6.3.11,13.17,9.5,15.84,15.82a.59.59,0,0,1-.31.76A.64.64,0,0,1,658.86,522.34Z" transform="translate(-136.9 -417.32)"/></g><g id="path5154"><path d="M639.55,545.19a.59.59,0,0,1-.56-.41,8,8,0,0,0-2-2.18c-1.74-1.56-3.72-3.33-3-5.27.7-1.76,2.77-2.87,5-4.05a25.69,25.69,0,0,0,4.08-2.55c2.11-1.76,3.31-4.32,4.27-6.38.28-.59.54-1.14.78-1.6a.58.58,0,0,1,1,.55c-.23.43-.49,1-.75,1.54-1,2-2.28,4.86-4.59,6.78a26.35,26.35,0,0,1-4.27,2.68c-2,1.08-3.9,2.09-4.43,3.46-.48,1.19,1.18,2.67,2.63,4a7.72,7.72,0,0,1,2.32,2.7.57.57,0,0,1-.08.52.58.58,0,0,1-.47.24Z" transform="translate(-136.9 -417.32)"/></g><g id="path5156"><path d="M643.86,511.76a.59.59,0,0,1-.58-.53c-.16-1.9,0-9.09.16-12.37s-3.62-8.88-6.05-9.79a.57.57,0,0,1-.33-.75.58.58,0,0,1,.75-.34c3.09,1.16,7,7.39,6.81,10.93s-.31,10.52-.17,12.22a.57.57,0,0,1-.53.62Z" transform="translate(-136.9 -417.32)"/></g><g id="path5158"><path d="M624.69,517.22a13.84,13.84,0,0,1-6.09-1.17.59.59,0,0,1-.26-.79.58.58,0,0,1,.78-.25c4.2,2.13,13,1,18.87-2.51a.59.59,0,0,1,.8.21.58.58,0,0,1-.21.79A28.87,28.87,0,0,1,624.69,517.22Z" transform="translate(-136.9 -417.32)"/></g><g id="path5160"><path d="M633.23,503.2a.58.58,0,0,1-.45-.2c-2.54-3-1-5.61.42-7.91a9.48,9.48,0,0,0,1.67-4c.25-3.62-2.56-5.72-13.07-11.55a.59.59,0,0,1-.23-.79.58.58,0,0,1,.79-.23c10.37,5.76,14,8.18,13.66,12.65a10.37,10.37,0,0,1-1.84,4.53c-1.35,2.25-2.52,4.19-.52,6.55a.6.6,0,0,1,.09.63.59.59,0,0,1-.53.33Z" transform="translate(-136.9 -417.32)"/></g><g id="path5162"><path d="M635.47,490a.59.59,0,0,1-.58-.55,8.29,8.29,0,0,1,.28-2.22,5.85,5.85,0,0,0-.27-4.32,32.49,32.49,0,0,0-8.71-10.07.59.59,0,0,1,0-1.05.61.61,0,0,1,.62.07c2.41,1.58,7.31,6.7,9.12,10.56a7,7,0,0,1,.36,5.07,6.7,6.7,0,0,0-.25,1.9.59.59,0,0,1-.55.61Z" transform="translate(-136.9 -417.32)"/></g><g id="path5164"><path d="M637.48,531.14a.58.58,0,0,1-.56-.45c-.18-.74-.35-1.59-.53-2.48-.87-4.23-2.07-10-4.58-12.42a.59.59,0,0,1,.81-.84c2.77,2.66,4,8.65,4.91,13,.18.89.35,1.73.52,2.45a.61.61,0,0,1-.07.44.65.65,0,0,1-.37.26Z" transform="translate(-136.9 -417.32)"/></g><g id="path5166"><path d="M463.47,518.09c-2.33,0-4.84-1-7.16-1.9-2.82-1.1-5.48-2.15-7.34-1.38a.58.58,0,0,1-.74-.32.59.59,0,0,1,.3-.76c2.3-.94,5.16.19,8.2,1.38,3.56,1.4,7.24,2.84,9.87.82a.6.6,0,0,1,.6-.1.58.58,0,0,1,.11,1A6.11,6.11,0,0,1,463.47,518.09Z" transform="translate(-136.9 -417.32)"/></g><g id="path5168"><path d="M453.32,495.1h-.06a11.49,11.49,0,0,1-4.69-2,27.29,27.29,0,0,0-2.41-1.38.58.58,0,0,1,.5-1,26.12,26.12,0,0,1,2.53,1.43,10.79,10.79,0,0,0,4.2,1.84.57.57,0,0,1,.53.61.59.59,0,0,1-.59.55Z" transform="translate(-136.9 -417.32)"/></g><g id="path5170"><path d="M634.32,477.27a.64.64,0,0,1-.27-.07A8.26,8.26,0,0,1,632,475a11.44,11.44,0,0,0-1.83-2.1c-1.11-.82-1.06-2.74-1-4.59,0-.55,0-1.08,0-1.51a.59.59,0,0,1,.55-.59.57.57,0,0,1,.61.53c0,.48,0,1,0,1.6,0,1.34-.08,3.17.54,3.63a12.43,12.43,0,0,1,2.07,2.34,8,8,0,0,0,1.69,1.9.59.59,0,0,1,.28.66.57.57,0,0,1-.56.43Z" transform="translate(-136.9 -417.32)"/></g><g id="path5172"><path d="M627,482.31a.58.58,0,0,1-.57-.49,17.47,17.47,0,0,1,0-3.4c.11-1.68.22-3.42-.26-4.38a.59.59,0,0,1,1.05-.52c.62,1.24.49,3.14.37,5a15.66,15.66,0,0,0,0,3.14.59.59,0,0,1-.49.67Z" transform="translate(-136.9 -417.32)"/></g><g id="path5174"><path d="M649.46,535.47a.58.58,0,0,1-.41-.17l-.21-.21a15.48,15.48,0,0,0-5-3.76.58.58,0,1,1,.41-1.09,16.66,16.66,0,0,1,5.41,4l.21.2a.6.6,0,0,1,.12.64.59.59,0,0,1-.54.36Z" transform="translate(-136.9 -417.32)"/></g><g id="path5176"><path d="M649.25,486a.58.58,0,0,1-.56-.44.57.57,0,0,1,.27-.65c1.16-.66,1.91-3.4,1.91-5a.58.58,0,0,1,.28-.53.59.59,0,0,1,.6,0,.58.58,0,0,1,.28.53c0,1.6-.73,5-2.5,6A.6.6,0,0,1,649.25,486Z" transform="translate(-136.9 -417.32)"/></g><g id="path5178"><path d="M640.15,472.68a.58.58,0,0,1-.49-.27.59.59,0,0,1,0-.56,16.11,16.11,0,0,0,1-5.26.58.58,0,0,1,1.16,0,16.69,16.69,0,0,1-1.1,5.77A.57.57,0,0,1,640.15,472.68Z" transform="translate(-136.9 -417.32)"/></g><g id="path5180"><path d="M655.09,500.83a.54.54,0,0,1-.25-.06.6.6,0,0,1-.3-.33.59.59,0,0,1,0-.45,17.24,17.24,0,0,1,1.42-2.27c1-1.37,1.86-2.67,1.86-4.13a.59.59,0,0,1,1.17,0c0,1.83-1.06,3.34-2.09,4.8a14.35,14.35,0,0,0-1.32,2.11A.6.6,0,0,1,655.09,500.83Z" transform="translate(-136.9 -417.32)"/></g><g id="path5182"><path d="M483.52,477.91a.59.59,0,0,1-.36-.13l-1.2-.94c-2.71-2.08-5.53-4.26-5.75-8.36a.57.57,0,0,1,.54-.6.59.59,0,0,1,.62.53c.19,3.58,2.56,5.4,5.3,7.52l1.22.94a.59.59,0,0,1-.37,1.05Z" transform="translate(-136.9 -417.32)"/></g><g id="path5184"><path d="M495.77,442.21a.55.55,0,0,1-.3-.09.57.57,0,0,1-.19-.79c1.46-2.4,1-4.08.53-5.87-.1-.39-.21-.8-.3-1.22a.58.58,0,0,1,1.14-.23c.08.38.18.76.29,1.15.49,1.85,1.05,3.95-.67,6.77A.59.59,0,0,1,495.77,442.21Z" transform="translate(-136.9 -417.32)"/></g><g id="path5186"><path d="M455.51,465.94a.58.58,0,0,1-.36-1.05c7.56-5.94,12.26-12.54,14.34-20.21a.61.61,0,0,1,.41-.43.57.57,0,0,1,.58.16.58.58,0,0,1,.14.58c-2.16,7.91-7,14.72-14.75,20.82A.59.59,0,0,1,455.51,465.94Z" transform="translate(-136.9 -417.32)"/></g><g id="path5188"><path d="M454,459.05a.6.6,0,0,1-.57-.45.58.58,0,0,1,.31-.65c3-1.52,6.36-2.94,10.62-2.2a.58.58,0,0,1,.44.67.59.59,0,0,1-.64.48c-3.91-.68-7,.66-9.9,2.08A.48.48,0,0,1,454,459.05Z" transform="translate(-136.9 -417.32)"/></g><g id="path5190"><path d="M545.38,477.11a.59.59,0,0,1-.42-.17.6.6,0,0,1-.16-.41A59,59,0,0,1,547.08,460a10.81,10.81,0,0,1,2.63-4.35,14.8,14.8,0,0,0,1.8-2.37,25.32,25.32,0,0,0,1.44-3.13c.86-2.07,1.75-4.21,3.13-5.36,8.73-7.22,21.6-5.5,33.59,4.5a.59.59,0,0,1,.23.55.58.58,0,0,1-.39.46.56.56,0,0,1-.58-.12c-11.54-9.62-23.85-11.34-32.12-4.49-1.16,1-2,3-2.79,4.91a27.59,27.59,0,0,1-1.52,3.26,15,15,0,0,1-1.93,2.55,9.82,9.82,0,0,0-2.39,3.92,58.07,58.07,0,0,0-2.23,16.2A.59.59,0,0,1,545.38,477.11Z" transform="translate(-136.9 -417.32)"/></g><g id="path5192"><path d="M599.11,447.87a.58.58,0,0,1-.5-.28.6.6,0,0,1,0-.58c2.61-4.74,2.77-7.57.51-9.18-1.93-1.36-5.8-2-9.54-2.71a56,56,0,0,1-6.54-1.4,42.57,42.57,0,0,1-4.73-1.86c-3.3-1.48-5.91-2.64-9.18-1.45-4.46,1.62-9,6.79-8.81,12.64a.62.62,0,0,1-.16.41.59.59,0,0,1-.41.18.59.59,0,0,1-.6-.56c-.18-6.37,4.74-12,9.59-13.77,3.71-1.35,6.65,0,10,1.48a40.12,40.12,0,0,0,4.59,1.81,56.51,56.51,0,0,0,6.4,1.37c3.87.69,7.87,1.39,10,2.91,3.68,2.6,1.66,7.34-.16,10.68A.59.59,0,0,1,599.11,447.87Z" transform="translate(-136.9 -417.32)"/></g><g id="path5194"><path d="M543.54,438.53a.58.58,0,0,1-.55-.39c-1.37-4.08-.84-7.9,1.48-10.76,2.63-3.22,7.17-4.71,12.46-4.09a61.74,61.74,0,0,0,9.14.23c4.8-.13,9.32-.25,13.84,1.81,1.88.93,2,3.53,2,5.89a.56.56,0,0,1-.28.53.59.59,0,0,1-.6,0,.6.6,0,0,1-.28-.53c0-2-.1-4.21-1.36-4.84-4.26-1.94-8.65-1.82-13.3-1.7a62.91,62.91,0,0,1-9.32-.23c-4.88-.58-9,.76-11.41,3.67-2.07,2.53-2.52,6-1.29,9.65a.57.57,0,0,1-.37.73Z" transform="translate(-136.9 -417.32)"/></g><g id="path5196"><path d="M542.31,430.88a.57.57,0,0,1-.57-.53c-.21-2.51-2.39-4.53-4.18-5.78a24.12,24.12,0,0,0-6.74-3.2.58.58,0,1,1,.32-1.12c4.49,1.28,11.33,5,11.75,10a.59.59,0,0,1-.53.63Z" transform="translate(-136.9 -417.32)"/></g><g id="path5198"><path d="M598.35,433c-2.74,0-5.49-.24-8.14-.48A75,75,0,0,0,580,432.1a.58.58,0,1,1,0-1.16,75.24,75.24,0,0,1,10.35.44c2.64.23,5.37.48,8.05.48a.57.57,0,0,1,.54.58.59.59,0,0,1-.54.58Z" transform="translate(-136.9 -417.32)"/></g><g id="path5200"><path d="M621.31,466.4a.57.57,0,0,1-.29-.08c-4.08-2.38-7.31-6-10.44-9.43-6.49-7.2-12.62-14-25.71-10.42a.57.57,0,0,1-.71-.4.6.6,0,0,1,.41-.72c13.78-3.77,20.44,3.62,26.88,10.76,3.06,3.4,6.23,6.92,10.15,9.2a.58.58,0,0,1-.29,1.09Z" transform="translate(-136.9 -417.32)"/></g><g id="path5202"><path d="M633.86,471.6a.58.58,0,0,1-.57-.47,13.16,13.16,0,0,0-5.59-8.66c-3.44-2.27-8.11-3-13.16-1.9a.58.58,0,1,1-.24-1.14c5.36-1.11,10.34-.38,14,2.07a14.31,14.31,0,0,1,6.09,9.4.58.58,0,0,1-.45.69Z" transform="translate(-136.9 -417.32)"/></g><g id="path5204"><path d="M628.4,458.44a6.46,6.46,0,0,1-3.13-.78c-1.88-1-3.17-3.05-3.76-5.81a.58.58,0,0,1,1.13-.24,7.16,7.16,0,0,0,3.2,5c1.49.84,3.35.85,5.53.06a.58.58,0,1,1,.39,1.09A9.88,9.88,0,0,1,628.4,458.44Z" transform="translate(-136.9 -417.32)"/></g><g id="path5206"><path d="M638,471.8H638a.58.58,0,0,1-.51-.64c1.29-12.08-6.83-15.65-15.42-19.44-6.43-2.83-13.09-5.77-16-12.46a.57.57,0,0,1,.3-.76.59.59,0,0,1,.77.3c2.69,6.27,9.13,9.11,15.36,11.86,8.6,3.79,17.48,7.7,16.1,20.62A.58.58,0,0,1,638,471.8Z" transform="translate(-136.9 -417.32)"/></g><g id="path5208"><path d="M620.54,451.24h0a.57.57,0,0,1-.4-.2.6.6,0,0,1-.14-.42c.24-3.09-1.25-9.49-13.84-17.68-7.6-4.94-17.19-9-23.32-9.87a.58.58,0,0,1,.17-1.15c6.28.89,16.06,5,23.78,10.05,5.62,3.65,15,10.95,14.37,18.74A.57.57,0,0,1,620.54,451.24Z" transform="translate(-136.9 -417.32)"/></g><g id="path5210"><path d="M555.94,424.14a.57.57,0,0,1-.56-.42.58.58,0,0,1,.26-.65c.55-.33,1.09-.68,1.61-1a14.75,14.75,0,0,1,5.88-2.7.58.58,0,0,1,.66.49.59.59,0,0,1-.5.66,13.85,13.85,0,0,0-5.4,2.52c-.54.35-1.09.7-1.65,1A.47.47,0,0,1,555.94,424.14Z" transform="translate(-136.9 -417.32)"/></g><g id="path5212"><path d="M586.45,583.85l-.12,0c-12.47-2.5-20.77-6.53-27.74-13.5-.84-.83-.39-2.41,0-3.92a6.76,6.76,0,0,0,.37-1.78c-.77-.77-1.52-1.42-2.24-2-3.36-2.92-5.78-5-4.32-13.17a.6.6,0,0,1,.68-.47.59.59,0,0,1,.46.68c-1.34,7.48.76,9.31,3.94,12.08.75.66,1.53,1.33,2.34,2.15.55.55.26,1.58-.12,2.88-.26.91-.7,2.43-.34,2.78,6.79,6.79,14.91,10.74,27.15,13.19a.58.58,0,0,1,.46.62.59.59,0,0,1-.57.53Z" transform="translate(-136.9 -417.32)"/></g><g id="path5214"><path d="M597.47,582.4c-7.56,0-16-1.27-24.63-2.72a.59.59,0,0,1-.48-.67.58.58,0,0,1,.67-.48c27.11,4.55,44.35,5.77,55.11-15.76,1.21-2.43,1-8.52-.08-10.36a.59.59,0,0,1,1-.59c1.25,2.13,1.52,8.65.11,11.48C624,573.76,616.89,579.57,607,581.56A47.25,47.25,0,0,1,597.47,582.4Z" transform="translate(-136.9 -417.32)"/></g><g id="path5216"><path d="M519.06,559.57a.58.58,0,0,1-.21-1.12c7.19-2.77,14.3-5.32,21.14-7.6a15.7,15.7,0,0,1,5.18-.19c2.36.13,5,.29,5.92-.59,2.87-2.87,9.42-1.39,15.76,0,4.35,1,8.85,2,10.72,1.07,11.84-5.92,25.17-3.68,38.06-1.51,7.64,1.29,14.86,2.5,21.51,2a.58.58,0,0,1,.08,1.16c-6.79.5-14.07-.72-21.78-2-12.71-2.14-25.85-4.36-37.35,1.39-2.24,1.13-6.53.16-11.49-1-5.75-1.3-12.27-2.77-14.69-.36-1.25,1.25-3.95,1.09-6.81.93a15.79,15.79,0,0,0-4.74.13c-6.82,2.27-13.92,4.82-21.09,7.59Z" transform="translate(-136.9 -417.32)"/></g><g id="path5218"><path d="M530.74,559.66a10.53,10.53,0,0,1-6.54-2.29.59.59,0,0,1,.71-.93c5,3.82,10,1.55,14.88-.64a37.63,37.63,0,0,1,4.81-1.9.58.58,0,0,1,.7.4.58.58,0,0,1-.38.71,37.66,37.66,0,0,0-4.65,1.85C537.28,558.21,534.05,559.66,530.74,559.66Z" transform="translate(-136.9 -417.32)"/></g><g id="path5220"><path d="M530.22,559.63a.58.58,0,0,1-.58-.54.6.6,0,0,1,.5-.62c2.46-.35,3.88-1.94,5.39-3.62,1.88-2.09,3.82-4.25,7.76-3.88a.58.58,0,0,1,.5.63.59.59,0,0,1-.61.53c-3.36-.32-5,1.53-6.78,3.5-1.59,1.76-3.22,3.58-6.1,4Z" transform="translate(-136.9 -417.32)"/></g><g id="path5222"><path d="M560.87,564.51a13.71,13.71,0,0,1-1.43-.08.18.18,0,0,1-.15-.19.17.17,0,0,1,.19-.16c4.2.47,7.45-1.26,10.6-2.93.9-.48,1.75-.94,2.63-1.34a.18.18,0,0,1,.23.08.18.18,0,0,1-.09.24c-.86.4-1.71.85-2.61,1.32C567.41,563,564.5,564.51,560.87,564.51Z" transform="translate(-136.9 -417.32)"/></g><g id="path5224"><path d="M594.07,566.31c-.92,0-1.86,0-2.82-.07a210.1,210.1,0,0,1-24.47-2.88.19.19,0,0,1-.13-.21.17.17,0,0,1,.19-.14,207.23,207.23,0,0,0,24.43,2.88,91,91,0,0,0,12.46-.47c1.46-.12,3-.25,4.48-.34a.17.17,0,0,1,.13,0,.17.17,0,0,1,0,.12.14.14,0,0,1,0,.12.14.14,0,0,1-.12.06c-1.51.1-3,.23-4.47.35C600.66,566,597.47,566.31,594.07,566.31Z" transform="translate(-136.9 -417.32)"/></g><g id="path5226"><path d="M605.77,564.05h0c-2.89-.12-5.87-.1-9-.09-7.17,0-14.57.09-21.4-1.53a.14.14,0,0,1-.11-.07.17.17,0,0,1,0-.14.16.16,0,0,1,.08-.1.15.15,0,0,1,.13,0c6.79,1.61,14.18,1.57,21.32,1.53,3.15,0,6.14,0,9,.08a.17.17,0,0,1,.16.17.18.18,0,0,1-.16.18Z" transform="translate(-136.9 -417.32)"/></g><g id="path5228"><path d="M594.44,562.45c-6.59,0-13.27-1.18-19.71-2.46a.2.2,0,0,1-.12-.21.18.18,0,0,1,.19-.14c10,2,20.55,3.74,30.43,1.19a.2.2,0,0,1,.18,0,.17.17,0,0,1,0,.18.16.16,0,0,1-.13.12A43.82,43.82,0,0,1,594.44,562.45Z" transform="translate(-136.9 -417.32)"/></g><g id="path5230"><path d="M634.94,556a8.63,8.63,0,0,1-4.65-1.27c-.41-.21-.82-.44-1.29-.63a.17.17,0,0,1-.12-.14.19.19,0,0,1,.07-.17.19.19,0,0,1,.19,0c.48.21.9.43,1.31.65a9,9,0,0,0,6.26,1.12.17.17,0,1,1,0,.34A15.7,15.7,0,0,1,634.94,556Z" transform="translate(-136.9 -417.32)"/></g><g id="path5232"><path d="M634.69,558.35a16.23,16.23,0,0,1-5.32-.78.22.22,0,0,1-.1-.09.18.18,0,0,1,.22-.24,18.28,18.28,0,0,0,6.71.73.19.19,0,0,1,.17.07.19.19,0,0,1,0,.19.15.15,0,0,1-.16.08C635.72,558.33,635.22,558.35,634.69,558.35Z" transform="translate(-136.9 -417.32)"/></g><g id="path5234"><path d="M634.77,562.88a.17.17,0,0,1-.17-.13c-.54-2-2.85-2.13-4.54-2.26l-.58,0a.18.18,0,0,1,0-.35l.58,0c1.79.13,4.24.31,4.85,2.5a.2.2,0,0,1,0,.15.16.16,0,0,1-.14.07Z" transform="translate(-136.9 -417.32)"/></g><g id="path5236"><path d="M633.42,566a.18.18,0,0,1-.16-.1c-.58-1.25-2.14-2-4.51-2.28a.18.18,0,0,1-.16-.19.18.18,0,0,1,.2-.16c2.53.25,4.14,1.08,4.79,2.49a.18.18,0,0,1-.08.23Z" transform="translate(-136.9 -417.32)"/></g><g id="path5238"><path d="M631.6,569.31h0a.19.19,0,0,1-.12-.07.14.14,0,0,1,0-.13c.13-1.06-.87-1.31-2.67-1.65a17.17,17.17,0,0,1-2.23-.52.18.18,0,0,1-.1-.22.18.18,0,0,1,.21-.12,15.15,15.15,0,0,0,2.19.52c1.68.32,3.13.59,2.94,2A.17.17,0,0,1,631.6,569.31Z" transform="translate(-136.9 -417.32)"/></g><g id="path5240"><path d="M629.34,572.44h0a.14.14,0,0,1-.12-.06.18.18,0,0,1,0-.13c.18-1.8-1.13-2.36-3.13-3.2l-.53-.23a.17.17,0,0,1,.14-.32l.53.23c2,.83,3.54,1.5,3.34,3.56A.17.17,0,0,1,629.34,572.44Z" transform="translate(-136.9 -417.32)"/></g><g id="path5242"><path d="M627,575.33a.17.17,0,0,1-.16-.11l-.15-.43c-.56-1.56-1-2.8-3-3.58a.17.17,0,0,1-.09-.22.18.18,0,0,1,.21-.11c2.15.84,2.64,2.21,3.21,3.8,0,.14.1.28.15.41a.19.19,0,0,1-.11.23Z" transform="translate(-136.9 -417.32)"/></g><g id="path5244"><path d="M625.41,576.52a.18.18,0,0,1-.17-.11,5.89,5.89,0,0,0-3.11-3.48.19.19,0,0,1-.11-.15.17.17,0,0,1,.09-.16.15.15,0,0,1,.18,0,6.24,6.24,0,0,1,3.28,3.66.19.19,0,0,1-.1.23Z" transform="translate(-136.9 -417.32)"/></g><g id="path5246"><path d="M623.36,577.87h0a.15.15,0,0,1-.12-.07.2.2,0,0,1,0-.13c.13-.76-.63-1.35-1.56-2.09a14.2,14.2,0,0,1-1.39-1.18.18.18,0,0,1,0-.25.2.2,0,0,1,.25,0,11.39,11.39,0,0,0,1.35,1.15c1,.78,1.85,1.45,1.69,2.42A.17.17,0,0,1,623.36,577.87Z" transform="translate(-136.9 -417.32)"/></g><g id="path5248"><path d="M620.25,579a.16.16,0,0,1-.16-.12,6.21,6.21,0,0,0-.9-1.46c-.26-.37-.57-.79-.91-1.31a.17.17,0,0,1,.05-.24.14.14,0,0,1,.13,0,.21.21,0,0,1,.11.08c.34.52.64.93.9,1.29a6.14,6.14,0,0,1,.95,1.56.16.16,0,0,1-.11.21Z" transform="translate(-136.9 -417.32)"/></g><g id="path5250"><path d="M617,565.41c-3.79,0-7.28-.69-8.88-2.41a.17.17,0,0,1,0-.24.18.18,0,0,1,.25,0c1.46,1.57,4.86,2.4,9.3,2.29a29.66,29.66,0,0,0,10.7-2.11.19.19,0,0,1,.19,0,.16.16,0,0,1,.07.16.16.16,0,0,1-.11.15A30.33,30.33,0,0,1,617,565.41Z" transform="translate(-136.9 -417.32)"/></g><g id="path5252"><path d="M627,563.89a.17.17,0,0,1-.16-.12A33.41,33.41,0,0,0,623,556.1c-1.47-2.16-3.8-4.89-6.51-5.64a.19.19,0,0,1-.13-.21.18.18,0,0,1,.21-.12c4.89,1.35,9.1,9,10.6,13.53a.16.16,0,0,1-.11.21Z" transform="translate(-136.9 -417.32)"/></g><g id="path5254"><path d="M623.92,564.7a.19.19,0,0,1-.15-.09c-2.57-4.76-10.62-12.26-15.84-15.52a.18.18,0,0,1,0-.24.19.19,0,0,1,.23-.06c5.26,3.29,13.37,10.85,16,15.65a.2.2,0,0,1,0,.13.24.24,0,0,1-.09.11Z" transform="translate(-136.9 -417.32)"/></g><g id="path5256"><path d="M620.31,565.27a.18.18,0,0,1-.15-.1c-2.2-4.76-11.11-13.32-15.82-16.56a.16.16,0,0,1,0-.24.15.15,0,0,1,.11-.08.31.31,0,0,1,.13,0c4.74,3.26,13.71,11.9,15.93,16.69a.18.18,0,0,1-.08.23A.11.11,0,0,1,620.31,565.27Z" transform="translate(-136.9 -417.32)"/></g><g id="path5258"><path d="M617.86,565.41a.18.18,0,0,1-.16-.1c-1.24-2.69-7.55-9.7-13.73-13.89a21.68,21.68,0,0,0-6.24-2.56,17.48,17.48,0,0,1-2.44-.82.17.17,0,0,1-.09-.23.22.22,0,0,1,.1-.09.23.23,0,0,1,.14,0,18.25,18.25,0,0,0,2.4.8,22,22,0,0,1,6.33,2.6c6.46,4.38,12.61,11.34,13.85,14a.15.15,0,0,1,0,.13.18.18,0,0,1-.09.1A.13.13,0,0,1,617.86,565.41Z" transform="translate(-136.9 -417.32)"/></g><g id="path5260"><path d="M614.63,565.32a.16.16,0,0,1-.15-.09c-1.37-2.41-6.69-8.58-13.35-12.62a31.41,31.41,0,0,0-7.4-2.83,14.81,14.81,0,0,1-3.92-1.45.19.19,0,0,1-.09-.17.18.18,0,0,1,.3-.11,14.71,14.71,0,0,0,3.8,1.39,32.09,32.09,0,0,1,7.49,2.87c6.7,4.08,12.08,10.31,13.46,12.75a.18.18,0,0,1-.06.24Z" transform="translate(-136.9 -417.32)"/></g><g id="path5262"><path d="M611.4,564.75a.17.17,0,0,1-.16-.12c-.46-1.38-7.33-8.65-15-12.82-2-1.09-6.16-1.79-8.64-2.21a16.78,16.78,0,0,1-2.3-.46.18.18,0,0,1-.08-.23.18.18,0,0,1,.23-.09,17.09,17.09,0,0,0,2.2.44c2.66.45,6.69,1.13,8.74,2.24,7.53,4.08,14.63,11.33,15.18,13a.16.16,0,0,1-.11.21Z" transform="translate(-136.9 -417.32)"/></g><g id="path5264"><path d="M594.78,580.3l-1.94,0c-2.6-.06-5.71-.37-9-.7a92.41,92.41,0,0,0-12.2-.71.18.18,0,0,1,0-.35,93.24,93.24,0,0,1,12.26.72c3.29.32,6.39.62,9,.69,3.84.09,6.92-.1,9.91-.28,2.8-.17,5.69-.35,9.18-.29a.17.17,0,0,1,0,.34h0c-3.47-.05-6.36.12-9.15.3C600.31,580.15,597.77,580.3,594.78,580.3Z" transform="translate(-136.9 -417.32)"/></g><g id="path5266"><path d="M594.78,577.84H590.9c-6.84,0-13.29,0-18.7-1.71-5.89-1.88-10-5.61-12.9-11.78a.17.17,0,0,1,0-.18.15.15,0,0,1,.16-.08.17.17,0,0,1,.15.11c6.27,13.29,17.31,13.29,31.28,13.29h1.71c3.44,0,8.14.08,10.92-.84s6.83-.31,10.29.26c.83.14,1.64.28,2.41.39a.17.17,0,1,1-.05.34c-.78-.11-1.58-.24-2.42-.38-3.42-.57-7.29-1.22-10.11-.28C601.37,577.72,597.87,577.84,594.78,577.84Z" transform="translate(-136.9 -417.32)"/></g><g id="path5268"><path d="M582.22,575.68c-8.65,0-16.63-2.35-20.73-11.3a.18.18,0,0,1,.08-.23.19.19,0,0,1,.24.08c6.46,14.1,22.84,11.53,36,9.47,1.43-.22,2.77-.43,4.09-.62a.18.18,0,0,1,.19.15.17.17,0,0,1-.14.19c-1.32.19-2.66.4-4.08.63A103.48,103.48,0,0,1,582.22,575.68Z" transform="translate(-136.9 -417.32)"/></g><g id="path5270"><path d="M624.1,566.62a14.48,14.48,0,0,1-6.32-1.23.18.18,0,0,1-.07-.23.17.17,0,0,1,.23-.08c2.68,1.39,6.9,1.34,8.94,1a.17.17,0,0,1,.2.14.18.18,0,0,1-.14.2A16.89,16.89,0,0,1,624.1,566.62Z" transform="translate(-136.9 -417.32)"/></g><g id="path5272"><path d="M625.57,568.83h0l-1.2-.14a15.23,15.23,0,0,1-4.07-.84.18.18,0,0,1-.09-.22.17.17,0,0,1,.21-.11,15.31,15.31,0,0,0,4,.83c.39,0,.79.08,1.22.14a.17.17,0,0,1,.16.18A.17.17,0,0,1,625.57,568.83Z" transform="translate(-136.9 -417.32)"/></g><g id="path5274"><path d="M622.15,571.34a16.88,16.88,0,0,1-6.13-1.46c-.56-.21-1.09-.42-1.63-.6a50.44,50.44,0,0,0-7-1.63c-.82-.15-1.69-.31-2.62-.5a.14.14,0,0,1-.11-.07.17.17,0,0,1,.18-.27l2.62.49A51.65,51.65,0,0,1,614.5,569c.55.18,1.1.39,1.64.6,2.3.86,4.66,1.75,7.59,1.31a.17.17,0,0,1,0,.34A11.09,11.09,0,0,1,622.15,571.34Z" transform="translate(-136.9 -417.32)"/></g><g id="path5276"><path d="M622.21,573h0c-6.91-.49-12.42-1.44-18.5-4.68a.16.16,0,0,1-.07-.23.22.22,0,0,1,.1-.09.15.15,0,0,1,.13,0c6,3.2,11.5,4.15,18.36,4.63a.14.14,0,0,1,.12.06.15.15,0,0,1,0,.13A.17.17,0,0,1,622.21,573Z" transform="translate(-136.9 -417.32)"/></g><g id="path5278"><path d="M619,575.68h0a41.38,41.38,0,0,1-12.56-3.76,42.7,42.7,0,0,0-11.58-3.62.18.18,0,0,1,0-.35,43,43,0,0,1,11.67,3.65,41.28,41.28,0,0,0,12.45,3.74.18.18,0,0,1,.17.18.18.18,0,0,1-.18.17Z" transform="translate(-136.9 -417.32)"/></g><g id="path5280"><path d="M610.38,576.75l-.06,0c-1.66-.68-3.42-1.36-5.13-2-2.54-1-5.16-2-7.46-3-.87-.39-1.65-.83-2.41-1.25a13.75,13.75,0,0,0-4.88-1.93.18.18,0,0,1-.14-.19.18.18,0,0,1,.19-.15,14.24,14.24,0,0,1,5,2c.74.41,1.52.83,2.38,1.23,2.29,1,4.91,2,7.44,3,1.71.66,3.47,1.34,5.13,2a.16.16,0,0,1,.1.19.16.16,0,0,1-.16.14Z" transform="translate(-136.9 -417.32)"/></g><g id="path5282"><path d="M597.56,574a.14.14,0,0,1-.09,0c-4.78-2.87-15.52-3.33-24.15-3.71-3-.13-5.85-.25-8.14-.46a.16.16,0,0,1-.15-.1.17.17,0,0,1,0-.18.19.19,0,0,1,.17-.07c2.27.21,5.11.33,8.12.46,8.67.38,19.46.84,24.31,3.76a.17.17,0,0,1,.08.19.17.17,0,0,1-.17.13Z" transform="translate(-136.9 -417.32)"/></g><g id="path5284"><path d="M579.54,568.05c-2.46,0-4.87,0-7.12-.1-1.86,0-3.62-.08-5.15-.08a.17.17,0,0,1-.18-.17.18.18,0,0,1,.18-.18c1.53,0,3.29,0,5.16.08,7.89.18,17.7.39,24.65-1.77a.16.16,0,0,1,.2.12.16.16,0,0,1-.1.21C592.18,567.72,585.71,568.05,579.54,568.05Z" transform="translate(-136.9 -417.32)"/></g><g id="path5286"><path d="M567.44,552.16a72.9,72.9,0,0,1-7.54-.67,55,55,0,0,0-7.06-.6.19.19,0,0,1-.13,0,.18.18,0,0,1-.05-.12.17.17,0,0,1,.17-.18,57.45,57.45,0,0,1,7.11.6,48.45,48.45,0,0,0,8.69.62.18.18,0,0,1,.19.15.16.16,0,0,1,0,.13.14.14,0,0,1-.11.06Q568.06,552.16,567.44,552.16Z" transform="translate(-136.9 -417.32)"/></g><g id="path5288"><path d="M563.11,555a21.23,21.23,0,0,1-10.6-2.54.18.18,0,0,1,0-.24.17.17,0,0,1,.23-.06c3.63,2.23,9.77,3.09,14.93,2.07a21,21,0,0,0,3.52-1.11,36.14,36.14,0,0,1,3.47-1.15.17.17,0,0,1,.18,0,.17.17,0,0,1,.05.18.19.19,0,0,1-.14.12,34.63,34.63,0,0,0-3.44,1.14,22.2,22.2,0,0,1-3.57,1.12A23.45,23.45,0,0,1,563.11,555Z" transform="translate(-136.9 -417.32)"/></g><g id="path5290"><path d="M563.6,558.74a29.89,29.89,0,0,1-8.09-1.38c-1-.26-1.84-.5-2.71-.68a.17.17,0,1,1,.07-.34c.87.18,1.77.43,2.71.69,3.15.85,6.73,1.82,10.95,1.12,3.28-.55,8.05-2.57,9.64-4.59a.19.19,0,0,1,.12-.07.22.22,0,0,1,.13,0,.17.17,0,0,1,.06.11.18.18,0,0,1,0,.13c-1.8,2.29-7,4.24-9.86,4.72A17.66,17.66,0,0,1,563.6,558.74Z" transform="translate(-136.9 -417.32)"/></g><g id="path5292"><path d="M562.1,557.18a18.56,18.56,0,0,1-9.6-2.56.19.19,0,0,1,0-.32.19.19,0,0,1,.19,0,18.73,18.73,0,0,0,16.69,1,48.49,48.49,0,0,1,5.57-2,.17.17,0,0,1,.2.13.18.18,0,0,1-.1.21,47.06,47.06,0,0,0-5.53,1.94A17.69,17.69,0,0,1,562.1,557.18Z" transform="translate(-136.9 -417.32)"/></g><g id="path5294"><path d="M559.6,560.14a47.51,47.51,0,0,1-5.34-.27.19.19,0,0,1-.14-.2.18.18,0,0,1,.18-.15,56.1,56.1,0,0,0,12.06-.11c3.83-.45,9.07-1.52,12.27-4a.16.16,0,0,1,.13,0,.17.17,0,0,1,.12.06.19.19,0,0,1,0,.25C574.38,559.16,565.88,560.14,559.6,560.14Z" transform="translate(-136.9 -417.32)"/></g><g id="path5296"><path d="M601.56,560.27a125.55,125.55,0,0,1-13.93-1,125.13,125.13,0,0,0-14-1h0a.15.15,0,0,1-.16-.08.17.17,0,0,1,0-.19.19.19,0,0,1,.16-.08,125.68,125.68,0,0,1,14,1,125,125,0,0,0,13.89,1,.18.18,0,0,1,.17.27.17.17,0,0,1-.17.08Z" transform="translate(-136.9 -417.32)"/></g><g id="path5298"><path d="M601.56,560.27a.16.16,0,0,1-.12,0c-5.42-4.8-10.85-9.23-17.69-10.67a.16.16,0,0,1-.12-.2.18.18,0,0,1,.19-.14c6.92,1.46,12.39,5.91,17.85,10.75a.17.17,0,0,1,0,.24A.18.18,0,0,1,601.56,560.27Z" transform="translate(-136.9 -417.32)"/></g><g id="path5300"><path d="M598.5,560.2a.18.18,0,0,1-.15-.08c-3.77-5.63-13.43-8.07-21.31-8h0a.18.18,0,0,1-.17-.17.21.21,0,0,1,0-.13.17.17,0,0,1,.12-.05c8-.09,17.76,2.39,21.6,8.14a.15.15,0,0,1,0,.13.21.21,0,0,1-.08.11A.15.15,0,0,1,598.5,560.2Z" transform="translate(-136.9 -417.32)"/></g><g id="path5302"><path d="M595.15,560a.18.18,0,0,1-.16-.1c-2.28-4.69-11.52-5.84-17.63-6.58l-1.62-.21a.18.18,0,0,1-.15-.2.19.19,0,0,1,.2-.15l1.61.21c6.19.76,15.55,1.91,17.9,6.78a.17.17,0,0,1-.08.23Z" transform="translate(-136.9 -417.32)"/></g><g id="path5304"><path d="M587.62,575.16c-7.78,0-15.7-1.88-21.49-5.32a.18.18,0,0,1-.1-.16.18.18,0,0,1,.28-.14c8.05,4.78,20.29,6.51,30.43,4.33a.17.17,0,0,1,.21.14.17.17,0,0,1-.14.2A43.64,43.64,0,0,1,587.62,575.16Z" transform="translate(-136.9 -417.32)"/></g><g id="path5306"><path d="M522,429.93a.59.59,0,0,1-.42-.17c-1-1-1-2.34-1-3.64a10,10,0,0,0-.14-2,.58.58,0,0,1,1.14-.23,10.72,10.72,0,0,1,.16,2.19c0,1.17,0,2.17.67,2.83a.58.58,0,0,1-.42,1Z" transform="translate(-136.9 -417.32)"/></g><g id="path5308"><path d="M520.21,433.17a.58.58,0,0,1-.58-.58,12.78,12.78,0,0,0-.52-3.53.58.58,0,1,1,1.12-.3,13.46,13.46,0,0,1,.56,3.84A.58.58,0,0,1,520.21,433.17Z" transform="translate(-136.9 -417.32)"/></g><g id="path5310"><path d="M618.21,491.23a.58.58,0,0,1-.55-.4.57.57,0,0,1,.2-.64,12.88,12.88,0,0,1,3-1.37.58.58,0,0,1,.41,1.09,13.69,13.69,0,0,0-2.69,1.2A.55.55,0,0,1,618.21,491.23Z" transform="translate(-136.9 -417.32)"/></g><g id="path5314"><path d="M545.11,559.28a.49.49,0,0,1-.21,0,.58.58,0,0,1-.34-.75c.9-2.32,0-3.54-1.39-5.55-.26-.37-.54-.75-.82-1.17a.57.57,0,0,1,.16-.8.59.59,0,0,1,.81.15c.27.42.54.79.79,1.15,1.49,2.08,2.66,3.73,1.54,6.64A.59.59,0,0,1,545.11,559.28Z" transform="translate(-136.9 -417.32)"/></g><g id="path5316"><path d="M553.55,559.28h-.06c-3.42-.36-5.43-2.87-5.39-5.08,0-1.67,1.24-3.52,4.54-3.76a.6.6,0,0,1,.55.25.57.57,0,0,1,0,.59.6.6,0,0,1-.5.32c-2.14.15-3.44,1.13-3.46,2.62,0,1.69,1.58,3.62,4.34,3.91a.58.58,0,0,1-.06,1.16Z" transform="translate(-136.9 -417.32)"/></g><g id="path5318"><path d="M561.24,579l-.19,0a.58.58,0,0,1-.36-.74c.89-2.71-.39-5-1.63-7.1-.21-.38-.42-.74-.63-1.1a.58.58,0,0,1,1-.55c.19.35.39.69.61,1.07,1.3,2.26,2.78,4.83,1.72,8A.6.6,0,0,1,561.24,579Z" transform="translate(-136.9 -417.32)"/></g><g id="path5320"><path d="M579.94,592.86a.6.6,0,0,1-.45-.21,87.72,87.72,0,0,1-9.41-13.81.59.59,0,0,1,1-.52,85.25,85.25,0,0,0,9.27,13.59.65.65,0,0,1,.13.43.61.61,0,0,1-.21.39A.65.65,0,0,1,579.94,592.86Z" transform="translate(-136.9 -417.32)"/></g><g id="path5322"><path d="M538.77,525.79a.58.58,0,0,1-.57-.47,8.93,8.93,0,0,0-2.89-4.67.57.57,0,0,1-.09-.81.59.59,0,0,1,.82-.09,9.94,9.94,0,0,1,3.3,5.35.58.58,0,0,1-.46.68Z" transform="translate(-136.9 -417.32)"/></g><line class="cls-4" x1="206.04" y1="94.68" x2="265.86" y2="94.68"/><path d="M414.83,512c-5.68,2.11-12.73,5.7-17.09,9.51l3.44-9.51-3.44-9.51C402.1,506.3,409.15,509.89,414.83,512Z" transform="translate(-136.9 -417.32)"/><line class="cls-4" x1="552.21" y1="94.68" x2="612.03" y2="94.68"/><path d="M761,512c-5.68,2.11-12.73,5.7-17.09,9.51l3.44-9.51-3.44-9.51C748.27,506.3,755.32,509.89,761,512Z" transform="translate(-136.9 -417.32)"/><text class="cls-5" transform="translate(550.07 62.98)">produit</text></svg>