<svg id="Calque_1" data-name="Calque 1" xmlns="http://www.w3.org/2000/svg" viewBox="0 0 764.38 293.75"><defs><style>.cls-1,.cls-3{fill:none;}.cls-1,.cls-2,.cls-3{stroke:#000;stroke-miterlimit:10;}.cls-1{stroke-width:3px;}.cls-3{stroke-width:2px;}.cls-4{font-size:36px;font-family:ArialMT, Arial;}</style></defs><title>ligne_01</title><line class="cls-1" x1="730.85" y1="146.59" x2="9.86" y2="146.59"/><polygon class="cls-2" points="731.31 156.45 731.31 146.81 731.31 137.18 747 142 762.68 146.81 747 151.63 731.31 156.45"/><line class="cls-3" x1="80.89" y1="122.84" x2="80.89" y2="146.59"/><line class="cls-3" x1="638.04" y1="122.84" x2="638.04" y2="146.59"/><line class="cls-3" x1="496.52" y1="122.84" x2="496.52" y2="198.18"/><line class="cls-3" x1="359.5" y1="122.84" x2="359.5" y2="146.59"/><line class="cls-3" x1="220.59" y1="122.84" x2="220.59" y2="146.59"/><text class="cls-4" transform="translate(0 193.28)">0</text><text class="cls-4" transform="translate(57.64 193.28)">0,1</text><text class="cls-4" transform="translate(513.19 89.11)">0,8093</text><text class="cls-4" transform="translate(212.72 30.89)">0,45856774</text><line class="cls-3" x1="169.78" y1="122.84" x2="169.78" y2="239.28"/><line class="cls-3" x1="709.02" y1="122.84" x2="709.02" y2="146.59"/><line class="cls-3" x1="567.5" y1="104.22" x2="567.5" y2="146.59"/><line class="cls-3" x1="430.47" y1="122.84" x2="430.47" y2="146.59"/><line class="cls-3" x1="307.65" y1="48.35" x2="307.65" y2="146.59"/><text class="cls-4" transform="translate(701.17 193.28)">1</text><text class="cls-4" transform="translate(104.3 282.06)">0,24405</text><text class="cls-4" transform="translate(337.09 193.28)">0,5</text><text class="cls-4" transform="translate(440.72 239.28)">0,7000000001</text></svg>