<svg id="Calque_1" data-name="Calque 1" xmlns="http://www.w3.org/2000/svg" viewBox="0 0 764.38 82.13"><defs><style>.cls-1,.cls-3{fill:none;}.cls-1,.cls-2,.cls-3{stroke:#000;stroke-miterlimit:10;}.cls-1{stroke-width:3px;}.cls-3{stroke-width:2px;}.cls-4{font-size:36px;font-family:ArialMT, Arial;}</style></defs><title>ligne_numerique</title><line class="cls-1" x1="730.85" y1="23.75" x2="9.86" y2="23.75"/><polygon class="cls-2" points="731.31 33.61 731.31 23.98 731.31 14.35 747 19.16 762.68 23.98 747 28.8 731.31 33.61"/><line class="cls-3" x1="80.89" x2="80.89" y2="23.75"/><line class="cls-3" x1="638.04" x2="638.04" y2="23.75"/><line class="cls-3" x1="496.52" x2="496.52" y2="23.75"/><line class="cls-3" x1="359.5" x2="359.5" y2="23.75"/><line class="cls-3" x1="220.59" x2="220.59" y2="23.75"/><text class="cls-4" transform="translate(0 70.44)">0</text><text class="cls-4" transform="translate(69.89 70.44)">1</text><text class="cls-4" transform="translate(139.79 70.44)">2</text><text class="cls-4" transform="translate(349.47 70.44)">5</text><text class="cls-4" transform="translate(690.33 70.44)">10</text><text class="cls-4" transform="translate(629.04 70.44)">9</text><text class="cls-4" transform="translate(559.15 70.44)">8</text><text class="cls-4" transform="translate(489.26 70.44)">7</text><text class="cls-4" transform="translate(209.68 70.44)">3</text><text class="cls-4" transform="translate(419.36 70.44)">6</text><text class="cls-4" transform="translate(279.57 70.44)">4</text><line class="cls-3" x1="151.87" x2="151.87" y2="23.75"/><line class="cls-3" x1="709.02" x2="709.02" y2="23.75"/><line class="cls-3" x1="567.5" x2="567.5" y2="23.75"/><line class="cls-3" x1="430.47" x2="430.47" y2="23.75"/><line class="cls-3" x1="291.57" x2="291.57" y2="23.75"/></svg>