<svg id="Calque_1" data-name="Calque 1" xmlns="http://www.w3.org/2000/svg" viewBox="0 0 764.38 81.63"><defs><style>.cls-1,.cls-3{fill:none;}.cls-1,.cls-2,.cls-3{stroke:#000;stroke-miterlimit:10;}.cls-1{stroke-width:3px;}.cls-3{stroke-width:2px;}.cls-4{font-size:36px;font-family:ArialMT, Arial;}</style></defs><title>ligne_numerique_log</title><line class="cls-1" x1="729.86" y1="23.95" x2="8.88" y2="23.95"/><polygon class="cls-2" points="731.31 33.81 731.31 24.18 731.31 14.54 747 19.36 762.68 24.18 747 29 731.31 33.81"/><line class="cls-3" x1="151.93" x2="151.93" y2="23.75"/><line class="cls-3" x1="687.27" x2="687.27" y2="23.75"/><line class="cls-3" x1="640.78" x2="640.78" y2="23.75"/><line class="cls-3" x1="581.29" x2="581.29" y2="23.75"/><line class="cls-3" x1="436.07" x2="436.07" y2="23.75"/><text class="cls-4" transform="translate(0 69.94)">0</text><text class="cls-4" transform="translate(141.89 69.94)">1</text><text class="cls-4" transform="translate(283.79 69.94)">2</text><text class="cls-4" transform="translate(572.43 69.94)">5</text><text class="cls-4" transform="translate(700.05 69.94)">10</text><text class="cls-4" transform="translate(677.61 69.94)">9</text><text class="cls-4" transform="translate(655.49 69.94)">8</text><text class="cls-4" transform="translate(631.65 69.94)">7</text><text class="cls-4" transform="translate(427.21 69.94)">3</text><text class="cls-4" transform="translate(604.66 69.94)">6</text><text class="cls-4" transform="translate(530.04 69.94)">4</text><line class="cls-3" x1="294" x2="294" y2="23.75"/><line class="cls-3" x1="709.02" x2="709.02" y2="23.75"/><line class="cls-3" x1="664.53" x2="664.53" y2="23.75"/><line class="cls-3" x1="614.03" x2="614.03" y2="23.75"/><line class="cls-3" x1="542.54" x2="542.54" y2="23.75"/><line class="cls-3" x1="9.86" x2="9.86" y2="23.75"/></svg>