<svg id="Calque_1" data-name="Calque 1" xmlns="http://www.w3.org/2000/svg" viewBox="0 0 955.11 583.4"><defs><style>.cls-1,.cls-4{fill:none;}.cls-1{stroke:#1c1c1f;stroke-miterlimit:10;}.cls-2{isolation:isolate;font-size:14px;fill:#1c1c1f;}.cls-2,.cls-5{font-family:ArialMT, Arial;}.cls-3{letter-spacing:-0.07em;}.cls-4{stroke:#000;stroke-linecap:round;stroke-linejoin:round;stroke-opacity:0.7;stroke-width:2.5px;}.cls-5{font-size:24px;}</style></defs><title>log_lineairet_en</title><path class="cls-1" d="M171.75,24.13V558.26" transform="translate(-47.78 -16.64)"/><path class="cls-1" d="M171.75,23.3l-3.33,3.33" transform="translate(-47.78 -16.64)"/><path class="cls-1" d="M171.75,23.3l3.33,3.33" transform="translate(-47.78 -16.64)"/><path class="cls-1" d="M53.61,413.5h946.78" transform="translate(-47.78 -16.64)"/><path class="cls-1" d="M1001.22,413.5l-3.33-3.33" transform="translate(-47.78 -16.64)"/><path class="cls-1" d="M1001.22,413.5l-3.33,3.32" transform="translate(-47.78 -16.64)"/><text class="cls-2" transform="translate(31.2 415.75)">–2</text><text class="cls-2" transform="translate(75.3 415.75)">–1</text><text class="cls-2" transform="translate(165.98 415.75)">1</text><text class="cls-2" transform="translate(209.24 415.75)">2</text><text class="cls-2" transform="translate(253.34 415.75)">3</text><text class="cls-2" transform="translate(297.43 415.75)">4</text><text class="cls-2" transform="translate(341.53 415.75)">5</text><text class="cls-2" transform="translate(385.62 415.75)">6</text><text class="cls-2" transform="translate(429.72 415.75)">7</text><text class="cls-2" transform="translate(472.98 415.75)">8</text><text class="cls-2" transform="translate(517.07 415.75)">9</text><text class="cls-2" transform="translate(558.67 415.75)">10</text><text class="cls-2" transform="translate(602.76 415.75)"><tspan class="cls-3">1</tspan><tspan x="6.75" y="0">1</tspan></text><text class="cls-2" transform="translate(646.86 415.75)">12</text><text class="cls-2" transform="translate(690.95 415.75)">13</text><text class="cls-2" transform="translate(735.05 415.75)">14</text><text class="cls-2" transform="translate(778.31 415.75)">15</text><text class="cls-2" transform="translate(822.41 415.75)">16</text><text class="cls-2" transform="translate(866.5 415.75)">17</text><text class="cls-2" transform="translate(910.59 415.75)">18</text><text class="cls-2" transform="translate(102.91 532.05)">–3</text><text class="cls-2" transform="translate(102.91 487.95)">–2</text><text class="cls-2" transform="translate(102.91 443.86)">–1</text><text class="cls-2" transform="translate(107.9 356.5)">1</text><text class="cls-2" transform="translate(107.9 312.41)">2</text><text class="cls-2" transform="translate(107.9 268.31)">3</text><text class="cls-2" transform="translate(107.9 224.22)">4</text><text class="cls-2" transform="translate(107.9 180.12)">5</text><text class="cls-2" transform="translate(107.9 136.86)">6</text><text class="cls-2" transform="translate(107.9 92.77)">7</text><text class="cls-2" transform="translate(107.9 48.67)">8</text><text class="cls-2" transform="translate(107.9 415.75)">0</text><path class="cls-4" d="M173,562.34v0l.83-19.65h0l.82-13.53h0l.82-10.33h0l.82-8.36h0l.82-7h0l.83-6.06h0l.82-5.31h0l.82-4.75h0l.82-4.28h0l.82-3.9h0l.83-3.59h0l.82-3.31h0l.82-3.08h0l.82-2.88h0l.82-2.7h0l.83-2.55h0l.83-2.41h0l.82-2.28h0l.82-2.17h0l.82-2.06h0l.83-2h0l.83-1.89h0l.82-1.81h0l.82-1.74h0l.82-1.67h0l.83-1.61h0l.83-1.56h0l.82-1.5h0l.82-1.45h0l.82-1.41h0l.83-1.36h0l.83-1.32h0l.82-1.28h0l.82-1.25h0l.82-1.21h0l.83-1.18h0l.83-1.15h0l.82-1.12h0l.82-1.09h0l.82-1.07h0l.83-1h0l.83-1h0l.82-1h0l.82-1h0l.82-.95h0l.83-.93h0l.83-.91h0l.82-.89h0l.82-.87h0l.82-.86h0l.83-.84h0l.83-.83h0l.82-.81h0l.82-.79h0l.82-.78h0l.83-.77h0l.83-.76h0l.82-.74h0l.82-.73h0l.82-.72h0l.83-.7h0l.83-.7h0l.82-.68h0l.82-.67h0l.82-.67h0l.83-.65h0l.83-.64h0l.82-.64h0l.82-.62h0l.82-.62h0l.83-.61h0l.83-.6h0l.82-.59h0l.82-.59h0l.82-.57h0l.82-.57h0l.83-.56h0l.82-.56h0l.82-.54h0l.82-.55h0l.82-.53h0l.83-.53h0l.82-.52h0l.82-.52h0l.82-.5h0l.82-.51h0l.83-.5h0l.83-.49h0l.82-.49h0l.82-.48h0l.82-.47h0l.83-.48h0l.83-.46h0l.82-.46h0l.82-.46h0l.82-.45h0l.83-.45h0l.83-.44h0l.82-.44h0l.82-.43h0l.82-.43h0l.83-.43h0l.83-.42h0l.82-.42h0l.82-.41h0l.82-.41h0l.83-.41h0l.83-.4h0l.82-.4h0l.82-.39h0l.82-.4h0l.83-.38h0L267,379h0l.82-.38h0l.82-.38h0l.82-.37h0l.83-.38h0l.83-.36h0l.82-.37h0l.82-.36h0l.82-.36h0l.83-.36h0l.83-.35h0l.82-.35h0l.82-.35h0l.82-.35h0l.83-.34h0l.83-.34h0l.82-.34h0l.82-.33h0l.82-.33h0l.83-.33h0l.83-.33h0l.82-.33h0l.82-.32h0l.82-.32h0l.83-.32h0l.83-.31h0l.82-.32h0l.82-.31h0l.82-.31h0l.82-.3h0l.83-.31h0l.82-.3h0l.82-.3h0l.82-.3h0l.82-.3h0l.83-.29h0l.82-.29h0l.82-.29h0l.82-.29h0l.82-.29h0l.83-.28h0l.83-.29h0l.82-.28h0l.82-.28h0l.82-.28h0l.83-.27h0l.83-.28h0l.82-.27h0l.82-.27h0l.82-.27h0l.83-.27h0l.83-.26h0l.82-.27h0l.82-.26h0l.82-.26h0l.83-.26h0l.83-.26h0l.82-.26h0l.82-.25h0l.82-.25h0l.83-.26h0l.83-.25h0l.82-.25h0l.82-.24h0l.82-.25h0l.83-.25h0l.83-.24h0l.82-.24h0l.82-.24h0l.82-.24h0l.83-.24h0l.83-.24h0l.82-.24h0l.82-.23h0l.82-.23h0l.83-.24h0l.83-.23h0l.82-.23h0l.82-.23h0l.82-.22h0l.83-.23h0l.83-.23h0l.82-.22h0l.82-.22h0l.82-.22h0l.83-.22h0l.83-.22h0l.82-.22h0l.82-.22h0l.82-.22h0l.83-.21h0l.83-.22h0l.82-.21h0l.82-.21h0l.82-.21h0l.83-.21h0l.83-.21h0l.82-.21h0l.82-.21h0l.82-.2h0l.82-.21h0l.83-.2h0l.82-.2h0l.82-.21h0l.82-.2h0l.82-.2h0l.83-.2h0l.82-.2h0l.82-.19h0l.82-.2h0l.82-.2h0l.83-.19h0l.83-.2h0l.82-.19h0l.82-.19h0l.82-.2h0l.83-.19h0l.83-.19h0l.82-.19h0l.82-.18h0l.82-.19h0l.83-.19h0l.83-.18h0l.82-.19h0l.82-.18h0l.82-.19h0l.83-.18h0l.83-.18h0l.82-.18h0l.82-.19h0l.82-.18h0l.83-.17h0l.83-.18h0l.82-.18h0l.82-.18h0l.82-.17h0l.83-.18h0l.83-.17h0l.82-.18h0l.82-.17h0l.82-.18h0l.83-.17h0l.83-.17h0l.82-.17h0l.82-.17h0l.82-.17h0l.83-.17h0l.83-.17h0l.82-.16h0l.82-.17h0l.82-.17h0l.83-.16h0l.83-.17h0l.82-.16h0l.82-.17h0l.82-.16h0l.83-.16h0l.83-.17h0l.82-.16h0l.82-.16h0l.82-.16h0l.83-.16h0l.83-.16h0l.82-.16h0l.82-.15h0l.82-.16h0l.83-.16h0l.83-.15h0l.82-.16h0l.82-.15h0l.82-.16h0l.82-.15h0l.83-.16h0l.82-.15h0l.82-.15h0l.82-.15h0l.82-.16h0l.83-.15h0l.82-.15h0l.82-.15h0l.82-.15h0l.82-.15h0l.83-.14h0l.83-.15h0l.82-.15h0l.82-.15h0l.82-.14h0l.83-.15h0l.83-.14h0l.82-.15h0l.82-.14h0l.82-.15h0l.83-.14h0l.83-.14h0l.82-.15h0l.82-.14h0l.82-.14h0l.83-.14h0l.83-.14h0l.82-.14h0l.82-.14h0l.82-.14h0l.83-.14h0l.83-.14h0l.82-.14h0l.82-.14h0l.82-.13h0l.83-.14h0l.83-.14h0l.82-.13h0l.82-.14h0l.82-.13h0l.83-.14h0l.83-.13h0l.82-.14h0l.82-.13h0l.82-.13h0l.83-.14h0l.83-.13h0l.82-.13h0L450,332h0l.82-.13h0l.83-.13h0l.83-.13h0l.82-.13h0l.82-.13h0l.82-.13h0l.83-.13h0l.83-.13h0l.82-.13h0l.82-.12h0l.82-.13h0l.83-.13h0l.83-.13h0l.82-.12h0l.82-.13h0l.82-.12h0l.82-.13h0l.83-.12h0l.82-.13h0l.82-.12h0l.82-.13h0l.82-.12h0l.83-.12h0l.82-.12h0l.82-.13h0l.82-.12h0l.82-.12h0l.83-.12h0l.83-.12h0l.82-.12h0l.82-.12h0l.82-.12h0l.83-.12h0l.83-.12h0l.82-.12h0l.82-.12h0l.82-.12h0l.83-.12h0l.83-.12h0l.82-.11h0l.82-.12h0l.82-.12h0l.83-.11h0l.83-.12h0l.82-.12h0l.82-.11h0l.82-.12h0l.83-.11h0l.83-.12h0l.82-.11h0l.82-.11h0l.82-.12h0l.83-.11h0l.83-.12h0l.82-.11h0l.82-.11h0l.82-.11h0l.83-.12h0l.83-.11h0l.82-.11h0l.82-.11h0l.82-.11h0l.83-.11h0l.83-.11h0l.82-.11h0l.82-.11h0l.82-.11h0l.83-.11h0l.83-.11h0l.82-.11h0l.82-.11h0l.82-.11h0l.83-.1h0l.83-.11h0l.82-.11h0l.82-.11h0l.82-.1h0l.83-.11h0l.83-.11h0l.82-.1h0l.82-.11h0l.82-.1h0l.83-.11h0l.83-.1h0l.82-.11h0l.82-.1h0l.82-.11h0l.82-.1h0l.83-.1h0l.82-.11h0l.82-.1h0l.82-.11h0l.82-.1h0l.83-.1h0l.82-.1h0l.82-.11h0l.82-.1h0l.82-.1h0l.83-.1h0l.83-.1h0l.82-.1h0l.82-.1h0l.82-.1h0l.83-.1h0l.83-.1h0l.82-.1h0l.82-.1h0l.82-.1h0l.83-.1h0l.83-.1h0l.82-.1h0l.82-.1h0l.82-.1h0l.83-.09h0l.83-.1h0l.82-.1h0l.82-.1h0l.82-.1h0l.83-.09h0l.83-.1h0l.82-.1h0l.82-.09h0l.82-.1h0l.83-.09h0l.83-.1h0l.82-.1h0l.82-.09h0l.82-.1h0l.83-.09h0l.83-.1h0l.82-.09h0l.82-.09h0l.82-.1h0l.83-.09h0l.83-.1h0l.82-.09h0l.82-.09h0l.82-.1h0l.83-.09h0l.83-.09h0l.82-.09h0l.82-.1h0l.82-.09h0l.83-.09h0l.83-.09h0l.82-.09h0l.82-.09h0l.82-.1h0l.83-.09h0l.83-.09h0l.82-.09h0l.82-.09h0l.82-.09h0l.83-.09h0l.83-.09h0l.82-.09h0l.82-.09h0l.82-.09h0l.82-.09h0l.83-.08h0l.82-.09h0l.82-.09h0l.82-.09h0l.82-.09h0l.83-.09h0l.82-.08h0l.82-.09h0l.82-.09h0l.82-.09h0l.83-.08h0l.83-.09h0l.82-.09h0l.82-.09h0l.82-.08h0l.83-.09h0l.83-.08h0l.82-.09h0l.82-.09h0l.82-.08h0l.83-.09h0l.83-.08h0l.82-.09h0l.82-.08h0l.82-.09h0l.83-.08h0l.83-.09h0l.82-.08h0l.82-.08h0l.82-.09h0l.83-.08h0l.83-.09h0l.82-.08h0l.82-.08h0l.82-.09h0l.83-.08h0l.83-.08h0l.82-.09h0l.82-.08h0l.82-.08h0l.83-.08h0l.83-.08h0l.82-.09h0l.82-.08h0l.82-.08h0l.83-.08h0l.83-.08h0l.82-.08h0l.82-.09h0l.82-.08h0l.83-.08h0l.83-.08h0l.82-.08h0l.82-.08h0l.82-.08h0l.83-.08h0l.83-.08h0l.82-.08h0l.82-.08h0l.82-.08h0l.83-.08h0l.83-.08h0l.82-.08h0l.82-.07h0l.82-.08h0l.82-.08h0l.83-.08h0l.82-.08h0l.82-.08h0l.82-.07h0l.82-.08h0l.83-.08h0l.82-.08h0l.82-.08h0l.82-.07h0l.82-.08h0l.83-.08h0l.83-.07h0l.82-.08h0l.82-.08h0l.82-.07h0l.83-.08h0l.83-.08h0l.82-.07h0l.82-.08h0l.82-.07h0l.83-.08h0l.83-.08h0l.82-.07h0l.82-.08h0l.82-.07h0l.83-.08h0l.83-.07h0l.82-.08h0l.82-.07h0l.82-.08h0L663,307h0l.83-.08h0l.82-.07h0l.82-.07h0l.82-.08h0l.83-.07h0l.83-.08h0l.82-.07h0l.82-.07h0l.82-.08h0l.83-.07h0l.83-.07h0l.82-.07h0l.82-.08h0l.82-.07h0l.83-.07h0l.83-.08h0l.82-.07h0l.82-.07h0l.82-.07h0l.83-.07h0l.83-.08h0l.82-.07h0l.82-.07h0l.82-.07h0l.83-.07h0l.83-.07h0l.82-.08h0l.82-.07h0l.82-.07h0l.83-.07h0l.83-.07h0l.82-.07h0l.82-.07h0l.82-.07h0l.83-.07h0l.83-.07h0l.82-.07h0l.82-.07h0l.82-.07h0l.82-.07h0l.83-.07h0L698,304h0l.82-.07h0l.82-.07h0l.82-.07h0l.83-.07h0l.82-.07h0l.82-.07h0l.82-.06h0l.82-.07h0l.83-.07h0l.83-.07h0l.82-.07h0l.82-.07h0l.82-.06h0l.83-.07h0l.83-.07h0l.82-.07h0l.82-.07h0l.82-.06h0l.83-.07h0l.83-.07h0l.82-.07h0l.82-.06h0l.82-.07h0l.83-.07h0l.83-.06h0l.82-.07h0l.82-.07h0l.82-.06h0l.83-.07h0l.83-.07h0l.82-.06h0l.82-.07h0l.82-.07h0l.83-.06h0l.83-.07h0l.82-.06h0l.82-.07h0l.82-.06h0l.83-.07h0l.83-.07h0l.82-.06h0l.82-.07h0l.82-.06h0l.83-.07h0l.83-.06h0l.82-.07h0l.82-.06h0l.82-.06h0l.83-.07h0l.83-.06h0l.82-.07h0l.82-.06h0l.82-.07h0l.83-.06h0l.83-.06h0l.82-.07h0l.82-.06h0l.82-.07h0l.83-.06h0l.83-.06h0l.82-.07h0l.82-.06h0l.82-.06h0l.82-.07h0l.83-.06h0l.82-.06h0l.82-.06h0l.82-.07h0l.82-.06h0l.83-.06h0l.82-.07h0l.82-.06h0l.82-.06h0l.82-.06h0l.83-.06h0l.82-.07h0l.82-.06h0l.82-.06h0l.82-.06h0l.83-.06h0l.83-.07h0l.82-.06h0l.82-.06h0l.82-.06h0l.83-.06h0l.83-.06h0l.82-.06h0l.82-.06h0l.82-.07h0l.83-.06h0l.83-.06h0l.82-.06h0l.82-.06h0l.82-.06h0l.83-.06h0l.83-.06h0l.82-.06h0l.82-.06h0l.82-.06h0l.83-.06h0l.83-.06h0l.82-.06h0l.82-.06h0l.82-.06h0l.83-.06h0l.83-.06h0l.82-.06h0l.82-.06h0l.82-.06h0l.83-.06h0l.83-.06h0l.82-.05h0l.82-.06h0l.82-.06h0l.83-.06h0l.83-.06h0l.82-.06h0l.82-.06h0l.82-.06h0l.83-.05h0l.83-.06h0l.82-.06h0l.82-.06h0l.82-.06h0l.83-.06h0l.83-.05h0l.82-.06h0l.82-.06h0l.82-.06h0l.83-.05h0l.83-.06h0l.82-.06h0l.82-.06h0l.82-.05h0l.82-.06h0l.83-.06h0l.82-.06h0l.82-.05h0l.82-.06h0l.82-.06h0l.83-.05h0l.82-.06h0l.82-.06h0l.82,0h0l.82-.06h0l.83-.06h0l.83-.05h0l.82-.06h0l.82-.06h0l.82-.05h0l.83-.06h0l.83-.05h0l.82-.06h0l.82-.06h0l.82-.05h0l.83-.06h0l.83-.05h0l.82-.06h0l.82-.06h0l.82-.05h0l.83-.06h0l.83,0h0l.82-.06h0l.82-.05h0l.82-.06h0l.83-.05h0l.83-.06h0l.82-.05h0l.82-.06h0l.82-.05h0l.83-.06h0l.83-.05h0l.82-.06h0l.82-.05h0l.82-.05h0l.83-.06h0l.83-.05h0l.82-.06h0l.82,0h0l.82-.06h0l.83-.05h0l.83-.05h0l.82-.06h0l.82-.05h0l.82-.06h0l.83,0h0l.83-.05h0l.82-.06h0l.82-.05h0l.82-.05h0l.83-.06h0l.83-.05h0l.82,0h0l.82-.06h0l.82-.05h0l.83-.05h0l.83-.06h0l.82-.05h0l.82,0h0l.82-.05h0l.83-.06h0l.83-.05h0l.82-.05h0l.82-.06h0l.82-.05h0l.82,0h0l.83-.05h0l.82-.05h0l.82-.06h0l.82-.05h0l.82-.05h0l.83,0h0l.82-.06h0l.82-.05h0l.82-.05h0l.82-.05h0l.83-.05h0l.83,0h0l.82-.06h0l.82-.05h0l.82-.05h0l.83-.05h0l.83,0h0l.82-.05h0l.82-.06h0l.82-.05h0l.83-.05h0l.83-.05h0l.82,0h0l.82-.05h0l.82-.05h0l.83-.05h0l.83-.05h0l.82,0h0l.82-.05h0l.82-.06h0l.83-.05h0L896,290h0l.82-.05h0l.82,0h0l.82-.05h0l.83-.05h0l.83-.05h0l.82-.05h0l.82,0h0l.82-.05h0l.83-.05h0l.83-.05h0l.82-.05h0l.82,0h0l.82-.05h0l.83-.05h0l.83-.05h0l.82-.05h0l.82,0h0l.82-.05h0l.83-.05h0l.83,0h0l.82,0h0l.82-.05h0l.82-.05h0l.83-.05h0l.83-.05h0l.82,0h0l.82-.05h0l.82-.05h0l.83-.05h0l.83-.05h0l.82,0h0l.82-.05h0l.82-.05h0l.82-.05h0l.83,0h0l.82-.05h0l.82-.05h0l.82,0h0l.82-.05h0l.83,0h0l.82-.05h0l.82-.05h0l.82-.05h0l.82,0h0l.83-.05h0l.83-.05h0l.82-.05h0l.82-.05h0l.82,0h0l.83-.05h0l.83-.05h0l.82-.05h0l.82,0h0l.82-.05h0l.83-.05h0l.83-.05h0l.82,0h0l.82-.05h0l.82-.05h0l.83-.05h0l.83,0h0l.82-.05h0l.82-.05h0l.82,0h0l.83,0h0l.83-.05h0l.82-.05h0l.82,0h0l.82,0h0l.83-.05h0l.83,0h0l.82-.05h0l.82,0h0l.82,0h0l.83-.05h0l.83-.05h0l.82,0h0l.82-.05h0l.82,0h0l.83-.05h0l.83,0h0l.82,0h0L965,286h0l.82,0h0l.83-.05h0l.83-.05h0l.82,0h0l.82,0h0l.82,0h0l.83-.05h0l.83-.05h0l.82,0h0l.82-.05h0l.82,0h0l.83-.05h0l.83,0h0l.82-.05h0l.82,0h0l.82,0h0l.83-.05h0l.83,0h0l.82-.05h0l.82,0h0l.82-.05h0l.82,0h0l.83-.05h0l.82,0h0l.82-.05h0l.82,0h0l.82,0h0l.83,0h0l.82-.05h0l.82,0h0l.82,0h0l.82,0h0l.83,0h0l.83,0h0l.82,0h0l.82-.05h0l.82,0h0l.83,0h0l.83,0h0l.82-.05h0l.82,0h0l.82,0h0l.83-.05h0l.83,0" transform="translate(-47.78 -16.64)"/><path class="cls-4" d="M49,535.63,566.77,17.89" transform="translate(-47.78 -16.64)"/><text class="cls-5" transform="translate(829.95 308.41)">logarithmic</text><text class="cls-5" transform="translate(485.27 72.8)">linear</text></svg>