<svg id="Calque_1" data-name="Calque 1" xmlns="http://www.w3.org/2000/svg" viewBox="0 0 907.21 610.84"><defs><style>.cls-1,.cls-4,.cls-7{fill:none;stroke:#000;stroke-miterlimit:10;}.cls-1{stroke-width:2px;}.cls-2{font-size:24px;}.cls-2,.cls-5{font-family:ArialMT, Arial;}.cls-3{letter-spacing:-0.11em;}.cls-5,.cls-6{font-size:36px;}.cls-6{font-family:Arial-BoldMT, Arial;font-weight:700;}.cls-7{stroke-dasharray:4 8;}</style></defs><title>macro_micro_evoluion</title><polyline class="cls-1" points="818.16 570.72 39.28 570.72 39.28 26.99"/><polygon points="814.2 564.91 835.88 570.72 814.2 576.53 814.2 564.91"/><polygon points="45.09 30.96 39.28 9.28 33.47 30.96 45.09 30.96"/><text class="cls-2" transform="translate(719.05 603.04)"><tspan class="cls-3">T</tspan><tspan x="12" y="0">emps</tspan></text><text class="cls-2" transform="translate(20.6 229.02) rotate(-90)">Extension spatiale</text><path class="cls-1" d="M373.34,238.57c57.07-2.89,166.15,5.11,304.6,68.81,93.95,43.24,157.61,103.83,191.49,144.26" transform="translate(-166.57 -205.68)"/><path class="cls-1" d="M259.72,743.47c79.83,2.84,211.89-5,362-61.79,167.49-63.32,192-101.2,245.61-146" transform="translate(-166.57 -205.68)"/><line class="cls-4" x1="83.71" y1="538.28" x2="197.76" y2="43.08"/><polygon points="202.29 45.62 199.37 36.08 192.57 43.38 202.29 45.62"/><text class="cls-5" transform="translate(260.41 25.39) scale(0.58)">Amas</text><text class="cls-5" transform="translate(319.54 35.48) scale(0.58)">Galaxies</text><text class="cls-5" transform="translate(400.73 54.14) scale(0.58)">Étoiles</text><text class="cls-5" transform="translate(459.26 71.95) scale(0.58)">Planètes</text><text class="cls-5" transform="translate(144.54 18.01) scale(0.58)">Superamas</text><text class="cls-5" transform="translate(506.05 93.76) scale(0.58)">Océan prébiotique</text><text class="cls-5" transform="translate(552.69 117.29) scale(0.58)">Cycles autocatalytiques</text><text class="cls-5" transform="translate(594.09 140.73) scale(0.58)">Procaryotes</text><text class="cls-5" transform="translate(625.26 164.56) scale(0.58)">Eukaryotes</text><text class="cls-5" transform="translate(677.6 212.05) scale(0.58)">Hommes</text><text class="cls-5" transform="translate(650.6 188.25) scale(0.58)">Organismes multicellulaires</text><text class="cls-5" transform="translate(701.86 237.04) scale(0.58)">Sociétés humaines</text><text class="cls-5" transform="translate(691.18 360.95) scale(0.58)">Cerveau global</text><path d="M384.47,462v-15h10.86v1.78h-8.87v4.6h8.31v1.76h-8.31v5.11h9.22V462Zm4.1-15.95,1.36-2.87h2.42L390.1,446Z" transform="translate(-166.57 -205.68)"/><path d="M401.21,462l-4.14-10.89H399l2.34,6.52c.25.71.48,1.44.7,2.2.16-.58.39-1.27.68-2.07l2.42-6.65h1.9L402.94,462Z" transform="translate(-166.57 -205.68)"/><path d="M408,456.51a5.61,5.61,0,0,1,1.68-4.48,5.06,5.06,0,0,1,3.42-1.21,4.88,4.88,0,0,1,3.67,1.47,5.58,5.58,0,0,1,1.43,4.06,7.11,7.11,0,0,1-.64,3.31,4.46,4.46,0,0,1-1.83,1.87,5.38,5.38,0,0,1-2.63.66,4.87,4.87,0,0,1-3.69-1.46A5.86,5.86,0,0,1,408,456.51Zm1.89,0a4.64,4.64,0,0,0,.92,3.13,3,3,0,0,0,4.58,0,4.73,4.73,0,0,0,.91-3.19,4.48,4.48,0,0,0-.92-3.05,3,3,0,0,0-4.57,0A4.61,4.61,0,0,0,409.89,456.51Z" transform="translate(-166.57 -205.68)"/><path d="M420.32,462v-15h1.84v15Z" transform="translate(-166.57 -205.68)"/><path d="M432.15,462v-1.6a4,4,0,0,1-3.45,1.84,4.36,4.36,0,0,1-1.8-.37,2.9,2.9,0,0,1-1.24-.92,3.54,3.54,0,0,1-.57-1.37,9.93,9.93,0,0,1-.11-1.72v-6.75h1.84v6a10.21,10.21,0,0,0,.12,1.95,1.93,1.93,0,0,0,.73,1.14,2.3,2.3,0,0,0,1.4.42,3.11,3.11,0,0,0,1.56-.43,2.41,2.41,0,0,0,1-1.16,5.85,5.85,0,0,0,.3-2.12v-5.84h1.84V462Z" transform="translate(-166.57 -205.68)"/><path d="M440.72,460.3l.27,1.63a6.83,6.83,0,0,1-1.4.16,3,3,0,0,1-1.55-.32,1.78,1.78,0,0,1-.78-.83,6.6,6.6,0,0,1-.23-2.18V452.5h-1.35v-1.44H437v-2.69l1.84-1.11v3.8h1.85v1.44h-1.85v6.36a3.49,3.49,0,0,0,.09,1,.79.79,0,0,0,.32.36,1.23,1.23,0,0,0,.63.13A5.52,5.52,0,0,0,440.72,460.3Z" transform="translate(-166.57 -205.68)"/><path d="M442.53,449.05v-2.13h1.85v2.13Zm0,12.9V451.06h1.85V462Z" transform="translate(-166.57 -205.68)"/><path d="M446.5,456.51a5.61,5.61,0,0,1,1.68-4.48,5.06,5.06,0,0,1,3.42-1.21,4.88,4.88,0,0,1,3.67,1.47,5.58,5.58,0,0,1,1.43,4.06,7.25,7.25,0,0,1-.63,3.31,4.48,4.48,0,0,1-1.84,1.87,5.38,5.38,0,0,1-2.63.66,4.87,4.87,0,0,1-3.69-1.46A5.86,5.86,0,0,1,446.5,456.51Zm1.9,0a4.64,4.64,0,0,0,.91,3.13,3,3,0,0,0,4.58,0,4.73,4.73,0,0,0,.91-3.19,4.43,4.43,0,0,0-.92-3.05,3,3,0,0,0-4.57,0A4.61,4.61,0,0,0,448.4,456.51Z" transform="translate(-166.57 -205.68)"/><path d="M458.86,462V451.06h1.66v1.55a3.92,3.92,0,0,1,3.46-1.79,4.64,4.64,0,0,1,1.81.35,3,3,0,0,1,1.24.93,3.63,3.63,0,0,1,.57,1.36,10.49,10.49,0,0,1,.1,1.8V462h-1.84v-6.62a4.81,4.81,0,0,0-.22-1.69,1.73,1.73,0,0,0-.76-.89,2.45,2.45,0,0,0-1.29-.33,3,3,0,0,0-2,.75,3.66,3.66,0,0,0-.86,2.83V462Z" transform="translate(-166.57 -205.68)"/><path d="M389.55,479l1.82.24a4.67,4.67,0,0,1-1.53,2.93,4.39,4.39,0,0,1-3,1.06,4.67,4.67,0,0,1-3.6-1.46,5.94,5.94,0,0,1-1.35-4.18,7.57,7.57,0,0,1,.58-3.09,4.06,4.06,0,0,1,1.78-2,5.26,5.26,0,0,1,2.6-.66,4.51,4.51,0,0,1,2.9.9,4.07,4.07,0,0,1,1.44,2.54l-1.79.28a3,3,0,0,0-.91-1.65,2.33,2.33,0,0,0-1.57-.55,2.88,2.88,0,0,0-2.27,1,4.76,4.76,0,0,0-.87,3.17,4.88,4.88,0,0,0,.84,3.18,2.72,2.72,0,0,0,2.2,1,2.57,2.57,0,0,0,1.81-.67A3.33,3.33,0,0,0,389.55,479Z" transform="translate(-166.57 -205.68)"/><path d="M392.26,477.51a5.61,5.61,0,0,1,1.68-4.48,5,5,0,0,1,3.42-1.21,4.88,4.88,0,0,1,3.67,1.47,5.58,5.58,0,0,1,1.42,4.06,7.25,7.25,0,0,1-.63,3.31,4.52,4.52,0,0,1-1.83,1.87,5.38,5.38,0,0,1-2.63.66,4.87,4.87,0,0,1-3.69-1.46A5.86,5.86,0,0,1,392.26,477.51Zm1.89,0a4.64,4.64,0,0,0,.92,3.13,3,3,0,0,0,4.58,0,4.78,4.78,0,0,0,.91-3.19,4.48,4.48,0,0,0-.92-3.05,3,3,0,0,0-4.57,0A4.61,4.61,0,0,0,394.15,477.51Z" transform="translate(-166.57 -205.68)"/><path d="M403.88,479.7l1.82-.29a2.58,2.58,0,0,0,.86,1.68,3,3,0,0,0,2,.59,2.92,2.92,0,0,0,1.89-.52A1.55,1.55,0,0,0,411,480a1.13,1.13,0,0,0-.54-1,8,8,0,0,0-1.89-.62,16.84,16.84,0,0,1-2.81-.89,2.74,2.74,0,0,1-1.19-1,2.89,2.89,0,0,1-.07-2.81,2.82,2.82,0,0,1,.91-1,3.76,3.76,0,0,1,1.17-.54,5.5,5.5,0,0,1,1.59-.22,6.17,6.17,0,0,1,2.25.37,3,3,0,0,1,1.43,1,3.91,3.91,0,0,1,.64,1.68l-1.81.25a2,2,0,0,0-.71-1.31,2.56,2.56,0,0,0-1.66-.47,3,3,0,0,0-1.82.42,1.21,1.21,0,0,0-.54,1,1,1,0,0,0,.23.65,1.67,1.67,0,0,0,.7.49c.19.07.73.22,1.63.47a22.93,22.93,0,0,1,2.73.85,2.89,2.89,0,0,1,1.22,1,2.75,2.75,0,0,1,.44,1.58,3.1,3.1,0,0,1-.54,1.74,3.55,3.55,0,0,1-1.55,1.26,5.62,5.62,0,0,1-2.3.44,5.09,5.09,0,0,1-3.23-.88A4.07,4.07,0,0,1,403.88,479.7Z" transform="translate(-166.57 -205.68)"/><path d="M415.11,483V472.06h1.65v1.53a3.89,3.89,0,0,1,1.36-1.28,3.81,3.81,0,0,1,1.94-.49,3.59,3.59,0,0,1,2,.5,2.72,2.72,0,0,1,1.1,1.41,3.89,3.89,0,0,1,3.36-1.91,3.3,3.3,0,0,1,2.49.9,3.81,3.81,0,0,1,.87,2.76V483H428v-6.86a5,5,0,0,0-.18-1.59,1.52,1.52,0,0,0-.65-.79,2.07,2.07,0,0,0-1.1-.29,2.58,2.58,0,0,0-1.91.76,3.35,3.35,0,0,0-.76,2.45V483h-1.84v-7.07a3.13,3.13,0,0,0-.45-1.85,1.72,1.72,0,0,0-1.48-.61,2.62,2.62,0,0,0-1.44.41,2.31,2.31,0,0,0-1,1.2,6.68,6.68,0,0,0-.29,2.27V483Z" transform="translate(-166.57 -205.68)"/><path d="M432.6,470.05v-2.13h1.85v2.13Zm0,12.9V472.06h1.85V483Z" transform="translate(-166.57 -205.68)"/><path d="M444.19,487.12v-5.33a3.16,3.16,0,0,1-1.2,1,3.46,3.46,0,0,1-1.64.4,4.34,4.34,0,0,1-3.34-1.54,6.12,6.12,0,0,1-1.4-4.25,7.27,7.27,0,0,1,.57-2.94,4.3,4.3,0,0,1,1.65-2,4.38,4.38,0,0,1,2.37-.67,3.65,3.65,0,0,1,3.18,1.7v-1.46H446v15.06Zm-5.68-9.64a4.79,4.79,0,0,0,.88,3.15,2.67,2.67,0,0,0,2.11,1.05,2.6,2.6,0,0,0,2-1,4.6,4.6,0,0,0,.85-3,5.06,5.06,0,0,0-.9-3.27,2.67,2.67,0,0,0-2.1-1.1,2.56,2.56,0,0,0-2,1A5,5,0,0,0,438.51,477.48Z" transform="translate(-166.57 -205.68)"/><path d="M456.06,483v-1.6a4,4,0,0,1-3.45,1.84,4.52,4.52,0,0,1-1.8-.36,3,3,0,0,1-1.24-.93,3.48,3.48,0,0,1-.57-1.37,9.93,9.93,0,0,1-.11-1.72v-6.75h1.84v6a10.21,10.21,0,0,0,.12,1.95,1.93,1.93,0,0,0,.73,1.14,2.28,2.28,0,0,0,1.4.42,3.11,3.11,0,0,0,1.56-.43,2.34,2.34,0,0,0,1-1.16,5.58,5.58,0,0,0,.31-2.12v-5.84h1.84V483Z" transform="translate(-166.57 -205.68)"/><path d="M468.05,479.44l1.91.24a4.65,4.65,0,0,1-1.67,2.59,5.66,5.66,0,0,1-6.9-.55,5.7,5.7,0,0,1-1.4-4.12,6,6,0,0,1,1.41-4.26,4.76,4.76,0,0,1,3.67-1.52,4.68,4.68,0,0,1,3.57,1.48,6,6,0,0,1,1.38,4.19c0,.11,0,.27,0,.49h-8.12a4.17,4.17,0,0,0,1,2.74,3,3,0,0,0,2.27,1,2.77,2.77,0,0,0,1.73-.54A3.49,3.49,0,0,0,468.05,479.44Zm-6.05-3h6.07a3.72,3.72,0,0,0-.69-2.06,2.83,2.83,0,0,0-2.29-1.06,2.93,2.93,0,0,0-2.14.85A3.36,3.36,0,0,0,462,476.46Z" transform="translate(-166.57 -205.68)"/><path d="M375.46,508.12V493.06h1.68v1.42a4.15,4.15,0,0,1,1.34-1.25,3.75,3.75,0,0,1,1.81-.41,4.29,4.29,0,0,1,2.46.72,4.35,4.35,0,0,1,1.61,2,7.43,7.43,0,0,1,.54,2.86,7.25,7.25,0,0,1-.59,3,4.47,4.47,0,0,1-1.75,2.05,4.41,4.41,0,0,1-2.4.71,3.51,3.51,0,0,1-1.66-.39,3.85,3.85,0,0,1-1.2-1v5.3Zm1.67-9.55a4.7,4.7,0,0,0,.85,3.1,2.6,2.6,0,0,0,2.06,1,2.66,2.66,0,0,0,2.1-1,4.93,4.93,0,0,0,.88-3.23,4.81,4.81,0,0,0-.86-3.11,2.58,2.58,0,0,0-2-1,2.68,2.68,0,0,0-2.09,1.1A5,5,0,0,0,377.13,498.57Z" transform="translate(-166.57 -205.68)"/><path d="M387.11,504V493.06h1.66v1.65a4.36,4.36,0,0,1,1.17-1.52,2,2,0,0,1,1.19-.37,3.63,3.63,0,0,1,1.89.59l-.63,1.71a2.71,2.71,0,0,0-1.36-.39,1.76,1.76,0,0,0-1.08.36,2,2,0,0,0-.69,1,7.3,7.3,0,0,0-.31,2.15V504Z" transform="translate(-166.57 -205.68)"/><path d="M394.13,491.05v-2.13H396v2.13Zm0,12.9V493.06H396V504Z" transform="translate(-166.57 -205.68)"/><path d="M398.78,504V493.06h1.65v1.53a3.89,3.89,0,0,1,1.36-1.28,3.81,3.81,0,0,1,1.94-.49,3.59,3.59,0,0,1,2,.5,2.72,2.72,0,0,1,1.1,1.41,3.89,3.89,0,0,1,3.36-1.91,3.34,3.34,0,0,1,2.49.89,3.85,3.85,0,0,1,.87,2.77V504h-1.84v-6.86a5,5,0,0,0-.18-1.59,1.52,1.52,0,0,0-.65-.79,2.07,2.07,0,0,0-1.1-.29,2.58,2.58,0,0,0-1.91.76,3.33,3.33,0,0,0-.76,2.44V504h-1.84v-7.07a3.13,3.13,0,0,0-.45-1.85,1.72,1.72,0,0,0-1.48-.61,2.62,2.62,0,0,0-1.44.41,2.31,2.31,0,0,0-1,1.2,6.68,6.68,0,0,0-.29,2.27V504Z" transform="translate(-166.57 -205.68)"/><path d="M415.58,498.51a5.61,5.61,0,0,1,1.68-4.48,5,5,0,0,1,3.42-1.21,4.88,4.88,0,0,1,3.67,1.47,5.58,5.58,0,0,1,1.42,4.06,7.25,7.25,0,0,1-.63,3.31,4.52,4.52,0,0,1-1.83,1.87,5.38,5.38,0,0,1-2.63.66,4.87,4.87,0,0,1-3.69-1.46A5.86,5.86,0,0,1,415.58,498.51Zm1.89,0a4.64,4.64,0,0,0,.92,3.13,3,3,0,0,0,4.58,0,4.78,4.78,0,0,0,.91-3.19,4.48,4.48,0,0,0-.92-3.05,3,3,0,0,0-4.57,0A4.61,4.61,0,0,0,417.47,498.51Z" transform="translate(-166.57 -205.68)"/><path d="M427.92,504V493.06h1.66v1.65a4.36,4.36,0,0,1,1.17-1.52,2,2,0,0,1,1.18-.37,3.63,3.63,0,0,1,1.9.59l-.64,1.71a2.68,2.68,0,0,0-1.35-.39,1.8,1.8,0,0,0-1.09.36,2,2,0,0,0-.68,1,7,7,0,0,0-.31,2.15V504Z" transform="translate(-166.57 -205.68)"/><path d="M442,504v-1.38a3.39,3.39,0,0,1-3.05,1.62,4.34,4.34,0,0,1-2.39-.71,4.71,4.71,0,0,1-1.69-2,6.88,6.88,0,0,1-.6-3,7.77,7.77,0,0,1,.54-3,4.25,4.25,0,0,1,1.63-2,4.32,4.32,0,0,1,2.43-.71,3.61,3.61,0,0,1,3,1.49v-5.39h1.84v15Zm-5.83-5.43a4.7,4.7,0,0,0,.88,3.12,2.65,2.65,0,0,0,2.08,1,2.6,2.6,0,0,0,2.05-1,4.54,4.54,0,0,0,.85-3,5.15,5.15,0,0,0-.86-3.28,2.64,2.64,0,0,0-2.12-1,2.56,2.56,0,0,0-2.06,1A5,5,0,0,0,436.16,498.52Z" transform="translate(-166.57 -205.68)"/><path d="M446.61,491.05v-2.13h1.84v2.13Zm0,12.9V493.06h1.84V504Z" transform="translate(-166.57 -205.68)"/><path d="M458.36,502.6a6.71,6.71,0,0,1-2,1.24,5.89,5.89,0,0,1-2,.35,4,4,0,0,1-2.76-.87,2.91,2.91,0,0,1-1-2.24,3,3,0,0,1,.36-1.46,3,3,0,0,1,.95-1.06,4.61,4.61,0,0,1,1.33-.61,14.92,14.92,0,0,1,1.64-.27,16.6,16.6,0,0,0,3.29-.64c0-.25,0-.41,0-.48a2.08,2.08,0,0,0-.52-1.59,3.08,3.08,0,0,0-2.1-.62,3.33,3.33,0,0,0-1.93.45,2.79,2.79,0,0,0-.91,1.62l-1.81-.25a4.61,4.61,0,0,1,.81-1.87,3.57,3.57,0,0,1,1.63-1.1,7.45,7.45,0,0,1,2.47-.38,6.53,6.53,0,0,1,2.27.33,3,3,0,0,1,1.28.82,2.93,2.93,0,0,1,.57,1.26,10.58,10.58,0,0,1,.09,1.7v2.46a25.57,25.57,0,0,0,.12,3.25,4.2,4.2,0,0,0,.47,1.31h-1.93A4.11,4.11,0,0,1,458.36,502.6Zm-.15-4.11a13.67,13.67,0,0,1-3,.69,6.75,6.75,0,0,0-1.61.37,1.62,1.62,0,0,0-.73.6,1.63,1.63,0,0,0,.3,2.11,2.45,2.45,0,0,0,1.64.49,3.78,3.78,0,0,0,1.89-.47,2.82,2.82,0,0,0,1.22-1.27,4.43,4.43,0,0,0,.3-1.85Z" transform="translate(-166.57 -205.68)"/><path d="M462.89,504v-15h1.85v15Z" transform="translate(-166.57 -205.68)"/><path d="M475.05,500.44l1.9.24a4.6,4.6,0,0,1-1.67,2.59,5.66,5.66,0,0,1-6.9-.55,5.74,5.74,0,0,1-1.4-4.12,6,6,0,0,1,1.42-4.27,4.77,4.77,0,0,1,3.66-1.51,4.65,4.65,0,0,1,3.57,1.48,6,6,0,0,1,1.38,4.19c0,.11,0,.27,0,.49h-8.11a4.16,4.16,0,0,0,1,2.74,3,3,0,0,0,2.28,1,2.81,2.81,0,0,0,1.73-.54A3.49,3.49,0,0,0,475.05,500.44Zm-6.06-3h6.08a3.71,3.71,0,0,0-.7-2.06,2.84,2.84,0,0,0-2.29-1.07,2.93,2.93,0,0,0-2.13.86A3.32,3.32,0,0,0,469,497.46Z" transform="translate(-166.57 -205.68)"/><text class="cls-5" transform="translate(665.86 382.55) scale(0.58)">Cerveaux</text><text class="cls-5" transform="translate(633.05 406.25) scale(0.58)">Chromosomes</text><text class="cls-5" transform="translate(600.26 428.06) scale(0.58)">Génomes</text><text class="cls-5" transform="translate(561.58 448.46) scale(0.58)">Gènes</text><text class="cls-5" transform="translate(516.79 472.91) scale(0.58)">Chaines moléculaires</text><text class="cls-5" transform="translate(468.26 492.87) scale(0.58)">Molécules</text><text class="cls-5" transform="translate(401.73 513.67) scale(0.58)">Atomes lourds</text><text class="cls-5" transform="translate(321.56 534.8) scale(0.58)">Atomes légers</text><text class="cls-5" transform="translate(239.6 549.72) scale(0.58)">Leptons</text><text class="cls-5" transform="translate(152.45 557.53) scale(0.58)">Hadrons</text><text class="cls-5" transform="translate(80.26 560.33) scale(0.58)">Quarks</text><text class="cls-6" transform="translate(601.3 523.33) scale(0.58)">Microévolution</text><text class="cls-6" transform="translate(600.26 19.53) scale(0.58)">Macroévolution</text><text class="cls-2" transform="translate(106.26 381.66) rotate(-77.25)">Expansion de l’Univers</text><line class="cls-7" x1="335.44" y1="512.7" x2="407" y2="68.87"/><polygon points="411.69 71.11 408.14 61.79 401.84 69.52 411.69 71.11"/><line class="cls-7" x1="413.08" y1="483.63" x2="408.14" y2="61.79"/><polygon points="418.05 482.12 413.16 490.81 408.07 482.23 418.05 482.12"/><line class="cls-7" x1="461.47" y1="87.95" x2="413.16" y2="490.81"/><polygon points="456.35 88.8 462.32 80.82 466.25 89.99 456.35 88.8"/><line class="cls-7" x1="478.25" y1="459.8" x2="462.32" y2="80.82"/><polygon points="483.17 458.13 478.55 466.97 473.21 458.55 483.17 458.13"/><line class="cls-7" x1="510.73" y1="108.85" x2="478.55" y2="466.97"/><polygon points="505.63 109.85 511.37 101.7 515.56 110.75 505.63 109.85"/><line class="cls-7" x1="526.55" y1="439.57" x2="511.37" y2="101.7"/><polygon points="531.46 437.88 526.87 446.74 521.5 438.33 531.46 437.88"/><line class="cls-7" x1="552.12" y1="129.96" x2="526.87" y2="446.74"/><polygon points="547.03 131.02 552.69 122.81 556.97 131.81 547.03 131.02"/><line class="cls-7" x1="567.68" y1="419.88" x2="552.69" y2="122.81"/><polygon points="572.59 418.18 568.04 427.05 562.63 418.68 572.59 418.18"/><line class="cls-7" x1="592.38" y1="154.96" x2="568.04" y2="427.05"/><polygon points="587.28 155.97 593.02 147.81 597.22 156.86 587.28 155.97"/><line class="cls-7" x1="601.91" y1="400.81" x2="593.02" y2="147.81"/><polygon points="606.84 399.17 602.16 407.98 596.88 399.52 606.84 399.17"/><line class="cls-7" x1="621.92" y1="176.41" x2="602.16" y2="407.98"/><polygon points="616.83 177.44 622.53 169.26 626.77 178.29 616.83 177.44"/><line class="cls-7" x1="633.22" y1="379.73" x2="622.53" y2="169.26"/><polygon points="638.13 378.02 633.59 386.89 628.17 378.52 638.13 378.02"/><line class="cls-7" x1="649.14" y1="198.95" x2="633.59" y2="386.89"/><polygon points="644.05 199.99 649.73 191.79 653.99 200.81 644.05 199.99"/><line class="cls-7" x1="655.38" y1="362.25" x2="649.73" y2="191.8"/><polygon points="660.32 360.63 655.62 369.42 650.35 360.96 660.32 360.63"/><line class="cls-7" x1="673.48" y1="222.04" x2="655.62" y2="369.42"/><polygon points="668.36 222.88 674.35 214.91 678.26 224.09 668.36 222.88"/><line class="cls-7" x1="679.91" y1="340.67" x2="674.35" y2="214.91"/><polygon points="684.83 338.99 680.23 347.84 674.87 339.43 684.83 338.99"/><line class="cls-7" x1="694.22" y1="244.15" x2="680.23" y2="347.84"/><polygon points="689.08 244.93 695.18 237.04 698.96 246.26 689.08 244.93"/></svg>