<svg id="Calque_1" data-name="Calque 1" xmlns="http://www.w3.org/2000/svg" viewBox="0 0 865.05 612.84"><defs><style>.cls-1,.cls-4,.cls-7{fill:none;stroke:#000;stroke-miterlimit:10;}.cls-1{stroke-width:2px;}.cls-2{font-size:24px;}.cls-2,.cls-5{font-family:ArialMT, Arial;}.cls-3{letter-spacing:-0.04em;}.cls-5,.cls-6{font-size:36px;}.cls-6{font-family:Arial-BoldMT, Arial;font-weight:700;}.cls-7{stroke-dasharray:4 8;}</style></defs><title>macro_micro_evoluion_en</title><polyline class="cls-1" points="819.16 571.72 40.28 571.72 40.28 27.99"/><polygon points="815.2 565.91 836.88 571.72 815.2 577.53 815.2 565.91"/><polygon points="46.09 31.96 40.28 10.28 34.47 31.96 46.09 31.96"/><text class="cls-2" transform="translate(720.05 605.04)"><tspan class="cls-3">T</tspan><tspan x="13.77" y="0">ime</tspan></text><text class="cls-2" transform="translate(20.6 232.02) rotate(-90)">Spatial extension</text><path class="cls-1" d="M320.34,225.57c57.07-2.89,166.15,5.11,304.6,68.81,93.95,43.24,157.61,103.83,191.49,144.26" transform="translate(-112.57 -191.68)"/><path class="cls-1" d="M206.72,730.47c79.83,2.84,211.89-5,362-61.79,167.49-63.32,192-101.2,245.61-146" transform="translate(-112.57 -191.68)"/><line class="cls-4" x1="84.71" y1="539.28" x2="198.76" y2="44.08"/><polygon points="203.29 46.62 200.37 37.08 193.57 44.38 203.29 46.62"/><text class="cls-5" transform="translate(261.41 25.39) scale(0.58)">Cluster</text><text class="cls-5" transform="translate(326.54 39.48) scale(0.58)">Galaxies</text><text class="cls-5" transform="translate(401.73 55.14) scale(0.58)">Stars</text><text class="cls-5" transform="translate(460.26 72.95) scale(0.58)">Planets</text><text class="cls-5" transform="translate(141.54 18.01) scale(0.58)">Supercluster</text><text class="cls-5" transform="translate(507.05 94.76) scale(0.58)">Prebiotic ocean</text><text class="cls-5" transform="translate(553.69 118.29) scale(0.58)">Autocatalytic cycles</text><text class="cls-5" transform="translate(595.09 141.73) scale(0.58)">Prokaryotes</text><text class="cls-5" transform="translate(626.26 165.56) scale(0.58)">Eukaryotes</text><text class="cls-5" transform="translate(678.6 213.05) scale(0.58)">Humans</text><text class="cls-5" transform="translate(651.6 189.25) scale(0.58)">Multicellular organisms</text><text class="cls-5" transform="translate(702.86 238.04) scale(0.58)">Human societies</text><text class="cls-5" transform="translate(692.18 361.95) scale(0.58)">Global brain</text><path d="M351.34,442.68l2,.5a6.61,6.61,0,0,1-2.25,3.74,6.16,6.16,0,0,1-4,1.28,7.14,7.14,0,0,1-4-1,6.14,6.14,0,0,1-2.31-2.86,10.21,10.21,0,0,1-.8-4,8.81,8.81,0,0,1,.9-4.09,6.19,6.19,0,0,1,2.55-2.66,7.5,7.5,0,0,1,3.64-.9,6.15,6.15,0,0,1,3.8,1.15,6,6,0,0,1,2.14,3.22l-2,.46a4.6,4.6,0,0,0-1.52-2.38,4,4,0,0,0-2.5-.75,4.86,4.86,0,0,0-2.89.83,4.4,4.4,0,0,0-1.64,2.23,9.05,9.05,0,0,0-.47,2.88,9.22,9.22,0,0,0,.56,3.35,4.19,4.19,0,0,0,1.74,2.14,4.85,4.85,0,0,0,2.55.7,4.29,4.29,0,0,0,2.83-1A5,5,0,0,0,351.34,442.68Z" transform="translate(-112.57 -191.68)"/><path d="M354.85,442.51a5.61,5.61,0,0,1,1.68-4.48,5.06,5.06,0,0,1,3.42-1.21,4.88,4.88,0,0,1,3.67,1.47,5.58,5.58,0,0,1,1.43,4.06,7.25,7.25,0,0,1-.63,3.31,4.48,4.48,0,0,1-1.84,1.87,5.38,5.38,0,0,1-2.63.66,4.87,4.87,0,0,1-3.69-1.46A5.86,5.86,0,0,1,354.85,442.51Zm1.9,0a4.64,4.64,0,0,0,.91,3.13,3,3,0,0,0,4.58,0,4.73,4.73,0,0,0,.91-3.19,4.43,4.43,0,0,0-.92-3.05,3,3,0,0,0-4.57,0A4.61,4.61,0,0,0,356.75,442.51Z" transform="translate(-112.57 -191.68)"/><path d="M366.47,444.7l1.83-.29a2.53,2.53,0,0,0,.85,1.68,3,3,0,0,0,2,.59,2.92,2.92,0,0,0,1.89-.52,1.56,1.56,0,0,0,.62-1.21,1.14,1.14,0,0,0-.55-1,8.09,8.09,0,0,0-1.88-.62,18.09,18.09,0,0,1-2.82-.89,2.68,2.68,0,0,1-1.59-2.5,2.8,2.8,0,0,1,.33-1.34,2.91,2.91,0,0,1,.91-1,4,4,0,0,1,1.17-.54,5.53,5.53,0,0,1,1.6-.22,6.24,6.24,0,0,1,2.25.37,3.06,3.06,0,0,1,1.43,1,4,4,0,0,1,.63,1.68l-1.8.25a2,2,0,0,0-.71-1.31,2.59,2.59,0,0,0-1.67-.48,3,3,0,0,0-1.81.43,1.2,1.2,0,0,0-.55,1,1,1,0,0,0,.23.64,1.58,1.58,0,0,0,.71.5c.18.06.72.22,1.63.47a24.24,24.24,0,0,1,2.73.85,2.86,2.86,0,0,1,1.21,1,2.75,2.75,0,0,1,.44,1.58,3.1,3.1,0,0,1-.54,1.74,3.5,3.5,0,0,1-1.55,1.26,5.77,5.77,0,0,1-2.29.44,5.11,5.11,0,0,1-3.24-.88A4.11,4.11,0,0,1,366.47,444.7Z" transform="translate(-112.57 -191.68)"/><path d="M377.7,448V437.06h1.65v1.53a3.92,3.92,0,0,1,1.37-1.28,3.74,3.74,0,0,1,1.93-.49,3.65,3.65,0,0,1,2,.5,2.72,2.72,0,0,1,1.09,1.4,3.9,3.9,0,0,1,3.36-1.9,3.34,3.34,0,0,1,2.49.89,3.85,3.85,0,0,1,.87,2.77V448h-1.83v-6.86a5,5,0,0,0-.18-1.59,1.56,1.56,0,0,0-.65-.79,2.14,2.14,0,0,0-1.11-.29,2.58,2.58,0,0,0-1.91.76,3.38,3.38,0,0,0-.75,2.44V448h-1.85v-7.07a3.13,3.13,0,0,0-.45-1.85,1.7,1.7,0,0,0-1.48-.61,2.62,2.62,0,0,0-1.44.41,2.25,2.25,0,0,0-.95,1.2,6.64,6.64,0,0,0-.3,2.27V448Z" transform="translate(-112.57 -191.68)"/><path d="M395.2,435.05v-2.13H397v2.13Zm0,12.9V437.06H397V448Z" transform="translate(-112.57 -191.68)"/><path d="M407,444l1.82.24a4.67,4.67,0,0,1-1.53,2.93,4.4,4.4,0,0,1-3,1.06,4.67,4.67,0,0,1-3.6-1.46,5.94,5.94,0,0,1-1.35-4.18,7.57,7.57,0,0,1,.58-3.09,4.06,4.06,0,0,1,1.78-2,5.26,5.26,0,0,1,2.6-.66,4.58,4.58,0,0,1,2.9.89,4.12,4.12,0,0,1,1.44,2.55l-1.79.28a3,3,0,0,0-.91-1.65,2.34,2.34,0,0,0-1.57-.56,2.89,2.89,0,0,0-2.27,1,4.76,4.76,0,0,0-.87,3.17,4.88,4.88,0,0,0,.84,3.18,2.72,2.72,0,0,0,2.2,1A2.57,2.57,0,0,0,406,446,3.33,3.33,0,0,0,407,444Z" transform="translate(-112.57 -191.68)"/><path d="M340.81,465.44l1.9.24a4.65,4.65,0,0,1-1.67,2.59,5.66,5.66,0,0,1-6.9-.55,5.74,5.74,0,0,1-1.4-4.12,6,6,0,0,1,1.41-4.26,4.78,4.78,0,0,1,3.67-1.52,4.65,4.65,0,0,1,3.57,1.48,6,6,0,0,1,1.38,4.19c0,.11,0,.27,0,.49h-8.11a4.16,4.16,0,0,0,1,2.74,3,3,0,0,0,2.28,1,2.81,2.81,0,0,0,1.73-.54A3.49,3.49,0,0,0,340.81,465.44Zm-6.06-3h6.08a3.79,3.79,0,0,0-.7-2.06,2.83,2.83,0,0,0-2.29-1.06,2.9,2.9,0,0,0-2.13.85A3.32,3.32,0,0,0,334.75,462.46Z" transform="translate(-112.57 -191.68)"/><path d="M348.05,469l-4.14-10.89h1.95l2.33,6.52c.26.71.49,1.44.7,2.2.17-.58.39-1.27.69-2.07l2.42-6.65h1.89L349.77,469Z" transform="translate(-112.57 -191.68)"/><path d="M354.84,463.51a5.61,5.61,0,0,1,1.68-4.48,5,5,0,0,1,3.42-1.21,4.88,4.88,0,0,1,3.67,1.47,5.58,5.58,0,0,1,1.42,4.06,7.25,7.25,0,0,1-.63,3.31,4.52,4.52,0,0,1-1.83,1.87,5.4,5.4,0,0,1-2.63.66,4.9,4.9,0,0,1-3.7-1.46A5.9,5.9,0,0,1,354.84,463.51Zm1.89,0a4.69,4.69,0,0,0,.91,3.13,3,3,0,0,0,2.3,1,2.89,2.89,0,0,0,2.28-1.05,4.73,4.73,0,0,0,.92-3.19,4.48,4.48,0,0,0-.92-3.05,2.89,2.89,0,0,0-2.28-1,2.94,2.94,0,0,0-2.3,1A4.66,4.66,0,0,0,356.73,463.51Z" transform="translate(-112.57 -191.68)"/><path d="M367.15,469v-15H369v15Z" transform="translate(-112.57 -191.68)"/><path d="M379,469v-1.6a4,4,0,0,1-3.45,1.84,4.45,4.45,0,0,1-1.8-.36,3,3,0,0,1-1.24-.93,3.48,3.48,0,0,1-.57-1.37,9,9,0,0,1-.11-1.72v-6.75h1.84v6a11.48,11.48,0,0,0,.11,1.95,2,2,0,0,0,.74,1.14,2.28,2.28,0,0,0,1.4.42,3,3,0,0,0,1.55-.43,2.32,2.32,0,0,0,1-1.16,5.78,5.78,0,0,0,.31-2.12v-5.84h1.84V469Z" transform="translate(-112.57 -191.68)"/><path d="M387.56,467.3l.26,1.63a6.74,6.74,0,0,1-1.39.16,3.08,3.08,0,0,1-1.56-.32,1.78,1.78,0,0,1-.78-.83,6.69,6.69,0,0,1-.22-2.18V459.5h-1.35v-1.44h1.35v-2.69l1.83-1.11v3.8h1.86v1.44H385.7v6.36a3.06,3.06,0,0,0,.1,1,.74.74,0,0,0,.32.36,1.18,1.18,0,0,0,.63.13A5.74,5.74,0,0,0,387.56,467.3Z" transform="translate(-112.57 -191.68)"/><path d="M389.37,456.05v-2.13h1.85v2.13Zm0,12.9V458.06h1.85V469Z" transform="translate(-112.57 -191.68)"/><path d="M393.34,463.51A5.61,5.61,0,0,1,395,459a5,5,0,0,1,3.42-1.21,4.88,4.88,0,0,1,3.67,1.47,5.58,5.58,0,0,1,1.42,4.06,7.25,7.25,0,0,1-.63,3.31,4.52,4.52,0,0,1-1.83,1.87,5.38,5.38,0,0,1-2.63.66,4.87,4.87,0,0,1-3.69-1.46A5.86,5.86,0,0,1,393.34,463.51Zm1.89,0a4.64,4.64,0,0,0,.92,3.13,3,3,0,0,0,4.58,0,4.78,4.78,0,0,0,.91-3.19,4.48,4.48,0,0,0-.92-3.05,3,3,0,0,0-4.57,0A4.61,4.61,0,0,0,395.23,463.51Z" transform="translate(-112.57 -191.68)"/><path d="M405.7,469V458.06h1.66v1.55a3.92,3.92,0,0,1,3.46-1.79,4.64,4.64,0,0,1,1.81.35,2.87,2.87,0,0,1,1.23.93,3.48,3.48,0,0,1,.58,1.36,10.49,10.49,0,0,1,.1,1.8V469H412.7v-6.62a5.06,5.06,0,0,0-.22-1.69,1.77,1.77,0,0,0-.76-.89,2.48,2.48,0,0,0-1.29-.33,3,3,0,0,0-2,.75,3.66,3.66,0,0,0-.86,2.83V469Z" transform="translate(-112.57 -191.68)"/><path d="M329.29,494.12V479.06H331v1.42a4.28,4.28,0,0,1,1.35-1.25,3.73,3.73,0,0,1,1.81-.41,4.29,4.29,0,0,1,2.46.72,4.35,4.35,0,0,1,1.61,2,7.43,7.43,0,0,1,.54,2.86,7.25,7.25,0,0,1-.6,3,4.51,4.51,0,0,1-1.74,2.05,4.41,4.41,0,0,1-2.4.71,3.48,3.48,0,0,1-1.66-.39,3.64,3.64,0,0,1-1.2-1v5.3Zm1.67-9.55a4.76,4.76,0,0,0,.85,3.1,2.63,2.63,0,0,0,2.06,1,2.68,2.68,0,0,0,2.11-1,5,5,0,0,0,.88-3.23,4.81,4.81,0,0,0-.86-3.11,2.58,2.58,0,0,0-2-1,2.66,2.66,0,0,0-2.09,1.1A5,5,0,0,0,331,484.57Z" transform="translate(-112.57 -191.68)"/><path d="M340.94,490V479.06h1.66v1.65a4.48,4.48,0,0,1,1.18-1.52,2,2,0,0,1,1.18-.37,3.69,3.69,0,0,1,1.9.59l-.64,1.71a2.68,2.68,0,0,0-1.35-.39,1.78,1.78,0,0,0-1.09.36,1.92,1.92,0,0,0-.68,1,7,7,0,0,0-.31,2.15V490Z" transform="translate(-112.57 -191.68)"/><path d="M348,477.05v-2.13h1.85v2.13Zm0,12.9V479.06h1.85V490Z" transform="translate(-112.57 -191.68)"/><path d="M352.62,490V479.06h1.65v1.53a3.85,3.85,0,0,1,3.3-1.77,3.63,3.63,0,0,1,2,.5,2.66,2.66,0,0,1,1.09,1.41,3.89,3.89,0,0,1,3.36-1.91,3.34,3.34,0,0,1,2.49.89,3.85,3.85,0,0,1,.87,2.77V490h-1.83v-6.86a5,5,0,0,0-.18-1.59,1.56,1.56,0,0,0-.65-.79,2.11,2.11,0,0,0-1.11-.29,2.55,2.55,0,0,0-1.9.76,3.33,3.33,0,0,0-.76,2.44V490h-1.85v-7.07a3.13,3.13,0,0,0-.45-1.85,1.7,1.7,0,0,0-1.47-.61,2.62,2.62,0,0,0-1.44.41,2.31,2.31,0,0,0-1,1.2,6.64,6.64,0,0,0-.3,2.27V490Z" transform="translate(-112.57 -191.68)"/><path d="M369.41,484.51a5.61,5.61,0,0,1,1.68-4.48,5.06,5.06,0,0,1,3.43-1.21,4.9,4.9,0,0,1,3.67,1.47,5.58,5.58,0,0,1,1.42,4.06,7.25,7.25,0,0,1-.63,3.31,4.52,4.52,0,0,1-1.83,1.87,5.4,5.4,0,0,1-2.63.66,4.88,4.88,0,0,1-3.7-1.46A5.86,5.86,0,0,1,369.41,484.51Zm1.9,0a4.64,4.64,0,0,0,.91,3.13,2.94,2.94,0,0,0,2.3,1,2.9,2.9,0,0,0,2.28-1.05,4.73,4.73,0,0,0,.91-3.19,4.48,4.48,0,0,0-.91-3.05,2.89,2.89,0,0,0-2.28-1,2.93,2.93,0,0,0-2.3,1A4.61,4.61,0,0,0,371.31,484.51Z" transform="translate(-112.57 -191.68)"/><path d="M381.75,490V479.06h1.66v1.65a4.48,4.48,0,0,1,1.18-1.52,2,2,0,0,1,1.18-.37,3.69,3.69,0,0,1,1.9.59l-.64,1.71a2.68,2.68,0,0,0-1.35-.39,1.76,1.76,0,0,0-1.09.36,2,2,0,0,0-.69,1,7.3,7.3,0,0,0-.3,2.15V490Z" transform="translate(-112.57 -191.68)"/><path d="M395.82,490v-1.38a3.38,3.38,0,0,1-3,1.62,4.29,4.29,0,0,1-2.39-.71,4.74,4.74,0,0,1-1.7-2,6.88,6.88,0,0,1-.59-3,7.77,7.77,0,0,1,.54-3,4.2,4.2,0,0,1,1.63-2,4.27,4.27,0,0,1,2.43-.71,3.7,3.7,0,0,1,1.75.41,3.75,3.75,0,0,1,1.25,1.08v-5.39h1.83v15ZM390,484.52a4.7,4.7,0,0,0,.88,3.12,2.67,2.67,0,0,0,2.08,1,2.62,2.62,0,0,0,2.06-1,4.59,4.59,0,0,0,.84-3,5.09,5.09,0,0,0-.86-3.28,2.63,2.63,0,0,0-2.12-1,2.54,2.54,0,0,0-2.05,1A5,5,0,0,0,390,484.52Z" transform="translate(-112.57 -191.68)"/><path d="M400.44,477.05v-2.13h1.85v2.13Zm0,12.9V479.06h1.85V490Z" transform="translate(-112.57 -191.68)"/><path d="M412.2,488.6a6.71,6.71,0,0,1-2,1.24,6,6,0,0,1-2,.35,4,4,0,0,1-2.75-.87,3.07,3.07,0,0,1-.6-3.7,3,3,0,0,1,1-1.06,4.38,4.38,0,0,1,1.33-.61,14.5,14.5,0,0,1,1.64-.27A16.63,16.63,0,0,0,412,483c0-.25,0-.41,0-.48a2,2,0,0,0-.53-1.59,3.06,3.06,0,0,0-2.1-.62,3.27,3.27,0,0,0-1.92.45,2.79,2.79,0,0,0-.92,1.62l-1.8-.25a4.35,4.35,0,0,1,.81-1.87,3.52,3.52,0,0,1,1.63-1.1,7.41,7.41,0,0,1,2.47-.38,6.46,6.46,0,0,1,2.26.33,3,3,0,0,1,1.28.82,2.83,2.83,0,0,1,.58,1.26,10.58,10.58,0,0,1,.09,1.7v2.46a25.57,25.57,0,0,0,.12,3.25,4.18,4.18,0,0,0,.46,1.31h-1.92A3.88,3.88,0,0,1,412.2,488.6Zm-.16-4.11a13.53,13.53,0,0,1-3,.69,6.88,6.88,0,0,0-1.61.37,1.64,1.64,0,0,0-.72.6,1.52,1.52,0,0,0-.26.88,1.59,1.59,0,0,0,.56,1.23,2.44,2.44,0,0,0,1.63.49,3.82,3.82,0,0,0,1.9-.47,2.87,2.87,0,0,0,1.22-1.27,4.46,4.46,0,0,0,.29-1.85Z" transform="translate(-112.57 -191.68)"/><path d="M416.73,490v-15h1.84v15Z" transform="translate(-112.57 -191.68)"/><text class="cls-5" transform="translate(666.86 383.55) scale(0.58)">Brains</text><text class="cls-5" transform="translate(634.05 407.25) scale(0.58)">Chromosomes</text><text class="cls-5" transform="translate(601.26 429.06) scale(0.58)">Genomes</text><text class="cls-5" transform="translate(562.58 449.46) scale(0.58)">Genes</text><text class="cls-5" transform="translate(517.79 473.91) scale(0.58)">Molecular chains</text><text class="cls-5" transform="translate(469.26 493.87) scale(0.58)">Molecules</text><text class="cls-5" transform="translate(402.73 514.67) scale(0.58)">Heavy atoms</text><text class="cls-5" transform="translate(322.56 535.8) scale(0.58)">Light atoms</text><text class="cls-5" transform="translate(240.6 550.72) scale(0.58)">Leptons</text><text class="cls-5" transform="translate(153.45 558.53) scale(0.58)">Hadrons</text><text class="cls-5" transform="translate(81.26 561.33) scale(0.58)">Quarks</text><text class="cls-6" transform="translate(602.3 524.33) scale(0.58)">Microevolution</text><text class="cls-6" transform="translate(601.26 20.53) scale(0.58)">Macroevolution</text><text class="cls-2" transform="translate(102.26 397.66) rotate(-77.25)">Expansion of the Universe</text><line class="cls-7" x1="336.44" y1="513.7" x2="408" y2="69.87"/><polygon points="412.69 72.11 409.14 62.79 402.84 70.52 412.69 72.11"/><line class="cls-7" x1="414.08" y1="484.63" x2="409.14" y2="62.79"/><polygon points="419.05 483.12 414.16 491.81 409.07 483.23 419.05 483.12"/><line class="cls-7" x1="462.47" y1="88.95" x2="414.16" y2="491.81"/><polygon points="457.35 89.8 463.32 81.82 467.25 90.99 457.35 89.8"/><line class="cls-7" x1="479.25" y1="460.8" x2="463.32" y2="81.82"/><polygon points="484.17 459.13 479.55 467.97 474.21 459.55 484.17 459.13"/><line class="cls-7" x1="511.73" y1="109.85" x2="479.55" y2="467.97"/><polygon points="506.63 110.85 512.37 102.7 516.56 111.75 506.63 110.85"/><line class="cls-7" x1="527.55" y1="440.57" x2="512.37" y2="102.7"/><polygon points="532.46 438.88 527.87 447.74 522.5 439.33 532.46 438.88"/><line class="cls-7" x1="553.12" y1="130.96" x2="527.87" y2="447.74"/><polygon points="548.03 132.02 553.69 123.81 557.97 132.81 548.03 132.02"/><line class="cls-7" x1="568.68" y1="420.88" x2="553.69" y2="123.81"/><polygon points="573.59 419.18 569.04 428.05 563.63 419.68 573.59 419.18"/><line class="cls-7" x1="593.38" y1="155.96" x2="569.04" y2="428.05"/><polygon points="588.28 156.97 594.02 148.81 598.22 157.86 588.28 156.97"/><line class="cls-7" x1="602.91" y1="401.81" x2="594.02" y2="148.81"/><polygon points="607.84 400.17 603.16 408.98 597.88 400.52 607.84 400.17"/><line class="cls-7" x1="622.92" y1="177.41" x2="603.16" y2="408.98"/><polygon points="617.83 178.44 623.53 170.26 627.77 179.29 617.83 178.44"/><line class="cls-7" x1="634.22" y1="380.73" x2="623.53" y2="170.26"/><polygon points="639.13 379.02 634.59 387.89 629.17 379.52 639.13 379.02"/><line class="cls-7" x1="650.14" y1="199.95" x2="634.59" y2="387.89"/><polygon points="645.05 200.99 650.73 192.79 654.99 201.81 645.05 200.99"/><line class="cls-7" x1="656.38" y1="363.25" x2="650.73" y2="192.8"/><polygon points="661.32 361.63 656.62 370.42 651.35 361.96 661.32 361.63"/><line class="cls-7" x1="674.48" y1="223.04" x2="656.62" y2="370.42"/><polygon points="669.36 223.88 675.35 215.91 679.26 225.09 669.36 223.88"/><line class="cls-7" x1="680.91" y1="341.67" x2="675.35" y2="215.91"/><polygon points="685.83 339.99 681.23 348.84 675.87 340.43 685.83 339.99"/><line class="cls-7" x1="695.22" y1="245.15" x2="681.23" y2="348.84"/><polygon points="690.08 245.93 696.18 238.04 699.96 247.26 690.08 245.93"/></svg>