<svg id="Calque_1" data-name="Calque 1" xmlns="http://www.w3.org/2000/svg" viewBox="0 0 874.43 919.23"><defs><style>.cls-1,.cls-11,.cls-12,.cls-13,.cls-14,.cls-4,.cls-5{fill:none;}.cls-1,.cls-11,.cls-12,.cls-13,.cls-14,.cls-2,.cls-4,.cls-5,.cls-6{stroke:#000;stroke-miterlimit:10;}.cls-1{stroke-width:5px;}.cls-2{fill:#fff;}.cls-2,.cls-4{stroke-width:2px;}.cls-3{fill:#b5b5b5;}.cls-5{stroke-width:3px;}.cls-7,.cls-8{font-size:30.48px;}.cls-7,.cls-8,.cls-9{font-family:ArialMT, Arial;}.cls-8{letter-spacing:0em;}.cls-9{font-size:27.95px;}.cls-10{letter-spacing:-0.04em;}.cls-12{stroke-dasharray:6.93 6.93;}.cls-13{stroke-dasharray:7.08 7.08;}.cls-14{stroke-dasharray:7.38 7.38;}.cls-15{letter-spacing:1.23em;}.cls-16{font-size:18px;font-family:Arial-BoldItalicMT, Arial;font-weight:700;font-style:italic;}.cls-17{letter-spacing:-0.07em;}.cls-18{letter-spacing:-0.02em;}</style></defs><title>master_chaisson_en</title><g id="Calque_3" data-name="Calque 3"><path class="cls-1" d="M638.91,303.18s40-84.6,51.85-157.88" transform="translate(-67.44 -6.85)"/><ellipse class="cls-2" cx="577.86" cy="283.17" rx="4.65" ry="4.59"/><ellipse class="cls-2" cx="588.1" cy="257.86" rx="4.65" ry="4.59"/><ellipse class="cls-2" cx="596.46" cy="234.8" rx="4.65" ry="4.59"/><ellipse class="cls-2" cx="603.86" cy="213.78" rx="4.65" ry="4.59"/><ellipse class="cls-2" cx="615.56" cy="176.42" rx="4.65" ry="4.59"/><ellipse class="cls-2" cx="621.43" cy="150.1" rx="4.65" ry="4.59"/></g><g id="Calque_3_-_copie_2" data-name="Calque 3 - copie 2"><path class="cls-1" d="M469.69,522.5s46.52-83.7,66.44-156.45" transform="translate(-67.44 -6.85)"/><ellipse class="cls-2" cx="410.14" cy="501.26" rx="4.65" ry="4.59"/><ellipse class="cls-2" cx="428.01" cy="464.52" rx="4.65" ry="4.59"/><ellipse class="cls-2" cx="450.35" cy="411.97" rx="4.65" ry="4.59"/><ellipse class="cls-2" cx="459.14" cy="388.06" rx="4.65" ry="4.59"/><ellipse class="cls-2" cx="463.78" cy="375.51" rx="4.65" ry="4.59"/><ellipse class="cls-2" cx="423.71" cy="473.71" rx="4.65" ry="4.59"/></g><g id="Calque_3_-_copie" data-name="Calque 3 - copie"><path class="cls-1" d="M247,696.12s90.76,2.41,147.79-83.16" transform="translate(-67.44 -6.85)"/><circle class="cls-2" cx="192.49" cy="688.42" r="4.28"/><circle class="cls-2" cx="227.77" cy="681.21" r="4.28"/><circle class="cls-2" cx="241.91" cy="676" r="4.28"/><circle class="cls-2" cx="273.15" cy="659.84" r="4.28"/><circle class="cls-2" cx="306.32" cy="632.67" r="4.28"/><circle class="cls-2" cx="319.83" cy="615.94" r="4.28"/></g><g id="Calque_2" data-name="Calque 2"><rect class="cls-3" x="794.05" y="177.17" width="13.15" height="17.96"/><rect class="cls-3" x="786.22" y="276.69" width="20.97" height="17.96"/><rect class="cls-3" x="778.51" y="378.45" width="28.68" height="17.96"/><rect class="cls-3" x="770.87" y="480.35" width="36.32" height="17.96"/><rect class="cls-3" x="759.62" y="589.82" width="47.57" height="17.96"/><rect class="cls-3" x="716.81" y="709.52" width="90.38" height="17.96"/><rect class="cls-3" x="650.21" y="751.44" width="156.98" height="17.96"/></g><path class="cls-4" d="M532.45,767.58s76.24.44,114.63-1.27c24-1.07,47.77-3.54,70.57-8.79,80.89-18.65,100.55-94.69,110.68-167.45,1.56-11.19,4.1-33.64,5.24-44.88,1.41-13.9,4.07-41.73,5.23-55.65,2.52-30.31,9-121.31,9-121.31L871.13,65.49" transform="translate(-67.44 -6.85)"/><line class="cls-5" x1="103.02" y1="32.61" x2="103.02" y2="840.29"/><line class="cls-5" x1="101.62" y1="839.83" x2="825.47" y2="839.83"/><polygon class="cls-6" points="112.82 33.07 103.19 33.07 93.56 33.07 98.37 17.39 103.19 1.7 108.01 17.39 112.82 33.07"/><polygon class="cls-6" points="825.93 849.69 825.93 840.06 825.93 830.42 841.62 835.24 857.3 840.06 841.62 844.87 825.93 849.69"/><line class="cls-4" x1="175.52" y1="816.08" x2="175.52" y2="839.83"/><line class="cls-4" x1="246.71" y1="827.95" x2="246.71" y2="839.83"/><line class="cls-4" x1="732.67" y1="816.08" x2="732.67" y2="839.83"/><line class="cls-4" x1="591.14" y1="816.08" x2="591.14" y2="839.83"/><line class="cls-4" x1="454.12" y1="816.08" x2="454.12" y2="839.83"/><line class="cls-4" x1="315.22" y1="816.08" x2="315.22" y2="839.83"/><line class="cls-4" x1="383.74" y1="827.95" x2="383.74" y2="839.83"/><line class="cls-4" x1="524.76" y1="827.95" x2="524.76" y2="839.83"/><line class="cls-4" x1="662.24" y1="827.95" x2="662.24" y2="839.83"/><line class="cls-4" x1="804.95" y1="827.95" x2="804.95" y2="839.83"/><line class="cls-4" x1="103.02" y1="744.5" x2="127.31" y2="744.5"/><line class="cls-4" x1="103.02" y1="541.97" x2="127.31" y2="541.97"/><line class="cls-4" x1="103.02" y1="325.62" x2="127.31" y2="325.62"/><line class="cls-4" x1="103.02" y1="118.59" x2="127.31" y2="118.59"/><line class="cls-4" x1="103.02" y1="217.18" x2="117.48" y2="217.18"/><line class="cls-4" x1="103.02" y1="430.65" x2="117.48" y2="430.65"/><line class="cls-4" x1="103.02" y1="637.62" x2="117.48" y2="637.62"/><text class="cls-7" transform="translate(42.37 128.47)">100</text><text class="cls-7" transform="translate(76.27 336.83)">1</text><text class="cls-7" transform="translate(33.9 551.42)">0,01</text><text class="cls-7" transform="translate(0 754.83)">0,0001</text><text class="cls-7" transform="translate(158.81 873.43)">10</text><text class="cls-7" transform="translate(296.11 873.43)">10</text><text class="cls-8" transform="translate(330.01 863.29) scale(0.58)">3</text><text class="cls-7" transform="translate(434.18 873.43)">10</text><text class="cls-8" transform="translate(468.08 863.29) scale(0.58)">5</text><text class="cls-7" transform="translate(572.81 873.43)">10</text><text class="cls-7" transform="translate(606.71 863.29) scale(0.58)">7</text><text class="cls-7" transform="translate(713.6 873.43)">10</text><text class="cls-7" transform="translate(747.5 863.29) scale(0.58)">9</text><text class="cls-9" transform="translate(747.15 910.16)"><tspan class="cls-10">T</tspan><tspan x="16.03" y="0">ime (y)</tspan></text><text class="cls-9" transform="translate(25.65 410.49) rotate(-90)">Energy dissipated (watts/kg)</text><circle class="cls-11" cx="254.23" cy="649.15" r="86.61"/><circle class="cls-11" cx="431.09" cy="435.76" r="86.61"/><circle class="cls-11" cx="613.39" cy="223.06" r="86.61"/><line class="cls-11" x1="264.91" y1="735.11" x2="268.4" y2="734.98"/><line class="cls-12" x1="275.33" y1="734.72" x2="701.29" y2="718.76"/><line class="cls-11" x1="704.75" y1="718.63" x2="708.25" y2="718.5"/><line class="cls-11" x1="460.49" y1="517.26" x2="463.98" y2="516.94"/><line class="cls-13" x1="471.03" y1="516.31" x2="763.86" y2="489.96"/><line class="cls-11" x1="767.39" y1="489.64" x2="770.87" y2="489.33"/><line class="cls-11" x1="688.44" y1="266.33" x2="691.23" y2="264.21"/><line class="cls-14" x1="697.1" y1="259.74" x2="788.15" y2="190.5"/><line class="cls-11" x1="791.09" y1="188.26" x2="793.87" y2="186.14"/><g id="Calque_6" data-name="Calque 6"><text class="cls-9" transform="translate(632.59 153.91) scale(0.58)">today</text><text class="cls-9" transform="translate(616.19 218.21) scale(0.58)">farming</text><text class="cls-9" transform="translate(627.64 180.49) scale(0.58)">industrialization</text><text class="cls-9" transform="translate(608.29 239.73) scale(0.58)">agriculture<tspan class="cls-15" x="130.48" y="0">	</tspan></text><text class="cls-9" transform="translate(599.21 261.99) scale(0.58)">controlled fire</text><text class="cls-9" transform="translate(589.02 289.58) scale(0.58)">hunter-gathering</text><text class="cls-9" transform="translate(476.72 377.82) scale(0.58)">sugarcane</text><text class="cls-9" transform="translate(471.13 395.22) scale(0.58)">corn</text><text class="cls-9" transform="translate(462.85 418.21) scale(0.58)">pinewood</text><text class="cls-9" transform="translate(438.99 469.57) scale(0.58)">grass</text><text class="cls-9" transform="translate(423.18 505.42) scale(0.58)">protocell</text><text class="cls-9" transform="translate(331.05 619.64) scale(0.58)">pre-supernova</text><text class="cls-9" transform="translate(318.9 639.53) scale(0.58)">super giant</text><text class="cls-9" transform="translate(254.94 681.61) scale(0.58)">sun</text><text class="cls-9" transform="translate(237.08 695.03) scale(0.58)">protostar</text><text class="cls-9" transform="translate(285.84 663.33) scale(0.58)">red giant</text><text class="cls-9" transform="translate(193.38 709.63) scale(0.58)">red dwarf</text><text class="cls-9" transform="translate(814.65 181.55) scale(0.51 0.58)">society</text><text class="cls-9" transform="translate(814.65 722.93) scale(0.58)">stars</text><text class="cls-9" transform="translate(814.65 602.81) scale(0.58)">planets</text><text class="cls-9" transform="translate(814.65 491.95) scale(0.58)">plants</text><text class="cls-9" transform="translate(814.65 391.89) scale(0.58)">animals</text><text class="cls-9" transform="translate(814.65 289.58) scale(0.58)">brains</text><text class="cls-9" transform="translate(814.65 761.96) scale(0.58)">galaxies</text><text class="cls-9" transform="translate(433.33 484.95) scale(0.58)">hay</text></g><text class="cls-16" transform="translate(192.49 626.65)">S<tspan class="cls-17" x="12.01" y="0">T</tspan><tspan x="21.67" y="0">ARS</tspan></text><line class="cls-4" x1="193.69" y1="631.24" x2="252.03" y2="631.24"/><text class="cls-16" transform="translate(349.73 427.27)">PLANTS</text><line class="cls-4" x1="350.94" y1="431.86" x2="422.01" y2="431.86"/><text class="cls-16" transform="translate(504.91 207.6)">SOCIET<tspan class="cls-18" x="67.01" y="0">Y</tspan></text><line class="cls-4" x1="506.11" y1="212.19" x2="584.02" y2="212.19"/></svg>