<svg id="Calque_1" data-name="Calque 1" xmlns="http://www.w3.org/2000/svg" viewBox="0 0 880.76 919.23"><defs><style>.cls-1,.cls-10,.cls-11,.cls-12,.cls-13,.cls-4,.cls-5{fill:none;}.cls-1,.cls-10,.cls-11,.cls-12,.cls-13,.cls-2,.cls-4,.cls-5,.cls-6{stroke:#000;stroke-miterlimit:10;}.cls-1{stroke-width:5px;}.cls-2{fill:#fff;}.cls-2,.cls-4{stroke-width:2px;}.cls-3{fill:#b5b5b5;}.cls-5{stroke-width:3px;}.cls-7,.cls-8{font-size:30.48px;}.cls-7,.cls-8,.cls-9{font-family:ArialMT, Arial;}.cls-8{letter-spacing:0em;}.cls-9{font-size:27.95px;}.cls-11{stroke-dasharray:6.93 6.93;}.cls-12{stroke-dasharray:7.08 7.08;}.cls-13{stroke-dasharray:7.38 7.38;}.cls-14{letter-spacing:1.23em;}.cls-15{font-size:18px;font-family:Arial-BoldItalicMT, Arial;font-weight:700;font-style:italic;}.cls-16{letter-spacing:-0.02em;}</style></defs><title>master_chaisson</title><g id="Calque_3" data-name="Calque 3"><path class="cls-1" d="M638.91,303.18s40-84.6,51.85-157.88" transform="translate(-67.44 -6.85)"/><ellipse class="cls-2" cx="577.86" cy="283.17" rx="4.65" ry="4.59"/><ellipse class="cls-2" cx="588.1" cy="257.86" rx="4.65" ry="4.59"/><ellipse class="cls-2" cx="596.46" cy="234.8" rx="4.65" ry="4.59"/><ellipse class="cls-2" cx="603.86" cy="213.78" rx="4.65" ry="4.59"/><ellipse class="cls-2" cx="615.56" cy="176.42" rx="4.65" ry="4.59"/><ellipse class="cls-2" cx="621.43" cy="150.1" rx="4.65" ry="4.59"/></g><g id="Calque_3_-_copie_2" data-name="Calque 3 - copie 2"><path class="cls-1" d="M469.69,522.5s46.52-83.7,66.44-156.45" transform="translate(-67.44 -6.85)"/><ellipse class="cls-2" cx="410.14" cy="501.26" rx="4.65" ry="4.59"/><ellipse class="cls-2" cx="428.01" cy="464.52" rx="4.65" ry="4.59"/><ellipse class="cls-2" cx="450.35" cy="411.97" rx="4.65" ry="4.59"/><ellipse class="cls-2" cx="459.14" cy="388.06" rx="4.65" ry="4.59"/><ellipse class="cls-2" cx="463.78" cy="375.51" rx="4.65" ry="4.59"/><ellipse class="cls-2" cx="423.71" cy="473.71" rx="4.65" ry="4.59"/></g><g id="Calque_3_-_copie" data-name="Calque 3 - copie"><path class="cls-1" d="M247,696.12s90.76,2.41,147.79-83.16" transform="translate(-67.44 -6.85)"/><circle class="cls-2" cx="192.49" cy="688.42" r="4.28"/><circle class="cls-2" cx="227.77" cy="681.21" r="4.28"/><circle class="cls-2" cx="241.91" cy="676" r="4.28"/><circle class="cls-2" cx="273.15" cy="659.84" r="4.28"/><circle class="cls-2" cx="306.32" cy="632.67" r="4.28"/><circle class="cls-2" cx="319.83" cy="615.94" r="4.28"/></g><g id="Calque_2" data-name="Calque 2"><rect class="cls-3" x="794.05" y="177.17" width="13.15" height="17.96"/><rect class="cls-3" x="786.22" y="276.69" width="20.97" height="17.96"/><rect class="cls-3" x="778.51" y="378.45" width="28.68" height="17.96"/><rect class="cls-3" x="770.87" y="480.35" width="36.32" height="17.96"/><rect class="cls-3" x="759.62" y="589.82" width="47.57" height="17.96"/><rect class="cls-3" x="716.81" y="709.52" width="90.38" height="17.96"/><rect class="cls-3" x="650.21" y="751.44" width="156.98" height="17.96"/></g><path class="cls-4" d="M532.45,767.58s76.24.44,114.63-1.27c24-1.07,47.77-3.54,70.57-8.79,80.89-18.65,100.55-94.69,110.68-167.45,1.56-11.19,4.1-33.64,5.24-44.88,1.41-13.9,4.07-41.73,5.23-55.65,2.52-30.31,9-121.31,9-121.31L871.13,65.49" transform="translate(-67.44 -6.85)"/><line class="cls-5" x1="103.02" y1="32.61" x2="103.02" y2="840.29"/><line class="cls-5" x1="101.62" y1="839.83" x2="825.47" y2="839.83"/><polygon class="cls-6" points="112.82 33.07 103.19 33.07 93.56 33.07 98.37 17.39 103.19 1.7 108.01 17.39 112.82 33.07"/><polygon class="cls-6" points="825.93 849.69 825.93 840.06 825.93 830.42 841.62 835.24 857.3 840.06 841.62 844.87 825.93 849.69"/><line class="cls-4" x1="175.52" y1="816.08" x2="175.52" y2="839.83"/><line class="cls-4" x1="246.71" y1="827.95" x2="246.71" y2="839.83"/><line class="cls-4" x1="732.67" y1="816.08" x2="732.67" y2="839.83"/><line class="cls-4" x1="591.14" y1="816.08" x2="591.14" y2="839.83"/><line class="cls-4" x1="454.12" y1="816.08" x2="454.12" y2="839.83"/><line class="cls-4" x1="315.22" y1="816.08" x2="315.22" y2="839.83"/><line class="cls-4" x1="383.74" y1="827.95" x2="383.74" y2="839.83"/><line class="cls-4" x1="524.76" y1="827.95" x2="524.76" y2="839.83"/><line class="cls-4" x1="662.24" y1="827.95" x2="662.24" y2="839.83"/><line class="cls-4" x1="804.95" y1="827.95" x2="804.95" y2="839.83"/><line class="cls-4" x1="103.02" y1="744.5" x2="127.31" y2="744.5"/><line class="cls-4" x1="103.02" y1="541.97" x2="127.31" y2="541.97"/><line class="cls-4" x1="103.02" y1="325.62" x2="127.31" y2="325.62"/><line class="cls-4" x1="103.02" y1="118.59" x2="127.31" y2="118.59"/><line class="cls-4" x1="103.02" y1="217.18" x2="117.48" y2="217.18"/><line class="cls-4" x1="103.02" y1="430.65" x2="117.48" y2="430.65"/><line class="cls-4" x1="103.02" y1="637.62" x2="117.48" y2="637.62"/><text class="cls-7" transform="translate(42.37 128.47)">100</text><text class="cls-7" transform="translate(76.27 336.83)">1</text><text class="cls-7" transform="translate(33.9 551.42)">0,01</text><text class="cls-7" transform="translate(0 754.83)">0,0001</text><text class="cls-7" transform="translate(158.81 873.43)">10</text><text class="cls-7" transform="translate(296.11 873.43)">10</text><text class="cls-8" transform="translate(330.01 863.29) scale(0.58)">3</text><text class="cls-7" transform="translate(434.18 873.43)">10</text><text class="cls-8" transform="translate(468.08 863.29) scale(0.58)">5</text><text class="cls-7" transform="translate(572.81 873.43)">10</text><text class="cls-7" transform="translate(606.71 863.29) scale(0.58)">7</text><text class="cls-7" transform="translate(713.6 873.43)">10</text><text class="cls-7" transform="translate(747.5 863.29) scale(0.58)">9</text><text class="cls-9" transform="translate(482.15 910.16)">Âge de l’univers (en années)</text><text class="cls-9" transform="translate(25.65 410.49) rotate(-90)">Énergie dissipée (en watts/kg)</text><circle class="cls-10" cx="254.23" cy="649.15" r="86.61"/><circle class="cls-10" cx="431.09" cy="435.76" r="86.61"/><circle class="cls-10" cx="613.39" cy="223.06" r="86.61"/><line class="cls-10" x1="264.91" y1="735.11" x2="268.4" y2="734.98"/><line class="cls-11" x1="275.33" y1="734.72" x2="701.29" y2="718.76"/><line class="cls-10" x1="704.75" y1="718.63" x2="708.25" y2="718.5"/><line class="cls-10" x1="460.49" y1="517.26" x2="463.98" y2="516.94"/><line class="cls-12" x1="471.03" y1="516.31" x2="763.86" y2="489.96"/><line class="cls-10" x1="767.39" y1="489.64" x2="770.87" y2="489.33"/><line class="cls-10" x1="688.44" y1="266.33" x2="691.23" y2="264.21"/><line class="cls-13" x1="697.1" y1="259.74" x2="788.15" y2="190.5"/><line class="cls-10" x1="791.09" y1="188.26" x2="793.87" y2="186.14"/><g id="Calque_6" data-name="Calque 6"><text class="cls-9" transform="translate(632.59 153.91) scale(0.58)">aujourd’hui</text><text class="cls-9" transform="translate(616.19 218.21) scale(0.58)">élevage</text><text class="cls-9" transform="translate(627.64 180.49) scale(0.58)">industrialisation</text><text class="cls-9" transform="translate(608.29 239.73) scale(0.58)">agriculture<tspan class="cls-14" x="130.48" y="0">	</tspan></text><text class="cls-9" transform="translate(599.21 261.99) scale(0.58)">contrôle du feu</text><text class="cls-9" transform="translate(589.02 289.58) scale(0.58)">chasseur-cueilleur</text><text class="cls-9" transform="translate(476.72 377.82) scale(0.58)">canne à sucre</text><text class="cls-9" transform="translate(471.13 395.22) scale(0.58)">maïs</text><text class="cls-9" transform="translate(462.85 418.21) scale(0.58)">pin</text><text class="cls-9" transform="translate(440.99 470.57) scale(0.58)">herbe</text><text class="cls-9" transform="translate(423.18 505.42) scale(0.58)">protocellule</text><text class="cls-9" transform="translate(331.05 619.64) scale(0.58)">pré-supernova</text><text class="cls-9" transform="translate(318.9 639.53) scale(0.58)">supergéante</text><text class="cls-9" transform="translate(254.94 681.61) scale(0.58)">soleil</text><text class="cls-9" transform="translate(237.08 695.03) scale(0.58)">protoétoile</text><text class="cls-9" transform="translate(285.84 663.33) scale(0.58)">géante rouge</text><text class="cls-9" transform="translate(193.38 709.63) scale(0.58)">naine rouge</text><path d="M882.52,185.88l1.23-.22a2.07,2.07,0,0,0,.58,1.3,1.86,1.86,0,0,0,1.32.46,1.75,1.75,0,0,0,1.27-.41,1.25,1.25,0,0,0,.42-.94.89.89,0,0,0-.37-.76,4.85,4.85,0,0,0-1.27-.49,9.56,9.56,0,0,1-1.89-.69,2,2,0,0,1-.81-.8,2.39,2.39,0,0,1-.27-1.13,2.45,2.45,0,0,1,.23-1,2.22,2.22,0,0,1,.61-.8,2.52,2.52,0,0,1,.79-.42,3.38,3.38,0,0,1,1.07-.17,3.78,3.78,0,0,1,1.52.29,2.15,2.15,0,0,1,1,.77,3.36,3.36,0,0,1,.43,1.31l-1.22.19a1.54,1.54,0,0,0-.48-1,1.56,1.56,0,0,0-1.12-.37,1.8,1.8,0,0,0-1.22.33,1,1,0,0,0-.37.76.89.89,0,0,0,.15.5,1.18,1.18,0,0,0,.48.38c.13.06.49.18,1.1.37a14.41,14.41,0,0,1,1.84.66,2.05,2.05,0,0,1,.82.75,2.34,2.34,0,0,1,.3,1.23,2.59,2.59,0,0,1-.37,1.35,2.46,2.46,0,0,1-1,1,3.4,3.4,0,0,1-1.55.34,3.16,3.16,0,0,1-2.18-.68A3.35,3.35,0,0,1,882.52,185.88Z" transform="translate(-67.44 -6.85)"/><path d="M889.63,184.18a4.74,4.74,0,0,1,1.13-3.48,3.14,3.14,0,0,1,2.31-.94,3.08,3.08,0,0,1,2.47,1.14,4.77,4.77,0,0,1,1,3.16,6.34,6.34,0,0,1-.42,2.56,3.36,3.36,0,0,1-1.24,1.46,3.26,3.26,0,0,1-1.77.51,3.1,3.1,0,0,1-2.49-1.13A5,5,0,0,1,889.63,184.18Zm1.28,0a4,4,0,0,0,.61,2.43,1.88,1.88,0,0,0,1.55.81,1.84,1.84,0,0,0,1.54-.82,4.06,4.06,0,0,0,.62-2.47,3.89,3.89,0,0,0-.62-2.38,1.89,1.89,0,0,0-3.09,0A4,4,0,0,0,890.91,184.18Z" transform="translate(-67.44 -6.85)"/><path d="M902.75,185.31l1.22.18a3.84,3.84,0,0,1-1,2.28,2.74,2.74,0,0,1-2,.82,3,3,0,0,1-2.42-1.13,5.07,5.07,0,0,1-.92-3.25,6.79,6.79,0,0,1,.39-2.4,3.07,3.07,0,0,1,2.95-2.05,2.77,2.77,0,0,1,2,.7,3.32,3.32,0,0,1,1,2l-1.21.21a2.4,2.4,0,0,0-.61-1.28,1.43,1.43,0,0,0-1.06-.43,1.84,1.84,0,0,0-1.52.77,4.05,4.05,0,0,0-.59,2.46,4.29,4.29,0,0,0,.56,2.47,1.75,1.75,0,0,0,1.48.78,1.65,1.65,0,0,0,1.23-.52A2.85,2.85,0,0,0,902.75,185.31Z" transform="translate(-67.44 -6.85)"/><path d="M905,178.39v-1.65h1.24v1.65Zm0,10V180h1.24v8.45Z" transform="translate(-67.44 -6.85)"/><path d="M913.2,185.68l1.28.18a3.74,3.74,0,0,1-1.12,2,3.45,3.45,0,0,1-4.66-.43,4.94,4.94,0,0,1-.94-3.2,5.16,5.16,0,0,1,1-3.31,3,3,0,0,1,2.48-1.18,3,3,0,0,1,2.4,1.16,5,5,0,0,1,.93,3.24v.38h-5.47a3.54,3.54,0,0,0,.68,2.14,1.92,1.92,0,0,0,1.53.74,1.71,1.71,0,0,0,1.17-.42A2.76,2.76,0,0,0,913.2,185.68Zm-4.08-2.31h4.09a3.07,3.07,0,0,0-.47-1.6,1.83,1.83,0,0,0-1.54-.83,1.85,1.85,0,0,0-1.44.66A2.81,2.81,0,0,0,909.12,183.37Zm1.34-4.47.91-2.23H913l-1.52,2.23Z" transform="translate(-67.44 -6.85)"/><path d="M918.76,187.12l.18,1.27a4.32,4.32,0,0,1-.94.12,1.94,1.94,0,0,1-1-.24,1.34,1.34,0,0,1-.53-.65,5.94,5.94,0,0,1-.15-1.69v-4.86h-.91V180h.91v-2.09l1.24-.86V180h1.25v1.12h-1.25V186a3,3,0,0,0,.06.78.62.62,0,0,0,.22.28.72.72,0,0,0,.42.11A3.35,3.35,0,0,0,918.76,187.12Z" transform="translate(-67.44 -6.85)"/><path d="M925,185.68l1.29.18a3.68,3.68,0,0,1-1.13,2,3.44,3.44,0,0,1-4.65-.43,4.88,4.88,0,0,1-.94-3.2,5.16,5.16,0,0,1,1-3.31,3,3,0,0,1,2.47-1.18,3,3,0,0,1,2.41,1.16,5,5,0,0,1,.93,3.24c0,.09,0,.21,0,.38h-5.47a3.61,3.61,0,0,0,.69,2.14,1.92,1.92,0,0,0,1.53.74,1.73,1.73,0,0,0,1.17-.42A2.76,2.76,0,0,0,925,185.68Zm-4.08-2.31H925a3.16,3.16,0,0,0-.47-1.6,1.83,1.83,0,0,0-1.54-.83,1.85,1.85,0,0,0-1.44.66A2.81,2.81,0,0,0,920.91,183.37Zm1.34-4.47.92-2.23h1.63l-1.52,2.23Z" transform="translate(-67.44 -6.85)"/><path d="M927.34,185.88l1.23-.22a2.07,2.07,0,0,0,.58,1.3,1.82,1.82,0,0,0,1.32.46,1.75,1.75,0,0,0,1.27-.41,1.25,1.25,0,0,0,.42-.94.91.91,0,0,0-.37-.76,4.85,4.85,0,0,0-1.27-.49,10,10,0,0,1-1.9-.69,1.93,1.93,0,0,1-.8-.8,2.39,2.39,0,0,1-.27-1.13,2.44,2.44,0,0,1,.22-1,2.24,2.24,0,0,1,.62-.8,2.52,2.52,0,0,1,.79-.42,3.38,3.38,0,0,1,1.07-.17,3.78,3.78,0,0,1,1.52.29,2.15,2.15,0,0,1,1,.77,3.36,3.36,0,0,1,.43,1.31l-1.22.19a1.54,1.54,0,0,0-.48-1,1.56,1.56,0,0,0-1.12-.37,1.8,1.8,0,0,0-1.22.33,1,1,0,0,0-.37.76.89.89,0,0,0,.15.5,1.11,1.11,0,0,0,.48.38c.12.06.49.18,1.1.37a14.41,14.41,0,0,1,1.84.66,2.05,2.05,0,0,1,.82.75,2.43,2.43,0,0,1,.29,1.23,2.68,2.68,0,0,1-.36,1.35,2.46,2.46,0,0,1-1,1,3.43,3.43,0,0,1-1.55.34,3.15,3.15,0,0,1-2.18-.68A3.35,3.35,0,0,1,927.34,185.88Z" transform="translate(-67.44 -6.85)"/><path d="M883,205.4V193.74h1.24v4.18a2.66,2.66,0,0,1,2.2-1.16,2.73,2.73,0,0,1,1.42.37,2.14,2.14,0,0,1,.86,1,5.47,5.47,0,0,1,.26,1.9v5.35h-1.25v-5.35a2.46,2.46,0,0,0-.4-1.57,1.41,1.41,0,0,0-1.14-.48,1.74,1.74,0,0,0-1,.33,1.77,1.77,0,0,0-.7.89,4.65,4.65,0,0,0-.21,1.56v4.62Z" transform="translate(-67.44 -6.85)"/><path d="M895.7,205.4v-1.24a2.65,2.65,0,0,1-3.54,1.15,2,2,0,0,1-.84-.72,2.94,2.94,0,0,1-.38-1.07,8.21,8.21,0,0,1-.08-1.33V197h1.24v4.69a9.48,9.48,0,0,0,.08,1.51,1.52,1.52,0,0,0,.5.89,1.41,1.41,0,0,0,.94.32,1.86,1.86,0,0,0,1-.33,1.83,1.83,0,0,0,.69-.9,5,5,0,0,0,.2-1.65V197h1.25v8.45Z" transform="translate(-67.44 -6.85)"/><path d="M898.75,205.4V197h1.12v1.19a2.69,2.69,0,0,1,.92-1,2.31,2.31,0,0,1,1.3-.38,2.19,2.19,0,0,1,1.34.39,2.08,2.08,0,0,1,.73,1.09,2.58,2.58,0,0,1,2.27-1.48,2.07,2.07,0,0,1,1.68.7,3.28,3.28,0,0,1,.58,2.14v5.8h-1.23v-5.32a4.54,4.54,0,0,0-.12-1.24,1.22,1.22,0,0,0-.44-.61,1.26,1.26,0,0,0-.75-.23,1.62,1.62,0,0,0-1.28.6,2.85,2.85,0,0,0-.51,1.89v4.91h-1.25v-5.49a2.74,2.74,0,0,0-.3-1.43,1.09,1.09,0,0,0-1-.48,1.66,1.66,0,0,0-1,.32,1.77,1.77,0,0,0-.64.93A5.8,5.8,0,0,0,900,201v4.38Z" transform="translate(-67.44 -6.85)"/><path d="M915.32,204.36a4.51,4.51,0,0,1-1.32.95,3.37,3.37,0,0,1-1.38.28,2.41,2.41,0,0,1-1.85-.68,2.38,2.38,0,0,1-.65-1.74,2.63,2.63,0,0,1,.24-1.13,2.32,2.32,0,0,1,.64-.82,2.77,2.77,0,0,1,.9-.47,7,7,0,0,1,1.1-.22,9.6,9.6,0,0,0,2.22-.49c0-.2,0-.32,0-.37a1.77,1.77,0,0,0-.35-1.24,1.92,1.92,0,0,0-1.42-.48,2,2,0,0,0-1.3.35,2.32,2.32,0,0,0-.61,1.25l-1.22-.19a3.63,3.63,0,0,1,.55-1.45,2.41,2.41,0,0,1,1.09-.85,4.33,4.33,0,0,1,1.67-.3,3.9,3.9,0,0,1,1.53.26,2,2,0,0,1,.86.64,2.53,2.53,0,0,1,.39,1,9.72,9.72,0,0,1,.06,1.32v1.91a21.65,21.65,0,0,0,.08,2.53,3.29,3.29,0,0,0,.31,1h-1.3A3.45,3.45,0,0,1,915.32,204.36Zm-.1-3.2a8.31,8.31,0,0,1-2,.54,4.16,4.16,0,0,0-1.08.29,1.09,1.09,0,0,0-.49.46,1.36,1.36,0,0,0-.18.68,1.32,1.32,0,0,0,.38,1,1.5,1.5,0,0,0,1.1.38,2.31,2.31,0,0,0,1.28-.36,2.1,2.1,0,0,0,.82-1,4,4,0,0,0,.2-1.43Z" transform="translate(-67.44 -6.85)"/><path d="M918.41,195.39v-1.65h1.24v1.65Zm0,10V197h1.24v8.45Z" transform="translate(-67.44 -6.85)"/><path d="M921.55,205.4V197h1.12v1.2a2.55,2.55,0,0,1,2.33-1.39,2.64,2.64,0,0,1,1.22.28,1.91,1.91,0,0,1,.83.72,3,3,0,0,1,.39,1.05,10.45,10.45,0,0,1,.07,1.4v5.19h-1.25v-5.14a4.36,4.36,0,0,0-.14-1.31,1.33,1.33,0,0,0-.52-.69,1.46,1.46,0,0,0-.86-.26,1.88,1.88,0,0,0-1.37.58,3.15,3.15,0,0,0-.58,2.21v4.61Z" transform="translate(-67.44 -6.85)"/><path d="M934.44,202.68l1.28.18a3.68,3.68,0,0,1-1.13,2,3.09,3.09,0,0,1-2.1.71,3.14,3.14,0,0,1-2.55-1.14,4.88,4.88,0,0,1-.94-3.2,5.16,5.16,0,0,1,1-3.31,3,3,0,0,1,2.47-1.18,3,3,0,0,1,2.41,1.16,5,5,0,0,1,.93,3.24c0,.09,0,.21,0,.38h-5.47a3.61,3.61,0,0,0,.69,2.14,1.92,1.92,0,0,0,1.53.74,1.71,1.71,0,0,0,1.17-.42A2.76,2.76,0,0,0,934.44,202.68Zm-4.09-2.31h4.1a3.16,3.16,0,0,0-.47-1.6,1.83,1.83,0,0,0-1.54-.83,1.85,1.85,0,0,0-1.44.66A2.81,2.81,0,0,0,930.35,200.37Z" transform="translate(-67.44 -6.85)"/><path d="M936.78,202.88l1.23-.22a2.07,2.07,0,0,0,.58,1.3,1.86,1.86,0,0,0,1.32.46,1.75,1.75,0,0,0,1.27-.41,1.25,1.25,0,0,0,.42-.94.89.89,0,0,0-.37-.76,4.85,4.85,0,0,0-1.27-.49,9.56,9.56,0,0,1-1.89-.69,2,2,0,0,1-.81-.8,2.39,2.39,0,0,1-.27-1.13,2.45,2.45,0,0,1,.23-1,2.22,2.22,0,0,1,.61-.8,2.52,2.52,0,0,1,.79-.42,3.38,3.38,0,0,1,1.07-.17,3.78,3.78,0,0,1,1.52.29,2.15,2.15,0,0,1,1,.77,3.36,3.36,0,0,1,.43,1.31l-1.22.19a1.54,1.54,0,0,0-.48-1,1.56,1.56,0,0,0-1.12-.37,1.8,1.8,0,0,0-1.22.33,1,1,0,0,0-.37.76.89.89,0,0,0,.15.5,1.18,1.18,0,0,0,.48.38c.13.06.49.18,1.1.37a14.41,14.41,0,0,1,1.84.66,2.05,2.05,0,0,1,.82.75,2.34,2.34,0,0,1,.3,1.23,2.69,2.69,0,0,1-.37,1.35,2.46,2.46,0,0,1-1,1,3.4,3.4,0,0,1-1.55.34,3.16,3.16,0,0,1-2.18-.68A3.35,3.35,0,0,1,936.78,202.88Z" transform="translate(-67.44 -6.85)"/><text class="cls-9" transform="translate(814.65 722.93) scale(0.58)">étoiles</text><text class="cls-9" transform="translate(814.65 602.81) scale(0.58)">planètes</text><text class="cls-9" transform="translate(814.65 491.95) scale(0.58)">plantes</text><text class="cls-9" transform="translate(814.65 391.89) scale(0.58)">animaux</text><text class="cls-9" transform="translate(814.65 289.58) scale(0.58)">cerveaux</text><text class="cls-9" transform="translate(814.65 761.96) scale(0.58)">galaxies</text><text x="-67.44" y="-6.85"/><text class="cls-9" transform="translate(432.33 484.95) scale(0.58)">fourrage</text></g><text class="cls-15" transform="translate(500.11 207.9)">SOCIÉTÉ</text><line class="cls-4" x1="501.31" y1="212.48" x2="579.22" y2="212.48"/><text class="cls-15" transform="translate(347.6 425.23)">PLANTES</text><line class="cls-4" x1="348.8" y1="429.81" x2="431.09" y2="429.81"/><text class="cls-15" transform="translate(184.43 626.67)">É<tspan class="cls-16" x="12.01" y="0">T</tspan><tspan x="22.68" y="0">OILES</tspan></text><line class="cls-4" x1="184.63" y1="631.26" x2="262.54" y2="631.26"/></svg>