<svg id="Calque_1" data-name="Calque 1" xmlns="http://www.w3.org/2000/svg" viewBox="0 0 855.02 227.44"><defs><style>.cls-1{font-size:36px;}.cls-1,.cls-3{font-family:ArialMT, Arial;}.cls-2{fill:none;stroke:#000;stroke-miterlimit:10;stroke-width:2px;}.cls-3{font-size:24px;}</style></defs><title>organigramme_recherche</title><text class="cls-1" transform="translate(0 198.68)">chercheur</text><path d="M667.83,512.43V486.61h2.88V489a7.11,7.11,0,0,1,2.3-2.14,6.38,6.38,0,0,1,3.11-.71,7.37,7.37,0,0,1,4.22,1.23,7.55,7.55,0,0,1,2.76,3.47,12.67,12.67,0,0,1,.93,4.91,12.42,12.42,0,0,1-1,5.16,7.78,7.78,0,0,1-7.11,4.74,5.92,5.92,0,0,1-2.84-.67,6.47,6.47,0,0,1-2.06-1.69v9.09Zm2.86-16.38q0,3.6,1.46,5.33a4.49,4.49,0,0,0,3.53,1.72,4.57,4.57,0,0,0,3.61-1.79q1.51-1.79,1.51-5.52a8.27,8.27,0,0,0-1.47-5.35,4.43,4.43,0,0,0-3.51-1.77,4.54,4.54,0,0,0-3.57,1.89A8.43,8.43,0,0,0,670.69,496.05Z" transform="translate(-139.2 -328.2)"/><path d="M700.08,505.28v-2.74a6.82,6.82,0,0,1-5.92,3.16,7.62,7.62,0,0,1-3.09-.63,5.13,5.13,0,0,1-2.12-1.59,5.9,5.9,0,0,1-1-2.35,16,16,0,0,1-.19-2.95V486.61h3.16V497a18.36,18.36,0,0,0,.19,3.34,3.25,3.25,0,0,0,1.27,2,3.88,3.88,0,0,0,2.39.72,5.26,5.26,0,0,0,2.67-.73,4.11,4.11,0,0,0,1.77-2,10.09,10.09,0,0,0,.52-3.65v-10h3.16v18.67Z" transform="translate(-139.2 -328.2)"/><path d="M710.79,505.28h-2.94V479.51H711v9.19a6.29,6.29,0,0,1,5.12-2.51,7.85,7.85,0,0,1,3.26.69,6.75,6.75,0,0,1,2.53,1.95,9.58,9.58,0,0,1,1.56,3,12.58,12.58,0,0,1,.56,3.79q0,4.8-2.37,7.42a7.42,7.42,0,0,1-5.7,2.62,5.93,5.93,0,0,1-5.18-2.76Zm0-9.48a9.65,9.65,0,0,0,.92,4.85,4.51,4.51,0,0,0,7.62.65,8.17,8.17,0,0,0,1.52-5.37c0-2.44-.49-4.24-1.45-5.4a4.43,4.43,0,0,0-3.51-1.74,4.57,4.57,0,0,0-3.59,1.8A7.9,7.9,0,0,0,710.75,495.8Z" transform="translate(-139.2 -328.2)"/><path d="M727.82,505.28V479.51H731v25.77Z" transform="translate(-139.2 -328.2)"/><path d="M735.91,483.15v-3.64h3.16v3.64Zm0,22.13V486.61h3.16v18.67Z" transform="translate(-139.2 -328.2)"/><path d="M756.07,498.44l3.11.4a8.06,8.06,0,0,1-2.61,5,7.62,7.62,0,0,1-5.16,1.82,8,8,0,0,1-6.16-2.51q-2.32-2.51-2.33-7.18a13,13,0,0,1,1-5.29,7,7,0,0,1,3.05-3.4,9.12,9.12,0,0,1,4.46-1.13,7.72,7.72,0,0,1,5,1.54,7,7,0,0,1,2.48,4.36l-3.08.48a5.08,5.08,0,0,0-1.55-2.83,4.06,4.06,0,0,0-2.7-.95,4.9,4.9,0,0,0-3.88,1.71c-1,1.15-1.5,2.95-1.5,5.43s.48,4.33,1.44,5.46a4.69,4.69,0,0,0,3.76,1.71,4.46,4.46,0,0,0,3.12-1.14A5.76,5.76,0,0,0,756.07,498.44Z" transform="translate(-139.2 -328.2)"/><path d="M774.07,503a11.78,11.78,0,0,1-3.39,2.1,9.74,9.74,0,0,1-3.49.62,6.77,6.77,0,0,1-4.72-1.5,5,5,0,0,1-1.66-3.84,5.08,5.08,0,0,1,.63-2.51,5.21,5.21,0,0,1,1.63-1.82,7.78,7.78,0,0,1,2.28-1,23.17,23.17,0,0,1,2.81-.47,28.48,28.48,0,0,0,5.64-1.09c0-.43,0-.71,0-.83a3.48,3.48,0,0,0-.9-2.72,5.23,5.23,0,0,0-3.6-1.07,5.56,5.56,0,0,0-3.29.78,4.76,4.76,0,0,0-1.58,2.77l-3.09-.42a7.53,7.53,0,0,1,1.39-3.21,6,6,0,0,1,2.79-1.88,12.46,12.46,0,0,1,4.24-.66,11.3,11.3,0,0,1,3.88.56,5.15,5.15,0,0,1,2.2,1.42,4.8,4.8,0,0,1,1,2.15,17.25,17.25,0,0,1,.16,2.92v4.22a43.12,43.12,0,0,0,.21,5.58,7.14,7.14,0,0,0,.79,2.24h-3.3A6.65,6.65,0,0,1,774.07,503Zm-.27-7.07a22.63,22.63,0,0,1-5.16,1.19,11.6,11.6,0,0,0-2.76.64,2.71,2.71,0,0,0-1.69,2.53,2.71,2.71,0,0,0,1,2.11,4.13,4.13,0,0,0,2.8.84,6.55,6.55,0,0,0,3.25-.8,4.86,4.86,0,0,0,2.09-2.19,7.62,7.62,0,0,0,.51-3.16Z" transform="translate(-139.2 -328.2)"/><path d="M788.82,502.45l.45,2.79a11.57,11.57,0,0,1-2.39.28,5.43,5.43,0,0,1-2.67-.54,3.07,3.07,0,0,1-1.34-1.43,11.68,11.68,0,0,1-.38-3.74V489.07h-2.32v-2.46h2.32V482l3.14-1.9v6.52h3.19v2.46h-3.19V500a5.54,5.54,0,0,0,.17,1.74,1.29,1.29,0,0,0,.55.61,2.12,2.12,0,0,0,1.08.23A10.67,10.67,0,0,0,788.82,502.45Z" transform="translate(-139.2 -328.2)"/><path d="M791.93,483.15v-3.64h3.16v3.64Zm0,22.13V486.61h3.16v18.67Z" transform="translate(-139.2 -328.2)"/><path d="M798.73,495.94q0-5.18,2.88-7.68a8.7,8.7,0,0,1,5.87-2.07,8.39,8.39,0,0,1,6.3,2.52,9.6,9.6,0,0,1,2.44,7,12.38,12.38,0,0,1-1.08,5.67,7.62,7.62,0,0,1-3.15,3.21,9.16,9.16,0,0,1-4.51,1.14,8.4,8.4,0,0,1-6.33-2.51C799.54,501.51,798.73,499.1,798.73,495.94Zm3.25,0a7.92,7.92,0,0,0,1.57,5.37,5.2,5.2,0,0,0,7.85,0q1.58-1.8,1.57-5.47a7.71,7.71,0,0,0-1.58-5.25,5.22,5.22,0,0,0-7.84,0A7.89,7.89,0,0,0,802,495.94Z" transform="translate(-139.2 -328.2)"/><path d="M819.93,505.28V486.61h2.85v2.65a6.7,6.7,0,0,1,5.94-3.07,7.86,7.86,0,0,1,3.1.6,4.94,4.94,0,0,1,2.12,1.6,5.91,5.91,0,0,1,1,2.33,17.74,17.74,0,0,1,.18,3.08v11.48h-3.17V493.92a8.72,8.72,0,0,0-.36-2.89,3.09,3.09,0,0,0-1.31-1.53,4.2,4.2,0,0,0-2.21-.57,5.15,5.15,0,0,0-3.49,1.28q-1.47,1.29-1.47,4.87v10.2Z" transform="translate(-139.2 -328.2)"/><path d="M862.06,505.28v-2.36a5.8,5.8,0,0,1-5.22,2.78,7.31,7.31,0,0,1-4.1-1.23,8.05,8.05,0,0,1-2.9-3.44,11.8,11.8,0,0,1-1-5.07,13.31,13.31,0,0,1,.93-5.07,7.3,7.3,0,0,1,2.8-3.49,7.45,7.45,0,0,1,4.16-1.21,6.28,6.28,0,0,1,3,.71,6.21,6.21,0,0,1,2.14,1.85v-9.24H865v25.77Zm-10-9.32a8.14,8.14,0,0,0,1.51,5.36,4.55,4.55,0,0,0,3.57,1.78,4.5,4.5,0,0,0,3.53-1.7,7.84,7.84,0,0,0,1.45-5.17c0-2.56-.5-4.43-1.48-5.63a4.52,4.52,0,0,0-3.64-1.79,4.36,4.36,0,0,0-3.52,1.72Q852.06,492.26,852.06,496Z" transform="translate(-139.2 -328.2)"/><path d="M882.16,503a11.92,11.92,0,0,1-3.39,2.1,9.78,9.78,0,0,1-3.49.62,6.82,6.82,0,0,1-4.73-1.5,5,5,0,0,1-1.65-3.84,5.08,5.08,0,0,1,.63-2.51,5.21,5.21,0,0,1,1.63-1.82,7.66,7.66,0,0,1,2.28-1,23.17,23.17,0,0,1,2.81-.47,28.79,28.79,0,0,0,5.64-1.09c0-.43,0-.71,0-.83a3.48,3.48,0,0,0-.9-2.72,5.27,5.27,0,0,0-3.6-1.07,5.61,5.61,0,0,0-3.3.78,4.75,4.75,0,0,0-1.57,2.77l-3.09-.42a7.65,7.65,0,0,1,1.38-3.21,6.09,6.09,0,0,1,2.8-1.88,12.46,12.46,0,0,1,4.24-.66,11.34,11.34,0,0,1,3.88.56,5.15,5.15,0,0,1,2.2,1.42,4.8,4.8,0,0,1,1,2.15,17.25,17.25,0,0,1,.16,2.92v4.22a46,46,0,0,0,.2,5.58,7.16,7.16,0,0,0,.8,2.24h-3.3A6.65,6.65,0,0,1,882.16,503Zm-.27-7.07a22.75,22.75,0,0,1-5.17,1.19,11.73,11.73,0,0,0-2.76.64,2.72,2.72,0,0,0-1.68,2.53,2.73,2.73,0,0,0,1,2.11,4.16,4.16,0,0,0,2.81.84,6.55,6.55,0,0,0,3.25-.8,4.86,4.86,0,0,0,2.09-2.19,7.62,7.62,0,0,0,.51-3.16Z" transform="translate(-139.2 -328.2)"/><path d="M890,505.28V486.61h2.84v2.65a6.7,6.7,0,0,1,5.94-3.07,7.91,7.91,0,0,1,3.11.6,4.85,4.85,0,0,1,2.11,1.6,6.07,6.07,0,0,1,1,2.33,17.74,17.74,0,0,1,.18,3.08v11.48H902V493.92a8.41,8.41,0,0,0-.37-2.89,3,3,0,0,0-1.31-1.53,4.14,4.14,0,0,0-2.2-.57,5.15,5.15,0,0,0-3.49,1.28q-1.47,1.29-1.47,4.87v10.2Z" transform="translate(-139.2 -328.2)"/><path d="M908.75,499.71l3.13-.5a4.37,4.37,0,0,0,1.47,2.89,5.14,5.14,0,0,0,3.36,1,5,5,0,0,0,3.24-.89,2.66,2.66,0,0,0,1-2.08,1.92,1.92,0,0,0-.93-1.69,13.56,13.56,0,0,0-3.23-1.07,31,31,0,0,1-4.83-1.52,4.79,4.79,0,0,1-2.16-6.59,5.1,5.1,0,0,1,1.56-1.77,6.51,6.51,0,0,1,2-.92,9.29,9.29,0,0,1,2.73-.38,10.85,10.85,0,0,1,3.86.63,5.23,5.23,0,0,1,2.45,1.71,6.74,6.74,0,0,1,1.09,2.9l-3.09.42a3.4,3.4,0,0,0-1.22-2.25,4.49,4.49,0,0,0-2.86-.81,5.18,5.18,0,0,0-3.11.72,2.1,2.1,0,0,0-.93,1.69,1.8,1.8,0,0,0,.38,1.11,2.81,2.81,0,0,0,1.22.84q.46.18,2.79.81a38,38,0,0,1,4.69,1.47,4.72,4.72,0,0,1,2.08,1.66,4.64,4.64,0,0,1,.75,2.7,5.26,5.26,0,0,1-.92,3,6,6,0,0,1-2.66,2.17,9.85,9.85,0,0,1-3.94.76,8.75,8.75,0,0,1-5.54-1.51A7,7,0,0,1,908.75,499.71Z" transform="translate(-139.2 -328.2)"/><path d="M950.25,505.28v-2.74a6.81,6.81,0,0,1-5.92,3.16,7.62,7.62,0,0,1-3.09-.63,5.13,5.13,0,0,1-2.12-1.59,5.9,5.9,0,0,1-1-2.35,16,16,0,0,1-.19-2.95V486.61h3.16V497a18.06,18.06,0,0,0,.2,3.34,3.23,3.23,0,0,0,1.26,2A3.9,3.9,0,0,0,945,503a5.26,5.26,0,0,0,2.67-.73,4.06,4.06,0,0,0,1.77-2,9.87,9.87,0,0,0,.52-3.65v-10h3.16v18.67Z" transform="translate(-139.2 -328.2)"/><path d="M958,505.28V486.61h2.85v2.65a6.7,6.7,0,0,1,5.94-3.07,7.86,7.86,0,0,1,3.1.6,4.88,4.88,0,0,1,2.12,1.6,5.91,5.91,0,0,1,1,2.33,17.74,17.74,0,0,1,.18,3.08v11.48h-3.16V493.92a8.67,8.67,0,0,0-.37-2.89,3.09,3.09,0,0,0-1.31-1.53,4.2,4.2,0,0,0-2.21-.57,5.15,5.15,0,0,0-3.49,1.28q-1.47,1.29-1.47,4.87v10.2Z" transform="translate(-139.2 -328.2)"/><path d="M990.84,499.27l3.27.4a8,8,0,0,1-2.86,4.45,8.67,8.67,0,0,1-5.35,1.58,8.53,8.53,0,0,1-6.49-2.52,9.86,9.86,0,0,1-2.4-7.08q0-4.71,2.42-7.31a8.24,8.24,0,0,1,6.3-2.6,8,8,0,0,1,6.11,2.55,10.14,10.14,0,0,1,2.38,7.17c0,.19,0,.47,0,.84H980.28a7.1,7.1,0,0,0,1.74,4.71,5.17,5.17,0,0,0,3.9,1.64,4.84,4.84,0,0,0,3-.92A6.07,6.07,0,0,0,990.84,499.27Zm-10.39-5.12h10.43a6.27,6.27,0,0,0-1.2-3.53,4.84,4.84,0,0,0-3.92-1.83,5,5,0,0,0-3.66,1.46A5.79,5.79,0,0,0,980.45,494.15Z" transform="translate(-139.2 -328.2)"/><path d="M692.84,548.48V529.81h2.85v2.83a7.61,7.61,0,0,1,2-2.62,3.51,3.51,0,0,1,2-.63,6.15,6.15,0,0,1,3.25,1l-1.09,2.93a4.59,4.59,0,0,0-2.32-.68,3,3,0,0,0-1.86.62,3.41,3.41,0,0,0-1.18,1.73,12.44,12.44,0,0,0-.53,3.7v9.77Z" transform="translate(-139.2 -328.2)"/><path d="M717.64,542.47l3.27.4a8,8,0,0,1-2.86,4.45,8.67,8.67,0,0,1-5.35,1.58,8.53,8.53,0,0,1-6.49-2.52,9.86,9.86,0,0,1-2.4-7.08q0-4.71,2.42-7.31a8.24,8.24,0,0,1,6.3-2.6,8,8,0,0,1,6.11,2.55q2.39,2.55,2.38,7.17c0,.19,0,.47,0,.84H707.08a7.1,7.1,0,0,0,1.74,4.71,5.17,5.17,0,0,0,3.9,1.64,4.84,4.84,0,0,0,3-.92A6,6,0,0,0,717.64,542.47Zm-10.39-5.12h10.43a6.27,6.27,0,0,0-1.2-3.53,4.84,4.84,0,0,0-3.92-1.83,5,5,0,0,0-3.66,1.46A5.79,5.79,0,0,0,707.25,537.35Z" transform="translate(-139.2 -328.2)"/><path d="M730.07,548.48,723,529.81h3.34l4,11.18c.43,1.21.83,2.46,1.19,3.76.28-1,.67-2.17,1.18-3.55l4.15-11.39h3.25L733,548.48Z" transform="translate(-139.2 -328.2)"/><path d="M755.12,548.48v-2.74a6.83,6.83,0,0,1-5.93,3.16,7.54,7.54,0,0,1-3.08-.63,5.08,5.08,0,0,1-2.13-1.59,5.89,5.89,0,0,1-1-2.35,15.84,15.84,0,0,1-.2-3V529.81H746v10.35a18.36,18.36,0,0,0,.19,3.34,3.25,3.25,0,0,0,1.27,2,3.88,3.88,0,0,0,2.39.72,5.26,5.26,0,0,0,2.67-.73,4.11,4.11,0,0,0,1.77-2,10.12,10.12,0,0,0,.51-3.65v-10H758v18.67Z" transform="translate(-139.2 -328.2)"/><path d="M775.68,542.47l3.27.4a8,8,0,0,1-2.86,4.45,8.66,8.66,0,0,1-5.34,1.58,8.54,8.54,0,0,1-6.5-2.52,9.86,9.86,0,0,1-2.4-7.08q0-4.71,2.43-7.31a8.21,8.21,0,0,1,6.29-2.6,8,8,0,0,1,6.12,2.55q2.37,2.55,2.37,7.17c0,.19,0,.47,0,.84H765.12a7.2,7.2,0,0,0,1.74,4.71,5.17,5.17,0,0,0,3.9,1.64,4.84,4.84,0,0,0,3-.92A6,6,0,0,0,775.68,542.47Zm-10.38-5.12h10.42a6.27,6.27,0,0,0-1.2-3.53A4.83,4.83,0,0,0,770.6,532a5,5,0,0,0-3.66,1.46A5.73,5.73,0,0,0,765.3,537.35Z" transform="translate(-139.2 -328.2)"/><path d="M791.66,542.91l3.13-.5a4.41,4.41,0,0,0,1.47,2.89,5.15,5.15,0,0,0,3.37,1,4.94,4.94,0,0,0,3.23-.89,2.66,2.66,0,0,0,1.06-2.08,1.93,1.93,0,0,0-.94-1.69,13.56,13.56,0,0,0-3.23-1.07,29.94,29.94,0,0,1-4.83-1.52,4.6,4.6,0,0,1-2.73-4.28,4.82,4.82,0,0,1,.57-2.31,5.1,5.1,0,0,1,1.56-1.77,6.51,6.51,0,0,1,2-.92,9.29,9.29,0,0,1,2.73-.38,10.85,10.85,0,0,1,3.86.63,5.12,5.12,0,0,1,2.45,1.72,6.65,6.65,0,0,1,1.09,2.89l-3.09.42a3.4,3.4,0,0,0-1.22-2.25,4.49,4.49,0,0,0-2.86-.81,5.18,5.18,0,0,0-3.11.72,2.1,2.1,0,0,0-.93,1.69,1.75,1.75,0,0,0,.39,1.11,2.71,2.71,0,0,0,1.21.84q.48.18,2.79.81a39.81,39.81,0,0,1,4.69,1.47,4.72,4.72,0,0,1,2.08,1.66,4.57,4.57,0,0,1,.76,2.7,5.27,5.27,0,0,1-.93,3,5.89,5.89,0,0,1-2.66,2.17,9.68,9.68,0,0,1-3.94.76,8.75,8.75,0,0,1-5.54-1.51A7,7,0,0,1,791.66,542.91Z" transform="translate(-139.2 -328.2)"/><path d="M823.11,541.64l3.11.4a8.06,8.06,0,0,1-2.61,5,7.62,7.62,0,0,1-5.16,1.82,8,8,0,0,1-6.16-2.5q-2.32-2.5-2.33-7.19a13.17,13.17,0,0,1,1-5.29,7,7,0,0,1,3-3.4,9.12,9.12,0,0,1,4.46-1.13,7.69,7.69,0,0,1,5,1.54,7,7,0,0,1,2.48,4.36l-3.07.48a5.12,5.12,0,0,0-1.56-2.83,4,4,0,0,0-2.7-1,4.9,4.9,0,0,0-3.88,1.71c-1,1.15-1.5,2.95-1.5,5.43s.48,4.33,1.45,5.46a4.68,4.68,0,0,0,3.76,1.71,4.44,4.44,0,0,0,3.11-1.14A5.71,5.71,0,0,0,823.11,541.64Z" transform="translate(-139.2 -328.2)"/><path d="M829,526.35v-3.64h3.16v3.64Zm0,22.13V529.81h3.16v18.67Z" transform="translate(-139.2 -328.2)"/><path d="M849.71,542.47l3.27.4a8.06,8.06,0,0,1-2.87,4.45,9.72,9.72,0,0,1-11.84-.94,9.86,9.86,0,0,1-2.4-7.08q0-4.71,2.43-7.31a8.22,8.22,0,0,1,6.29-2.6,8,8,0,0,1,6.12,2.55q2.37,2.55,2.37,7.17c0,.19,0,.47,0,.84H839.14a7.2,7.2,0,0,0,1.74,4.71,5.19,5.19,0,0,0,3.9,1.64,4.84,4.84,0,0,0,3-.92A6,6,0,0,0,849.71,542.47Zm-10.39-5.12h10.42a6.34,6.34,0,0,0-1.19-3.53,4.86,4.86,0,0,0-3.92-1.83,5,5,0,0,0-3.67,1.46A5.73,5.73,0,0,0,839.32,537.35Z" transform="translate(-139.2 -328.2)"/><path d="M857,548.48V529.81h2.85v2.65a6.7,6.7,0,0,1,5.94-3.07,7.69,7.69,0,0,1,3.1.61,4.85,4.85,0,0,1,2.12,1.59,6.06,6.06,0,0,1,1,2.33,17.82,17.82,0,0,1,.18,3.08v11.48H869V537.12a8.41,8.41,0,0,0-.37-2.89,3,3,0,0,0-1.3-1.53,4.2,4.2,0,0,0-2.21-.57,5.15,5.15,0,0,0-3.49,1.28q-1.47,1.29-1.47,4.87v10.2Z" transform="translate(-139.2 -328.2)"/><path d="M883.88,545.65l.45,2.79a11.49,11.49,0,0,1-2.39.28,5.49,5.49,0,0,1-2.67-.54,3,3,0,0,1-1.33-1.43,11.26,11.26,0,0,1-.39-3.74V532.27h-2.32v-2.46h2.32v-4.62l3.15-1.9v6.52h3.18v2.46H880.7v10.92a5.65,5.65,0,0,0,.16,1.74,1.3,1.3,0,0,0,.55.61,2,2,0,0,0,1.08.23A10.67,10.67,0,0,0,883.88,545.65Z" transform="translate(-139.2 -328.2)"/><path d="M887,526.35v-3.64h3.16v3.64Zm0,22.13V529.81h3.16v18.67Z" transform="translate(-139.2 -328.2)"/><path d="M895.73,548.48V532.27h-2.8v-2.46h2.8v-2a8.78,8.78,0,0,1,.33-2.79,4,4,0,0,1,1.61-2,5.79,5.79,0,0,1,3.22-.76,15.68,15.68,0,0,1,3,.32l-.48,2.76a10.34,10.34,0,0,0-1.86-.18,2.78,2.78,0,0,0-2,.62,3.31,3.31,0,0,0-.6,2.3v1.72h3.64v2.46h-3.64v16.21Z" transform="translate(-139.2 -328.2)"/><path d="M905,526.35v-3.64h3.16v3.64Zm0,22.13V529.81h3.16v18.67Z" transform="translate(-139.2 -328.2)"/><path d="M924.87,555.63v-9.14a5.56,5.56,0,0,1-2.07,1.72,6,6,0,0,1-2.82.69,7.46,7.46,0,0,1-5.72-2.65,10.46,10.46,0,0,1-2.4-7.28,12.5,12.5,0,0,1,1-5.05,7.3,7.3,0,0,1,2.83-3.38,7.52,7.52,0,0,1,4.07-1.15,6.25,6.25,0,0,1,5.45,2.92v-2.5H928v25.82Zm-9.76-16.54a8.25,8.25,0,0,0,1.52,5.41,4.57,4.57,0,0,0,3.62,1.8,4.44,4.44,0,0,0,3.48-1.72,7.88,7.88,0,0,0,1.46-5.21,8.72,8.72,0,0,0-1.54-5.6,4.56,4.56,0,0,0-3.61-1.89,4.37,4.37,0,0,0-3.49,1.75Q915.11,535.39,915.11,539.09Z" transform="translate(-139.2 -328.2)"/><path d="M945.23,548.48v-2.74a6.84,6.84,0,0,1-5.93,3.16,7.54,7.54,0,0,1-3.08-.63,5,5,0,0,1-2.13-1.59,6,6,0,0,1-1-2.35,17,17,0,0,1-.19-3V529.81h3.16v10.35a18.06,18.06,0,0,0,.2,3.34,3.28,3.28,0,0,0,1.26,2,3.92,3.92,0,0,0,2.39.72,5.32,5.32,0,0,0,2.68-.73,4,4,0,0,0,1.76-2,9.87,9.87,0,0,0,.52-3.65v-10h3.17v18.67Z" transform="translate(-139.2 -328.2)"/><path d="M965.79,542.47l3.27.4a8,8,0,0,1-2.86,4.45,8.67,8.67,0,0,1-5.35,1.58,8.53,8.53,0,0,1-6.49-2.52,9.86,9.86,0,0,1-2.4-7.08q0-4.71,2.42-7.31a8.24,8.24,0,0,1,6.3-2.6,8,8,0,0,1,6.11,2.55q2.38,2.55,2.38,7.17c0,.19,0,.47,0,.84H955.23a7.1,7.1,0,0,0,1.74,4.71,5.17,5.17,0,0,0,3.9,1.64,4.84,4.84,0,0,0,3-.92A6,6,0,0,0,965.79,542.47Zm-10.39-5.12h10.43a6.27,6.27,0,0,0-1.2-3.53,4.84,4.84,0,0,0-3.92-1.83,5,5,0,0,0-3.66,1.46A5.79,5.79,0,0,0,955.4,537.35Z" transform="translate(-139.2 -328.2)"/><text class="cls-1" transform="translate(298.53 198.68)">article</text><text class="cls-1" transform="translate(286.67 30.89)">experts</text><line class="cls-2" x1="182.28" y1="188.87" x2="265.64" y2="188.87"/><path d="M416.91,517.07c-5.68,2.1-12.72,5.7-17.09,9.51l3.44-9.51-3.44-9.51C404.19,511.36,411.23,515,416.91,517.07Z" transform="translate(-139.2 -328.2)"/><line class="cls-2" x1="346.41" y1="52.89" x2="346.41" y2="133.56"/><path d="M485.61,473.83c-2.11-5.68-5.7-12.73-9.51-17.1l9.51,3.44,9.51-3.44C491.31,461.1,487.71,468.15,485.61,473.83Z" transform="translate(-139.2 -328.2)"/><line class="cls-2" x1="411.5" y1="188.87" x2="494.86" y2="188.87"/><path d="M646.13,517.07c-5.68,2.1-12.73,5.7-17.09,9.51l3.44-9.51L629,507.56C633.4,511.36,640.45,515,646.13,517.07Z" transform="translate(-139.2 -328.2)"/><text class="cls-3" transform="translate(372.58 97.85)">vérifient</text></svg>