<svg id="Calque_1" data-name="Calque 1" xmlns="http://www.w3.org/2000/svg" viewBox="0 0 791.9 227.86"><defs><style>.cls-1{font-size:36px;}.cls-1,.cls-3{font-family:ArialMT, Arial;}.cls-2{fill:none;stroke:#000;stroke-miterlimit:10;stroke-width:2px;}.cls-3{font-size:24px;}</style></defs><title>organigramme_recherche_en</title><text class="cls-1" transform="translate(0 198.68)">researcher</text><path d="M681.87,512.43V486.61h2.88V489a7.11,7.11,0,0,1,2.3-2.14,6.42,6.42,0,0,1,3.12-.71,7.34,7.34,0,0,1,4.21,1.23,7.55,7.55,0,0,1,2.76,3.47,13.37,13.37,0,0,1-.09,10.07,7.8,7.8,0,0,1-3,3.52,7.71,7.71,0,0,1-4.12,1.22,5.9,5.9,0,0,1-2.84-.67,6.4,6.4,0,0,1-2.07-1.69v9.09Zm2.86-16.38q0,3.6,1.46,5.33a4.51,4.51,0,0,0,3.54,1.72,4.58,4.58,0,0,0,3.61-1.79q1.5-1.79,1.5-5.52a8.27,8.27,0,0,0-1.47-5.35,4.4,4.4,0,0,0-3.5-1.77,4.56,4.56,0,0,0-3.58,1.89A8.43,8.43,0,0,0,684.73,496.05Z" transform="translate(-133.21 -328.2)"/><path d="M714.13,505.28v-2.74a6.84,6.84,0,0,1-5.93,3.16,7.54,7.54,0,0,1-3.08-.63,5.1,5.1,0,0,1-2.13-1.59,6,6,0,0,1-1-2.35,16,16,0,0,1-.19-2.95V486.61H705V497a18.06,18.06,0,0,0,.2,3.34,3.28,3.28,0,0,0,1.26,2,3.9,3.9,0,0,0,2.39.72,5.32,5.32,0,0,0,2.68-.73,4,4,0,0,0,1.76-2,9.87,9.87,0,0,0,.52-3.65v-10H717v18.67Z" transform="translate(-133.21 -328.2)"/><path d="M724.83,505.28h-2.94V479.51h3.17v9.19a6.26,6.26,0,0,1,5.11-2.51,7.85,7.85,0,0,1,3.26.69,6.86,6.86,0,0,1,2.54,1.95,9.36,9.36,0,0,1,1.55,3,12.28,12.28,0,0,1,.56,3.79q0,4.8-2.37,7.42A7.4,7.4,0,0,1,730,505.7a5.94,5.94,0,0,1-5.19-2.76Zm0-9.48a9.65,9.65,0,0,0,.92,4.85,4.52,4.52,0,0,0,7.63.65,8.17,8.17,0,0,0,1.51-5.37q0-3.66-1.45-5.4a4.43,4.43,0,0,0-3.51-1.74,4.53,4.53,0,0,0-3.58,1.8A7.9,7.9,0,0,0,724.79,495.8Z" transform="translate(-133.21 -328.2)"/><path d="M741.86,505.28V479.51H745v25.77Z" transform="translate(-133.21 -328.2)"/><path d="M750,483.15v-3.64h3.16v3.64Zm0,22.13V486.61h3.16v18.67Z" transform="translate(-133.21 -328.2)"/><path d="M770.11,498.44l3.11.4a8.06,8.06,0,0,1-2.61,5,7.62,7.62,0,0,1-5.16,1.82,8,8,0,0,1-6.16-2.51Q757,500.68,757,496a13.14,13.14,0,0,1,1-5.29,7,7,0,0,1,3-3.4,9.15,9.15,0,0,1,4.46-1.13,7.73,7.73,0,0,1,5,1.54,7.05,7.05,0,0,1,2.47,4.36l-3.07.48a5.09,5.09,0,0,0-1.56-2.83,4,4,0,0,0-2.7-.95,4.92,4.92,0,0,0-3.88,1.71c-1,1.15-1.5,2.95-1.5,5.43s.49,4.33,1.45,5.46a4.68,4.68,0,0,0,3.76,1.71,4.44,4.44,0,0,0,3.11-1.14A5.71,5.71,0,0,0,770.11,498.44Z" transform="translate(-133.21 -328.2)"/><path d="M788.11,503a11.88,11.88,0,0,1-3.38,2.1,9.82,9.82,0,0,1-3.49.62,6.8,6.8,0,0,1-4.73-1.5,5,5,0,0,1-1.65-3.84,5.18,5.18,0,0,1,2.26-4.33,7.72,7.72,0,0,1,2.27-1,23.05,23.05,0,0,1,2.82-.47,28.79,28.79,0,0,0,5.64-1.09c0-.43,0-.71,0-.83a3.48,3.48,0,0,0-.9-2.72,5.27,5.27,0,0,0-3.6-1.07,5.61,5.61,0,0,0-3.3.78,4.75,4.75,0,0,0-1.57,2.77l-3.1-.42a7.66,7.66,0,0,1,1.39-3.21,6.09,6.09,0,0,1,2.8-1.88,12.4,12.4,0,0,1,4.23-.66,11.36,11.36,0,0,1,3.89.56,5.11,5.11,0,0,1,2.19,1.42,4.92,4.92,0,0,1,1,2.15,18.42,18.42,0,0,1,.16,2.92v4.22a43.87,43.87,0,0,0,.2,5.58,6.92,6.92,0,0,0,.8,2.24h-3.31A7.12,7.12,0,0,1,788.11,503Zm-.26-7.07a22.75,22.75,0,0,1-5.17,1.19,11.73,11.73,0,0,0-2.76.64,2.66,2.66,0,0,0-1.25,1,2.79,2.79,0,0,0,.52,3.61,4.13,4.13,0,0,0,2.8.84,6.59,6.59,0,0,0,3.26-.8,4.91,4.91,0,0,0,2.09-2.19,7.62,7.62,0,0,0,.51-3.16Z" transform="translate(-133.21 -328.2)"/><path d="M802.86,502.45l.46,2.79a11.57,11.57,0,0,1-2.39.28,5.5,5.5,0,0,1-2.68-.54,3.05,3.05,0,0,1-1.33-1.43,11.3,11.3,0,0,1-.39-3.74V489.07h-2.32v-2.46h2.32V482l3.15-1.9v6.52h3.18v2.46h-3.18V500a5.65,5.65,0,0,0,.16,1.74,1.41,1.41,0,0,0,.55.61,2.12,2.12,0,0,0,1.08.23A10.53,10.53,0,0,0,802.86,502.45Z" transform="translate(-133.21 -328.2)"/><path d="M806,483.15v-3.64h3.16v3.64Zm0,22.13V486.61h3.16v18.67Z" transform="translate(-133.21 -328.2)"/><path d="M812.77,495.94q0-5.18,2.89-7.68a8.68,8.68,0,0,1,5.87-2.07,8.38,8.38,0,0,1,6.29,2.52,9.6,9.6,0,0,1,2.44,7,12.38,12.38,0,0,1-1.08,5.67,7.65,7.65,0,0,1-3.14,3.21,9.19,9.19,0,0,1-4.51,1.14,8.4,8.4,0,0,1-6.34-2.51C813.58,501.51,812.77,499.1,812.77,495.94Zm3.26,0a8,8,0,0,0,1.56,5.37,5.21,5.21,0,0,0,7.86,0q1.56-1.8,1.56-5.47a7.71,7.71,0,0,0-1.57-5.25,5.23,5.23,0,0,0-7.85,0A7.94,7.94,0,0,0,816,495.94Z" transform="translate(-133.21 -328.2)"/><path d="M834,505.28V486.61h2.85v2.65a6.7,6.7,0,0,1,5.94-3.07,7.83,7.83,0,0,1,3.1.6,4.88,4.88,0,0,1,2.12,1.6,6.07,6.07,0,0,1,1,2.33,19.16,19.16,0,0,1,.17,3.08v11.48H846V493.92a8.41,8.41,0,0,0-.37-2.89,3,3,0,0,0-1.31-1.53,4.18,4.18,0,0,0-2.21-.57,5.17,5.17,0,0,0-3.49,1.28q-1.46,1.29-1.46,4.87v10.2Z" transform="translate(-133.21 -328.2)"/><path d="M864,483.15v-3.64h3.17v3.64Zm0,22.13V486.61h3.17v18.67Z" transform="translate(-133.21 -328.2)"/><path d="M872,505.28V486.61h2.85v2.65a6.7,6.7,0,0,1,5.94-3.07,7.91,7.91,0,0,1,3.11.6,4.85,4.85,0,0,1,2.11,1.6,6.07,6.07,0,0,1,1,2.33,18,18,0,0,1,.17,3.08v11.48H884V493.92a8.41,8.41,0,0,0-.37-2.89,3,3,0,0,0-1.31-1.53,4.17,4.17,0,0,0-2.2-.57,5.13,5.13,0,0,0-3.49,1.28q-1.47,1.29-1.47,4.87v10.2Z" transform="translate(-133.21 -328.2)"/><path d="M914.2,503a11.88,11.88,0,0,1-3.38,2.1,9.82,9.82,0,0,1-3.49.62,6.8,6.8,0,0,1-4.73-1.5,5,5,0,0,1-1.65-3.84,5.08,5.08,0,0,1,.62-2.51A5.31,5.31,0,0,1,903.2,496a7.9,7.9,0,0,1,2.28-1,23.17,23.17,0,0,1,2.81-.47,28.77,28.77,0,0,0,5.65-1.09c0-.43,0-.71,0-.83a3.51,3.51,0,0,0-.89-2.72,5.28,5.28,0,0,0-3.61-1.07,5.58,5.58,0,0,0-3.29.78,4.76,4.76,0,0,0-1.58,2.77l-3.09-.42a7.53,7.53,0,0,1,1.39-3.21,6.05,6.05,0,0,1,2.79-1.88,12.46,12.46,0,0,1,4.24-.66,11.3,11.3,0,0,1,3.88.56,5.15,5.15,0,0,1,2.2,1.42,4.92,4.92,0,0,1,1,2.15,18.78,18.78,0,0,1,.15,2.92v4.22a43.12,43.12,0,0,0,.21,5.58,6.92,6.92,0,0,0,.8,2.24h-3.31A6.65,6.65,0,0,1,914.2,503Zm-.26-7.07a22.88,22.88,0,0,1-5.17,1.19,11.73,11.73,0,0,0-2.76.64,2.66,2.66,0,0,0-1.25,1,2.79,2.79,0,0,0,.52,3.61,4.13,4.13,0,0,0,2.8.84,6.55,6.55,0,0,0,3.25-.8,4.93,4.93,0,0,0,2.1-2.19,7.62,7.62,0,0,0,.51-3.16Z" transform="translate(-133.21 -328.2)"/><path d="M672.63,542.91l3.13-.5a4.41,4.41,0,0,0,1.47,2.89,5.14,5.14,0,0,0,3.36,1,5,5,0,0,0,3.24-.89,2.65,2.65,0,0,0,1-2.08,1.92,1.92,0,0,0-.93-1.69,13.56,13.56,0,0,0-3.23-1.07,29.94,29.94,0,0,1-4.83-1.52,4.6,4.6,0,0,1-2.73-4.28,4.82,4.82,0,0,1,.57-2.31,5.1,5.1,0,0,1,1.56-1.77,6.51,6.51,0,0,1,2-.92,9.29,9.29,0,0,1,2.73-.38,10.85,10.85,0,0,1,3.86.63,5.12,5.12,0,0,1,2.45,1.72,6.65,6.65,0,0,1,1.09,2.89l-3.09.42a3.4,3.4,0,0,0-1.22-2.25,4.49,4.49,0,0,0-2.86-.81,5.18,5.18,0,0,0-3.11.72,2.1,2.1,0,0,0-.93,1.69,1.8,1.8,0,0,0,.38,1.11,2.81,2.81,0,0,0,1.22.84c.31.12,1.25.39,2.79.81a39.81,39.81,0,0,1,4.69,1.47,4.72,4.72,0,0,1,2.08,1.66,4.65,4.65,0,0,1,.76,2.7,5.27,5.27,0,0,1-.93,3,5.89,5.89,0,0,1-2.66,2.17,9.68,9.68,0,0,1-3.94.76,8.75,8.75,0,0,1-5.54-1.51A7,7,0,0,1,672.63,542.91Z" transform="translate(-133.21 -328.2)"/><path d="M704.08,541.64l3.11.4a8.06,8.06,0,0,1-2.61,5,7.62,7.62,0,0,1-5.16,1.82,8,8,0,0,1-6.16-2.5q-2.32-2.5-2.33-7.19a13,13,0,0,1,1-5.29,7,7,0,0,1,3.05-3.4,9.12,9.12,0,0,1,4.46-1.13,7.7,7.7,0,0,1,5,1.54,7,7,0,0,1,2.48,4.36l-3.07.48a5.18,5.18,0,0,0-1.56-2.83,4,4,0,0,0-2.7-1,4.9,4.9,0,0,0-3.88,1.71c-1,1.15-1.5,2.95-1.5,5.43s.48,4.33,1.44,5.46a4.7,4.7,0,0,0,3.77,1.71,4.44,4.44,0,0,0,3.11-1.14A5.71,5.71,0,0,0,704.08,541.64Z" transform="translate(-133.21 -328.2)"/><path d="M709.92,526.35v-3.64h3.16v3.64Zm0,22.13V529.81h3.16v18.67Z" transform="translate(-133.21 -328.2)"/><path d="M730.67,542.47l3.27.4a8,8,0,0,1-2.86,4.45,8.66,8.66,0,0,1-5.34,1.58,8.54,8.54,0,0,1-6.5-2.52,9.86,9.86,0,0,1-2.4-7.08q0-4.71,2.43-7.31a8.21,8.21,0,0,1,6.29-2.6,8,8,0,0,1,6.12,2.55q2.37,2.55,2.37,7.17c0,.19,0,.47,0,.84H720.11a7.2,7.2,0,0,0,1.74,4.71,5.17,5.17,0,0,0,3.9,1.64,4.84,4.84,0,0,0,3-.92A6,6,0,0,0,730.67,542.47Zm-10.38-5.12h10.42a6.27,6.27,0,0,0-1.2-3.53,4.83,4.83,0,0,0-3.92-1.83,5,5,0,0,0-3.66,1.46A5.73,5.73,0,0,0,720.29,537.35Z" transform="translate(-133.21 -328.2)"/><path d="M737.92,548.48V529.81h2.84v2.65a6.73,6.73,0,0,1,6-3.07,7.69,7.69,0,0,1,3.1.61,4.85,4.85,0,0,1,2.12,1.59,6.06,6.06,0,0,1,1,2.33,17.82,17.82,0,0,1,.18,3.08v11.48h-3.17V537.12a8.41,8.41,0,0,0-.37-2.89,3,3,0,0,0-1.31-1.53,4.14,4.14,0,0,0-2.2-.57,5.15,5.15,0,0,0-3.49,1.28q-1.47,1.29-1.47,4.87v10.2Z" transform="translate(-133.21 -328.2)"/><path d="M764.85,545.65l.45,2.79a11.49,11.49,0,0,1-2.39.28,5.43,5.43,0,0,1-2.67-.54,3,3,0,0,1-1.33-1.43,11.26,11.26,0,0,1-.39-3.74V532.27H756.2v-2.46h2.32v-4.62l3.15-1.9v6.52h3.18v2.46h-3.18v10.92a5.65,5.65,0,0,0,.16,1.74,1.3,1.3,0,0,0,.55.61,2,2,0,0,0,1.08.23A10.67,10.67,0,0,0,764.85,545.65Z" transform="translate(-133.21 -328.2)"/><path d="M768,526.35v-3.64h3.16v3.64Zm0,22.13V529.81h3.16v18.67Z" transform="translate(-133.21 -328.2)"/><path d="M776.69,548.48V532.27H773.9v-2.46h2.79v-2A8.73,8.73,0,0,1,777,525a4,4,0,0,1,1.61-2,5.77,5.77,0,0,1,3.22-.76,15.68,15.68,0,0,1,3,.32l-.48,2.76a10.42,10.42,0,0,0-1.86-.18,2.78,2.78,0,0,0-2,.62,3.31,3.31,0,0,0-.6,2.3v1.72h3.64v2.46h-3.64v16.21Z" transform="translate(-133.21 -328.2)"/><path d="M786,526.35v-3.64h3.16v3.64Zm0,22.13V529.81h3.16v18.67Z" transform="translate(-133.21 -328.2)"/><path d="M806.12,541.64l3.11.4a8.06,8.06,0,0,1-2.61,5,7.62,7.62,0,0,1-5.16,1.82,8,8,0,0,1-6.16-2.5q-2.32-2.5-2.33-7.19a13.17,13.17,0,0,1,1-5.29,7,7,0,0,1,3-3.4,9.12,9.12,0,0,1,4.46-1.13,7.69,7.69,0,0,1,5,1.54,7,7,0,0,1,2.48,4.36l-3.07.48a5.18,5.18,0,0,0-1.56-2.83,4,4,0,0,0-2.7-1,4.9,4.9,0,0,0-3.88,1.71c-1,1.15-1.5,2.95-1.5,5.43s.48,4.33,1.45,5.46a4.68,4.68,0,0,0,3.76,1.71,4.44,4.44,0,0,0,3.11-1.14A5.71,5.71,0,0,0,806.12,541.64Z" transform="translate(-133.21 -328.2)"/><path d="M817.92,555.72l.59-2.69a6.14,6.14,0,0,0,1.5.25,1.7,1.7,0,0,0,1.44-.64,6.67,6.67,0,0,0,.47-3.21V529.81h3.17V549.5q0,3.43-.9,4.8a4.19,4.19,0,0,1-3.8,1.75A9.2,9.2,0,0,1,817.92,555.72Zm4-29.34v-3.67h3.17v3.67Z" transform="translate(-133.21 -328.2)"/><path d="M828.76,539.14q0-5.17,2.88-7.68a8.72,8.72,0,0,1,5.87-2.07,8.39,8.39,0,0,1,6.3,2.52,9.6,9.6,0,0,1,2.44,7,12.38,12.38,0,0,1-1.08,5.67,7.62,7.62,0,0,1-3.15,3.21,9.16,9.16,0,0,1-4.51,1.14,8.4,8.4,0,0,1-6.33-2.51C829.57,544.71,828.76,542.3,828.76,539.14Zm3.25,0q0,3.6,1.57,5.37a5.2,5.2,0,0,0,7.85,0Q843,542.71,843,539a7.77,7.77,0,0,0-1.57-5.25,5.23,5.23,0,0,0-7.85,0A7.89,7.89,0,0,0,832,539.14Z" transform="translate(-133.21 -328.2)"/><path d="M862.19,548.48v-2.74a6.81,6.81,0,0,1-5.92,3.16,7.54,7.54,0,0,1-3.08-.63,5,5,0,0,1-2.13-1.59,6,6,0,0,1-1-2.35,16,16,0,0,1-.19-3V529.81h3.16v10.35a18.06,18.06,0,0,0,.2,3.34,3.28,3.28,0,0,0,1.26,2,3.9,3.9,0,0,0,2.39.72,5.32,5.32,0,0,0,2.68-.73,4,4,0,0,0,1.76-2,9.87,9.87,0,0,0,.52-3.65v-10H865v18.67Z" transform="translate(-133.21 -328.2)"/><path d="M870,548.48V529.81h2.84v2.83a7.74,7.74,0,0,1,2-2.62,3.51,3.51,0,0,1,2-.63,6.18,6.18,0,0,1,3.25,1L879,533.34a4.59,4.59,0,0,0-2.32-.68,3,3,0,0,0-1.86.62,3.35,3.35,0,0,0-1.18,1.73,12.44,12.44,0,0,0-.53,3.7v9.77Z" transform="translate(-133.21 -328.2)"/><path d="M882,548.48V529.81h2.85v2.65a6.7,6.7,0,0,1,5.94-3.07,7.69,7.69,0,0,1,3.1.61,4.85,4.85,0,0,1,2.12,1.59,5.91,5.91,0,0,1,1,2.33,17.82,17.82,0,0,1,.18,3.08v11.48H894V537.12a8.67,8.67,0,0,0-.37-2.89,3.09,3.09,0,0,0-1.31-1.53,4.2,4.2,0,0,0-2.21-.57,5.15,5.15,0,0,0-3.49,1.28q-1.47,1.29-1.47,4.87v10.2Z" transform="translate(-133.21 -328.2)"/><path d="M914.17,546.18a11.93,11.93,0,0,1-3.38,2.11,9.78,9.78,0,0,1-3.49.61,6.8,6.8,0,0,1-4.73-1.5,5,5,0,0,1-1.65-3.84,5.18,5.18,0,0,1,2.26-4.33,7.7,7.7,0,0,1,2.27-1,21.2,21.2,0,0,1,2.82-.48,28.79,28.79,0,0,0,5.64-1.09c0-.43,0-.71,0-.83a3.49,3.49,0,0,0-.9-2.72,5.32,5.32,0,0,0-3.6-1.07,5.61,5.61,0,0,0-3.3.78,4.75,4.75,0,0,0-1.57,2.77l-3.1-.42a7.79,7.79,0,0,1,1.39-3.21,6.09,6.09,0,0,1,2.8-1.88,12.44,12.44,0,0,1,4.23-.66,11.36,11.36,0,0,1,3.89.56,5.21,5.21,0,0,1,2.2,1.42,5,5,0,0,1,1,2.15,17.25,17.25,0,0,1,.16,2.92v4.22a46,46,0,0,0,.2,5.58,7.16,7.16,0,0,0,.8,2.24h-3.3A6.88,6.88,0,0,1,914.17,546.18Zm-.26-7.07a22.75,22.75,0,0,1-5.17,1.19,11.73,11.73,0,0,0-2.76.64,2.76,2.76,0,0,0-.73,4.64,4.16,4.16,0,0,0,2.81.84,6.47,6.47,0,0,0,3.25-.8,4.91,4.91,0,0,0,2.09-2.19,7.62,7.62,0,0,0,.51-3.16Z" transform="translate(-133.21 -328.2)"/><path d="M921.94,548.48V522.71h3.17v25.77Z" transform="translate(-133.21 -328.2)"/><text class="cls-1" transform="translate(304.52 198.68)">article</text><text class="cls-1" transform="translate(292.67 30.89)">experts</text><line class="cls-2" x1="188.27" y1="188.87" x2="271.64" y2="188.87"/><path d="M416.91,517.07c-5.68,2.1-12.72,5.7-17.09,9.51l3.44-9.51-3.44-9.51C404.19,511.36,411.23,515,416.91,517.07Z" transform="translate(-133.21 -328.2)"/><line class="cls-2" x1="352.4" y1="52.89" x2="352.4" y2="133.56"/><path d="M485.61,473.83c-2.11-5.68-5.7-12.73-9.51-17.1l9.51,3.44,9.51-3.44C491.31,461.1,487.71,468.15,485.61,473.83Z" transform="translate(-133.21 -328.2)"/><line class="cls-2" x1="417.49" y1="188.87" x2="500.85" y2="188.87"/><path d="M646.13,517.07c-5.68,2.1-12.73,5.7-17.09,9.51l3.44-9.51L629,507.56C633.4,511.36,640.45,515,646.13,517.07Z" transform="translate(-133.21 -328.2)"/><text class="cls-3" transform="translate(376.24 97.85)">check</text></svg>