<svg id="Calque_1" data-name="Calque 1" xmlns="http://www.w3.org/2000/svg" viewBox="0 0 1161.03 359.44"><defs><style>.cls-1,.cls-2{fill:none;stroke:#000;stroke-miterlimit:10;}.cls-1{stroke-width:2px;}.cls-2{stroke-width:4px;}.cls-3{font-size:38.7px;font-family:ArialMT, Arial;}</style></defs><title>programme_carre</title><line class="cls-1" y1="83.46" x2="151.16" y2="83.46"/><rect class="cls-1" x="232.16" y="5.9" width="150.25" height="154.2"/><line class="cls-1" x1="301.74" y1="166.21" x2="312.83" y2="155.12"/><line class="cls-1" x1="226.82" y1="88.54" x2="237.91" y2="77.45"/><line class="cls-1" x1="376.66" y1="88.54" x2="387.75" y2="77.45"/><line class="cls-1" x1="301.74" y1="11.8" x2="312.83" y2="0.71"/><rect class="cls-1" x="232.16" y="5.9" width="23.17" height="23.17"/><rect class="cls-1" x="359.24" y="5.9" width="23.17" height="23.17"/><rect class="cls-1" x="359.24" y="136.93" width="23.17" height="23.17"/><rect class="cls-1" x="232.16" y="136.93" width="23.17" height="23.17"/><line class="cls-2" x1="4.22" y1="275.87" x2="1106.07" y2="275.87"/><polygon points="1100.24 295.82 1134.78 275.87 1100.24 255.93 1100.24 295.82"/><text class="cls-3" transform="translate(692.15 346.87)">taille du programme mental</text><text class="cls-3" transform="translate(27.18 225.16)">droite</text><text class="cls-3" transform="translate(263.21 225.16)">carré</text><polyline class="cls-1" points="958.52 165.02 958.52 114.15 986.05 114.15 986.05 164.72"/><polygon class="cls-1" points="1013.51 131.62 1035.24 131.62 1054.01 131.62 1054.01 90.44 1013.97 90.44 1013.51 131.62"/><line class="cls-1" x1="1033.64" y1="90.66" x2="1033.64" y2="131.85"/><line class="cls-1" x1="1013.81" y1="110.04" x2="1053.85" y2="110.04"/><polygon class="cls-1" points="1001.38 16.99 1074.37 75.56 1074.37 165.02 958.52 165.02 930.68 165.02 930.68 75.79 1001.38 16.99"/><polyline class="cls-1" points="1074.11 82.66 1097.71 82.66 1000.92 1.89 907.11 82.66 930.45 82.66 930.93 82.66"/><polyline class="cls-1" points="966.83 30.49 966.83 14.93 948.3 14.93 948.3 46.96"/><text class="cls-3" transform="translate(940.04 225.16)">maison</text><text class="cls-3" transform="translate(739.52 93.78)">etc.</text><line class="cls-1" x1="536.22" y1="166.14" x2="547.31" y2="155.05"/><line class="cls-1" x1="609.9" y1="89.14" x2="620.99" y2="78.05"/><path class="cls-1" d="M604.07,125.69" transform="translate(-84.08 -119.19)"/><path class="cls-1" d="M546.62,279.89" transform="translate(-84.08 -119.19)"/><polyline class="cls-1" points="615.74 6.49 615.74 160.69 462.55 160.69"/><path class="cls-1" d="M699.81,125.69" transform="translate(-84.08 -119.19)"/><path class="cls-1" d="M604.07,125.69" transform="translate(-84.08 -119.19)"/><rect class="cls-1" x="592.57" y="137.52" width="23.17" height="23.17"/><rect class="cls-1" x="592.57" y="6.49" width="23.17" height="23.17"/><rect class="cls-1" x="462.55" y="137.52" width="23.17" height="23.17"/><polyline class="cls-1" points="462.55 160.69 462.55 87.29 543.51 6.32 615.74 6.49"/><line class="cls-1" x1="457" y1="120.23" x2="468.09" y2="109.14"/><line class="cls-1" x1="457" y1="130.11" x2="468.09" y2="119.02"/><line class="cls-1" x1="569.22" y1="11.86" x2="580.31" y2="0.77"/><line class="cls-1" x1="578.31" y1="11.86" x2="589.4" y2="0.77"/><text class="cls-3" transform="translate(439.58 225.16)">quadrilatère</text></svg>