<svg id="Calque_1" data-name="Calque 1" xmlns="http://www.w3.org/2000/svg" viewBox="0 0 806.52 569.41"><defs><style>.cls-1,.cls-3,.cls-6,.cls-7,.cls-9{fill:none;}.cls-1,.cls-2,.cls-3,.cls-6,.cls-7,.cls-9{stroke:#000;}.cls-1,.cls-2,.cls-3,.cls-9{stroke-miterlimit:10;}.cls-1,.cls-6,.cls-7{stroke-width:3px;}.cls-3,.cls-9{stroke-width:2px;}.cls-4{font-size:24px;}.cls-4,.cls-5{font-family:ArialMT, Arial;}.cls-5{font-size:28px;}.cls-6,.cls-7{stroke-linecap:round;stroke-linejoin:round;}.cls-7{opacity:0.51;}.cls-8{letter-spacing:-0.06em;}.cls-9{stroke-dasharray:8.08 10.1;}</style></defs><title>progres_ia</title><line class="cls-1" x1="50.53" y1="26.58" x2="50.53" y2="499.65"/><polygon points="41.81 32.52 50.53 0 59.25 32.52 41.81 32.52"/><line class="cls-1" x1="49.13" y1="499.19" x2="772.98" y2="499.19"/><polygon class="cls-2" points="773.44 509.05 773.44 499.41 773.44 489.78 789.13 494.6 804.81 499.41 789.13 504.23 773.44 509.05"/><line class="cls-3" x1="123.03" y1="475.44" x2="123.03" y2="499.19"/><line class="cls-3" x1="538.65" y1="475.44" x2="538.65" y2="499.19"/><line class="cls-3" x1="401.63" y1="475.44" x2="401.63" y2="499.19"/><line class="cls-3" x1="262.73" y1="475.44" x2="262.73" y2="499.19"/><line class="cls-3" x1="713.84" y1="486.66" x2="713.84" y2="498.53"/><text class="cls-4" transform="translate(92.32 529.79)">1940</text><text class="cls-4" transform="translate(232.76 529.79)">1960</text><text class="cls-4" transform="translate(373.21 529.79)">1980</text><text class="cls-4" transform="translate(513.66 529.79)">2000</text><text class="cls-4" transform="translate(687.11 529.79)">2025</text><text class="cls-5" transform="translate(706.62 560.32)">Années</text><text class="cls-5" transform="translate(24.03 282.12) rotate(-90)">Puissance de calcul</text><path class="cls-6" d="M243,844H660c10.42,0,31.28,0,41.7,0s13.9,0,20.86-.15,13.9-.1,20.85-.59,13.9-.39,20.85-2.36,13.9-1.59,20.85-9.47c4.75-5.38,16.11-16.3,20.85-37.82,7-31.52,16.22-92.47,20.86-151.32s4.63-134.51,6.95-201.76" transform="translate(-119.93 -347.49)"/><line class="cls-7" x1="50.53" y1="93.01" x2="772.98" y2="93.01"/><text class="cls-5" transform="translate(262.73 132.71)">Intelligence humaine</text><text class="cls-5" transform="translate(666.26 300.22)">I<tspan class="cls-8" x="7.78" y="0">A</tspan></text><line class="cls-3" x1="713.84" y1="486.66" x2="713.84" y2="482.66"/><line class="cls-9" x1="713.84" y1="472.56" x2="713.84" y2="113.99"/><line class="cls-3" x1="713.84" y1="108.94" x2="713.84" y2="104.94"/></svg>