<svg id="Calque_1" data-name="Calque 1" xmlns="http://www.w3.org/2000/svg" viewBox="0 0 1207.46 165.48"><defs><style>.cls-1{font-size:36px;font-family:ArialMT, Arial;}.cls-2{fill:none;stroke:#000;stroke-miterlimit:10;stroke-width:2px;}</style></defs><title>realite_xp_conscience_en</title><text class="cls-1" transform="translate(0 153.79)">reality</text><text class="cls-1" transform="translate(971.33 153.58)">consciousness</text><text class="cls-1" transform="translate(643.2 153.58)">experience</text><text class="cls-1" transform="translate(334.14 30.89)">symbol</text><path class="cls-2" d="M88.74,476.6c0-48.82,108.66-88.58,245.3-90.8" transform="translate(-42.1 -366.28)"/><path d="M346.11,385.7c-5.64,2.21-12.63,5.93-16.93,9.82l3.27-9.57-3.6-9.45C333.28,380.23,340.39,383.7,346.11,385.7Z" transform="translate(-42.1 -366.28)"/><path class="cls-2" d="M765.53,466.22c-16.38-43.49-121.53-77-249-77" transform="translate(-42.1 -366.28)"/><path d="M767.74,478.09c.93-6,3-13.62,5.9-18.66L765,464.71l-10-1.47C759.61,466.76,764.54,472.94,767.74,478.09Z" transform="translate(-42.1 -366.28)"/><line class="cls-2" x1="120.95" y1="143.57" x2="604.27" y2="143.57"/><path d="M658.43,509.85c-5.67,2.11-12.72,5.7-17.09,9.51l3.44-9.51-3.44-9.51C645.71,504.15,652.76,507.74,658.43,509.85Z" transform="translate(-42.1 -366.28)"/><line class="cls-2" x1="843.92" y1="143.98" x2="936.79" y2="143.98"/><path d="M991,510.26c-5.68,2.11-12.73,5.7-17.1,9.51l3.44-9.51-3.44-9.51C978.23,504.56,985.28,508.16,991,510.26Z" transform="translate(-42.1 -366.28)"/></svg>